<?xml version="1.0" encoding="UTF-8" standalone="no"?>
<!-- Created with Inkscape (http://www.inkscape.org/) -->

<svg
   version="1.1"
   id="svg2"
   xml:space="preserve"
   width="1000"
   height="666.66669"
   viewBox="0 0 1000 666.66669"
   sodipodi:docname="resume7.svg"
   inkscape:version="1.1.1 (3bf5ae0d25, 2021-09-20)"
   xmlns:inkscape="http://www.inkscape.org/namespaces/inkscape"
   xmlns:sodipodi="http://sodipodi.sourceforge.net/DTD/sodipodi-0.dtd"
   xmlns="http://www.w3.org/2000/svg"
   xmlns:svg="http://www.w3.org/2000/svg"><defs
     id="defs6"><clipPath
       clipPathUnits="userSpaceOnUse"
       id="clipPath18"><path
         d="M 0,500 H 750 V 0 H 0 Z"
         id="path16" /></clipPath><clipPath
       clipPathUnits="userSpaceOnUse"
       id="clipPath378"><path
         d="m 536.899,268.645 h 2.398 v -5.265 h -2.398 z"
         id="path376" /></clipPath><clipPath
       clipPathUnits="userSpaceOnUse"
       id="clipPath710"><path
         d="m 547.875,412.496 h 45.98 v -45.981 h -45.98 z"
         id="path708" /></clipPath><clipPath
       clipPathUnits="userSpaceOnUse"
       id="clipPath738"><path
         d="m 548.048,412.323 h 45.634 v -45.635 h -45.634 z"
         id="path736" /></clipPath></defs><sodipodi:namedview
     id="namedview4"
     pagecolor="#ffffff"
     bordercolor="#666666"
     borderopacity="1.0"
     inkscape:pageshadow="2"
     inkscape:pageopacity="0.0"
     inkscape:pagecheckerboard="0"
     showgrid="false"
     inkscape:zoom="0.94199997"
     inkscape:cx="500.00002"
     inkscape:cy="332.80256"
     inkscape:window-width="1440"
     inkscape:window-height="839"
     inkscape:window-x="1440"
     inkscape:window-y="0"
     inkscape:window-maximized="1"
     inkscape:current-layer="g8" /><g
     id="g8"
     inkscape:groupmode="layer"
     inkscape:label="4428859"
     transform="matrix(1.3333333,0,0,-1.3333333,0,666.66667)"><path
       d="M 0,0 H 750 V 500 H 0 Z"
       style="fill:#7e89fd;fill-opacity:1;fill-rule:nonzero;stroke:none"
       id="path10" /><g
       id="g12"><g
         id="g14"
         clip-path="url(#clipPath18)"><g
           id="g20"
           transform="translate(228.2413,312.2546)"><path
             d="m 0,0 c -15.961,0 -28.882,12.947 -28.882,28.908 0,15.937 12.921,28.884 28.882,28.884 15.961,0 28.883,-12.947 28.883,-28.884 C 28.883,12.947 15.961,0 0,0 Z m 41.641,23.775 v 10.249 c 0,1.003 -0.813,1.816 -1.815,1.816 h -2.638 c -0.773,0 -1.456,0.525 -1.629,1.278 -0.913,3.98 -2.468,7.715 -4.566,11.081 -0.418,0.672 -0.339,1.538 0.221,2.097 l 1.855,1.856 c 0.709,0.709 0.709,1.858 0,2.567 l -7.247,7.247 c -0.709,0.709 -1.859,0.709 -2.568,0 l -1.853,-1.852 c -0.559,-0.56 -1.426,-0.639 -2.098,-0.22 -3.365,2.099 -7.101,3.656 -11.083,4.57 -0.753,0.173 -1.278,0.857 -1.278,1.629 v 2.63 c 0,1.003 -0.812,1.815 -1.815,1.815 h -10.25 c -1.002,0 -1.815,-0.812 -1.815,-1.815 v -2.63 c 0,-0.772 -0.525,-1.456 -1.278,-1.628 -3.982,-0.914 -7.719,-2.471 -11.085,-4.57 -0.672,-0.419 -1.539,-0.34 -2.098,0.22 l -1.851,1.851 c -0.709,0.709 -1.859,0.709 -2.568,0 l -7.247,-7.247 c -0.709,-0.709 -0.709,-1.858 0,-2.567 l 1.853,-1.853 c 0.56,-0.56 0.639,-1.426 0.221,-2.098 -2.098,-3.367 -3.653,-7.103 -4.567,-11.083 -0.173,-0.753 -0.856,-1.278 -1.628,-1.278 h -2.636 c -1.002,0 -1.815,-0.813 -1.815,-1.816 V 23.775 c 0,-1.003 0.813,-1.816 1.815,-1.816 h 2.637 c 0.772,0 1.455,-0.524 1.628,-1.277 0.915,-3.981 2.471,-7.716 4.568,-11.081 0.419,-0.672 0.34,-1.538 -0.22,-2.098 l -1.856,-1.855 c -0.709,-0.709 -0.709,-1.859 0,-2.568 l 7.247,-7.247 c 0.709,-0.709 1.859,-0.709 2.568,0 l 1.857,1.857 c 0.559,0.56 1.426,0.639 2.097,0.221 3.365,-2.096 7.1,-3.649 11.08,-4.563 0.753,-0.173 1.278,-0.856 1.278,-1.628 v -2.644 c 0,-1.003 0.813,-1.815 1.815,-1.815 h 10.25 c 1.003,0 1.815,0.812 1.815,1.815 v 2.644 c 0,0.773 0.525,1.456 1.278,1.629 3.98,0.913 7.714,2.467 11.079,4.563 0.671,0.418 1.537,0.339 2.097,-0.221 l 1.858,-1.858 c 0.709,-0.709 1.859,-0.709 2.568,0 l 7.247,7.247 c 0.709,0.709 0.709,1.859 -0.001,2.568 l -1.856,1.856 c -0.56,0.56 -0.64,1.426 -0.221,2.098 2.097,3.365 3.653,7.099 4.567,11.08 0.172,0.753 0.856,1.277 1.628,1.277 h 2.64 c 1.002,0 1.815,0.813 1.815,1.816 z"
             style="fill:none;stroke:#dee3fc;stroke-width:0.79;stroke-linecap:butt;stroke-linejoin:miter;stroke-miterlimit:10;stroke-dasharray:none;stroke-opacity:1"
             id="path22" /></g><g
           id="g24"
           transform="translate(288.646,286.2413)"><path
             d="m 0,0 c -10.263,0 -18.572,8.325 -18.572,18.589 0,10.248 8.309,18.573 18.572,18.573 10.264,0 18.573,-8.325 18.573,-18.573 C 18.573,8.325 10.264,0 0,0 m 28.378,15.091 v 6.985 c 0,0.684 -0.554,1.237 -1.237,1.237 h -1.798 c -0.526,0 -0.992,0.358 -1.11,0.871 -0.622,2.713 -1.682,5.258 -3.111,7.552 -0.286,0.458 -0.232,1.048 0.15,1.429 l 1.264,1.265 c 0.483,0.483 0.483,1.266 0,1.749 l -4.939,4.939 c -0.483,0.484 -1.266,0.484 -1.749,0 l -1.263,-1.262 c -0.382,-0.382 -0.972,-0.436 -1.43,-0.15 -2.294,1.43 -4.84,2.491 -7.553,3.115 -0.513,0.118 -0.871,0.583 -0.871,1.11 v 1.792 c 0,0.683 -0.554,1.237 -1.237,1.237 h -6.985 c -0.683,0 -1.237,-0.554 -1.237,-1.237 v -1.792 c 0,-0.527 -0.358,-0.992 -0.871,-1.11 -2.714,-0.623 -5.261,-1.684 -7.555,-3.114 -0.458,-0.286 -1.048,-0.232 -1.429,0.15 l -1.262,1.261 c -0.483,0.483 -1.266,0.483 -1.75,0 l -4.938,-4.939 c -0.483,-0.483 -0.483,-1.266 0,-1.749 l 1.263,-1.263 c 0.381,-0.381 0.435,-0.972 0.15,-1.43 -1.43,-2.294 -2.49,-4.84 -3.112,-7.553 -0.118,-0.513 -0.584,-0.871 -1.11,-0.871 h -1.796 c -0.683,0 -1.237,-0.553 -1.237,-1.237 v -6.985 c 0,-0.683 0.554,-1.237 1.237,-1.237 h 1.797 c 0.526,0 0.991,-0.358 1.109,-0.87 0.624,-2.714 1.684,-5.259 3.113,-7.552 0.286,-0.458 0.232,-1.048 -0.15,-1.43 l -1.264,-1.264 c -0.483,-0.483 -0.483,-1.267 0,-1.75 l 4.938,-4.939 c 0.484,-0.483 1.267,-0.483 1.75,0 l 1.266,1.266 c 0.381,0.381 0.971,0.435 1.429,0.15 2.293,-1.428 4.838,-2.487 7.551,-3.109 0.513,-0.118 0.871,-0.584 0.871,-1.11 v -1.802 c 0,-0.683 0.554,-1.237 1.237,-1.237 h 6.985 c 0.683,0 1.237,0.554 1.237,1.237 v 1.802 c 0,0.527 0.358,0.992 0.871,1.11 2.712,0.622 5.257,1.682 7.55,3.11 0.458,0.285 1.048,0.231 1.429,-0.151 l 1.267,-1.266 c 0.483,-0.483 1.266,-0.483 1.749,0 l 4.939,4.939 c 0.483,0.483 0.483,1.267 0,1.75 L 21.27,4.003 c -0.381,0.381 -0.435,0.972 -0.15,1.43 1.429,2.293 2.489,4.838 3.112,7.55 0.118,0.513 0.584,0.871 1.11,0.871 h 1.799 c 0.683,0 1.237,0.554 1.237,1.237"
             style="fill:#dee3fc;fill-opacity:1;fill-rule:nonzero;stroke:none"
             id="path26" /></g><g
           id="g28"
           transform="translate(188.8764,119.7705)"><path
             d="m 0,0 c 0,-1.87 -1.516,-3.386 -3.386,-3.386 -1.87,0 -3.386,1.516 -3.386,3.386 0,1.87 1.516,3.386 3.386,3.386 C -1.516,3.386 0,1.87 0,0"
             style="fill:#a4afff;fill-opacity:1;fill-rule:nonzero;stroke:none"
             id="path30" /></g><g
           id="g32"
           transform="translate(642.5076,212.2924)"><path
             d="m 0,0 c 0,-1.87 -1.516,-3.386 -3.386,-3.386 -1.87,0 -3.386,1.516 -3.386,3.386 0,1.87 1.516,3.386 3.386,3.386 C -1.516,3.386 0,1.87 0,0"
             style="fill:#a4afff;fill-opacity:1;fill-rule:nonzero;stroke:none"
             id="path34" /></g><g
           id="g36"
           transform="translate(635.7356,333.2014)"><path
             d="m 0,0 c 0,-1.87 -1.516,-3.386 -3.386,-3.386 -1.87,0 -3.386,1.516 -3.386,3.386 0,1.87 1.516,3.386 3.386,3.386 C -1.516,3.386 0,1.87 0,0"
             style="fill:#a4afff;fill-opacity:1;fill-rule:nonzero;stroke:none"
             id="path38" /></g><g
           id="g40"
           transform="translate(512.7297,374.2967)"><path
             d="m 0,0 c 0,-1.173 -0.951,-2.124 -2.124,-2.124 -1.173,0 -2.124,0.951 -2.124,2.124 0,1.173 0.951,2.124 2.124,2.124 C -0.951,2.124 0,1.173 0,0"
             style="fill:#a4afff;fill-opacity:1;fill-rule:nonzero;stroke:none"
             id="path42" /></g><g
           id="g44"
           transform="translate(198.7457,402.59)"><path
             d="m 0,0 c 0,-1.173 -0.951,-2.124 -2.124,-2.124 -1.173,0 -2.124,0.951 -2.124,2.124 0,1.173 0.951,2.124 2.124,2.124 C -0.951,2.124 0,1.173 0,0"
             style="fill:#a4afff;fill-opacity:1;fill-rule:nonzero;stroke:none"
             id="path46" /></g><g
           id="g48"
           transform="translate(245.7563,271.794)"><path
             d="m 0,0 c 0,-1.173 -0.951,-2.124 -2.124,-2.124 -1.173,0 -2.124,0.951 -2.124,2.124 0,1.173 0.951,2.124 2.124,2.124 C -0.951,2.124 0,1.173 0,0"
             style="fill:#a4afff;fill-opacity:1;fill-rule:nonzero;stroke:none"
             id="path50" /></g><g
           id="g52"
           transform="translate(167.8349,116.3845)"><path
             d="m 0,0 c 0,-1.173 -0.951,-2.124 -2.124,-2.124 -1.173,0 -2.124,0.951 -2.124,2.124 0,1.173 0.951,2.124 2.124,2.124 C -0.951,2.124 0,1.173 0,0"
             style="fill:#a4afff;fill-opacity:1;fill-rule:nonzero;stroke:none"
             id="path54" /></g><g
           id="g56"
           transform="translate(592.8367,117.7702)"><path
             d="m 0,0 c 0,-1.87 -1.516,-3.386 -3.386,-3.386 -1.87,0 -3.386,1.516 -3.386,3.386 0,1.87 1.516,3.386 3.386,3.386 C -1.516,3.386 0,1.87 0,0"
             style="fill:#a4afff;fill-opacity:1;fill-rule:nonzero;stroke:none"
             id="path58" /></g><g
           id="g60"
           transform="translate(664.8367,117.7702)"><path
             d="m 0,0 c 0,-1.87 -1.516,-3.386 -3.386,-3.386 -1.87,0 -3.386,1.516 -3.386,3.386 0,1.87 1.516,3.386 3.386,3.386 C -1.516,3.386 0,1.87 0,0"
             style="fill:#a4afff;fill-opacity:1;fill-rule:nonzero;stroke:none"
             id="path62" /></g><g
           id="g64"
           transform="translate(260.5102,411.8226)"><path
             d="m 0,0 c 0,-1.87 -1.516,-3.386 -3.386,-3.386 -1.87,0 -3.386,1.516 -3.386,3.386 0,1.87 1.516,3.386 3.386,3.386 C -1.516,3.386 0,1.87 0,0"
             style="fill:#a4afff;fill-opacity:1;fill-rule:nonzero;stroke:none"
             id="path66" /></g><g
           id="g68"
           transform="translate(490.75,257.7643)"><path
             d="m 0,0 c 0,-2.502 -2.028,-4.531 -4.531,-4.531 -2.502,0 -4.53,2.029 -4.53,4.531 0,2.502 2.028,4.531 4.53,4.531 C -2.028,4.531 0,2.502 0,0"
             style="fill:#a4afff;fill-opacity:1;fill-rule:nonzero;stroke:none"
             id="path70" /></g><g
           id="g72"
           transform="translate(156.5833,313.7897)"><path
             d="m 0,0 c 0,-2.502 -2.028,-4.531 -4.531,-4.531 -2.502,0 -4.53,2.029 -4.53,4.531 0,2.502 2.028,4.531 4.53,4.531 C -2.028,4.531 0,2.502 0,0"
             style="fill:#a4afff;fill-opacity:1;fill-rule:nonzero;stroke:none"
             id="path74" /></g><g
           id="g76"
           transform="translate(143.8354,381.4198)"><path
             d="m 0,0 h -5.698 c -0.366,0 -0.664,0.297 -0.664,0.664 v 5.698 c 0,0.366 0.298,0.664 0.664,0.664 H 0 c 0.367,0 0.664,-0.298 0.664,-0.664 V 0.664 C 0.664,0.297 0.367,0 0,0"
             style="fill:#ffffff;fill-opacity:1;fill-rule:nonzero;stroke:none"
             id="path78" /></g><g
           id="g80"
           transform="translate(153.2333,381.4198)"><path
             d="m 0,0 h -5.698 c -0.366,0 -0.664,0.297 -0.664,0.664 v 5.698 c 0,0.366 0.298,0.664 0.664,0.664 H 0 c 0.367,0 0.664,-0.298 0.664,-0.664 V 0.664 C 0.664,0.297 0.367,0 0,0"
             style="fill:#ffffff;fill-opacity:1;fill-rule:nonzero;stroke:none"
             id="path82" /></g><g
           id="g84"
           transform="translate(162.6312,381.4198)"><path
             d="m 0,0 h -5.698 c -0.366,0 -0.664,0.297 -0.664,0.664 v 5.698 c 0,0.366 0.298,0.664 0.664,0.664 H 0 c 0.367,0 0.664,-0.298 0.664,-0.664 V 0.664 C 0.664,0.297 0.367,0 0,0"
             style="fill:#ffffff;fill-opacity:1;fill-rule:nonzero;stroke:none"
             id="path86" /></g><g
           id="g88"
           transform="translate(622.4144,134.687)"><path
             d="m 0,0 h -5.698 c -0.366,0 -0.664,0.297 -0.664,0.664 v 5.698 c 0,0.366 0.298,0.664 0.664,0.664 H 0 c 0.367,0 0.664,-0.298 0.664,-0.664 V 0.664 C 0.664,0.297 0.367,0 0,0"
             style="fill:#dee3fc;fill-opacity:1;fill-rule:nonzero;stroke:none"
             id="path90" /></g><g
           id="g92"
           transform="translate(631.8123,134.687)"><path
             d="m 0,0 h -5.698 c -0.366,0 -0.664,0.297 -0.664,0.664 v 5.698 c 0,0.366 0.298,0.664 0.664,0.664 H 0 c 0.367,0 0.664,-0.298 0.664,-0.664 V 0.664 C 0.664,0.297 0.367,0 0,0"
             style="fill:#dee3fc;fill-opacity:1;fill-rule:nonzero;stroke:none"
             id="path94" /></g><g
           id="g96"
           transform="translate(641.2102,134.687)"><path
             d="m 0,0 h -5.697 c -0.367,0 -0.665,0.297 -0.665,0.664 v 5.698 c 0,0.366 0.298,0.664 0.665,0.664 H 0 c 0.367,0 0.664,-0.298 0.664,-0.664 V 0.664 C 0.664,0.297 0.367,0 0,0"
             style="fill:#dee3fc;fill-opacity:1;fill-rule:nonzero;stroke:none"
             id="path98" /></g><g
           id="g100"
           transform="translate(187.9486,138.5373)"><path
             d="m 0,0 h -5.698 c -0.366,0 -0.664,0.297 -0.664,0.664 v 5.697 c 0,0.367 0.298,0.665 0.664,0.665 H 0 c 0.367,0 0.664,-0.298 0.664,-0.665 V 0.664 C 0.664,0.297 0.367,0 0,0"
             style="fill:#dee3fc;fill-opacity:1;fill-rule:nonzero;stroke:none"
             id="path102" /></g><g
           id="g104"
           transform="translate(197.3465,138.5373)"><path
             d="m 0,0 h -5.698 c -0.366,0 -0.664,0.297 -0.664,0.664 v 5.697 c 0,0.367 0.298,0.665 0.664,0.665 H 0 c 0.367,0 0.664,-0.298 0.664,-0.665 V 0.664 C 0.664,0.297 0.367,0 0,0"
             style="fill:#dee3fc;fill-opacity:1;fill-rule:nonzero;stroke:none"
             id="path106" /></g><g
           id="g108"
           transform="translate(206.7444,138.5373)"><path
             d="m 0,0 h -5.698 c -0.366,0 -0.664,0.297 -0.664,0.664 v 5.697 c 0,0.367 0.298,0.665 0.664,0.665 H 0 c 0.367,0 0.664,-0.298 0.664,-0.665 V 0.664 C 0.664,0.297 0.367,0 0,0"
             style="fill:#dee3fc;fill-opacity:1;fill-rule:nonzero;stroke:none"
             id="path110" /></g><g
           id="g112"
           transform="translate(442.6509,78.1509)"><path
             d="m 0,0 h -135.302 c -11.791,0 -21.349,9.558 -21.349,21.349 v 301.162 c 0,11.79 9.558,21.349 21.349,21.349 L 0,343.86 c 11.791,0 21.349,-9.559 21.349,-21.349 V 21.349 C 21.349,9.558 11.791,0 0,0"
             style="fill:#3945ba;fill-opacity:1;fill-rule:nonzero;stroke:none"
             id="path114" /></g><g
           id="g116"
           transform="translate(441.9673,83.0379)"><path
             d="m 0,0 h -133.935 c -10.327,0 -18.699,8.372 -18.699,18.7 v 298.562 c 0,10.328 8.372,18.7 18.699,18.7 H 0 c 10.328,0 18.7,-8.372 18.7,-18.7 V 18.7 C 18.7,8.372 10.328,0 0,0"
             style="fill:#ffffff;fill-opacity:1;fill-rule:nonzero;stroke:none"
             id="path118" /></g><g
           id="g120"
           transform="translate(453.1669,400.8863)"><path
             d="m 0,0 v -298.215 c 0,-6.994 -5.67,-12.664 -12.664,-12.664 H -143.67 c -6.994,0 -12.664,5.67 -12.664,12.664 V 0 c 0,6.994 5.67,12.664 12.664,12.664 h 21.846 c 1.213,0 2.321,-0.684 2.864,-1.768 l 2.32,-4.631 c 1.057,-2.137 3.239,-3.476 5.612,-3.476 h 65.722 c 2.373,0 4.555,1.339 5.612,3.476 l 2.32,4.631 c 0.543,1.084 1.651,1.768 2.864,1.768 h 21.846 C -5.67,12.664 0,6.994 0,0"
             style="fill:#dee3fc;fill-opacity:1;fill-rule:nonzero;stroke:none"
             id="path122" /></g><g
           id="g124"
           transform="translate(402.5814,409.0929)"><path
             d="m 0,0 h -52.934 c -1.231,0 -2.229,0.998 -2.229,2.229 0,1.231 0.998,2.229 2.229,2.229 H 0 C 1.231,4.458 2.229,3.46 2.229,2.229 2.229,0.998 1.231,0 0,0"
             style="fill:#dee3fc;fill-opacity:1;fill-rule:nonzero;stroke:none"
             id="path126" /></g><g
           id="g128"
           transform="translate(432.3708,100.3577)"><path
             d="m 0,0 h -117.792 c -4.627,0 -8.379,3.751 -8.379,8.379 v 41.592 c 0,4.628 3.752,8.38 8.379,8.38 H 0 c 4.628,0 8.379,-3.752 8.379,-8.38 V 8.379 C 8.379,3.751 4.628,0 0,0 Z"
             style="fill:none;stroke:#698bd1;stroke-width:1;stroke-linecap:round;stroke-linejoin:round;stroke-miterlimit:10;stroke-dasharray:2.837;stroke-dashoffset:0;stroke-opacity:1"
             id="path130" /></g><g
           id="g132"
           transform="translate(426.4008,243.5438)"><path
             d="m 0,0 h -58.433 c -3.338,0 -6.044,2.706 -6.044,6.044 v 28.88 c 0,3.338 2.706,6.044 6.044,6.044 H 0 c 3.338,0 6.044,-2.706 6.044,-6.044 V 6.044 C 6.044,2.706 3.338,0 0,0 Z"
             style="fill:none;stroke:#698bd1;stroke-width:1;stroke-linecap:round;stroke-linejoin:round;stroke-miterlimit:10;stroke-dasharray:2.837;stroke-dashoffset:0;stroke-opacity:1"
             id="path134" /></g><g
           id="g136"
           transform="translate(438.9813,168.414)"><path
             d="m 0,0 h -120.682 c -3.977,0 -7.201,3.224 -7.201,7.201 v 50.901 c 0,3.977 3.224,7.201 7.201,7.201 H 0 c 3.977,0 7.201,-3.224 7.201,-7.201 V 7.201 C 7.201,3.224 3.977,0 0,0"
             style="fill:#4b5a9b;fill-opacity:1;fill-rule:nonzero;stroke:none"
             id="path138" /></g><g
           id="g140"
           transform="translate(440.75,231.81)"><path
             d="m 0,0 v -50.93 c 0,-3.97 -3.22,-7.18 -7.19,-7.18 h -120.17 c -3.97,0 -7.19,3.21 -7.19,7.18 V 0 c 0,3.97 3.22,7.19 7.19,7.19 H -7.19 C -3.22,7.19 0,3.97 0,0"
             style="fill:#7f95f4;fill-opacity:1;fill-rule:nonzero;stroke:none"
             id="path142" /></g><g
           id="g144"
           transform="translate(352.6803,179.0069)"><path
             d="m 0,0 h -35.403 c -2.684,0 -4.861,2.176 -4.861,4.861 v 35.403 c 0,2.684 2.177,4.86 4.861,4.86 H 0 c 2.685,0 4.861,-2.176 4.861,-4.86 V 4.861 C 4.861,2.176 2.685,0 0,0"
             style="fill:#ffffff;fill-opacity:1;fill-rule:nonzero;stroke:none"
             id="path146" /></g><g
           id="g148"
           transform="translate(394.6385,218.4216)"><path
             d="m 0,0 h -31.179 c -0.848,0 -1.536,0.687 -1.536,1.535 0,0.848 0.688,1.535 1.536,1.535 H 0 C 0.848,3.07 1.535,2.383 1.535,1.535 1.535,0.687 0.848,0 0,0"
             style="fill:#b2c1f9;fill-opacity:1;fill-rule:nonzero;stroke:none"
             id="path150" /></g><g
           id="g152"
           transform="translate(380.4299,212.2924)"><path
             d="m 0,0 h -16.971 c -0.848,0 -1.535,0.687 -1.535,1.535 0,0.848 0.687,1.535 1.535,1.535 H 0 C 0.848,3.07 1.535,2.383 1.535,1.535 1.535,0.687 0.848,0 0,0"
             style="fill:#b2c1f9;fill-opacity:1;fill-rule:nonzero;stroke:none"
             id="path154" /></g><g
           id="g156"
           transform="translate(432.5977,212.2924)"><path
             d="m 0,0 h -45.922 c -0.848,0 -1.535,0.687 -1.535,1.535 0,0.848 0.687,1.535 1.535,1.535 H 0 C 0.848,3.07 1.535,2.383 1.535,1.535 1.535,0.687 0.848,0 0,0"
             style="fill:#b2c1f9;fill-opacity:1;fill-rule:nonzero;stroke:none"
             id="path158" /></g><g
           id="g160"
           transform="translate(389.7166,206.1632)"><path
             d="m 0,0 h -26.258 c -0.847,0 -1.535,0.687 -1.535,1.535 0,0.848 0.688,1.535 1.535,1.535 H 0 C 0.848,3.07 1.535,2.383 1.535,1.535 1.535,0.687 0.848,0 0,0"
             style="fill:#b2c1f9;fill-opacity:1;fill-rule:nonzero;stroke:none"
             id="path162" /></g><g
           id="g164"
           transform="translate(412.0045,206.1632)"><path
             d="m 0,0 h -16.507 c -0.847,0 -1.535,0.687 -1.535,1.535 0,0.848 0.688,1.535 1.535,1.535 H 0 C 0.848,3.07 1.535,2.383 1.535,1.535 1.535,0.687 0.848,0 0,0"
             style="fill:#b2c1f9;fill-opacity:1;fill-rule:nonzero;stroke:none"
             id="path166" /></g><g
           id="g168"
           transform="translate(432.5977,206.1632)"><path
             d="m 0,0 h -15.201 c -0.848,0 -1.535,0.687 -1.535,1.535 0,0.848 0.687,1.535 1.535,1.535 H 0 C 0.848,3.07 1.535,2.383 1.535,1.535 1.535,0.687 0.848,0 0,0"
             style="fill:#b2c1f9;fill-opacity:1;fill-rule:nonzero;stroke:none"
             id="path170" /></g><g
           id="g172"
           transform="translate(432.5977,200.034)"><path
             d="m 0,0 h -69.139 c -0.847,0 -1.535,0.687 -1.535,1.535 v 0 c 0,0.848 0.688,1.535 1.535,1.535 H 0 c 0.848,0 1.535,-0.687 1.535,-1.535 v 0 C 1.535,0.687 0.848,0 0,0"
             style="fill:#b2c1f9;fill-opacity:1;fill-rule:nonzero;stroke:none"
             id="path174" /></g><g
           id="g176"
           transform="translate(401.5106,193.9048)"><path
             d="m 0,0 h -38.052 c -0.847,0 -1.535,0.687 -1.535,1.535 v 0 c 0,0.848 0.688,1.535 1.535,1.535 H 0 c 0.848,0 1.535,-0.687 1.535,-1.535 v 0 C 1.535,0.687 0.848,0 0,0"
             style="fill:#b2c1f9;fill-opacity:1;fill-rule:nonzero;stroke:none"
             id="path178" /></g><g
           id="g180"
           transform="translate(432.5977,193.9048)"><path
             d="m 0,0 h -24.952 c -0.848,0 -1.535,0.687 -1.535,1.535 v 0 c 0,0.848 0.687,1.535 1.535,1.535 H 0 c 0.848,0 1.535,-0.687 1.535,-1.535 v 0 C 1.535,0.687 0.848,0 0,0"
             style="fill:#b2c1f9;fill-opacity:1;fill-rule:nonzero;stroke:none"
             id="path182" /></g><g
           id="g184"
           transform="translate(385.8162,187.7756)"><path
             d="m 0,0 h -22.357 c -0.848,0 -1.535,0.687 -1.535,1.535 v 0 c 0,0.848 0.687,1.535 1.535,1.535 H 0 c 0.848,0 1.535,-0.687 1.535,-1.535 v 0 C 1.535,0.687 0.848,0 0,0"
             style="fill:#b2c1f9;fill-opacity:1;fill-rule:nonzero;stroke:none"
             id="path186" /></g><g
           id="g188"
           transform="translate(414.2243,187.7756)"><path
             d="m 0,0 h -22.357 c -0.848,0 -1.535,0.687 -1.535,1.535 v 0 c 0,0.848 0.687,1.535 1.535,1.535 H 0 c 0.848,0 1.535,-0.687 1.535,-1.535 v 0 C 1.535,0.687 0.848,0 0,0"
             style="fill:#b2c1f9;fill-opacity:1;fill-rule:nonzero;stroke:none"
             id="path190" /></g><g
           id="g192"
           transform="translate(432.5977,187.7756)"><path
             d="m 0,0 h -12.973 c -0.847,0 -1.535,0.687 -1.535,1.535 v 0 c 0,0.848 0.688,1.535 1.535,1.535 H 0 c 0.848,0 1.535,-0.687 1.535,-1.535 v 0 C 1.535,0.687 0.848,0 0,0"
             style="fill:#b2c1f9;fill-opacity:1;fill-rule:nonzero;stroke:none"
             id="path194" /></g><g
           id="g196"
           transform="translate(394.6385,181.6464)"><path
             d="m 0,0 h -31.179 c -0.848,0 -1.536,0.687 -1.536,1.535 v 0 c 0,0.848 0.688,1.535 1.536,1.535 H 0 c 0.848,0 1.535,-0.687 1.535,-1.535 v 0 C 1.535,0.687 0.848,0 0,0"
             style="fill:#b2c1f9;fill-opacity:1;fill-rule:nonzero;stroke:none"
             id="path198" /></g><g
           id="g200"
           transform="translate(432.5977,218.4216)"><path
             d="m 0,0 h -31.179 c -0.848,0 -1.536,0.687 -1.536,1.535 0,0.848 0.688,1.535 1.536,1.535 H 0 C 0.848,3.07 1.535,2.383 1.535,1.535 1.535,0.687 0.848,0 0,0"
             style="fill:#b2c1f9;fill-opacity:1;fill-rule:nonzero;stroke:none"
             id="path202" /></g><g
           id="g204"
           transform="translate(440.75,231.81)"><path
             d="M 0,0 V -2.14 H -134.55 V 0 c 0,3.97 3.22,7.19 7.19,7.19 H -7.19 C -3.22,7.19 0,3.97 0,0"
             style="fill:#3052ce;fill-opacity:1;fill-rule:nonzero;stroke:none"
             id="path206" /></g><g
           id="g208"
           transform="translate(415.3887,234.1667)"><path
             d="m 0,0 c 0,-0.92 -0.746,-1.667 -1.667,-1.667 -0.92,0 -1.666,0.747 -1.666,1.667 0,0.92 0.746,1.667 1.666,1.667 C -0.746,1.667 0,0.92 0,0"
             style="fill:#dee3fc;fill-opacity:1;fill-rule:nonzero;stroke:none"
             id="path210" /></g><g
           id="g212"
           transform="translate(423.9167,234.1667)"><path
             d="m 0,0 c 0,-0.92 -0.746,-1.667 -1.667,-1.667 -0.92,0 -1.666,0.747 -1.666,1.667 0,0.92 0.746,1.667 1.666,1.667 C -0.746,1.667 0,0.92 0,0"
             style="fill:#dee3fc;fill-opacity:1;fill-rule:nonzero;stroke:none"
             id="path214" /></g><g
           id="g216"
           transform="translate(432.4446,234.1667)"><path
             d="m 0,0 c 0,-0.92 -0.746,-1.667 -1.667,-1.667 -0.92,0 -1.666,0.747 -1.666,1.667 0,0.92 0.746,1.667 1.666,1.667 C -0.746,1.667 0,0.92 0,0"
             style="fill:#dee3fc;fill-opacity:1;fill-rule:nonzero;stroke:none"
             id="path218" /></g><g
           id="g220"
           transform="translate(347.8566,243.5438)"><path
             d="m 0,0 h -26.629 c -3.95,0 -7.151,3.201 -7.151,7.151 V 33.78 c 0,3.949 3.201,7.151 7.151,7.151 H 0 c 3.949,0 7.151,-3.202 7.151,-7.151 V 7.151 C 7.151,3.201 3.949,0 0,0 Z"
             style="fill:none;stroke:#495ad6;stroke-width:0.896;stroke-linecap:butt;stroke-linejoin:miter;stroke-miterlimit:10;stroke-dasharray:none;stroke-opacity:1"
             id="path222" /></g><g
           id="g224"
           transform="translate(328.1573,269.9294)"><path
             d="M 0,0 -5.897,-5.897 0.046,-11.84"
             style="fill:none;stroke:#495ad6;stroke-width:1.672;stroke-linecap:round;stroke-linejoin:round;stroke-miterlimit:10;stroke-dasharray:none;stroke-opacity:1"
             id="path226" /></g><g
           id="g228"
           transform="translate(340.9265,269.9294)"><path
             d="M 0,0 5.897,-5.897 -0.046,-11.84"
             style="fill:none;stroke:#495ad6;stroke-width:1.672;stroke-linecap:round;stroke-linejoin:round;stroke-miterlimit:10;stroke-dasharray:none;stroke-opacity:1"
             id="path230" /></g><g
           id="g232"
           transform="translate(337.3032,269.9294)"><path
             d="M 0,0 -5.523,-11.84"
             style="fill:none;stroke:#495ad6;stroke-width:1.672;stroke-linecap:round;stroke-linejoin:round;stroke-miterlimit:10;stroke-dasharray:none;stroke-opacity:1"
             id="path234" /></g><g
           id="g236"
           transform="translate(440.75,384.38)"><path
             d="m 0,0 v -83.27 c 0,-4.52 -3.66,-8.18 -8.18,-8.18 h -118.19 c -4.51,0 -8.18,3.66 -8.18,8.18 V 0 c 0,4.52 3.67,8.18 8.18,8.18 H -8.18 C -3.66,8.18 0,4.52 0,0"
             style="fill:#b2c1f9;fill-opacity:1;fill-rule:nonzero;stroke:none"
             id="path238" /></g><g
           id="g240"
           transform="translate(433,366.25)"><path
             d="m 0,0 c 0,-10.77 -8.73,-19.5 -19.5,-19.5 -10.77,0 -19.5,8.73 -19.5,19.5 0,10.77 8.73,19.5 19.5,19.5 C -8.73,19.5 0,10.77 0,0"
             style="fill:#f0f4ff;fill-opacity:1;fill-rule:nonzero;stroke:none"
             id="path242" /></g><g
           id="g244"
           transform="translate(385.29,292.93)"><path
             d="m 0,0 h -70.91 c -4.51,0 -8.18,3.66 -8.18,8.18 v 13.11 l 31.03,53.75 c 1.62,2.81 5.68,2.81 7.3,0 L -17.33,34.46 0.07,4.32 C 0.91,2.88 0.78,1.24 0,0"
             style="fill:#ffffff;fill-opacity:1;fill-rule:nonzero;stroke:none"
             id="path246" /></g><g
           id="g248"
           transform="translate(415.87,292.93)"><path
             d="m 0,0 h -67.81 l 19.9,34.46 10.72,18.57 c 1.46,2.53 5.11,2.53 6.57,0 z"
             style="fill:#f0f4ff;fill-opacity:1;fill-rule:nonzero;stroke:none"
             id="path250" /></g><path
           d="M 550.369,59.637 H 498.093 V 138.2 h 52.276 z"
           style="fill:#3b47bc;fill-opacity:1;fill-rule:nonzero;stroke:none"
           id="path252" /><path
           d="m 550.369,59.637 h 20.017 V 138.2 h -20.017 z"
           style="fill:#495ad6;fill-opacity:1;fill-rule:nonzero;stroke:none"
           id="path254" /><path
           d="m 567.93,132.675 h -14.696 v 2.507 h 14.696 z"
           style="fill:#b2c1f9;fill-opacity:1;fill-rule:nonzero;stroke:none"
           id="path256" /><path
           d="m 567.93,127.289 h -14.696 v 2.507 h 14.696 z"
           style="fill:#b2c1f9;fill-opacity:1;fill-rule:nonzero;stroke:none"
           id="path258" /><path
           d="m 567.93,121.903 h -14.696 v 2.507 h 14.696 z"
           style="fill:#b2c1f9;fill-opacity:1;fill-rule:nonzero;stroke:none"
           id="path260" /><path
           d="m 567.93,116.517 h -14.696 v 2.507 h 14.696 z"
           style="fill:#b2c1f9;fill-opacity:1;fill-rule:nonzero;stroke:none"
           id="path262" /><path
           d="m 567.93,111.13 h -14.696 v 2.507 h 14.696 z"
           style="fill:#b2c1f9;fill-opacity:1;fill-rule:nonzero;stroke:none"
           id="path264" /><path
           d="m 567.93,105.744 h -14.696 v 2.507 h 14.696 z"
           style="fill:#b2c1f9;fill-opacity:1;fill-rule:nonzero;stroke:none"
           id="path266" /><path
           d="m 567.93,100.358 h -14.696 v 2.507 h 14.696 z"
           style="fill:#b2c1f9;fill-opacity:1;fill-rule:nonzero;stroke:none"
           id="path268" /><path
           d="m 567.93,94.971 h -14.696 v 2.507 h 14.696 z"
           style="fill:#b2c1f9;fill-opacity:1;fill-rule:nonzero;stroke:none"
           id="path270" /><path
           d="m 567.93,89.585 h -14.696 v 2.507 h 14.696 z"
           style="fill:#b2c1f9;fill-opacity:1;fill-rule:nonzero;stroke:none"
           id="path272" /><path
           d="m 567.93,84.199 h -14.696 v 2.507 h 14.696 z"
           style="fill:#b2c1f9;fill-opacity:1;fill-rule:nonzero;stroke:none"
           id="path274" /><path
           d="M 567.93,78.813 H 553.234 V 81.32 H 567.93 Z"
           style="fill:#b2c1f9;fill-opacity:1;fill-rule:nonzero;stroke:none"
           id="path276" /><path
           d="m 567.93,73.426 h -14.696 v 2.507 h 14.696 z"
           style="fill:#b2c1f9;fill-opacity:1;fill-rule:nonzero;stroke:none"
           id="path278" /><path
           d="m 567.93,68.04 h -14.696 v 2.507 h 14.696 z"
           style="fill:#b2c1f9;fill-opacity:1;fill-rule:nonzero;stroke:none"
           id="path280" /><path
           d="m 567.93,62.654 h -14.696 v 2.507 h 14.696 z"
           style="fill:#b2c1f9;fill-opacity:1;fill-rule:nonzero;stroke:none"
           id="path282" /><g
           id="g284"
           transform="translate(489.6002,59.6367)"><path
             d="m 0,0 h 26.568 c 0,0 1.485,4.731 -1.733,10.592 0,0 -2.138,-1.715 -8.544,-0.555 0,0 -2.673,-2.27 -4.519,-3.157 C 9.916,5.982 -0.716,3.894 0,0"
             style="fill:#281616;fill-opacity:1;fill-rule:nonzero;stroke:none"
             id="path286" /></g><g
           id="g288"
           transform="translate(491.4529,134.5515)"><path
             d="m 0,0 c 1.716,-10.239 9.634,-44.88 13.038,-65.345 6.221,-0.53 9.209,0.184 10.792,0.549 -0.31,7.136 -0.924,24.206 -0.852,31.691 0.119,12.651 0.713,29.335 -4.857,38.49 L -0.605,3.911 C -0.491,2.922 -0.387,2.118 -0.296,1.543 -0.206,0.992 -0.103,0.482 0,0"
             style="fill:#002c54;fill-opacity:1;fill-rule:nonzero;stroke:none"
             id="path290" /></g><g
           id="g292"
           transform="translate(441.5444,59.6367)"><path
             d="m 0,0 h 26.568 c 0,0 1.485,4.731 -1.733,10.592 0,0 -2.138,-1.715 -8.544,-0.555 0,0 -2.673,-2.27 -4.519,-3.157 C 9.916,5.982 -0.716,3.894 0,0"
             style="fill:#281616;fill-opacity:1;fill-rule:nonzero;stroke:none"
             id="path294" /></g><g
           id="g296"
           transform="translate(457.0656,69.8055)"><path
             d="m 0,0 c 5.077,-1.256 8.754,-1.134 10.495,-0.938 1.413,8.225 3.644,26.325 5.653,34.808 3.116,13.187 6.166,31.321 4.047,37.791 L 1.774,76.287 C 1.713,75.704 0.213,20.203 0,0"
             style="fill:#052635;fill-opacity:1;fill-rule:nonzero;stroke:none"
             id="path298" /></g><g
           id="g300"
           transform="translate(530.3783,164.975)"><path
             d="m 0,0 v 0 c -0.37,3.64 -0.796,6.299 -0.796,6.299 l -20.58,-5.037 -17.482,-3.983 c -6.481,-1.443 -14.311,-3.182 -21.213,-4.742 -7.745,-1.76 -12.887,-7.643 -11.191,-15.399 l 1.942,-9.407 c 10.832,0.148 61.765,5.031 66.121,7.23 C 1.723,-22.553 3.205,-13.765 0,0"
             style="fill:#052635;fill-opacity:1;fill-rule:nonzero;stroke:none"
             id="path302" /></g><g
           id="g304"
           transform="translate(561.1,164.975)"><path
             d="M 0,0 V 0 C -0.37,3.64 -2.145,7.546 -2.145,7.546 L -21.376,1.262 -38.858,-2.721 c -6.481,-1.443 -14.311,-3.182 -21.213,-4.742 -7.745,-1.76 -12.887,-7.643 -11.191,-15.399 l 1.942,-9.407 c 10.833,0.148 56.11,1.726 66.121,7.23 C 1.633,-22.382 3.205,-13.765 0,0"
             style="fill:#002c54;fill-opacity:1;fill-rule:nonzero;stroke:none"
             id="path306" /></g><g
           id="g308"
           transform="translate(503.4967,194.4703)"><path
             d="m 0,0 c 0,0 9.141,4.129 11.657,-0.012 1.377,-2.268 0.424,-6.479 -2.693,-8.246 -3.118,-1.768 -20.735,-9.219 -37.362,-13.374 0,0 -0.711,2.313 -1.855,4.743 0,0 7.459,3.095 14.874,8.303 C -7.963,-3.378 0,0 0,0"
             style="fill:#e5918f;fill-opacity:1;fill-rule:nonzero;stroke:none"
             id="path310" /></g><g
           id="g312"
           transform="translate(505.782,223.015)"><path
             d="m 0,0 -7.834,-31.291 c 0,0 0.809,-7.911 8.798,-4.028 7.99,3.883 13.284,28.812 13.284,28.812 z"
             style="fill:#e5918f;fill-opacity:1;fill-rule:nonzero;stroke:none"
             id="path314" /></g><g
           id="g316"
           transform="translate(519.0361,205.5144)"><path
             d="M 0,0 C -0.97,0.234 -1.894,0.49 -2.786,0.758 -3.7,1.025 -4.569,1.304 -5.394,1.594 -12.838,4.146 -16.861,7.21 -16.861,7.21 c 2.34,10.175 5.16,17.006 7.667,21.508 0.067,0.111 0.134,0.212 0.19,0.334 0.066,0.112 0.133,0.223 0.2,0.335 1.349,2.24 3.288,4.123 5.45,5.672 0.223,0.156 0.434,0.301 0.657,0.457 l 0.925,-16.337 0.156,-1.683 z"
             style="fill:#ffffff;fill-opacity:1;fill-rule:nonzero;stroke:none"
             id="path318" /></g><g
           id="g320"
           transform="translate(519.0361,205.5144)"><path
             d="m 0,0 c -0.97,0.234 -1.894,0.49 -2.786,0.758 -0.914,0.267 -1.783,0.546 -2.608,0.836 1.563,11.004 2.976,17.919 2.976,17.919 l 0.802,-2.017 z"
             style="fill:#c7e5f2;fill-opacity:1;fill-rule:nonzero;stroke:none"
             id="path322" /></g><g
           id="g324"
           transform="translate(565.2837,233.7645)"><path
             d="m 0,0 c -0.189,-4.837 -1.036,-12.604 -1.772,-20.405 -0.234,-2.474 -0.457,-4.959 -0.646,-7.355 -0.134,-1.493 -2.385,-9.461 -2.474,-10.887 -0.401,-6.821 -3.745,-11.924 -0.58,-22.311 0.758,-2.485 0.948,-3.766 0.948,-4.792 0,-0.713 -0.925,-1.459 -1.293,-1.66 -1.326,-0.769 -3.934,-1.304 -7.099,-1.694 h -0.011 c -6.229,-0.758 -14.632,-0.903 -19.703,-0.903 -6.809,0 -17.028,1.081 -18.32,2.798 -1.182,1.571 -0.089,3.855 0.468,7.009 2.507,14.231 1.616,21.653 1.46,31.928 0,0.256 -0.012,0.512 -0.012,0.78 -0.256,15.847 -1.303,29.409 -0.568,34.301 0.223,0.156 0.435,0.301 0.658,0.457 1.081,0.735 2.139,1.393 3.164,1.972 0.09,0.045 0.201,0.112 0.313,0.179 0.312,0.178 0.635,0.345 0.936,0.512 0.111,0.067 0.234,0.123 0.356,0.179 2.307,1.125 5.672,2.329 7.6,2.997 0.246,0.078 0.468,0.156 0.658,0.212 1.816,0.111 3.789,0.134 5.917,0.078 1.85,-0.056 4.681,-0.301 7.757,-0.702 h 0.011 c 3.477,-0.446 7.277,-1.103 10.297,-1.928 0,0 0.033,-0.011 0.056,-0.022 0.568,-0.179 4.257,-1.56 8.101,-5.672 C -2.496,3.711 -1.181,2.039 0,0"
             style="fill:#ffffff;fill-opacity:1;fill-rule:nonzero;stroke:none"
             id="path326" /></g><g
           id="g328"
           transform="translate(559.812,172.8068)"><path
             d="m 0,0 c 0.758,-2.485 0.947,-3.767 0.947,-4.792 0,-0.713 -0.925,-1.46 -1.292,-1.66 -1.327,-0.769 -3.934,-1.304 -7.099,-1.694 1.304,0.156 3.554,2.224 3.555,4.09 0,1.306 -1.694,10.129 -1.226,15.824 0.468,5.683 1.393,14.732 -0.368,21.976 -1.772,7.244 -3.432,16.772 -3.432,16.772 L 1.014,44.52 c 0,0 1.282,-1.794 2.686,-3.967 C 3.466,38.079 3.243,35.594 3.053,33.198 2.92,31.705 -3.165,10.386 0,0"
             style="fill:#c7e5f2;fill-opacity:1;fill-rule:nonzero;stroke:none"
             id="path330" /></g><g
           id="g332"
           transform="translate(516.1298,275.6459)"><path
             d="m 0,0 c 0,0 0.859,-10.385 4.303,-11.082 3.443,-0.698 2.598,3.714 2.598,3.714 l -0.482,4.932 z"
             style="fill:#002c54;fill-opacity:1;fill-rule:nonzero;stroke:none"
             id="path334" /></g><g
           id="g336"
           transform="translate(532.0078,238.0103)"><path
             d="m 0,0 c -6.742,0.802 -4.224,7.355 -3.299,8.859 0.246,0.078 1.405,0.435 1.494,0.491 0.011,0.011 0.022,0.011 0.022,0.011 0.223,0.178 0.39,0.446 0.524,0.78 0.657,1.727 0.356,5.171 0.334,5.394 v 0.011 0.624 c 0.111,0.412 0.223,0.802 0.312,1.17 l 3.544,2.786 7.5,5.895 c 0,0 -1.995,-9.862 -0.39,-16.081 0.122,-0.468 0.367,-1.125 0.992,-1.493 0,-0.011 0.011,0 0.011,0 C 11.244,8.313 11.489,8.224 11.79,8.18 13.629,7.31 11.066,-1.315 0,0"
             style="fill:#e5918f;fill-opacity:1;fill-rule:nonzero;stroke:none"
             id="path338" /></g><g
           id="g340"
           transform="translate(537.9501,257.7643)"><path
             d="m 0,0 c 0,0 -0.063,-6.582 -7.207,-9.609 0.664,1.718 0.358,5.164 0.337,5.385 l 2.993,2.35 z"
             style="fill:#cc6362;fill-opacity:1;fill-rule:nonzero;stroke:none"
             id="path342" /></g><g
           id="g344"
           transform="translate(517.7763,274.1679)"><path
             d="m 0,0 c 0,0 1.558,-21.547 7.376,-23.378 0,0 7.413,-0.698 12.735,6.461 1.533,2.063 3.471,2.526 4.104,5.017 1.028,4.046 2.478,11.508 0.628,16.005 C 22.209,10.51 0.25,15.595 0,0"
             style="fill:#e5918f;fill-opacity:1;fill-rule:nonzero;stroke:none"
             id="path346" /></g><g
           id="g348"
           transform="translate(542.7084,281.8287)"><path
             d="m 0,0 c -0.096,3.914 -4.057,5.377 -4.057,5.377 -3.944,1.845 -12.141,1.049 -20.59,-0.836 -1.981,-0.442 -4.467,0.774 -5.851,-0.186 -1.672,-1.16 -0.007,-6.46 -0.007,-6.46 3.259,-9.871 15.253,-6.661 18.858,-5.443 0.857,-2.541 0.746,-6.075 2.883,-7.897 1.218,-1.038 3.334,-1.068 5.486,-0.709 0.265,-0.504 1.26,-0.948 1.462,-1.639 0.678,-2.308 0.581,-5.915 0.56,-8.699 l 1.017,0.496 C -0.107,-25.242 10.413,-0.323 0,0"
             style="fill:#002c54;fill-opacity:1;fill-rule:nonzero;stroke:none"
             id="path350" /></g><g
           id="g352"
           transform="translate(523.744,266.9114)"><path
             d="m 0,0 c 0.304,-1.789 -0.578,-3.432 -1.971,-3.669 -1.392,-0.237 -2.768,1.022 -3.073,2.811 -0.304,1.789 0.578,3.432 1.971,3.669 C -1.68,3.048 -0.304,1.789 0,0 Z"
             style="fill:none;stroke:#ffffff;stroke-width:0.501;stroke-linecap:butt;stroke-linejoin:miter;stroke-miterlimit:10;stroke-dasharray:none;stroke-opacity:1"
             id="path354" /></g><g
           id="g356"
           transform="translate(530.7745,268.2248)"><path
             d="m 0,0 c 0.304,-1.789 -0.578,-3.432 -1.971,-3.669 -1.392,-0.237 -2.768,1.022 -3.073,2.811 -0.304,1.789 0.578,3.432 1.971,3.669 C -1.68,3.048 -0.304,1.789 0,0 Z"
             style="fill:none;stroke:#ffffff;stroke-width:0.501;stroke-linecap:butt;stroke-linejoin:miter;stroke-miterlimit:10;stroke-dasharray:none;stroke-opacity:1"
             id="path358" /></g><g
           id="g360"
           transform="translate(523.744,266.9114)"><path
             d="M 0,0 C 0,0 0.308,0.5 1.927,0.36"
             style="fill:none;stroke:#ffffff;stroke-width:0.501;stroke-linecap:butt;stroke-linejoin:miter;stroke-miterlimit:10;stroke-dasharray:none;stroke-opacity:1"
             id="path362" /></g><g
           id="g364"
           transform="translate(530.8346,267.7958)"><path
             d="M 0,0 6.01,0.96"
             style="fill:none;stroke:#ffffff;stroke-width:0.501;stroke-linecap:butt;stroke-linejoin:miter;stroke-miterlimit:10;stroke-dasharray:none;stroke-opacity:1"
             id="path366" /></g><g
           id="g368"
           transform="translate(537.2864,261.1282)"><path
             d="M 0,0 C 4.138,-1.585 5.431,8.601 1.501,9.053 -1.48,9.395 -1.601,5.237 -1.601,5.237 -1.601,5.237 -2.363,0.905 0,0"
             style="fill:#e5918f;fill-opacity:1;fill-rule:nonzero;stroke:none"
             id="path370" /></g><g
           id="g372"><g
             id="g374" /><g
             id="g390"><g
               clip-path="url(#clipPath378)"
               opacity="0.5"
               id="g388"><g
                 transform="translate(538.651,268.6448)"
                 id="g382"><path
                   d="m 0,0 c 0,0 -0.268,-0.275 -0.513,-0.73 -0.248,-0.453 -0.465,-1.073 -0.505,-1.737 -0.039,-0.328 -0.03,-0.667 -0.015,-0.988 0.011,-0.322 0.05,-0.626 0.072,-0.894 0.029,-0.272 0.052,-0.498 0.069,-0.657 0.016,-0.161 0.016,-0.259 0.016,-0.259 0,0 -0.06,0.073 -0.148,0.211 -0.076,0.142 -0.233,0.332 -0.338,0.593 -0.116,0.258 -0.238,0.569 -0.304,0.924 -0.081,0.351 -0.103,0.743 -0.073,1.136 0.037,0.392 0.139,0.784 0.305,1.12 0.158,0.339 0.386,0.612 0.599,0.812 C -0.388,-0.075 0,0 0,0"
                   style="fill:#cc6362;fill-opacity:1;fill-rule:nonzero;stroke:none"
                   id="path380" /></g><g
                 transform="translate(539.2968,266.711)"
                 id="g386"><path
                   d="m 0,0 c 0,0 -0.169,-0.018 -0.401,-0.106 -0.232,-0.082 -0.518,-0.245 -0.734,-0.464 -0.22,-0.216 -0.362,-0.483 -0.434,-0.691 -0.076,-0.207 -0.1,-0.353 -0.1,-0.353 l -0.682,0.244 c 0,0 0.08,0.174 0.247,0.404 0.161,0.233 0.431,0.511 0.754,0.687 0.319,0.182 0.668,0.265 0.925,0.284 C -0.167,0.029 0,0 0,0"
                   style="fill:#cc6362;fill-opacity:1;fill-rule:nonzero;stroke:none"
                   id="path384" /></g></g></g></g><g
           id="g392"
           transform="translate(577.0756,190.3464)"><path
             d="m 0,0 -0.001,-0.01 c -1.819,-2.111 -8.721,-3.649 -12.042,-0.729 -1.043,0.929 -2.221,3.379 -3.379,6.42 -2.944,7.773 -5.731,19.401 -5.731,19.401 l 15.446,7.893 c 0,0 1.987,-8.909 3.699,-17.377 0,0 0.015,-0.085 0.046,-0.235 0.558,-2.713 1.076,-5.38 1.484,-7.67 C -0.462,7.629 -0.455,7.575 -0.449,7.512 -0.041,4.778 0.221,1.928 0,0"
             style="fill:#e5918f;fill-opacity:1;fill-rule:nonzero;stroke:none"
             id="path394" /></g><g
           id="g396"
           transform="translate(550.0888,226.2475)"><path
             d="m 0,0 c 1.492,-6.203 6.18,-17.957 6.18,-17.957 3.284,-0.545 7.687,0.06 11.337,1.371 4.211,1.513 7.22,4.69 7.22,4.69 0,0 -3.109,8.739 -5.9,15.018 -2.504,5.636 -4.009,7.74 -5.093,8.857 -1.632,1.709 -4.265,3.67 -6.133,4.561 z"
             style="fill:#ffffff;fill-opacity:1;fill-rule:nonzero;stroke:none"
             id="path398" /></g><g
           id="g400"
           transform="translate(569.6215,222.1961)"><path
             d="m 0,0 -9.064,3.911 -7.142,18.402 c 0,0 1.309,-0.398 3.032,-1.094 h 0.008 c 0.034,-0.017 0.108,-0.041 0.232,-0.091 0.042,-0.017 0.091,-0.033 0.133,-0.058 1.541,-0.721 7.515,-4.242 11.649,-17.035 0.033,-0.108 0.067,-0.215 0.1,-0.323 0.439,-1.475 0.762,-2.66 0.936,-3.273 0.017,-0.058 0.033,-0.116 0.05,-0.182 C -0.041,0.174 -0.025,0.083 0,0"
             style="fill:#ffffff;fill-opacity:1;fill-rule:nonzero;stroke:none"
             id="path402" /></g><g
           id="g404"
           transform="translate(577.0756,190.3464)"><path
             d="m 0,0 -0.001,-0.01 c -0.133,-1.132 -0.444,-1.944 -1.003,-2.232 -0.089,-0.057 -1.358,-0.812 -1.446,-0.869 -1.889,-1.155 -5.314,-3.12 -9.575,-4.951 -10.332,-4.464 -25.341,-9.641 -33.433,-12.013 0,0 -0.799,2.286 -2.046,4.667 0,0 7.32,3.399 14.515,8.909 7.204,5.5 17.567,12.18 17.567,12.18 l 2.617,3.078 c 0,0 9.303,8.562 10.797,6.839 0,0 0.015,-0.085 0.046,-0.235 0.222,-0.893 0.961,-4.178 1.484,-7.67 C -0.462,7.629 -0.455,7.575 -0.449,7.512 -0.041,4.778 0.221,1.928 0,0"
             style="fill:#e5918f;fill-opacity:1;fill-rule:nonzero;stroke:none"
             id="path406" /></g><g
           id="g408"
           transform="translate(530.642,175.4608)"><path
             d="M 0,0 C 0,0 -1.819,-1.096 -3.672,-0.706 -4.697,-0.49 -5.11,-0.071 -5.869,0.062 -6.627,0.196 -8.646,0.445 -9.646,0.935 -10.645,1.426 -11.035,1.48 -11,0.477 c 0.035,-1.004 2.007,-1.872 2.542,-2.15 0.535,-0.278 1.206,-1.168 1.278,-1.28 0.073,-0.112 -3.286,-1.87 -4.19,-1.513 0,0 -0.268,-0.809 -0.116,-1.261 0.153,-0.451 0.844,-0.61 0.898,-0.836 0.053,-0.227 -0.159,-0.691 -0.009,-1.051 0.149,-0.361 0.766,-0.362 1.015,-0.947 0.249,-0.585 -0.025,-0.595 0.157,-1.205 0.181,-0.611 0.961,-0.72 1.109,-1.035 0.148,-0.315 0.07,-0.683 0.397,-0.9 0.328,-0.217 3.349,0.753 4.452,1.225 1.102,0.473 4.05,4.716 7.311,6.162 z"
             style="fill:#e5918f;fill-opacity:1;fill-rule:nonzero;stroke:none"
             id="path410" /></g><g
           id="g412"
           transform="translate(546.0823,156.5231)"><path
             d="M 0,0 H -23.497 V 2.299 H 0 C 0.635,2.299 1.15,1.785 1.15,1.15 1.15,0.515 0.635,0 0,0"
             style="fill:#375f84;fill-opacity:1;fill-rule:nonzero;stroke:none"
             id="path414" /></g><g
           id="g416"
           transform="translate(533.3685,156.5231)"><path
             d="m 0,0 h -58.833 c -0.704,0 -1.322,0.47 -1.511,1.148 l -12.041,43.348 c -0.267,0.959 0.455,1.908 1.451,1.908 h 56.892 c 1.326,0 2.489,-0.883 2.844,-2.161 L 0.8,1.052 C 0.947,0.523 0.549,0 0,0"
             style="fill:#375f84;fill-opacity:1;fill-rule:nonzero;stroke:none"
             id="path418" /></g><g
           id="g420"
           transform="translate(531.2394,156.5231)"><path
             d="m 0,0 h -58.833 c -0.704,0 -1.322,0.47 -1.511,1.148 l -12.041,43.348 c -0.267,0.959 0.455,1.908 1.451,1.908 h 56.892 c 1.326,0 2.489,-0.883 2.844,-2.161 L 0.8,1.052 C 0.946,0.523 0.549,0 0,0"
             style="fill:#467cdb;fill-opacity:1;fill-rule:nonzero;stroke:none"
             id="path422" /></g><g
           id="g424"
           transform="translate(298.0637,184.5309)"><path
             d="m 0,0 6.815,6.987 c 0,0 0.236,3.116 0.607,3.773 0.372,0.657 1.33,3.091 1.808,3.356 0.477,0.266 1.433,0 1.433,0 0,0 0.946,0.319 1.371,0.319 0.424,0 1.218,-0.388 1.218,-0.388 0,0 1.019,0.069 1.444,0.069 0.424,0 0.561,-0.119 0.561,-0.119 0,0 1.642,1.89 2.438,2.527 0.796,0.637 2.014,1.809 2.374,1.804 0.34,-0.004 0.49,-0.602 0.243,-1.239 -0.248,-0.637 -1.326,-1.664 -1.326,-1.664 L 15.881,10.72 c 0,0 0.531,0.212 0.814,0.389 0.283,0.177 2.176,1.946 2.291,2.017 0.115,0.071 0.964,0.637 1.459,0.071 C 20.94,12.63 17.194,8.143 16.593,7.541 15.991,6.94 12.548,5.196 12.548,5.196 c 0,0 -3.637,-6.54 -3.99,-6.965 C 8.204,-2.194 0,0 0,0"
             style="fill:#e49191;fill-opacity:1;fill-rule:nonzero;stroke:none"
             id="path426" /></g><g
           id="g428"
           transform="translate(304.4779,216.7831)"><path
             d="m 0,0 c 0,0 -3.807,-22.052 -7.39,-22.564 0,0 -14.304,-0.577 -17.491,16.776 -2.764,15.05 8.321,18.259 13.505,17.108 C -6.191,10.168 1.113,9.42 0,0"
             style="fill:#e49191;fill-opacity:1;fill-rule:nonzero;stroke:none"
             id="path430" /></g><g
           id="g432"
           transform="translate(291.8355,197.7464)"><path
             d="m 0,0 c 0,0 -2.004,-2.701 -2.707,-9.245 0,0 -5.957,-0.851 -11.45,1.977 0,0 2.961,9.229 3.323,19.249"
             style="fill:#e49191;fill-opacity:1;fill-rule:nonzero;stroke:none"
             id="path434" /></g><g
           id="g436"
           transform="translate(287.8013,231.795)"><path
             d="m 0,0 c -7.817,-1.727 -7.192,-6.597 -7.192,-6.597 -3.66,-0.906 -4.446,-2.416 -4.416,-9.172 0.03,-6.755 2.474,-14.867 3.822,-15.527 1.348,-0.66 8.99,-0.692 9.629,-0.461 0.638,0.232 3.312,6.43 2.689,7.52 -0.624,1.09 0.031,5.378 1.811,5.54 1.779,0.163 1.431,-2.596 1.431,-2.596 l 1.463,0.321 1.129,2.77 C 20.696,-18.817 23.365,-7.045 23.365,-7.045 20.884,-5.427 7.817,1.727 0,0"
             style="fill:#002c54;fill-opacity:1;fill-rule:nonzero;stroke:none"
             id="path438" /></g><g
           id="g440"
           transform="translate(201.0272,82.5111)"><path
             d="m 0,0 7.904,-1.143 -2.618,-9.229 -8.561,2.159 c 0,0 -3.482,4.721 1.776,8.213 0.254,0.169 1.084,0.094 1.499,0"
             style="fill:#e5918f;fill-opacity:1;fill-rule:nonzero;stroke:none"
             id="path442" /></g><g
           id="g444"
           transform="translate(260.0215,106.217)"><path
             d="m 0,0 -11.65,35.274 c 0,0 -3.531,1.258 -5.34,0 0,0 -12.135,-6.526 -10.841,-25.134 0.976,-14.028 3.938,-29.243 5.138,-35.343 l -31.082,1.148 c 0,0 -3.834,-4.557 -1.353,-10.49 0,0 39.055,-10.504 44.557,-11.475 4.471,-0.789 9.365,-1.397 11.727,0.628 C 5.319,-41.826 0,0 0,0"
             style="fill:#000000;fill-opacity:1;fill-rule:nonzero;stroke:none"
             id="path446" /></g><g
           id="g448"
           transform="translate(237.8284,82.5111)"><path
             d="m 0,0 7.904,-1.143 -2.618,-9.229 -8.561,2.159 c 0,0 -3.482,4.721 1.776,8.213 0.254,0.169 1.084,0.094 1.499,0"
             style="fill:#e5918f;fill-opacity:1;fill-rule:nonzero;stroke:none"
             id="path450" /></g><g
           id="g452"
           transform="translate(234.9601,77.6723)"><path
             d="m 0,0 c -0.177,-1.817 1.413,-3.454 1.122,-3.907 -0.291,-0.453 -5.604,-9.366 -5.604,-9.366 0,0 4.011,-1.747 3.364,-4.271 h -10.158 c 0,0 -2.653,2.394 -2.588,5.823 0,0 0.69,3.947 2.502,7.441 1.811,3.494 5.93,11.382 5.93,11.382 0,0 1.25,0.505 3.386,-0.065 C 0.456,6.37 2.868,4.839 2.868,4.839 2.868,4.839 0.437,4.49 0,0"
             style="fill:#467cdb;fill-opacity:1;fill-rule:nonzero;stroke:none"
             id="path454" /></g><g
           id="g456"
           transform="translate(316.3307,68.2346)"><path
             d="m 0,0 c -2.508,9.358 -26.105,49.309 -34.088,60.096 -16.396,7.12 -33.871,13.161 -33.871,13.161 -7.228,-1.726 -10.787,-16.289 -6.688,-25.998 2.812,-6.66 20.652,-23.423 31.577,-33.293 l -30.317,0.037 c 0,0 -3.571,-5.339 -0.335,-10.409 0,0 50.422,-11.464 54.844,-12.112 4.423,-0.647 14.347,0 14.347,0 0,0 6.642,0.64 4.531,8.518"
             style="fill:#002c54;fill-opacity:1;fill-rule:nonzero;stroke:none"
             id="path458" /></g><g
           id="g460"
           transform="translate(198.1589,77.6723)"><path
             d="m 0,0 c -0.177,-1.817 1.413,-3.454 1.122,-3.907 -0.291,-0.453 -5.604,-9.366 -5.604,-9.366 0,0 4.011,-1.747 3.364,-4.271 h -10.158 c 0,0 -2.653,2.394 -2.588,5.823 0,0 0.69,3.947 2.502,7.441 1.811,3.494 5.93,11.382 5.93,11.382 0,0 1.25,0.505 3.386,-0.065 C 0.456,6.37 2.868,4.839 2.868,4.839 2.868,4.839 0.437,4.49 0,0"
             style="fill:#467cdb;fill-opacity:1;fill-rule:nonzero;stroke:none"
             id="path462" /></g><g
           id="g464"
           transform="translate(354.2908,191.3207)"><path
             d="m 0,0 -16.261,-28.603 -11.645,11.608 -9.64,-14.347 2.799,-1.345 -1.007,-0.838 c 0,0 22.474,-10.945 25.167,-8.53 2.693,2.414 15.241,38.803 15.241,38.803 z"
             style="fill:#e49191;fill-opacity:1;fill-rule:nonzero;stroke:none"
             id="path466" /></g><g
           id="g468"
           transform="translate(328.46,172.51)"><path
             d="m 0,0 c 0,0 -3.07,-12.95 -9.21,-19.09 l -15.71,5.98 c 0,0 -7.29,-12.26 -14.42,-21.66 -2.74,-3.63 -3.65,-8.74 -6.87,-9.41 -0.2,0.07 -0.39,0.13 -0.59,0.18 -8.73,2.62 -21.61,-0.16 -32.24,3.79 -11.74,4.37 -9.46,6.83 -9.46,6.83 0,0 7.12,12.83 11.16,26.42 1.8,6.01 3.05,11.58 3.88,15.93 1.49,7.7 7.66,13.72 15.44,14.77 0.09,0.01 0.17,0.03 0.26,0.04 8.9,1.13 32.2,-1.62 36.73,-3.56 C -16.5,18.28 0,0 0,0"
             style="fill:#467cdb;fill-opacity:1;fill-rule:nonzero;stroke:none"
             id="path470" /></g><g
           id="g472"
           transform="translate(303.54,159.4)"><path
             d="m 0,0 c 0,0 -7.29,-12.26 -14.42,-21.66 -2.74,-3.63 -3.65,-8.74 -6.87,-9.41 1.41,0.5 3.75,7.92 4.58,9.59 0.84,1.66 2.17,3.33 5.05,9.16 2.87,5.84 6.766,14.399 6.766,14.399 z"
             style="fill:#5996ef;fill-opacity:1;fill-rule:nonzero;stroke:none"
             id="path474" /></g><g
           id="g476"
           transform="translate(273.2602,82.2008)"><path
             d="M 0,0 C 0,0 0.247,0.055 0.683,0.111 1.119,0.157 1.744,0.247 2.495,0.277 3.998,0.359 6.01,0.298 8,0.022 c 0.993,-0.143 1.983,-0.318 2.897,-0.549 0.916,-0.216 1.76,-0.472 2.468,-0.731 0.713,-0.243 1.284,-0.514 1.685,-0.693 0.4,-0.183 0.622,-0.301 0.622,-0.301 0,0 -0.253,0.029 -0.684,0.103 -0.426,0.091 -1.045,0.174 -1.777,0.299 -1.465,0.245 -3.407,0.557 -5.357,0.818 -0.972,0.151 -1.951,0.257 -2.867,0.385 -0.92,0.115 -1.779,0.223 -2.514,0.315 C 0.989,-0.133 0,0 0,0"
             style="fill:#000000;fill-opacity:1;fill-rule:nonzero;stroke:none"
             id="path478" /></g><g
           id="g480"
           transform="translate(366.4437,201.8494)"><path
             d="m 0,0 c -0.262,0.026 -1.929,-1.312 -2.734,-1.973 l 0.927,1.776 c 0,0 1.227,1.184 1.668,1.834 0.441,0.65 0.209,1.3 -0.14,1.335 C -0.524,2.996 -1.99,1.833 -2.84,1.14 l 0.187,0.357 c 0,0 1.226,1.185 1.667,1.835 0.441,0.65 0.209,1.3 -0.139,1.335 -0.348,0.034 -3.169,-2.334 -3.169,-2.334 l -1.374,-1.839 1.036,2.012 c 0,0 0.545,0.667 0.909,1.394 0.363,0.727 0.101,0.949 -0.101,1.192 C -4.026,5.334 -5.925,3.92 -6.41,3.354 -6.895,2.789 -8.43,0.496 -8.551,0.173 l -1.587,-3.283 c -0.101,0.95 -0.261,2.579 -0.373,3.616 -0.161,1.495 -1.515,1.848 -1.562,1.121 -0.047,-0.727 -0.801,-4.303 -0.63,-6.242 0.171,-1.939 0.495,-3.212 0.617,-4.303 0.121,-1.091 -1.01,-3.27 -1.01,-3.27 0,0 4.525,-2.81 5.273,-1.969 0.748,0.841 2.34,2.709 3.11,3.967 1.057,1.728 1.771,4 1.771,4 l 1.414,3.021 c 0,0 1.226,1.184 1.667,1.834 C 0.58,-0.685 0.348,-0.035 0,0"
             style="fill:#e49191;fill-opacity:1;fill-rule:nonzero;stroke:none"
             id="path482" /></g><g
           id="g484"
           transform="translate(626.192,292.9258)"><path
             d="m 0,0 h -53.064 c -3.401,0 -6.157,-2.757 -6.157,-6.158 v -12.535 c 0,-3.138 2.346,-5.727 5.38,-6.109 0.445,-0.056 0.777,-0.434 0.777,-0.882 v -6.862 c 0,-0.397 0.509,-0.56 0.74,-0.237 l 5.405,7.558 c 0.168,0.235 0.439,0.374 0.728,0.374 H 0 c 3.401,0 6.158,2.757 6.158,6.158 V -6.158 C 6.158,-2.757 3.401,0 0,0 Z"
             style="fill:none;stroke:#ffffff;stroke-width:0.896;stroke-linecap:butt;stroke-linejoin:miter;stroke-miterlimit:10;stroke-dasharray:none;stroke-opacity:1"
             id="path486" /></g><g
           id="g488"
           transform="translate(581.2687,280.519)"><path
             d="m 0,0 c 0,-1.12 -0.908,-2.027 -2.027,-2.027 -1.12,0 -2.028,0.907 -2.028,2.027 0,1.12 0.908,2.027 2.028,2.027 C -0.908,2.027 0,1.12 0,0 Z"
             style="fill:none;stroke:#ffffff;stroke-width:0.896;stroke-linecap:butt;stroke-linejoin:miter;stroke-miterlimit:10;stroke-dasharray:none;stroke-opacity:1"
             id="path490" /></g><g
           id="g492"
           transform="translate(591.4781,280.519)"><path
             d="m 0,0 c 0,-1.12 -0.908,-2.027 -2.027,-2.027 -1.12,0 -2.028,0.907 -2.028,2.027 0,1.12 0.908,2.027 2.028,2.027 C -0.908,2.027 0,1.12 0,0 Z"
             style="fill:none;stroke:#ffffff;stroke-width:0.896;stroke-linecap:butt;stroke-linejoin:miter;stroke-miterlimit:10;stroke-dasharray:none;stroke-opacity:1"
             id="path494" /></g><g
           id="g496"
           transform="translate(601.6876,280.519)"><path
             d="m 0,0 c 0,-1.12 -0.908,-2.027 -2.028,-2.027 -1.119,0 -2.027,0.907 -2.027,2.027 0,1.12 0.908,2.027 2.027,2.027 C -0.908,2.027 0,1.12 0,0 Z"
             style="fill:none;stroke:#ffffff;stroke-width:0.896;stroke-linecap:butt;stroke-linejoin:miter;stroke-miterlimit:10;stroke-dasharray:none;stroke-opacity:1"
             id="path498" /></g><g
           id="g500"
           transform="translate(611.897,280.519)"><path
             d="m 0,0 c 0,-1.12 -0.908,-2.027 -2.028,-2.027 -1.119,0 -2.027,0.907 -2.027,2.027 0,1.12 0.908,2.027 2.027,2.027 C -0.908,2.027 0,1.12 0,0 Z"
             style="fill:none;stroke:#ffffff;stroke-width:0.896;stroke-linecap:butt;stroke-linejoin:miter;stroke-miterlimit:10;stroke-dasharray:none;stroke-opacity:1"
             id="path502" /></g><g
           id="g504"
           transform="translate(622.1064,280.519)"><path
             d="m 0,0 c 0,-1.12 -0.908,-2.027 -2.028,-2.027 -1.119,0 -2.027,0.907 -2.027,2.027 0,1.12 0.908,2.027 2.027,2.027 C -0.908,2.027 0,1.12 0,0 Z"
             style="fill:none;stroke:#ffffff;stroke-width:0.896;stroke-linecap:butt;stroke-linejoin:miter;stroke-miterlimit:10;stroke-dasharray:none;stroke-opacity:1"
             id="path506" /></g><g
           id="g508"
           transform="translate(206.891,237.9692)"><path
             d="m 0,0 h 53.064 c 3.401,0 6.157,-2.757 6.157,-6.158 v -12.535 c 0,-3.138 -2.346,-5.727 -5.38,-6.109 -0.445,-0.056 -0.777,-0.434 -0.777,-0.882 v -6.862 c 0,-0.397 -0.509,-0.56 -0.74,-0.237 l -5.405,7.558 c -0.168,0.235 -0.439,0.374 -0.728,0.374 H 0 c -3.401,0 -6.158,2.757 -6.158,6.158 V -6.158 C -6.158,-2.757 -3.401,0 0,0 Z"
             style="fill:none;stroke:#ffffff;stroke-width:0.896;stroke-linecap:butt;stroke-linejoin:miter;stroke-miterlimit:10;stroke-dasharray:none;stroke-opacity:1"
             id="path510" /></g><g
           id="g512"
           transform="translate(251.8143,225.5625)"><path
             d="m 0,0 c 0,-1.12 0.908,-2.027 2.027,-2.027 1.12,0 2.028,0.907 2.028,2.027 0,1.12 -0.908,2.027 -2.028,2.027 C 0.908,2.027 0,1.12 0,0 Z"
             style="fill:none;stroke:#ffffff;stroke-width:0.896;stroke-linecap:butt;stroke-linejoin:miter;stroke-miterlimit:10;stroke-dasharray:none;stroke-opacity:1"
             id="path514" /></g><g
           id="g516"
           transform="translate(241.6049,225.5625)"><path
             d="m 0,0 c 0,-1.12 0.908,-2.027 2.027,-2.027 1.12,0 2.028,0.907 2.028,2.027 0,1.12 -0.908,2.027 -2.028,2.027 C 0.908,2.027 0,1.12 0,0 Z"
             style="fill:none;stroke:#ffffff;stroke-width:0.896;stroke-linecap:butt;stroke-linejoin:miter;stroke-miterlimit:10;stroke-dasharray:none;stroke-opacity:1"
             id="path518" /></g><g
           id="g520"
           transform="translate(231.3954,225.5625)"><path
             d="m 0,0 c 0,-1.12 0.908,-2.027 2.027,-2.027 1.12,0 2.028,0.907 2.028,2.027 0,1.12 -0.908,2.027 -2.028,2.027 C 0.908,2.027 0,1.12 0,0 Z"
             style="fill:none;stroke:#ffffff;stroke-width:0.896;stroke-linecap:butt;stroke-linejoin:miter;stroke-miterlimit:10;stroke-dasharray:none;stroke-opacity:1"
             id="path522" /></g><g
           id="g524"
           transform="translate(221.1861,225.5625)"><path
             d="m 0,0 c 0,-1.12 0.908,-2.027 2.027,-2.027 1.12,0 2.028,0.907 2.028,2.027 0,1.12 -0.908,2.027 -2.028,2.027 C 0.908,2.027 0,1.12 0,0 Z"
             style="fill:none;stroke:#ffffff;stroke-width:0.896;stroke-linecap:butt;stroke-linejoin:miter;stroke-miterlimit:10;stroke-dasharray:none;stroke-opacity:1"
             id="path526" /></g><g
           id="g528"
           transform="translate(210.9766,225.5625)"><path
             d="m 0,0 c 0,-1.12 0.908,-2.027 2.027,-2.027 1.12,0 2.028,0.907 2.028,2.027 0,1.12 -0.908,2.027 -2.028,2.027 C 0.908,2.027 0,1.12 0,0 Z"
             style="fill:none;stroke:#ffffff;stroke-width:0.896;stroke-linecap:butt;stroke-linejoin:miter;stroke-miterlimit:10;stroke-dasharray:none;stroke-opacity:1"
             id="path530" /></g><g
           id="g532"
           transform="translate(527.358,321.8456)"><path
             d="m 0,0 h -96.716 c -5.334,0 -9.658,4.324 -9.658,9.658 v 0 c 0,5.334 4.324,9.658 9.658,9.658 H 0 c 5.334,0 9.658,-4.324 9.658,-9.658 v 0 C 9.658,4.324 5.334,0 0,0"
             style="fill:#ffffff;fill-opacity:1;fill-rule:nonzero;stroke:none"
             id="path534" /></g><g
           id="g536"
           transform="translate(527.358,321.8456)"><path
             d="m 0,0 h -96.716 c -5.334,0 -9.658,4.324 -9.658,9.658 v 0 c 0,5.334 4.324,9.658 9.658,9.658 H 0 c 5.334,0 9.658,-4.324 9.658,-9.658 v 0 C 9.658,4.324 5.334,0 0,0 Z"
             style="fill:none;stroke:#495ad6;stroke-width:0.896;stroke-linecap:butt;stroke-linejoin:miter;stroke-miterlimit:10;stroke-dasharray:none;stroke-opacity:1"
             id="path538" /></g><g
           id="g540"
           transform="translate(525.9406,332.1695)"><path
             d="m 0,0 c 0,-2.836 -2.299,-5.136 -5.136,-5.136 -2.836,0 -5.136,2.3 -5.136,5.136 0,2.837 2.3,5.136 5.136,5.136 C -2.299,5.136 0,2.837 0,0 Z"
             style="fill:none;stroke:#495ad6;stroke-width:1.672;stroke-linecap:butt;stroke-linejoin:miter;stroke-miterlimit:10;stroke-dasharray:none;stroke-opacity:1"
             id="path542" /></g><g
           id="g544"
           transform="translate(524.4363,328.5379)"><path
             d="M 0,0 2.836,-2.836"
             style="fill:none;stroke:#495ad6;stroke-width:1.672;stroke-linecap:round;stroke-linejoin:miter;stroke-miterlimit:10;stroke-dasharray:none;stroke-opacity:1"
             id="path546" /></g><g
           id="g548"
           transform="translate(380.8506,59.1714)"><path
             d="m 0,0 h -24.331 c -4.257,0 -7.708,3.451 -7.708,7.708 v 24.331 c 0,4.257 3.451,7.708 7.708,7.708 H 0 c 4.257,0 7.708,-3.451 7.708,-7.708 V 7.708 C 7.708,3.451 4.257,0 0,0"
             style="fill:#193091;fill-opacity:1;fill-rule:nonzero;stroke:none"
             id="path550" /></g><g
           id="g552"
           transform="translate(373.6071,59.1714)"><path
             d="m 0,0 h -24.331 c -4.257,0 -7.708,3.451 -7.708,7.708 v 24.331 c 0,4.257 3.451,7.708 7.708,7.708 H 0 c 4.257,0 7.708,-3.451 7.708,-7.708 V 7.708 C 7.708,3.451 4.257,0 0,0"
             style="fill:#495ad6;fill-opacity:1;fill-rule:nonzero;stroke:none"
             id="path554" /></g><g
           id="g556"
           transform="translate(356.7475,86.5469)"><path
             d="m 0,0 11.409,-6.587 c 0.705,-0.407 0.705,-1.423 0,-1.83 L 0,-15.004 c -0.704,-0.407 -1.585,0.102 -1.585,0.915 V -0.915 C -1.585,-0.102 -0.704,0.407 0,0"
             style="fill:#ffffff;fill-opacity:1;fill-rule:nonzero;stroke:none"
             id="path558" /></g><g
           id="g560"
           transform="translate(632.5349,59.1714)"><path
             d="m 0,0 h -31.807 c -5.565,0 -10.076,4.511 -10.076,10.076 v 31.807 c 0,5.565 4.511,10.076 10.076,10.076 H 0 c 5.565,0 10.076,-4.511 10.076,-10.076 V 10.076 C 10.076,4.511 5.565,0 0,0"
             style="fill:#193091;fill-opacity:1;fill-rule:nonzero;stroke:none"
             id="path562" /></g><g
           id="g564"
           transform="translate(623.0657,59.1714)"><path
             d="m 0,0 h -31.807 c -5.565,0 -10.076,4.511 -10.076,10.076 v 31.807 c 0,5.565 4.511,10.076 10.076,10.076 H 0 c 5.565,0 10.076,-4.511 10.076,-10.076 V 10.076 C 10.076,4.511 5.565,0 0,0"
             style="fill:#495ad6;fill-opacity:1;fill-rule:nonzero;stroke:none"
             id="path566" /></g><g
           id="g568"
           transform="translate(613.4052,98.3822)"><path
             d="m 0,0 c 0,-3.448 -2.795,-6.243 -6.243,-6.243 -3.448,0 -6.243,2.795 -6.243,6.243 0,3.448 2.795,6.243 6.243,6.243 C -2.795,6.243 0,3.448 0,0"
             style="fill:#ffffff;fill-opacity:1;fill-rule:nonzero;stroke:none"
             id="path570" /></g><g
           id="g572"
           transform="translate(620.1763,77.2455)"><path
             d="m 0,0 v -9.215 c 0,-0.833 -0.675,-1.508 -1.508,-1.508 H -24.52 c -0.833,0 -1.508,0.675 -1.508,1.508 V 0 c 0,7.187 5.827,13.014 13.014,13.014 v 0 C -5.826,13.014 0,7.187 0,0"
             style="fill:#ffffff;fill-opacity:1;fill-rule:nonzero;stroke:none"
             id="path574" /></g><g
           id="g576"
           transform="translate(490.9649,310.7195)"><path
             d="m 0,0 h -20.428 c -0.848,0 -1.536,0.687 -1.536,1.535 0,0.848 0.688,1.535 1.536,1.535 H 0 C 0.848,3.07 1.535,2.383 1.535,1.535 1.535,0.687 0.848,0 0,0"
             style="fill:#f0f4ff;fill-opacity:1;fill-rule:nonzero;stroke:none"
             id="path578" /></g><g
           id="g580"
           transform="translate(511.4024,310.7195)"><path
             d="m 0,0 h -14.784 c -0.848,0 -1.535,0.687 -1.535,1.535 0,0.848 0.687,1.535 1.535,1.535 H 0 C 0.848,3.07 1.535,2.383 1.535,1.535 1.535,0.687 0.848,0 0,0"
             style="fill:#f0f4ff;fill-opacity:1;fill-rule:nonzero;stroke:none"
             id="path582" /></g><g
           id="g584"
           transform="translate(479.2156,303.9695)"><path
             d="m 0,0 h -8.679 c -0.848,0 -1.535,0.687 -1.535,1.535 0,0.848 0.687,1.535 1.535,1.535 H 0 C 0.848,3.07 1.535,2.383 1.535,1.535 1.535,0.687 0.848,0 0,0"
             style="fill:#f0f4ff;fill-opacity:1;fill-rule:nonzero;stroke:none"
             id="path586" /></g><g
           id="g588"
           transform="translate(511.4024,303.9695)"><path
             d="m 0,0 h -27.034 c -0.848,0 -1.535,0.687 -1.535,1.535 0,0.848 0.687,1.535 1.535,1.535 H 0 C 0.848,3.07 1.535,2.383 1.535,1.535 1.535,0.687 0.848,0 0,0"
             style="fill:#f0f4ff;fill-opacity:1;fill-rule:nonzero;stroke:none"
             id="path590" /></g><g
           id="g592"
           transform="translate(497.4649,297.2195)"><path
             d="m 0,0 h -26.928 c -0.848,0 -1.536,0.687 -1.536,1.535 0,0.848 0.688,1.535 1.536,1.535 H 0 C 0.848,3.07 1.535,2.383 1.535,1.535 1.535,0.687 0.848,0 0,0"
             style="fill:#f0f4ff;fill-opacity:1;fill-rule:nonzero;stroke:none"
             id="path594" /></g><g
           id="g596"
           transform="translate(511.4024,297.2195)"><path
             d="m 0,0 h -8.68 c -0.848,0 -1.535,0.687 -1.535,1.535 0,0.848 0.687,1.535 1.535,1.535 H 0 C 0.848,3.07 1.535,2.383 1.535,1.535 1.535,0.687 0.848,0 0,0"
             style="fill:#f0f4ff;fill-opacity:1;fill-rule:nonzero;stroke:none"
             id="path598" /></g><g
           id="g600"
           transform="translate(232.2794,153.9268)"><path
             d="m 0,0 h -71.315 c -2.112,0 -3.824,1.712 -3.824,3.823 v 36 c 0,2.112 1.712,3.823 3.824,3.823 H 0 c 2.111,0 3.823,-1.711 3.823,-3.823 v -36 C 3.823,1.712 2.111,0 0,0"
             style="fill:#193091;fill-opacity:1;fill-rule:nonzero;stroke:none"
             id="path602" /></g><g
           id="g604"
           transform="translate(160.4968,191.6768)"><path
             d="M 0,0 H 72.25"
             style="fill:none;stroke:#ffffff;stroke-width:0.896;stroke-linecap:round;stroke-linejoin:miter;stroke-miterlimit:10;stroke-dasharray:none;stroke-opacity:1"
             id="path606" /></g><g
           id="g608"
           transform="translate(231.7147,194.6768)"><path
             d="m 0,0 c 0,-0.483 -0.392,-0.875 -0.875,-0.875 -0.483,0 -0.875,0.392 -0.875,0.875 0,0.483 0.392,0.875 0.875,0.875 C -0.392,0.875 0,0.483 0,0"
             style="fill:#ffffff;fill-opacity:1;fill-rule:nonzero;stroke:none"
             id="path610" /></g><g
           id="g612"
           transform="translate(227.1522,194.6768)"><path
             d="m 0,0 c 0,-0.483 -0.392,-0.875 -0.875,-0.875 -0.483,0 -0.875,0.392 -0.875,0.875 0,0.483 0.392,0.875 0.875,0.875 C -0.392,0.875 0,0.483 0,0"
             style="fill:#ffffff;fill-opacity:1;fill-rule:nonzero;stroke:none"
             id="path614" /></g><g
           id="g616"
           transform="translate(222.5897,194.6768)"><path
             d="m 0,0 c 0,-0.483 -0.392,-0.875 -0.875,-0.875 -0.483,0 -0.875,0.392 -0.875,0.875 0,0.483 0.392,0.875 0.875,0.875 C -0.392,0.875 0,0.483 0,0"
             style="fill:#ffffff;fill-opacity:1;fill-rule:nonzero;stroke:none"
             id="path618" /></g><g
           id="g620"
           transform="translate(173.9647,185.8018)"><path
             d="m 0,0 h -12.26 c -0.667,0 -1.208,0.541 -1.208,1.208 0,0.668 0.541,1.209 1.208,1.209 H 0 C 0.667,2.417 1.208,1.876 1.208,1.208 1.208,0.541 0.667,0 0,0"
             style="fill:#6589d1;fill-opacity:1;fill-rule:nonzero;stroke:none"
             id="path622" /></g><g
           id="g624"
           transform="translate(173.9647,180.2185)"><path
             d="m 0,0 h -12.26 c -0.667,0 -1.208,0.541 -1.208,1.208 0,0.668 0.541,1.209 1.208,1.209 H 0 C 0.667,2.417 1.208,1.876 1.208,1.208 1.208,0.541 0.667,0 0,0"
             style="fill:#6589d1;fill-opacity:1;fill-rule:nonzero;stroke:none"
             id="path626" /></g><g
           id="g628"
           transform="translate(173.9647,174.6351)"><path
             d="m 0,0 h -12.26 c -0.667,0 -1.208,0.541 -1.208,1.208 0,0.668 0.541,1.209 1.208,1.209 H 0 C 0.667,2.417 1.208,1.876 1.208,1.208 1.208,0.541 0.667,0 0,0"
             style="fill:#6589d1;fill-opacity:1;fill-rule:nonzero;stroke:none"
             id="path630" /></g><g
           id="g632"
           transform="translate(173.9647,169.0518)"><path
             d="m 0,0 h -12.26 c -0.667,0 -1.208,0.541 -1.208,1.208 0,0.668 0.541,1.209 1.208,1.209 H 0 C 0.667,2.417 1.208,1.876 1.208,1.208 1.208,0.541 0.667,0 0,0"
             style="fill:#6589d1;fill-opacity:1;fill-rule:nonzero;stroke:none"
             id="path634" /></g><g
           id="g636"
           transform="translate(173.9647,163.4685)"><path
             d="m 0,0 h -12.26 c -0.667,0 -1.208,0.541 -1.208,1.208 v 0 c 0,0.668 0.541,1.209 1.208,1.209 H 0 c 0.667,0 1.208,-0.541 1.208,-1.209 v 0 C 1.208,0.541 0.667,0 0,0"
             style="fill:#6589d1;fill-opacity:1;fill-rule:nonzero;stroke:none"
             id="path638" /></g><g
           id="g640"
           transform="translate(173.9647,157.8851)"><path
             d="m 0,0 h -12.26 c -0.667,0 -1.208,0.541 -1.208,1.208 0,0.668 0.541,1.209 1.208,1.209 H 0 C 0.667,2.417 1.208,1.876 1.208,1.208 1.208,0.541 0.667,0 0,0"
             style="fill:#6589d1;fill-opacity:1;fill-rule:nonzero;stroke:none"
             id="path642" /></g><g
           id="g644"
           transform="translate(231.5384,185.8018)"><path
             d="m 0,0 h -52.833 c -0.668,0 -1.209,0.541 -1.209,1.208 0,0.668 0.541,1.209 1.209,1.209 H 0 C 0.667,2.417 1.208,1.876 1.208,1.208 1.208,0.541 0.667,0 0,0"
             style="fill:#3b5fb7;fill-opacity:1;fill-rule:nonzero;stroke:none"
             id="path646" /></g><g
           id="g648"
           transform="translate(231.5384,180.2185)"><path
             d="m 0,0 h -52.833 c -0.668,0 -1.209,0.541 -1.209,1.208 0,0.668 0.541,1.209 1.209,1.209 H 0 C 0.667,2.417 1.208,1.876 1.208,1.208 1.208,0.541 0.667,0 0,0"
             style="fill:#3b5fb7;fill-opacity:1;fill-rule:nonzero;stroke:none"
             id="path650" /></g><g
           id="g652"
           transform="translate(231.5384,174.6351)"><path
             d="m 0,0 h -52.833 c -0.668,0 -1.209,0.541 -1.209,1.208 0,0.668 0.541,1.209 1.209,1.209 H 0 C 0.667,2.417 1.208,1.876 1.208,1.208 1.208,0.541 0.667,0 0,0"
             style="fill:#3b5fb7;fill-opacity:1;fill-rule:nonzero;stroke:none"
             id="path654" /></g><g
           id="g656"
           transform="translate(231.5384,169.0518)"><path
             d="m 0,0 h -52.833 c -0.668,0 -1.209,0.541 -1.209,1.208 0,0.668 0.541,1.209 1.209,1.209 H 0 C 0.667,2.417 1.208,1.876 1.208,1.208 1.208,0.541 0.667,0 0,0"
             style="fill:#3b5fb7;fill-opacity:1;fill-rule:nonzero;stroke:none"
             id="path658" /></g><g
           id="g660"
           transform="translate(231.5384,163.4685)"><path
             d="m 0,0 h -52.833 c -0.668,0 -1.209,0.541 -1.209,1.208 v 0 c 0,0.668 0.541,1.209 1.209,1.209 H 0 c 0.667,0 1.208,-0.541 1.208,-1.209 v 0 C 1.208,0.541 0.667,0 0,0"
             style="fill:#3b5fb7;fill-opacity:1;fill-rule:nonzero;stroke:none"
             id="path662" /></g><g
           id="g664"
           transform="translate(231.5384,157.8851)"><path
             d="m 0,0 h -52.833 c -0.668,0 -1.209,0.541 -1.209,1.208 0,0.668 0.541,1.209 1.209,1.209 H 0 C 0.667,2.417 1.208,1.876 1.208,1.208 1.208,0.541 0.667,0 0,0"
             style="fill:#3b5fb7;fill-opacity:1;fill-rule:nonzero;stroke:none"
             id="path666" /></g><g
           id="g668"
           transform="translate(603.3705,389.5053)"><path
             d="m 0,0 c 0,-17.952 -14.553,-32.505 -32.505,-32.505 -17.953,0 -32.506,14.553 -32.506,32.505 0,17.952 14.553,32.505 32.506,32.505 C -14.553,32.505 0,17.952 0,0 Z"
             style="fill:none;stroke:#dee3fc;stroke-width:0.79;stroke-linecap:butt;stroke-linejoin:miter;stroke-miterlimit:10;stroke-dasharray:none;stroke-opacity:1"
             id="path670" /></g><g
           id="g672"
           transform="translate(599.125,389.5053)"><path
             d="m 0,0 c 0,-15.607 -12.652,-28.26 -28.26,-28.26 -15.607,0 -28.26,12.653 -28.26,28.26 0,15.607 12.653,28.26 28.26,28.26 C -12.652,28.26 0,15.607 0,0"
             style="fill:#3945ba;fill-opacity:1;fill-rule:nonzero;stroke:none"
             id="path674" /></g><g
           id="g676"
           transform="translate(573.4375,389.5053)"><path
             d="m 0,0 c 0,-1.421 -1.152,-2.572 -2.572,-2.572 -1.421,0 -2.573,1.151 -2.573,2.572 0,1.421 1.152,2.572 2.573,2.572 C -1.152,2.572 0,1.421 0,0"
             style="fill:#ffffff;fill-opacity:1;fill-rule:nonzero;stroke:none"
             id="path678" /></g><g
           id="g680"
           transform="translate(570.5849,390.0108)"><path
             d="m 0,0 v 0 c -0.389,-0.215 -0.878,-0.075 -1.094,0.314 l -8.311,14.991 c -0.215,0.388 -0.075,0.878 0.314,1.093 0.388,0.216 0.878,0.075 1.093,-0.313 L 0.314,1.094 C 0.529,0.705 0.389,0.215 0,0"
             style="fill:#ffffff;fill-opacity:1;fill-rule:nonzero;stroke:none"
             id="path682" /></g><g
           id="g684"
           transform="translate(571.2739,389.0966)"><path
             d="m 0,0 v 0 c 0.314,0.314 0.824,0.314 1.138,0 l 7.19,-7.19 c 0.314,-0.314 0.314,-0.824 0,-1.138 -0.314,-0.314 -0.824,-0.314 -1.138,0 L 0,-1.138 C -0.314,-0.824 -0.314,-0.314 0,0"
             style="fill:#ffffff;fill-opacity:1;fill-rule:nonzero;stroke:none"
             id="path686" /></g><g
           id="g688"
           transform="translate(571.0382,412.125)"><path
             d="M 0,0 V 3.25"
             style="fill:none;stroke:#ffffff;stroke-width:2;stroke-linecap:round;stroke-linejoin:miter;stroke-miterlimit:10;stroke-dasharray:none;stroke-opacity:1"
             id="path690" /></g><g
           id="g692"
           transform="translate(593.4848,389.3323)"><path
             d="M 0,0 H 3.25"
             style="fill:none;stroke:#ffffff;stroke-width:2;stroke-linecap:round;stroke-linejoin:miter;stroke-miterlimit:10;stroke-dasharray:none;stroke-opacity:1"
             id="path694" /></g><g
           id="g696"
           transform="translate(570.6921,366.8857)"><path
             d="M 0,0 V -3.25"
             style="fill:none;stroke:#ffffff;stroke-width:2;stroke-linecap:round;stroke-linejoin:miter;stroke-miterlimit:10;stroke-dasharray:none;stroke-opacity:1"
             id="path698" /></g><g
           id="g700"
           transform="translate(548.2455,389.6784)"><path
             d="M 0,0 H -3.25"
             style="fill:none;stroke:#ffffff;stroke-width:2;stroke-linecap:round;stroke-linejoin:miter;stroke-miterlimit:10;stroke-dasharray:none;stroke-opacity:1"
             id="path702" /></g><g
           id="g704"><g
             id="g706" /><g
             id="g730"><g
               clip-path="url(#clipPath710)"
               opacity="0.5"
               id="g728"><g
                 transform="translate(559.7052,409.1811)"
                 id="g714"><path
                   d="M 0,0 -1.625,2.815"
                   style="fill:none;stroke:#dee3fc;stroke-width:1;stroke-linecap:round;stroke-linejoin:miter;stroke-miterlimit:10;stroke-dasharray:none;stroke-opacity:1"
                   id="path712" /></g><g
                 transform="translate(590.5409,400.6653)"
                 id="g718"><path
                   d="M 0,0 2.815,1.625"
                   style="fill:none;stroke:#dee3fc;stroke-width:1;stroke-linecap:round;stroke-linejoin:miter;stroke-miterlimit:10;stroke-dasharray:none;stroke-opacity:1"
                   id="path716" /></g><g
                 transform="translate(582.0251,369.8296)"
                 id="g722"><path
                   d="M 0,0 1.625,-2.815"
                   style="fill:none;stroke:#dee3fc;stroke-width:1;stroke-linecap:round;stroke-linejoin:miter;stroke-miterlimit:10;stroke-dasharray:none;stroke-opacity:1"
                   id="path720" /></g><g
                 transform="translate(551.1895,378.3454)"
                 id="g726"><path
                   d="M 0,0 -2.815,-1.625"
                   style="fill:none;stroke:#dee3fc;stroke-width:1;stroke-linecap:round;stroke-linejoin:miter;stroke-miterlimit:10;stroke-dasharray:none;stroke-opacity:1"
                   id="path724" /></g></g></g></g><g
           id="g732"><g
             id="g734" /><g
             id="g758"><g
               clip-path="url(#clipPath738)"
               opacity="0.5"
               id="g756"><g
                 transform="translate(551.3625,400.9651)"
                 id="g742"><path
                   d="M 0,0 -2.815,1.625"
                   style="fill:none;stroke:#dee3fc;stroke-width:1;stroke-linecap:round;stroke-linejoin:miter;stroke-miterlimit:10;stroke-dasharray:none;stroke-opacity:1"
                   id="path740" /></g><g
                 transform="translate(582.3249,409.008)"
                 id="g746"><path
                   d="M 0,0 1.625,2.815"
                   style="fill:none;stroke:#dee3fc;stroke-width:1;stroke-linecap:round;stroke-linejoin:miter;stroke-miterlimit:10;stroke-dasharray:none;stroke-opacity:1"
                   id="path744" /></g><g
                 transform="translate(590.3679,378.0457)"
                 id="g750"><path
                   d="M 0,0 2.815,-1.625"
                   style="fill:none;stroke:#dee3fc;stroke-width:1;stroke-linecap:round;stroke-linejoin:miter;stroke-miterlimit:10;stroke-dasharray:none;stroke-opacity:1"
                   id="path748" /></g><g
                 transform="translate(559.4055,370.0027)"
                 id="g754"><path
                   d="M 0,0 -1.625,-2.815"
                   style="fill:none;stroke:#dee3fc;stroke-width:1;stroke-linecap:round;stroke-linejoin:miter;stroke-miterlimit:10;stroke-dasharray:none;stroke-opacity:1"
                   id="path752" /></g></g></g></g><g
           id="g760"
           transform="translate(184.658,225.9222)"><path
             d="m 0,0 h -35.695 c -5.285,0 -9.569,4.284 -9.569,9.569 v 35.695 c 0,5.285 4.284,9.569 9.569,9.569 H 0 c 5.285,0 9.569,-4.284 9.569,-9.569 V 9.569 C 9.569,4.284 5.285,0 0,0"
             style="fill:#193091;fill-opacity:1;fill-rule:nonzero;stroke:none"
             id="path762" /></g><g
           id="g764"
           transform="translate(182.3105,230.6722)"><path
             d="m 0,0 h -39.5 c -4.234,0 -7.667,3.432 -7.667,7.667 v 39.5 c 0,4.234 3.433,7.666 7.667,7.666 H 0 c 4.234,0 7.667,-3.432 7.667,-7.666 V 7.667 C 7.667,3.432 4.234,0 0,0"
             style="fill:#7e89fd;fill-opacity:1;fill-rule:nonzero;stroke:none"
             id="path766" /></g><g
           id="g768"
           transform="translate(182.3105,230.6722)"><path
             d="m 0,0 h -39.5 c -4.234,0 -7.667,3.432 -7.667,7.667 v 39.5 c 0,4.234 3.433,7.666 7.667,7.666 H 0 c 4.234,0 7.667,-3.432 7.667,-7.666 V 7.667 C 7.667,3.432 4.234,0 0,0 Z"
             style="fill:none;stroke:#dee3fc;stroke-width:1;stroke-linecap:butt;stroke-linejoin:miter;stroke-miterlimit:10;stroke-dasharray:none;stroke-opacity:1"
             id="path770" /></g><g
           id="g772"
           transform="translate(155.4387,267.5082)"><path
             d="M 0,0 C 0,3.849 3.133,6.981 6.981,6.981 10.83,6.981 13.963,3.849 13.963,0 V -3.141 H 0 Z M 16.617,-3.141 H 16.33 V 0 c 0,5.156 -4.193,9.35 -9.349,9.35 C 1.825,9.35 -2.367,5.156 -2.367,0 V -3.141 H -2.43 c -1.449,0 -2.624,-1.175 -2.624,-2.624 v -11.837 c 0,-1.449 1.175,-2.623 2.624,-2.623 h 19.047 c 1.449,0 2.623,1.174 2.623,2.623 v 11.837 c 0,1.449 -1.174,2.624 -2.623,2.624"
             style="fill:#dee3fc;fill-opacity:1;fill-rule:nonzero;stroke:none"
             id="path774" /></g><g
           id="g776"
           transform="translate(165.6108,258.2833)"><path
             d="M 0,0 C 0,1.89 -1.719,3.378 -3.678,2.988 -4.833,2.758 -5.791,1.81 -6.032,0.657 c -0.29,-1.39 0.367,-2.658 1.443,-3.287 0.219,-0.128 0.343,-0.368 0.277,-0.613 l -0.531,-1.959 c -0.315,-1.165 0.562,-2.311 1.769,-2.311 1.207,0 2.084,1.146 1.768,2.311 l -0.525,1.938 c -0.067,0.248 0.061,0.491 0.284,0.618 C -0.624,-2.123 0,-1.137 0,0"
             style="fill:#7e89fd;fill-opacity:1;fill-rule:nonzero;stroke:none"
             id="path778" /></g><g
           id="g780"
           transform="translate(173.554,243.1318)"><path
             d="m 0,0 h -22.044 c -0.622,0 -1.125,0.504 -1.125,1.125 0,0.621 0.503,1.125 1.125,1.125 H 0 C 0.621,2.25 1.125,1.746 1.125,1.125 1.125,0.504 0.621,0 0,0"
             style="fill:#dee3fc;fill-opacity:1;fill-rule:nonzero;stroke:none"
             id="path782" /></g><g
           id="g784"
           transform="translate(173.554,239.3193)"><path
             d="m 0,0 h -22.044 c -0.622,0 -1.125,0.504 -1.125,1.125 0,0.621 0.503,1.125 1.125,1.125 H 0 C 0.621,2.25 1.125,1.746 1.125,1.125 1.125,0.504 0.621,0 0,0"
             style="fill:#dee3fc;fill-opacity:1;fill-rule:nonzero;stroke:none"
             id="path786" /></g><g
           id="g788"
           transform="translate(616.5729,161.468)"><path
             d="m 0,0 h -21.014 c -3.111,0 -5.634,2.522 -5.634,5.634 v 21.014 c 0,3.111 2.523,5.633 5.634,5.633 H 0 c 3.111,0 5.634,-2.522 5.634,-5.633 V 5.634 C 5.634,2.522 3.111,0 0,0"
             style="fill:#193091;fill-opacity:1;fill-rule:nonzero;stroke:none"
             id="path790" /></g><g
           id="g792"
           transform="translate(615.1909,164.2645)"><path
             d="m 0,0 h -23.254 c -2.493,0 -4.514,2.021 -4.514,4.513 v 23.255 c 0,2.492 2.021,4.513 4.514,4.513 H 0 c 2.493,0 4.513,-2.021 4.513,-4.513 V 4.513 C 4.513,2.021 2.493,0 0,0"
             style="fill:#7e89fd;fill-opacity:1;fill-rule:nonzero;stroke:none"
             id="path794" /></g><g
           id="g796"
           transform="translate(615.1909,164.2645)"><path
             d="m 0,0 h -23.254 c -2.493,0 -4.514,2.021 -4.514,4.513 v 23.255 c 0,2.492 2.021,4.513 4.514,4.513 H 0 c 2.493,0 4.513,-2.021 4.513,-4.513 V 4.513 C 4.513,2.021 2.493,0 0,0 Z"
             style="fill:none;stroke:#dee3fc;stroke-width:1;stroke-linecap:butt;stroke-linejoin:miter;stroke-miterlimit:10;stroke-dasharray:none;stroke-opacity:1"
             id="path798" /></g><g
           id="g800"
           transform="translate(597.042,170.7646)"><path
             d="M 0,0 C -0.091,0 -0.182,0.012 -0.272,0.038 -0.805,0.187 -1.113,0.74 -0.963,1.271 l 4.882,17.282 c 0.149,0.533 0.705,0.843 1.233,0.69 0.533,-0.149 0.841,-0.702 0.691,-1.233 L 0.961,0.729 C 0.837,0.287 0.436,0 0,0"
             style="fill:#ffffff;fill-opacity:1;fill-rule:nonzero;stroke:none"
             id="path802" /></g><g
           id="g804"
           transform="translate(605.2051,170.7646)"><path
             d="M 0,0 C -0.091,0 -0.182,0.012 -0.272,0.038 -0.805,0.187 -1.113,0.74 -0.963,1.271 L 3.92,18.553 c 0.149,0.533 0.705,0.843 1.233,0.69 0.533,-0.149 0.841,-0.702 0.691,-1.233 L 0.961,0.729 C 0.837,0.287 0.436,0 0,0"
             style="fill:#ffffff;fill-opacity:1;fill-rule:nonzero;stroke:none"
             id="path806" /></g><g
           id="g808"
           transform="translate(612.2041,183.3213)"><path
             d="m 0,0 h -17.281 c -0.553,0 -1,0.447 -1,1 0,0.553 0.447,1 1,1 H 0 C 0.553,2 1,1.553 1,1 1,0.447 0.553,0 0,0"
             style="fill:#ffffff;fill-opacity:1;fill-rule:nonzero;stroke:none"
             id="path810" /></g><g
           id="g812"
           transform="translate(612.2041,175.4268)"><path
             d="m 0,0 h -17.281 c -0.553,0 -1,0.447 -1,1 0,0.553 0.447,1 1,1 H 0 C 0.553,2 1,1.553 1,1 1,0.447 0.553,0 0,0"
             style="fill:#ffffff;fill-opacity:1;fill-rule:nonzero;stroke:none"
             id="path814" /></g><g
           id="g816"
           transform="translate(226.873,264.0091)"><path
             d="m 0,0 h -12.498 c -0.757,0 -1.371,0.614 -1.371,1.37 0,0.757 0.614,1.371 1.371,1.371 H 0 C 0.757,2.741 1.37,2.127 1.37,1.37 1.37,0.614 0.757,0 0,0"
             style="fill:#f0f4ff;fill-opacity:1;fill-rule:nonzero;stroke:none"
             id="path818" /></g><g
           id="g820"
           transform="translate(239.4629,257.9258)"><path
             d="m 0,0 h -25.088 c -0.757,0 -1.371,0.614 -1.371,1.37 0,0.757 0.614,1.371 1.371,1.371 H 0 C 0.757,2.741 1.37,2.127 1.37,1.37 1.37,0.614 0.757,0 0,0"
             style="fill:#f0f4ff;fill-opacity:1;fill-rule:nonzero;stroke:none"
             id="path822" /></g><g
           id="g824"
           transform="translate(217.3379,251.8425)"><path
             d="m 0,0 h -2.963 c -0.757,0 -1.371,0.614 -1.371,1.37 0,0.757 0.614,1.371 1.371,1.371 H 0 C 0.757,2.741 1.37,2.127 1.37,1.37 1.37,0.614 0.757,0 0,0"
             style="fill:#f0f4ff;fill-opacity:1;fill-rule:nonzero;stroke:none"
             id="path826" /></g><g
           id="g828"
           transform="translate(239.4629,251.8425)"><path
             d="m 0,0 h -17.469 c -0.757,0 -1.37,0.614 -1.37,1.37 0,0.757 0.613,1.371 1.37,1.371 H 0 C 0.757,2.741 1.37,2.127 1.37,1.37 1.37,0.614 0.757,0 0,0"
             style="fill:#f0f4ff;fill-opacity:1;fill-rule:nonzero;stroke:none"
             id="path830" /></g><g
           id="g832"
           transform="translate(239.4629,264.0091)"><path
             d="m 0,0 h -7.575 c -0.757,0 -1.371,0.614 -1.371,1.37 0,0.757 0.614,1.371 1.371,1.371 H 0 C 0.757,2.741 1.37,2.127 1.37,1.37 1.37,0.614 0.757,0 0,0"
             style="fill:#f0f4ff;fill-opacity:1;fill-rule:nonzero;stroke:none"
             id="path834" /></g><g
           id="g836"
           transform="translate(168.9834,77.084)"><path
             d="m 0,0 c -1.628,0 -3.152,-0.447 -4.456,-1.224 -0.524,4.666 -4.481,8.294 -9.287,8.294 -5.162,0 -9.347,-4.185 -9.347,-9.347 0,-0.346 0.021,-0.687 0.057,-1.023 -0.428,0.08 -0.87,0.124 -1.322,0.124 -3.942,0 -7.137,-3.196 -7.137,-7.137 0,-3.942 3.195,-7.137 7.137,-7.137 H 0 c 4.819,0 8.725,3.906 8.725,8.725 C 8.725,-3.906 4.819,0 0,0"
             style="fill:#ffffff;fill-opacity:1;fill-rule:nonzero;stroke:none"
             id="path838" /></g><g
           id="g840"
           transform="translate(107.0434,114.5599)"><path
             d="m 0,0 c -0.236,1.305 -0.204,2.64 0.125,3.925 1.1,4.302 2.361,12.395 -0.439,21.138 -4.671,14.585 -23.603,27.503 -23.603,27.503 0,0 5.138,-21.524 9.363,-30.688 3.093,-6.71 8.505,-14.345 11.507,-18.366 0.833,-1.115 1.404,-2.401 1.652,-3.771 3.061,-16.937 2.617,-30.048 2.609,-30.251 l 1.421,-0.056 C 2.643,-30.361 3.094,-17.116 0,0"
             style="fill:#dee3fc;fill-opacity:1;fill-rule:nonzero;stroke:none"
             id="path842" /></g><g
           id="g844"
           transform="translate(122.1379,128.2732)"><path
             d="m 0,0 c 3.761,11.89 5.51,25.896 5.51,25.896 0,0 -16.975,-14.006 -18.366,-24.843 -0.853,-6.638 0.207,-11.963 1.157,-15.095 0.403,-1.331 0.549,-2.722 0.4,-4.104 -1.718,-15.949 -0.372,-28.171 -0.35,-28.358 l 1.278,0.147 c -0.021,0.18 -1.271,11.552 0.201,26.622 0.201,2.064 1.033,4.015 2.338,5.626 C -5.402,-11.113 -1.929,-6.098 0,0"
             style="fill:#b4c1ef;fill-opacity:1;fill-rule:nonzero;stroke:none"
             id="path846" /></g><g
           id="g848"
           transform="translate(139.3938,154.7223)"><path
             d="m 0,0 c 0,0 -18.292,-6.788 -23.075,-21.723 -2.911,-9.09 -1.536,-17.492 -0.398,-21.844 0.32,-1.221 0.302,-2.496 -0.003,-3.721 -4.285,-17.186 -4.351,-34.977 -4.351,-35.214 h 1.457 c 0,0.232 0.066,17.599 4.204,34.454 0.411,1.675 1.141,3.249 2.169,4.633 3.12,4.202 8.429,11.762 11.503,18.431 C -4.168,-15.6 0,0 0,0"
             style="fill:#dee3fc;fill-opacity:1;fill-rule:nonzero;stroke:none"
             id="path850" /></g><g
           id="g852"
           transform="translate(107.1195,91.7062)"><path
             d="m 0,0 c -0.455,6.252 -2.159,11.881 -4.224,16.602 -0.414,0.946 -0.56,1.981 -0.427,3.004 0.256,1.972 0.361,5.035 -0.427,8.927 -1.484,7.328 -11.21,23.158 -25.292,24.086 0,0 4.858,-7.812 7.359,-14.347 3.163,-8.268 7.678,-16.918 15.165,-20.237 1.317,-0.584 2.348,-1.677 2.898,-3.009 1.804,-4.375 3.254,-9.485 3.664,-15.119 z"
             style="fill:#b4c1ef;fill-opacity:1;fill-rule:nonzero;stroke:none"
             id="path854" /></g><g
           id="g856"
           transform="translate(97.5979,59.6367)"><path
             d="m 0,0 h 23.238 l 6.03,36.845 c 0.267,1.631 -0.992,3.112 -2.645,3.112 H -3.385 c -1.653,0 -2.911,-1.481 -2.644,-3.112 z"
             style="fill:#dee3fc;fill-opacity:1;fill-rule:nonzero;stroke:none"
             id="path858" /></g><g
           id="g860"
           transform="translate(49.8902,59.6367)"><path
             d="M 0,0 H 650.22"
             style="fill:none;stroke:#ffffff;stroke-width:1.114;stroke-linecap:round;stroke-linejoin:miter;stroke-miterlimit:10;stroke-dasharray:none;stroke-opacity:1"
             id="path862" /></g></g></g></g></svg>
