<?xml version="1.0" encoding="UTF-8" standalone="no"?>
<!-- Created with Inkscape (http://www.inkscape.org/) -->

<svg
   version="1.1"
   id="svg2"
   xml:space="preserve"
   width="666.66669"
   height="666.66669"
   viewBox="0 0 666.66669 666.66669"
   sodipodi:docname="port5.svg"
   inkscape:version="1.1.1 (3bf5ae0d25, 2021-09-20)"
   xmlns:inkscape="http://www.inkscape.org/namespaces/inkscape"
   xmlns:sodipodi="http://sodipodi.sourceforge.net/DTD/sodipodi-0.dtd"
   xmlns="http://www.w3.org/2000/svg"
   xmlns:svg="http://www.w3.org/2000/svg"><defs
     id="defs6"><clipPath
       clipPathUnits="userSpaceOnUse"
       id="clipPath16"><path
         d="M 0,500 H 500 V 0 H 0 Z"
         id="path14" /></clipPath><clipPath
       clipPathUnits="userSpaceOnUse"
       id="clipPath24"><path
         d="M 5.87111,294.383 H 202.296 V -2.23711 H 5.87111 Z"
         id="path22" /></clipPath><clipPath
       clipPathUnits="userSpaceOnUse"
       id="clipPath48"><path
         d="M 141.972,398.394 H 358.028 V 91.5089 H 141.972 Z"
         id="path46" /></clipPath><clipPath
       clipPathUnits="userSpaceOnUse"
       id="clipPath124"><path
         d="M 0,500 H 500 V 0 H 0 Z"
         id="path122" /></clipPath><clipPath
       clipPathUnits="userSpaceOnUse"
       id="clipPath132"><path
         d="m 141.667,242.794 h 60.629 v -69.79 h -60.629 z"
         id="path130" /></clipPath><clipPath
       clipPathUnits="userSpaceOnUse"
       id="clipPath148"><path
         d="M 252.315,215.028 H 482.216 V 0 H 252.315 Z"
         id="path146" /></clipPath><clipPath
       clipPathUnits="userSpaceOnUse"
       id="clipPath180"><path
         d="m 303.698,237.271 c -5.812,-1.264 -18.193,-27.29 -20.721,-31.84 v 0 c -2.526,-4.547 -14.908,-15.137 -14.908,-15.137 v 0 c 3.033,-8.568 13.518,-4.951 16.916,-2.649 v 0 c 3.397,2.3 10.159,9.701 10.159,9.701 v 0 c 5.092,0.506 11.821,9.349 11.821,9.349 v 0 c 18.709,-8.872 22.002,-14.403 22.254,-26.026 v 0 c 0.253,-11.623 -12.634,-22.335 -12.634,-22.335 v 0 c -4.296,1.922 -9.62,1.109 -9.62,1.109 v 0 c -4.061,4.297 -13.083,3.855 -13.083,3.855 v 0 c 2.313,9.31 -1.351,12.741 -3.663,15.096 v 0 c -4.996,5.092 -22.537,4.669 -19.504,-5.509 v 0 c 3.032,-10.175 -6.381,-11.354 -3.048,-18.495 v 0 c 6.602,-14.145 11.52,-5.054 24.835,-20.067 v 0 c 13.313,-15.014 38.234,-24.658 48.593,-27.943 v 0 c 10.36,-3.285 18.699,-3.032 31.08,-20.973 v 0 C 384.556,67.467 407.046,0 407.046,0 v 0 h 89.197 c 0,0 -38.408,58.623 -54.074,80.859 v 0 c -15.667,22.236 -22.489,32.596 -27.796,41.946 v 0 c -5.306,9.348 -10.865,29.563 -19.962,48.262 v 0 c -9.097,18.699 -18.951,35.881 -24.509,42.691 v 0 c -5.56,6.81 -27.038,1.781 -34.619,6.077 v 0 c -7.264,4.117 -24.274,17.515 -30.794,17.514 v 0 c -0.284,0 -0.549,-0.026 -0.791,-0.078"
         id="path178" /></clipPath><clipPath
       clipPathUnits="userSpaceOnUse"
       id="clipPath188"><path
         d="M 234.293,196.129 H 400.482 V 134.523 H 234.293 Z"
         id="path186" /></clipPath><clipPath
       clipPathUnits="userSpaceOnUse"
       id="clipPath204"><path
         d="M 0,500 H 500 V 0 H 0 Z"
         id="path202" /></clipPath><clipPath
       clipPathUnits="userSpaceOnUse"
       id="clipPath212"><path
         d="M 299.481,127.692 H 413.587 V 0 H 299.481 Z"
         id="path210" /></clipPath><clipPath
       clipPathUnits="userSpaceOnUse"
       id="clipPath284"><path
         d="m 328.107,224.455 h 34.462 v -16.854 h -34.462 z"
         id="path282" /></clipPath><clipPath
       clipPathUnits="userSpaceOnUse"
       id="clipPath300"><path
         d="m 303.71,212.002 h 3.255 v -7.67 h -3.255 z"
         id="path298" /></clipPath><clipPath
       clipPathUnits="userSpaceOnUse"
       id="clipPath316"><path
         d="m 267.667,161.533 h 9.35 v -8.531 h -9.35 z"
         id="path314" /></clipPath><clipPath
       clipPathUnits="userSpaceOnUse"
       id="clipPath336"><path
         d="m 181.129,253.147 c -14.229,-3.195 -22.23,-11.3 -25.106,-14.777 v 0 c -0.212,-0.251 -0.42,-0.51 -0.625,-0.78 v 0 c -0.41,-0.536 -0.612,-0.847 -0.612,-0.847 v 0 c 0,0 -8.912,-1.476 -11.972,-6.532 v 0 c 0,0 -5.376,-0.331 -9.168,-3.119 v 0 c 0,0 -5.26,2.743 -9.986,7.367 v 0 c -13.322,-18.617 -16.356,-44.59 -7.303,-65.65 v 0 c 1.412,0.736 2.849,1.482 4.316,2.322 v 0 c 9.432,5.401 31.749,20.096 41.588,37.584 v 0 c 8.026,14.268 13.982,11.679 17.785,18.503 v 0 l 0.003,0.002 c 4.238,4.476 5.211,8.405 14.583,13.956 v 0 c 4.52,2.677 0.21,12.403 -9.75,12.405 v 0 c -1.175,0 -2.426,-0.135 -3.753,-0.434"
         id="path334" /></clipPath><clipPath
       clipPathUnits="userSpaceOnUse"
       id="clipPath344"><path
         d="m 176.153,248.233 h 18.163 v -14.721 h -18.163 z"
         id="path342" /></clipPath><clipPath
       clipPathUnits="userSpaceOnUse"
       id="clipPath360"><path
         d="m 169.672,230.012 h 10.974 v -7.367 h -10.974 z"
         id="path358" /></clipPath><clipPath
       clipPathUnits="userSpaceOnUse"
       id="clipPath376"><path
         d="M 0,500 H 500 V 0 H 0 Z"
         id="path374" /></clipPath><clipPath
       clipPathUnits="userSpaceOnUse"
       id="clipPath384"><path
         d="M 59.6667,184.734 H 140.5 V 0 H 59.6667 Z"
         id="path382" /></clipPath><clipPath
       clipPathUnits="userSpaceOnUse"
       id="clipPath400"><path
         d="M 0,500 H 500 V 0 H 0 Z"
         id="path398" /></clipPath></defs><sodipodi:namedview
     id="namedview4"
     pagecolor="#ffffff"
     bordercolor="#666666"
     borderopacity="1.0"
     inkscape:pageshadow="2"
     inkscape:pageopacity="0.0"
     inkscape:pagecheckerboard="0"
     showgrid="false"
     inkscape:zoom="0.94199997"
     inkscape:cx="333.33334"
     inkscape:cy="332.80256"
     inkscape:window-width="1440"
     inkscape:window-height="839"
     inkscape:window-x="1440"
     inkscape:window-y="0"
     inkscape:window-maximized="1"
     inkscape:current-layer="g8" /><g
     id="g8"
     inkscape:groupmode="layer"
     inkscape:label="490748-PH5A0U-5"
     transform="matrix(1.3333333,0,0,-1.3333333,0,666.66667)"><g
       id="g10"><g
         id="g12"
         clip-path="url(#clipPath16)"><g
           id="g18"><g
             id="g20" /><g
             id="g32"><g
               clip-path="url(#clipPath24)"
               opacity="0.100006"
               id="g30"><g
                 transform="translate(148.6846,220.2129)"
                 id="g28"><path
                   d="m 0,0 c 0,0 -5.375,-0.32 -9.167,-3.014 0,0 -5.26,2.65 -9.986,7.118 -0.375,0.354 -0.824,0.731 -1.318,1.125 5.873,4.739 11.503,10.578 14.658,13.304 C 0.482,23.974 4.433,10.434 12.214,6.647 12.059,6.438 11.972,6.312 11.972,6.312 11.972,6.312 3.061,4.887 0,0 m 38.315,22.163 c -3.827,-0.831 -7.19,-2.011 -10.138,-3.349 -2.522,0.804 -6.341,3.252 -10.391,6.312 3.668,1.531 7.231,4.594 9.283,7.201 3.142,0.692 5.882,2.578 6.426,6.688 0,0 -14.341,7.472 -17.772,11.251 -3.431,3.78 -23.035,23.904 -28.983,23.904 -18.381,0 -55.742,-28.163 -59.736,-35.73 -3.994,-7.567 -9.993,-25.808 -14.931,-45.326 -4.938,-19.518 -6.098,-39.746 -9.308,-49.66 -3.209,-9.913 -7.688,-21.092 -18.299,-45.293 -5.878,-13.405 -17.806,-44.911 -27.279,-70.355 v -50.256 h 59.666 12.01 c 4.034,31.487 16.194,123.129 23.053,139.205 7.016,16.444 13.958,20.047 21.627,23.912 1.413,0.712 2.85,1.434 4.316,2.245 0.289,0.159 0.59,0.328 0.902,0.504 0.156,0.088 0.322,0.184 0.483,0.276 0.16,0.091 0.315,0.179 0.48,0.275 0.253,0.145 0.518,0.3 0.782,0.455 0.077,0.046 0.151,0.088 0.229,0.134 0.304,0.178 0.618,0.365 0.936,0.555 0.047,0.029 0.092,0.055 0.139,0.083 0.35,0.21 0.71,0.428 1.076,0.651 0.014,0.009 0.029,0.018 0.044,0.027 4.231,2.586 9.457,6.058 14.757,10.185 v 0 c 8.252,6.425 16.674,14.436 21.76,23.172 8.027,13.787 13.983,11.285 17.785,17.878 10e-4,10e-4 0.003,0.002 0.003,0.003 4.239,4.325 5.212,8.121 14.583,13.485 5.054,2.892 -0.927,14.298 -13.503,11.568"
                   style="fill:#000000;fill-opacity:1;fill-rule:nonzero;stroke:none"
                   id="path26" /></g></g></g></g><g
           id="g34"
           transform="translate(172.5,249.3906)"><path
             d="M 0,0 C -2.302,0 -6.927,2.935 -11.901,6.824 -4.792,9.893 1.936,18.922 -2,18.922 c -5.236,0 -22.5,15.187 -28.528,22.25 C -36.557,48.235 -62.5,33.109 -69,23.723 c 0,0 -8,-20.114 0,-25.114 0.002,-10e-4 0.004,-0.002 0.006,-0.003 -1.694,-6.346 -3.123,-15.721 1.994,-18.918 8,-5 25,14.5 31.5,20.312 C -29,5.813 -25,-9.313 -16.701,-12.649 -8.402,-15.985 5.236,0 0,0"
             style="fill:#d89371;fill-opacity:1;fill-rule:nonzero;stroke:none"
             id="path36" /></g><g
           id="g38"
           transform="translate(158.5361,282.2314)"><path
             d="m 0,0 c -3.431,3.911 -23.035,24.738 -28.982,24.738 -18.381,0 -55.743,-29.146 -59.737,-36.977 -3.993,-7.831 -9.993,-26.708 -14.93,-46.907 -4.939,-20.2 -6.099,-41.132 -9.309,-51.392 -3.209,-10.26 -7.688,-21.828 -18.299,-46.874 -5.878,-13.873 -17.805,-46.479 -27.279,-72.81 v -52.009 h 71.676 c 4.034,32.585 16.194,127.424 23.053,144.062 7.016,17.018 13.958,20.746 21.627,24.746 5.644,21.921 5.644,32.692 7.304,65.651 -3.218,3.148 -11.592,7.918 -12.487,12.541 -2.211,11.414 -7.673,21.313 15.327,34.838 0,0 16.771,-10.665 21.854,-10.083 0,0 8.174,-5.803 11.981,-7.334 3.806,-1.531 14.82,-2.849 15.973,6.166 0,0 -14.341,7.732 -17.772,11.644"
             style="fill:#edb08e;fill-opacity:1;fill-rule:nonzero;stroke:none"
             id="path40" /></g><g
           id="g42"><g
             id="g44" /><g
             id="g56"><g
               clip-path="url(#clipPath48)"
               opacity="0.100006"
               id="g54"><g
                 transform="translate(344.4766,91.5088)"
                 id="g52"><path
                   d="m 0,0 h -188.953 c -7.484,0 -13.552,6.067 -13.552,13.552 v 279.781 c 0,7.485 6.068,13.553 13.552,13.553 H 0 c 7.484,0 13.552,-6.068 13.552,-13.553 V 13.552 C 13.552,6.067 7.484,0 0,0"
                   style="fill:#000000;fill-opacity:1;fill-rule:nonzero;stroke:none"
                   id="path50" /></g></g></g></g><g
           id="g58"
           transform="translate(344.4766,97.4209)"><path
             d="m 0,0 h -188.953 c -7.484,0 -13.552,6.067 -13.552,13.552 v 279.781 c 0,7.485 6.068,13.552 13.552,13.552 H 0 c 7.484,0 13.552,-6.067 13.552,-13.552 V 13.552 C 13.552,6.067 7.484,0 0,0"
             style="fill:#00a8a8;fill-opacity:1;fill-rule:nonzero;stroke:none"
             id="path60" /></g><path
           d="M 345.52,108.505 H 154.481 V 393.222 H 345.52 Z"
           style="fill:#ffffff;fill-opacity:1;fill-rule:nonzero;stroke:none"
           id="path62" /><path
           d="m 326.5,332.399 h -116 V 342 h 116 z"
           style="fill:#b3b3b3;fill-opacity:1;fill-rule:nonzero;stroke:none"
           id="path64" /><path
           d="m 326.5,314.95 h -116 v 9.601 h 116 z"
           style="fill:#d6d6d6;fill-opacity:1;fill-rule:nonzero;stroke:none"
           id="path66" /><path
           d="m 326.5,297.5 h -154 v 9.601 h 154 z"
           style="fill:#d6d6d6;fill-opacity:1;fill-rule:nonzero;stroke:none"
           id="path68" /><g
           id="g70"
           transform="translate(210.5884,393.2222)"><path
             d="m 0,0 c 0.06,-2.68 2.241,-4.836 4.935,-4.836 h 68.953 c 2.695,0 4.875,2.156 4.935,4.836 z"
             style="fill:#d6d6d6;fill-opacity:1;fill-rule:nonzero;stroke:none"
             id="path72" /></g><g
           id="g74"
           transform="translate(250,413.4141)"><path
             d="m 0,0 c -2.313,0 -4.189,1.876 -4.189,4.189 0,2.314 1.876,4.189 4.189,4.189 2.313,0 4.189,-1.875 4.189,-4.189 C 4.189,1.876 2.313,0 0,0 M 34.477,4.189 H 10.66 C 10.66,10.077 5.888,14.85 0,14.85 c -5.887,0 -10.66,-4.773 -10.66,-10.661 h -23.817 c -2.731,0 -4.945,-2.214 -4.945,-4.945 v -16.703 c 0,-2.732 2.214,-4.946 4.945,-4.946 h 68.954 c 2.731,0 4.946,2.214 4.946,4.946 v 16.703 c 0,2.731 -2.215,4.945 -4.946,4.945"
             style="fill:#d6d6d6;fill-opacity:1;fill-rule:nonzero;stroke:none"
             id="path76" /></g><g
           id="g78"
           transform="translate(210.5776,400.3716)"><path
             d="m 0,0 v -4.417 c 0,-2.731 2.214,-4.946 4.945,-4.946 h 68.954 c 2.731,0 4.946,2.215 4.946,4.946 V 0 Z"
             style="fill:#cccccc;fill-opacity:1;fill-rule:nonzero;stroke:none"
             id="path80" /></g><path
           d="M 201.842,342 H 172.5 v -27.05 h 29.342 z m -5,-22.05 H 177.5 V 337 h 19.342 z"
           style="fill:#d6d6d6;fill-opacity:1;fill-rule:nonzero;stroke:none"
           id="path82" /><path
           d="m 326.5,271.763 h -116 v 9.601 h 116 z"
           style="fill:#b3b3b3;fill-opacity:1;fill-rule:nonzero;stroke:none"
           id="path84" /><path
           d="m 326.5,254.313 h -116 v 9.601 h 116 z"
           style="fill:#d6d6d6;fill-opacity:1;fill-rule:nonzero;stroke:none"
           id="path86" /><path
           d="m 326.5,236.863 h -154 v 9.601 h 154 z"
           style="fill:#d6d6d6;fill-opacity:1;fill-rule:nonzero;stroke:none"
           id="path88" /><path
           d="m 241,170.706 h -68.5 v -9.601 H 241 Z"
           style="fill:#d6d6d6;fill-opacity:1;fill-rule:nonzero;stroke:none"
           id="path90" /><path
           d="m 210,153.863 h -37.5 v -9.602 H 210 Z"
           style="fill:#d6d6d6;fill-opacity:1;fill-rule:nonzero;stroke:none"
           id="path92" /><path
           d="m 326.787,170.706 h -68.5 v -9.601 h 68.5 z"
           style="fill:#d6d6d6;fill-opacity:1;fill-rule:nonzero;stroke:none"
           id="path94" /><path
           d="m 295.787,153.863 h -37.5 v -9.602 h 37.5 z"
           style="fill:#d6d6d6;fill-opacity:1;fill-rule:nonzero;stroke:none"
           id="path96" /><path
           d="M 201.842,281.363 H 172.5 v -27.05 h 29.342 z m -5,-22.05 H 177.5 v 17.05 h 19.342 z"
           style="fill:#d6d6d6;fill-opacity:1;fill-rule:nonzero;stroke:none"
           id="path98" /><path
           d="m 326.5,211.286 h -154 v 9.44 h 154 z"
           style="fill:#b3b3b3;fill-opacity:1;fill-rule:nonzero;stroke:none"
           id="path100" /><path
           d="M 241.209,204.582 H 172.5 v -27.05 h 68.709 z m -5,-22.05 H 177.5 v 17.05 h 58.709 z"
           style="fill:#d6d6d6;fill-opacity:1;fill-rule:nonzero;stroke:none"
           id="path102" /><path
           d="m 326.5,204.582 h -68.709 v -27.05 H 326.5 Z m -5,-22.05 h -58.709 v 17.05 H 321.5 Z"
           style="fill:#d6d6d6;fill-opacity:1;fill-rule:nonzero;stroke:none"
           id="path104" /><g
           id="g106"
           transform="translate(204.4082,341.0474)"><path
             d="m 0,0 -17.296,-17.296 -9.02,9.021"
             style="fill:none;stroke:#39b54a;stroke-width:5.792;stroke-linecap:round;stroke-linejoin:round;stroke-miterlimit:10;stroke-dasharray:none;stroke-opacity:1"
             id="path108" /></g><g
           id="g110"
           transform="translate(204.4082,281.3633)"><path
             d="m 0,0 -17.296,-17.296 -9.02,9.021"
             style="fill:none;stroke:#39b54a;stroke-width:5.792;stroke-linecap:round;stroke-linejoin:round;stroke-miterlimit:10;stroke-dasharray:none;stroke-opacity:1"
             id="path112" /></g></g></g><text
       transform="matrix(1,0,0,-1,171.981,359.458)"
       style="font-variant:normal;font-weight:bold;font-stretch:normal;font-size:13.7205px;font-family:Montserrat;-inkscape-font-specification:Montserrat-Bold;writing-mode:lr-tb;fill:#808080;fill-opacity:1;fill-rule:nonzero;stroke:none"
       id="text116"><tspan
         x="0 10.084567 19.263582 29.842087 34.342411 42.957512 51.436783 61.521351 71.551033 80.030304 84.530632 96.110733 107.19689 111.0798 119.75115 131.33125 141.41582"
         y="0"
         sodipodi:role="line"
         id="tspan114">REGISTRATION FORM</tspan></text><g
       id="g118"><g
         id="g120"
         clip-path="url(#clipPath124)"><g
           id="g126"><g
             id="g128" /><g
             id="g140"><g
               clip-path="url(#clipPath132)"
               opacity="0.100006"
               id="g138"><g
                 transform="translate(187,242.376)"
                 id="g136"><path
                   d="m 0,0 c -3.828,-0.831 -7.19,-2.011 -10.139,-3.349 -1.497,0.478 -3.459,1.544 -5.649,2.966 -1.698,-1.466 -3.434,-2.886 -5.221,-4.237 -3.109,-2.352 -6.696,-4.918 -10.545,-6.408 1.628,-1.822 3.408,-3.493 5.453,-4.488 -0.156,-0.209 -0.243,-0.335 -0.243,-0.335 0,0 -8.911,-1.425 -11.971,-6.312 0,0 -3.623,-0.219 -7.018,-1.786 v -25.668 h 0.336 v -19.755 c 1.439,1.038 2.898,2.12 4.368,3.266 h 10e-4 c 8.252,6.425 16.673,14.436 21.76,23.172 8.027,13.787 13.983,11.285 17.785,17.878 l 0.003,0.003 c 4.238,4.324 5.211,8.121 14.583,13.485 C 18.556,-8.676 12.575,2.729 0,0"
                   style="fill:#000000;fill-opacity:1;fill-rule:nonzero;stroke:none"
                   id="path134" /></g></g></g></g><g
           id="g142"><g
             id="g144" /><g
             id="g156"><g
               clip-path="url(#clipPath148)"
               opacity="0.100006"
               id="g154"><g
                 transform="translate(293.8828,141.3242)"
                 id="g152"><path
                   d="M 0,0 C 0.997,3.994 0.88,6.896 0.243,9.1 L 28.427,0.984 C 25.993,-2.002 23.679,-4.096 22.943,-4.734 22.937,-4.739 22.931,-4.745 22.925,-4.75 22.856,-4.81 22.8,-4.858 22.763,-4.89 h -0.001 c -0.039,-0.034 -0.06,-0.05 -0.06,-0.05 -0.007,0.003 -0.014,0.004 -0.019,0.007 -0.274,0.121 -0.55,0.231 -0.829,0.33 -0.098,0.036 -0.197,0.064 -0.295,0.096 -0.19,0.063 -0.379,0.126 -0.571,0.181 -0.114,0.032 -0.227,0.058 -0.342,0.088 -0.177,0.046 -0.354,0.092 -0.532,0.131 -0.113,0.025 -0.225,0.045 -0.339,0.068 -0.179,0.036 -0.358,0.071 -0.536,0.101 -0.104,0.017 -0.208,0.032 -0.311,0.046 -0.188,0.029 -0.372,0.055 -0.556,0.077 -0.089,0.01 -0.175,0.019 -0.263,0.028 -0.201,0.021 -0.399,0.04 -0.595,0.055 -0.063,0.004 -0.123,0.008 -0.185,0.012 -0.221,0.015 -0.435,0.027 -0.646,0.034 -0.035,10e-4 -0.068,0.003 -0.101,0.004 -0.241,0.008 -0.474,0.012 -0.697,0.013 H 15.884 C 14.23,-3.665 13.082,-3.836 13.082,-3.836 9.021,0.439 0,0 0,0 m 8.765,23.305 c 0.722,-1.663 1.758,-2.8 2.973,-3.542 l -7.749,1.919 c 1.793,0.351 3.477,0.976 4.776,1.623 m 16.651,-1.978 c 2.066,1.394 5.372,4.659 7.649,7.009 0.248,-0.478 0.47,-0.964 0.67,-1.46 -3.616,-4.298 -7.87,-8.623 -7.87,-8.623 0.257,-0.863 0.581,-1.596 0.953,-2.225 l -10.33,2.558 c 3.532,0.032 7.174,1.56 8.928,2.741 M -8.236,24.71 c 0.544,0.413 1.148,0.922 1.777,1.478 0.382,-0.9 0.856,-1.648 1.399,-2.265 z M 5.599,-35.438 v -10e-4 c 0.045,-0.037 0.09,-0.072 0.135,-0.108 0.43,-0.348 0.866,-0.692 1.306,-1.033 0.171,-0.132 0.344,-0.262 0.517,-0.393 0.319,-0.243 0.639,-0.485 0.963,-0.723 0.197,-0.146 0.394,-0.289 0.592,-0.433 0.309,-0.224 0.619,-0.445 0.931,-0.665 0.202,-0.143 0.403,-0.284 0.606,-0.425 0.324,-0.223 0.649,-0.445 0.976,-0.666 0.19,-0.128 0.38,-0.258 0.571,-0.385 0.389,-0.257 0.78,-0.512 1.172,-0.764 0.13,-0.084 0.259,-0.17 0.389,-0.253 0.516,-0.329 1.036,-0.654 1.557,-0.974 0.165,-0.102 0.332,-0.201 0.499,-0.302 0.365,-0.221 0.731,-0.442 1.098,-0.66 0.208,-0.123 0.416,-0.243 0.624,-0.365 0.329,-0.191 0.658,-0.382 0.988,-0.57 0.217,-0.124 0.435,-0.247 0.652,-0.369 0.33,-0.186 0.66,-0.369 0.99,-0.551 0.211,-0.115 0.421,-0.232 0.632,-0.346 0.361,-0.197 0.723,-0.389 1.084,-0.582 0.174,-0.093 0.348,-0.186 0.522,-0.278 0.529,-0.278 1.057,-0.551 1.583,-0.82 0.111,-0.056 0.221,-0.11 0.331,-0.167 0.425,-0.214 0.849,-0.427 1.272,-0.635 0.195,-0.097 0.389,-0.19 0.582,-0.285 0.338,-0.164 0.674,-0.328 1.01,-0.489 0.211,-0.1 0.421,-0.2 0.631,-0.299 0.323,-0.154 0.645,-0.304 0.965,-0.454 0.207,-0.095 0.413,-0.191 0.619,-0.286 0.333,-0.153 0.665,-0.303 0.995,-0.452 0.183,-0.083 0.368,-0.167 0.549,-0.248 0.429,-0.191 0.854,-0.379 1.277,-0.562 0.079,-0.036 0.16,-0.072 0.239,-0.106 0.498,-0.217 0.991,-0.427 1.48,-0.634 0.161,-0.067 0.319,-0.133 0.478,-0.2 0.332,-0.139 0.663,-0.276 0.99,-0.411 0.183,-0.075 0.363,-0.148 0.544,-0.222 0.301,-0.123 0.6,-0.243 0.896,-0.362 0.182,-0.072 0.363,-0.145 0.544,-0.216 0.294,-0.117 0.585,-0.231 0.873,-0.344 0.168,-0.065 0.337,-0.13 0.502,-0.195 0.329,-0.127 0.652,-0.25 0.972,-0.371 0.115,-0.043 0.233,-0.089 0.346,-0.131 0.433,-0.163 0.857,-0.32 1.272,-0.473 0.092,-0.033 0.179,-0.064 0.27,-0.097 0.32,-0.117 0.636,-0.232 0.944,-0.341 0.149,-0.053 0.292,-0.104 0.438,-0.155 0.248,-0.088 0.493,-0.174 0.733,-0.257 0.147,-0.052 0.291,-0.102 0.435,-0.15 0.233,-0.081 0.462,-0.159 0.686,-0.235 0.137,-0.046 0.273,-0.092 0.406,-0.137 0.24,-0.08 0.471,-0.156 0.701,-0.231 0.099,-0.033 0.203,-0.067 0.302,-0.1 0.326,-0.105 0.642,-0.208 0.944,-0.302 10.36,-3.27 18.699,-3.019 31.08,-20.875 7.859,-11.334 19.788,-42.522 27.455,-63.798 h 82.586 c -12.595,18.977 -30.523,45.816 -40.047,59.271 -15.667,22.132 -22.489,32.444 -27.796,41.749 -3.244,5.691 -6.585,15.427 -10.77,26.387 0.053,0.15 0.103,0.303 0.146,0.461 0.75,2.774 -0.501,5.507 -2.779,6.273 -1.979,4.925 -4.143,9.973 -6.559,14.915 -9.096,18.612 -18.951,35.714 -24.509,42.493 -3.456,4.213 -13.062,3.873 -21.658,4.04 l -0.143,0.003 c -0.775,0.015 -1.538,0.036 -2.289,0.064 -0.088,0.003 -0.177,0.005 -0.264,0.009 -0.327,0.013 -0.649,0.029 -0.971,0.046 -0.088,0.005 -0.177,0.008 -0.265,0.012 -0.339,0.019 -0.672,0.041 -1.003,0.065 -0.067,0.005 -0.136,0.009 -0.202,0.014 -0.32,0.023 -0.632,0.051 -0.943,0.082 -0.074,0.006 -0.151,0.011 -0.224,0.019 -0.271,0.027 -0.534,0.06 -0.796,0.091 -0.11,0.014 -0.223,0.024 -0.33,0.038 -0.268,0.035 -0.526,0.076 -0.785,0.117 -0.095,0.015 -0.195,0.028 -0.29,0.043 -0.238,0.04 -0.466,0.087 -0.696,0.133 -0.107,0.021 -0.22,0.04 -0.325,0.062 -0.227,0.049 -0.44,0.106 -0.657,0.161 -0.101,0.025 -0.206,0.047 -0.305,0.074 -0.196,0.054 -0.381,0.116 -0.569,0.176 -0.109,0.035 -0.223,0.064 -0.327,0.101 -0.158,0.055 -0.301,0.117 -0.451,0.176 -0.125,0.05 -0.256,0.095 -0.376,0.147 -0.262,0.117 -0.513,0.242 -0.75,0.374 -0.234,0.133 -0.48,0.276 -0.734,0.426 -0.107,0.064 -0.223,0.135 -0.333,0.202 -0.151,0.091 -0.3,0.18 -0.457,0.277 -0.139,0.085 -0.286,0.178 -0.429,0.267 -0.138,0.087 -0.273,0.17 -0.416,0.261 -0.172,0.108 -0.351,0.225 -0.529,0.338 -0.119,0.077 -0.235,0.15 -0.357,0.229 -0.19,0.123 -0.387,0.251 -0.582,0.379 -0.12,0.078 -0.237,0.155 -0.359,0.235 -0.216,0.141 -0.438,0.289 -0.661,0.436 -0.103,0.068 -0.202,0.134 -0.306,0.202 -0.251,0.167 -0.508,0.338 -0.765,0.511 -0.081,0.054 -0.16,0.107 -0.243,0.161 -0.33,0.222 -0.665,0.447 -1.004,0.675 C 25.62,66.656 14.198,74.574 9.815,73.626 4.003,72.369 -8.378,46.464 -10.905,41.938 c -1.791,-3.21 -8.532,-9.438 -12.306,-12.793 -0.169,-0.094 -0.325,-0.219 -0.443,-0.394 -0.696,-0.614 -1.265,-1.109 -1.642,-1.436 l -8.189,0.917 c -0.773,0.191 -1.511,0.283 -2.167,0.196 -0.437,-0.059 -0.837,-0.197 -1.186,-0.438 -0.175,-0.12 -0.337,-0.266 -0.483,-0.441 -0.023,-0.028 -0.039,-0.067 -0.062,-0.096 l -2.661,0.298 c -0.67,0.166 -1.261,0.102 -1.474,-0.684 -0.211,-0.785 0.267,-1.135 0.931,-1.327 l 2.452,-1.07 c 0.189,-1.418 1.41,-2.168 2.979,-2.619 l 8.59,-3.752 -0.3,-1.112 c -0.187,-0.689 0.137,-1.375 0.723,-1.532 l 2.574,-0.689 c 0.481,-0.129 0.974,0.15 1.244,0.632 l 0.343,-0.099 c -1.378,-1.393 -1.965,-3.351 -1.186,-5.955 3.032,-10.129 -6.381,-11.303 -3.048,-18.41 6.602,-14.078 11.521,-5.03 24.835,-19.973 2.077,-2.331 4.437,-4.532 6.98,-6.599"
                   style="fill:#000000;fill-opacity:1;fill-rule:nonzero;stroke:none"
                   id="path150" /></g></g></g></g><g
           id="g158"
           transform="translate(326.0312,206.1143)"><path
             d="m 0,0 v 6.478 h -19.818 c -2.218,-3.606 -3.481,-6.112 -4.117,-7.256 -2.526,-4.549 -14.908,-15.138 -14.908,-15.138 3.032,-8.567 13.519,-4.951 16.916,-2.649 3.397,2.3 10.159,9.701 10.159,9.701 C -11.443,-8.832 3.748,1.656 0,0"
             style="fill:#d89371;fill-opacity:1;fill-rule:nonzero;stroke:none"
             id="path160" /></g><g
           id="g162"
           transform="translate(341.2256,203.291)"><path
             d="m 0,0 v 9.301 h -18.023 c -3.364,-5.131 -5.121,-8.656 -5.911,-10.079 -2.527,-4.548 -14.908,-15.138 -14.908,-15.138 3.032,-8.567 13.519,-4.95 16.915,-2.649 3.397,2.3 10.159,9.701 10.159,9.701 C -11.443,-8.832 3.748,1.656 0,0"
             style="fill:#d89371;fill-opacity:1;fill-rule:nonzero;stroke:none"
             id="path164" /></g><g
           id="g166"
           transform="translate(352.2852,197.5527)"><path
             d="m 0,0 v 15.039 h -11.753 c -5.069,-8.242 -7.41,-13.914 -8.296,-15.817 -2.117,-4.548 -12.488,-15.138 -12.488,-15.138 2.54,-8.567 11.324,-4.95 14.169,-2.649 2.846,2.3 8.511,9.701 8.511,9.701 C -9.586,-8.832 3.14,1.656 0,0"
             style="fill:#d89371;fill-opacity:1;fill-rule:nonzero;stroke:none"
             id="path168" /></g><g
           id="g170"
           transform="translate(268.0693,190.2939)"><path
             d="m 0,0 c 0,0 12.382,10.59 14.908,15.138 2.528,4.549 14.908,30.575 20.721,31.839 5.811,1.262 24.005,-13.14 31.585,-17.436 7.581,-4.296 29.058,0.732 34.618,-6.077 5.559,-6.81 15.413,-23.992 24.51,-42.691 9.096,-18.699 14.656,-38.914 19.962,-48.262 5.306,-9.35 12.129,-19.71 27.796,-41.947 15.666,-22.235 54.074,-80.858 54.074,-80.858 h -89.197 c 0,0 -22.49,67.467 -34.872,85.407 -12.38,17.941 -20.719,17.688 -31.08,20.973 -10.359,3.285 -35.279,12.93 -48.592,27.943 -13.315,15.013 -18.234,5.922 -24.835,20.067 -3.333,7.141 6.08,8.32 3.048,18.496 -3.033,10.177 14.508,10.599 19.504,5.509 2.312,-2.356 5.976,-5.787 3.663,-15.097 0,0 9.022,0.441 13.083,-3.855 0,0 5.324,0.813 9.62,-1.109 0,0 12.886,10.712 12.633,22.335 -0.252,11.623 -3.545,17.153 -22.253,26.026 0,0 -6.73,-8.843 -11.821,-9.349 0,0 -6.763,-7.401 -10.159,-9.701 C 13.519,-4.95 3.032,-8.567 0,0"
             style="fill:#edb08e;fill-opacity:1;fill-rule:nonzero;stroke:none"
             id="path172" /></g></g></g><g
       id="g174"><g
         id="g176"
         clip-path="url(#clipPath180)"><g
           id="g182"><g
             id="g184" /><g
             id="g196"><g
               clip-path="url(#clipPath188)"
               opacity="0.100006"
               id="g194"><g
                 transform="translate(397.1387,146.1934)"
                 id="g192"><path
                   d="m 0,0 -7.856,2.498 c -0.031,0.106 -0.063,0.211 -0.097,0.316 -0.032,0.102 -0.069,0.202 -0.105,0.302 -0.051,0.143 -0.102,0.285 -0.16,0.424 -0.045,0.106 -0.095,0.209 -0.144,0.313 -0.059,0.127 -0.116,0.256 -0.181,0.38 -0.112,0.213 -0.233,0.42 -0.363,0.621 -0.058,0.089 -0.122,0.172 -0.184,0.258 -0.086,0.122 -0.171,0.244 -0.263,0.36 -0.068,0.086 -0.141,0.166 -0.212,0.248 -0.095,0.108 -0.191,0.216 -0.291,0.318 -0.076,0.077 -0.154,0.15 -0.233,0.225 -0.106,0.098 -0.215,0.195 -0.327,0.287 -0.081,0.067 -0.162,0.132 -0.246,0.195 -0.121,0.091 -0.246,0.176 -0.373,0.258 -0.082,0.055 -0.164,0.109 -0.249,0.159 -0.145,0.086 -0.295,0.163 -0.447,0.237 -0.075,0.038 -0.147,0.079 -0.224,0.113 -0.232,0.104 -0.469,0.198 -0.716,0.276 l -56.499,17.96 c 0.039,0.671 -0.292,1.28 -0.867,1.476 l -3.484,1.18 c -0.61,0.206 -1.288,-0.122 -1.653,-0.748 l -62.63,19.908 c 0.05,0.616 -0.233,1.182 -0.759,1.361 l -2.819,0.955 c -0.641,0.217 -1.369,-0.222 -1.627,-0.981 l -0.414,-1.222 -10.308,1.832 c -1.412,0.449 -2.737,0.581 -3.752,-0.031 -0.235,-0.142 -0.447,-0.336 -0.645,-0.562 l -2.943,0.522 c -0.735,0.235 -1.398,0.205 -1.691,-0.66 -0.292,-0.863 0.216,-1.29 0.941,-1.551 l 2.655,-1.373 c 0.108,-1.6 1.416,-2.527 3.131,-3.144 l 9.3,-4.811 -0.414,-1.222 c -0.257,-0.759 0.054,-1.55 0.696,-1.767 l 2.818,-0.955 c 0.528,-0.179 1.11,0.091 1.445,0.613 l 61.82,-22.252 c -0.091,-0.718 0.247,-1.391 0.857,-1.598 l 3.485,-1.181 c 0.575,-0.194 1.209,0.089 1.585,0.646 l 55.782,-20.079 c 2.376,-0.855 4.953,-0.289 7.038,1.275 l 2.224,-0.8 5.533,-1.992 c 2.677,-0.963 5.755,0.858 6.835,4.047 C 4.048,-4.179 2.712,-0.861 0,0"
                   style="fill:#000000;fill-opacity:1;fill-rule:nonzero;stroke:none"
                   id="path190" /></g></g></g></g></g></g><g
       id="g198"><g
         id="g200"
         clip-path="url(#clipPath204)"><g
           id="g206"><g
             id="g208" /><g
             id="g220"><g
               clip-path="url(#clipPath212)"
               opacity="0.100006"
               id="g218"><g
                 transform="translate(345.1572,112.0234)"
                 id="g216"><path
                   d="m 0,0 c -6.056,2.069 -26.146,9.127 -45.676,15.669 13.755,-11.237 32.87,-18.54 41.614,-21.313 10.36,-3.285 18.699,-3.032 31.08,-20.972 12.381,-17.941 34.871,-85.407 34.871,-85.407 h 6.541 c 0,0 -24.969,70.078 -37.35,89.417 C 18.698,-3.269 10.359,-3.541 0,0"
                   style="fill:#000000;fill-opacity:1;fill-rule:nonzero;stroke:none"
                   id="path214" /></g></g></g></g><g
           id="g222"
           transform="translate(394.041,146.3926)"><path
             d="m 0,0 11.942,-3.455 c 2.734,-0.79 5.689,1.225 6.563,4.475 0.874,3.25 -0.672,6.475 -3.433,7.162 L 3.008,11.184 Z"
             style="fill:#7f7f7f;fill-opacity:1;fill-rule:nonzero;stroke:none"
             id="path224" /></g><g
           id="g226"
           transform="translate(394.041,146.3926)"><path
             d="m 0,0 11.942,-3.455 c 2.734,-0.79 5.689,1.225 6.563,4.475 0.874,3.25 -0.672,6.475 -3.433,7.162 L 3.008,11.184 Z"
             style="fill:#7f7f7f;fill-opacity:1;fill-rule:nonzero;stroke:none"
             id="path228" /></g><g
           id="g230"
           transform="translate(394.041,146.3926)"><path
             d="m 0,0 11.942,-3.455 c 2.734,-0.79 5.689,1.225 6.563,4.475 0.874,3.25 -0.672,6.475 -3.433,7.162 L 3.008,11.184 Z"
             style="fill:#7f7f7f;fill-opacity:1;fill-rule:nonzero;stroke:none"
             id="path232" /></g><g
           id="g234"
           transform="translate(403.5986,149.8184)"><path
             d="M 0,0 C 0.583,2.17 0.468,4.332 -0.192,6.176 L -6.55,7.758 -9.558,-3.426 -3.265,-5.246 C -1.769,-3.981 -0.584,-2.17 0,0"
             style="fill:#666666;fill-opacity:1;fill-rule:nonzero;stroke:none"
             id="path236" /></g><g
           id="g238"
           transform="translate(244.6064,191.3701)"><path
             d="M 0,0 3.495,-1.533 4.399,1.829 0.607,2.256 C -0.141,2.441 -0.801,2.369 -1.038,1.488 -1.275,0.608 -0.74,0.214 0,0"
             style="fill:#7f7f7f;fill-opacity:1;fill-rule:nonzero;stroke:none"
             id="path240" /></g><g
           id="g242"
           transform="translate(250.6689,187.2324)"><path
             d="M 0,0 10.743,-4.714 13.522,5.621 1.864,6.932 C -0.435,7.504 -2.463,7.281 -3.191,4.574 -3.919,1.868 -2.276,0.658 0,0"
             style="fill:#7f7f7f;fill-opacity:1;fill-rule:nonzero;stroke:none"
             id="path244" /></g><g
           id="g246"
           transform="translate(262.6279,187.0381)"><path
             d="m 0,0 1.563,5.815 -11.658,1.311 c -2.299,0.572 -4.327,0.35 -5.055,-2.357 -0.063,-0.237 -0.087,-0.449 -0.116,-0.664 z"
             style="fill:#666666;fill-opacity:1;fill-rule:nonzero;stroke:none"
             id="path248" /></g><g
           id="g250"
           transform="translate(263.3379,180.4736)"><path
             d="m 0,0 127.784,-36.967 c 4.235,-1.224 8.813,1.897 10.167,6.933 1.355,5.036 -1.04,10.033 -5.318,11.097 L 3.546,13.183 Z"
             style="fill:#7f7f7f;fill-opacity:1;fill-rule:nonzero;stroke:none"
             id="path252" /></g><g
           id="g254"
           transform="translate(401.6309,152.4492)"><path
             d="m 0,0 c 0.333,4.292 -1.955,8.166 -5.66,9.088 l -129.087,32.119 -1.246,-4.632 z"
             style="fill:#666666;fill-opacity:1;fill-rule:nonzero;stroke:none"
             id="path256" /></g><g
           id="g258"
           transform="translate(348.7891,164.5596)"><path
             d="m 0,0 c -0.338,-1.257 0.393,-2.553 1.643,-2.914 l 41.622,-12.041 c 1.454,-0.421 3.026,0.65 3.491,2.38 0.465,1.729 -0.358,3.445 -1.826,3.81 L 2.883,1.697 C 1.62,2.012 0.338,1.257 0,0"
             style="fill:#fbb03b;fill-opacity:1;fill-rule:nonzero;stroke:none"
             id="path260" /></g><g
           id="g262"
           transform="translate(333.9287,178.2246)"><path
             d="m 0,0 3.552,-0.955 c 0.729,-0.196 1.133,-1.055 0.9,-1.917 l -4.01,-14.909 c -0.232,-0.863 -1.01,-1.403 -1.74,-1.207 l -3.553,0.956 c -0.728,0.196 -1.131,1.053 -0.899,1.916 l 4.01,14.91 C -1.509,-0.344 -0.729,0.196 0,0"
             style="fill:#fbb03b;fill-opacity:1;fill-rule:nonzero;stroke:none"
             id="path264" /></g><g
           id="g266"
           transform="translate(264.835,195.3223)"><path
             d="M 0,0 2.873,-0.772 C 3.526,-0.948 3.889,-1.718 3.68,-2.491 L 0.328,-14.953 c -0.208,-0.774 -0.906,-1.258 -1.56,-1.082 l -2.873,0.772 c -0.655,0.176 -1.016,0.946 -0.808,1.719 l 3.351,12.462 C -1.354,-0.309 -0.654,0.176 0,0"
             style="fill:#fbb03b;fill-opacity:1;fill-rule:nonzero;stroke:none"
             id="path268" /></g><g
           id="g270"
           transform="translate(296.1367,163.2607)"><path
             d="m 0,0 c -1.35,0.075 -2.254,0.037 -2.254,0.037 2.313,9.311 -1.351,12.741 -3.663,15.097 -4.996,5.091 -22.537,4.668 -19.505,-5.509 3.032,-10.176 -6.381,-11.354 -3.048,-18.496 6.602,-14.145 11.521,-5.054 24.835,-20.066 1.129,-1.274 2.353,-2.503 3.635,-3.698 z"
             style="fill:#edb08e;fill-opacity:1;fill-rule:nonzero;stroke:none"
             id="path272" /></g><g
           id="g274"
           transform="translate(296.1367,229.2051)"><path
             d="m 0,0 c -5.531,-8.418 -11.491,-20.771 -13.159,-23.773 -2.527,-4.548 -14.908,-15.138 -14.908,-15.138 3.032,-8.568 13.518,-4.95 16.916,-2.65 3.396,2.301 10.159,9.702 10.159,9.702 0.324,0.032 0.656,0.109 0.992,0.207 z"
             style="fill:#edb08e;fill-opacity:1;fill-rule:nonzero;stroke:none"
             id="path276" /></g><g
           id="g278"><g
             id="g280" /><g
             id="g292"><g
               clip-path="url(#clipPath284)"
               opacity="0.100006"
               id="g290"><g
                 transform="translate(328.1074,224.4551)"
                 id="g288"><path
                   d="m 0,0 v 0 c 0.231,-0.157 8.163,-7.021 26.609,-14.728 18.447,-7.707 -1.393,8.012 -1.393,8.012 l -0.001,0.001 C 18.212,-6.585 10.961,-6.766 7.176,-4.62 5.312,-3.564 2.805,-1.896 0,0"
                   style="fill:#000000;fill-opacity:1;fill-rule:nonzero;stroke:none"
                   id="path286" /></g></g></g></g><g
           id="g294"><g
             id="g296" /><g
             id="g308"><g
               clip-path="url(#clipPath300)"
               opacity="0.100006"
               id="g306"><g
                 transform="translate(306.9648,206.6953)"
                 id="g304"><path
                   d="m 0,0 c 0,0 -2.321,2.021 -3.164,5.307 0,0 -0.579,-5.569 1.185,-7.67 z"
                   style="fill:#000000;fill-opacity:1;fill-rule:nonzero;stroke:none"
                   id="path302" /></g></g></g></g><g
           id="g310"><g
             id="g312" /><g
             id="g324"><g
               clip-path="url(#clipPath316)"
               opacity="0.100006"
               id="g322"><g
                 transform="translate(267.667,154.3896)"
                 id="g320"><path
                   d="m 0,0 c 0,0 2.78,7.291 9.35,7.142 0,0 -7.988,-4.106 -8.668,-8.53 z"
                   style="fill:#000000;fill-opacity:1;fill-rule:nonzero;stroke:none"
                   id="path318" /></g></g></g></g><g
           id="g326"
           transform="translate(181.1289,253.1475)"><path
             d="m 0,0 c -14.228,-3.196 -22.23,-11.301 -25.106,-14.777 -0.212,-0.251 -0.42,-0.51 -0.624,-0.781 -0.411,-0.536 -0.614,-0.846 -0.614,-0.846 0,0 -8.911,-1.476 -11.971,-6.533 0,0 -5.376,-0.331 -9.168,-3.118 0,0 -5.26,2.743 -9.986,7.367 -13.322,-18.618 -16.356,-44.59 -7.303,-65.651 1.412,0.736 2.849,1.483 4.316,2.323 9.432,5.401 31.749,20.096 41.588,37.584 8.027,14.268 13.983,11.678 17.785,18.502 l 0.003,0.003 c 4.238,4.476 5.211,8.405 14.583,13.955 C 18.556,-8.979 12.575,2.825 0,0"
             style="fill:#edb08e;fill-opacity:1;fill-rule:nonzero;stroke:none"
             id="path328" /></g></g></g><g
       id="g330"><g
         id="g332"
         clip-path="url(#clipPath336)"><g
           id="g338"><g
             id="g340" /><g
             id="g352"><g
               clip-path="url(#clipPath344)"
               opacity="0.100006"
               id="g350"><g
                 transform="translate(188.106,248.1191)"
                 id="g348"><path
                   d="m 0,0 c -6.399,-1.872 -13.137,-7.146 -11.776,-8.664 1.36,-1.519 7.678,-7.364 9.342,-5.622 1.663,1.743 10.585,5.368 8.259,9.429 C 3.5,-0.797 1.844,0.54 0,0"
                   style="fill:#ffffff;fill-opacity:1;fill-rule:nonzero;stroke:none"
                   id="path346" /></g></g></g></g><g
           id="g354"><g
             id="g356" /><g
             id="g368"><g
               clip-path="url(#clipPath360)"
               opacity="0.100006"
               id="g366"><g
                 transform="translate(169.6719,230.0117)"
                 id="g364"><path
                   d="M 0,0 C 1.181,-0.074 2.284,-0.395 3.348,-0.803 4.406,-1.223 5.413,-1.758 6.355,-2.39 7.298,-3.021 8.176,-3.75 8.965,-4.57 9.747,-5.399 10.46,-6.3 10.974,-7.367 9.884,-6.909 8.928,-6.353 7.982,-5.798 7.044,-5.234 6.136,-4.652 5.241,-4.05 4.346,-3.447 3.463,-2.827 2.587,-2.173 1.715,-1.506 0.838,-0.833 0,0"
                   style="fill:#000000;fill-opacity:1;fill-rule:nonzero;stroke:none"
                   id="path362" /></g></g></g></g></g></g><g
       id="g370"><g
         id="g372"
         clip-path="url(#clipPath376)"><g
           id="g378"><g
             id="g380" /><g
             id="g392"><g
               clip-path="url(#clipPath384)"
               opacity="0.100006"
               id="g390"><g
                 transform="translate(75.3335,97.4209)"
                 id="g388"><path
                   d="m 0,0 c -4.297,-31.42 -12.393,-78.235 -15.667,-97.421 h 12.01 c 4.034,32.585 16.194,127.425 23.053,144.063 7.016,17.017 13.958,20.746 21.627,24.746 1.413,0.736 2.85,1.482 4.316,2.323 4.556,2.608 12.118,7.39 19.828,13.602 C 42.252,78.657 26.516,71.879 18.667,64.112 14.068,59.563 5.333,39 0,0"
                   style="fill:#000000;fill-opacity:1;fill-rule:nonzero;stroke:none"
                   id="path386" /></g></g></g></g></g></g><g
       id="g394"><g
         id="g396"
         clip-path="url(#clipPath400)"><g
           id="g402"
           transform="translate(260.1045,34.5342)"><path
             d="m 0,0 c -0.433,-0.442 -0.804,-0.931 -1.108,-1.453 l -0.466,0.241 c -0.067,0.298 -0.349,0.503 -0.658,0.467 -0.331,-0.039 -0.569,-0.339 -0.53,-0.67 0.039,-0.331 0.339,-0.568 0.67,-0.529 0.066,0.007 0.127,0.026 0.184,0.052 l 0.451,-0.234 C -1.708,-2.68 -1.89,-3.265 -1.996,-3.87 l 0.746,-0.131 c 0.23,1.306 0.85,2.506 1.792,3.472 z"
             style="fill:#1d262d;fill-opacity:1;fill-rule:nonzero;stroke:none"
             id="path404" /></g><g
           id="g406"
           transform="translate(265.5918,36.8369)"><path
             d="m 0,0 c -0.171,0 -0.341,-0.007 -0.51,-0.018 l -0.073,0.626 c 0.187,0.15 0.296,0.39 0.266,0.645 C -0.363,1.646 -0.72,1.928 -1.113,1.882 -1.506,1.835 -1.787,1.479 -1.741,1.086 -1.711,0.832 -1.552,0.625 -1.336,0.522 l 0.073,-0.624 c -0.714,-0.116 -1.403,-0.332 -2.059,-0.646 l 0.327,-0.684 c 0.933,0.448 1.941,0.673 2.995,0.673 0.496,0 0.993,-0.053 1.475,-0.157 l 0.161,0.741 C 1.101,-0.06 0.551,0 0,0"
             style="fill:#1d262d;fill-opacity:1;fill-rule:nonzero;stroke:none"
             id="path408" /></g><g
           id="g410"
           transform="translate(272.1943,34.2891)"><path
             d="M 0,0 C 0.331,0.041 0.566,0.342 0.525,0.673 0.485,1.004 0.184,1.238 -0.146,1.198 -0.456,1.16 -0.682,0.895 -0.677,0.59 L -1.093,0.227 c -0.418,0.429 -0.889,0.812 -1.408,1.138 l -0.403,-0.64 c 1.133,-0.715 2.02,-1.727 2.563,-2.926 l 0.691,0.312 c -0.251,0.555 -0.568,1.073 -0.943,1.545 L -0.19,0.008 C -0.13,-0.005 -0.065,-0.008 0,0"
             style="fill:#1d262d;fill-opacity:1;fill-rule:nonzero;stroke:none"
             id="path412" /></g><g
           id="g414"
           transform="translate(265.0439,26.6279)"><path
             d="m 0,0 c -0.386,-0.023 -0.774,-0.034 -1.157,-0.034 -0.88,0 -1.733,0.06 -2.478,0.179 -0.39,0.062 -0.846,0.155 -1.27,0.292 1.046,-1.861 3.069,-3.125 5.388,-3.125 2.856,0 5.262,1.916 5.95,4.503 C 5.751,1.366 4.927,0.99 3.974,0.692 2.795,0.325 1.42,0.086 0,0"
             style="fill:#1d262d;fill-opacity:1;fill-rule:nonzero;stroke:none"
             id="path416" /></g><g
           id="g418"
           transform="translate(268.1699,29.7139)"><path
             d="M 0,0 C -0.75,0 -1.36,0.61 -1.36,1.36 -1.36,2.11 -0.75,2.721 0,2.721 0.75,2.721 1.36,2.11 1.36,1.36 1.36,0.61 0.75,0 0,0 m -4.737,-0.908 c -1.021,0 -1.85,0.83 -1.85,1.849 0,1.021 0.829,1.85 1.85,1.85 1.019,0 1.849,-0.829 1.849,-1.85 0,-1.019 -0.83,-1.849 -1.849,-1.849 m 2.159,6.514 c -3.353,0 -6.079,-2.666 -6.079,-5.943 0,-0.426 0.046,-0.849 0.136,-1.262 0.674,-0.482 2.707,-0.889 5.348,-0.73 2.879,0.173 5.297,0.957 6.672,2.158 C 3.494,0.024 3.479,0.22 3.454,0.411 3.074,3.373 0.48,5.606 -2.578,5.606"
             style="fill:#1d262d;fill-opacity:1;fill-rule:nonzero;stroke:none"
             id="path420" /></g><g
           id="g422"
           transform="translate(281.5957,33.4531)"><path
             d="M 0,0 C -0.295,0.116 -0.806,0.309 -1.383,0.237 -1.934,0.169 -2.227,-0.103 -2.227,-0.77 v -0.865 h 2.228 v -1.718 h -2.228 v -5.454 h -1.931 v 5.454 h -1.34 v 1.718 h 1.34 v 0.888 c 0,1.681 0.895,2.783 2.568,2.783 0.643,0 1.157,-0.122 1.59,-0.308 z"
             style="fill:#1d262d;fill-opacity:1;fill-rule:nonzero;stroke:none"
             id="path424" /></g><g
           id="g426"
           transform="translate(286.2979,30.1211)"><path
             d="m 0,0 c -0.177,0.03 -0.357,0.047 -0.526,0.047 -0.896,0 -1.51,-0.548 -1.51,-1.614 v -3.908 h -1.932 v 7.172 h 1.873 V 0.912 c 0.451,0.674 1.14,0.978 2.021,0.978 0.414,0 0.847,-0.128 1.094,-0.337 z"
             style="fill:#1d262d;fill-opacity:1;fill-rule:nonzero;stroke:none"
             id="path428" /></g><g
           id="g430"
           transform="translate(288.8506,28.9092)"><path
             d="M 0,0 H 3.176 C 2.998,0.918 2.442,1.436 1.613,1.436 0.703,1.436 0.171,0.889 0,0 m 5.114,-0.666 c 0,-0.222 -0.014,-0.488 -0.037,-0.651 h -5.084 c 0.207,-1.037 0.933,-1.488 1.843,-1.488 0.621,0 1.295,0.251 1.813,0.688 L 4.781,-3.36 c -0.813,-0.747 -1.85,-1.088 -3.056,-1.088 -2.199,0 -3.723,1.495 -3.723,3.753 0,2.257 1.48,3.797 3.626,3.797 2.065,0 3.479,-1.533 3.486,-3.768"
             style="fill:#1d262d;fill-opacity:1;fill-rule:nonzero;stroke:none"
             id="path432" /></g><g
           id="g434"
           transform="translate(296.5039,28.9092)"><path
             d="M 0,0 H 3.176 C 2.998,0.918 2.442,1.436 1.613,1.436 0.703,1.436 0.17,0.889 0,0 m 5.114,-0.666 c 0,-0.222 -0.014,-0.488 -0.037,-0.651 h -5.084 c 0.207,-1.037 0.932,-1.488 1.843,-1.488 0.621,0 1.295,0.251 1.813,0.688 L 4.781,-3.36 c -0.814,-0.747 -1.85,-1.088 -3.056,-1.088 -2.199,0 -3.723,1.495 -3.723,3.753 0,2.257 1.48,3.797 3.626,3.797 2.065,0 3.479,-1.533 3.486,-3.768"
             style="fill:#1d262d;fill-opacity:1;fill-rule:nonzero;stroke:none"
             id="path436" /></g><g
           id="g438"
           transform="translate(304.2871,28.2354)"><path
             d="m 0,0 c 0,-1.132 0.748,-1.976 1.843,-1.976 1.139,0 1.85,0.881 1.85,1.976 0,1.096 -0.711,1.977 -1.85,1.977 C 0.748,1.977 0,1.133 0,0 m 5.677,0 c 0,-2.153 -1.495,-3.774 -3.471,-3.774 -0.963,0 -1.644,0.378 -2.109,0.932 V -6.55 H -1.828 V 3.583 H 0.06 V 2.791 C 0.525,3.375 1.214,3.775 2.198,3.775 4.182,3.775 5.677,2.154 5.677,0"
             style="fill:#1d262d;fill-opacity:1;fill-rule:nonzero;stroke:none"
             id="path440" /></g><path
           d="m 312.809,24.646 h -1.932 v 7.172 h 1.932 z m 0.258,9.518 c 0,-0.695 -0.54,-1.228 -1.235,-1.228 -0.696,0 -1.229,0.533 -1.229,1.228 0,0.696 0.533,1.243 1.229,1.243 0.695,0 1.235,-0.547 1.235,-1.243"
           style="fill:#1d262d;fill-opacity:1;fill-rule:nonzero;stroke:none"
           id="path442" /><g
           id="g444"
           transform="translate(316.0322,29.2646)"><path
             d="M 0,0 2.701,2.554 H 5.07 L 1.591,-0.821 5.092,-4.618 H 2.716 L 0,-1.717 V -4.618 H -1.932 V 6.039 H 0 Z"
             style="fill:#1d262d;fill-opacity:1;fill-rule:nonzero;stroke:none"
             id="path446" /></g><g
           id="g448"
           transform="translate(184.4126,26.6299)"><path
             d="m 0,0 v 3.208 c -0.396,0.615 -1.245,1.143 -2.124,1.143 -1.421,0 -2.271,-1.172 -2.271,-2.74 0,-1.567 0.85,-2.724 2.271,-2.724 0.879,0 1.728,0.498 2.124,1.113 m 0,-1.919 v 1.055 c -0.527,-0.718 -1.392,-1.231 -2.388,-1.231 -1.845,0 -3.149,1.407 -3.149,3.706 0,2.256 1.289,3.721 3.149,3.721 0.952,0 1.817,-0.469 2.388,-1.245 v 3.765 h 1.099 v -9.771 z"
             style="fill:#1d262d;fill-opacity:1;fill-rule:nonzero;stroke:none"
             id="path450" /></g><g
           id="g452"
           transform="translate(190.4033,31.0537)"><path
             d="M 0,0 C -1.509,0 -2.256,-1.274 -2.314,-2.358 H 2.329 C 2.314,-1.304 1.611,0 0,0 m -3.471,-2.798 c 0,2.051 1.464,3.706 3.486,3.706 2.138,0 3.398,-1.67 3.398,-3.794 v -0.278 h -5.727 c 0.087,-1.333 1.025,-2.446 2.548,-2.446 0.806,0 1.626,0.322 2.183,0.893 L 2.944,-5.435 C 2.241,-6.138 1.289,-6.519 0.132,-6.519 c -2.095,0 -3.603,1.509 -3.603,3.721"
             style="fill:#1d262d;fill-opacity:1;fill-rule:nonzero;stroke:none"
             id="path454" /></g><g
           id="g456"
           transform="translate(194.6069,25.6484)"><path
             d="M 0,0 0.571,0.791 C 1.04,0.249 1.934,-0.22 2.9,-0.22 c 1.084,0 1.67,0.513 1.67,1.216 0,1.714 -4.38,0.659 -4.38,3.281 0,1.099 0.953,2.036 2.637,2.036 1.201,0 2.051,-0.454 2.622,-1.025 L 4.936,4.526 C 4.512,5.039 3.735,5.42 2.827,5.42 1.86,5.42 1.26,4.937 1.26,4.307 1.26,2.754 5.639,3.779 5.639,1.025 5.639,-0.161 4.687,-1.113 2.856,-1.113 1.699,-1.113 0.718,-0.762 0,0"
             style="fill:#1d262d;fill-opacity:1;fill-rule:nonzero;stroke:none"
             id="path458" /></g><path
           d="m 201.667,31.786 h 1.099 v -7.075 h -1.099 z m -0.19,1.743 c 0,0.41 0.337,0.747 0.732,0.747 0.411,0 0.747,-0.337 0.747,-0.747 0,-0.41 -0.336,-0.732 -0.747,-0.732 -0.395,0 -0.732,0.322 -0.732,0.732"
           style="fill:#1d262d;fill-opacity:1;fill-rule:nonzero;stroke:none"
           id="path460" /><g
           id="g462"
           transform="translate(209.7085,26.7471)"><path
             d="m 0,0 v 3.091 c -0.381,0.615 -1.23,1.142 -2.109,1.142 -1.421,0 -2.27,-1.128 -2.27,-2.695 0,-1.553 0.849,-2.695 2.27,-2.695 0.879,0 1.728,0.542 2.109,1.157 m -5.126,-3.853 0.556,0.821 c 0.586,-0.703 1.289,-0.967 2.3,-0.967 1.172,0 2.27,0.571 2.27,2.124 v 1.011 c -0.512,-0.718 -1.376,-1.26 -2.373,-1.26 -1.845,0 -3.149,1.377 -3.149,3.662 0,2.271 1.289,3.677 3.149,3.677 0.952,0 1.802,-0.469 2.373,-1.245 v 1.069 h 1.099 v -6.87 c 0,-2.344 -1.641,-3.076 -3.369,-3.076 -1.201,0 -2.022,0.234 -2.856,1.054"
             style="fill:#1d262d;fill-opacity:1;fill-rule:nonzero;stroke:none"
             id="path464" /></g><g
           id="g466"
           transform="translate(217.4131,24.7109)"><path
             d="M 0,0 V 4.629 C 0,5.874 -0.629,6.27 -1.582,6.27 -2.446,6.27 -3.267,5.742 -3.676,5.171 V 0 h -1.099 v 7.075 h 1.099 V 6.05 c 0.498,0.586 1.464,1.201 2.519,1.201 1.479,0 2.256,-0.747 2.256,-2.285 L 1.099,0 Z"
             style="fill:#1d262d;fill-opacity:1;fill-rule:nonzero;stroke:none"
             id="path468" /></g><g
           id="g470"
           transform="translate(223.4043,31.0537)"><path
             d="M 0,0 C -1.509,0 -2.256,-1.274 -2.314,-2.358 H 2.329 C 2.314,-1.304 1.611,0 0,0 m -3.472,-2.798 c 0,2.051 1.465,3.706 3.487,3.706 2.138,0 3.398,-1.67 3.398,-3.794 v -0.278 h -5.727 c 0.087,-1.333 1.025,-2.446 2.548,-2.446 0.806,0 1.626,0.322 2.183,0.893 L 2.944,-5.435 C 2.241,-6.138 1.289,-6.519 0.132,-6.519 c -2.095,0 -3.604,1.509 -3.604,3.721"
             style="fill:#1d262d;fill-opacity:1;fill-rule:nonzero;stroke:none"
             id="path472" /></g><g
           id="g474"
           transform="translate(233.3501,26.6299)"><path
             d="m 0,0 v 3.208 c -0.396,0.615 -1.245,1.143 -2.124,1.143 -1.421,0 -2.271,-1.172 -2.271,-2.74 0,-1.567 0.85,-2.724 2.271,-2.724 0.879,0 1.728,0.498 2.124,1.113 m 0,-1.919 v 1.055 c -0.527,-0.718 -1.392,-1.231 -2.388,-1.231 -1.845,0 -3.149,1.407 -3.149,3.706 0,2.256 1.289,3.721 3.149,3.721 0.952,0 1.817,-0.469 2.388,-1.245 v 3.765 h 1.099 v -9.771 z"
             style="fill:#1d262d;fill-opacity:1;fill-rule:nonzero;stroke:none"
             id="path476" /></g><g
           id="g478"
           transform="translate(242.8999,25.5166)"><path
             d="M 0,0 C 1.436,0 2.285,1.157 2.285,2.725 2.285,4.292 1.436,5.464 0,5.464 -0.864,5.464 -1.729,4.937 -2.109,4.321 V 1.113 C -1.729,0.498 -0.864,0 0,0 m -3.208,-0.806 v 9.771 h 1.099 V 5.2 c 0.571,0.777 1.421,1.245 2.387,1.245 1.846,0 3.15,-1.465 3.15,-3.72 0,-2.3 -1.304,-3.706 -3.15,-3.706 -0.996,0 -1.86,0.512 -2.387,1.23 v -1.055 z"
             style="fill:#1d262d;fill-opacity:1;fill-rule:nonzero;stroke:none"
             id="path480" /></g><g
           id="g482"
           transform="translate(247.5283,22.9385)"><path
             d="m 0,0 c 0.161,-0.073 0.425,-0.117 0.601,-0.117 0.483,0 0.805,0.161 1.055,0.747 l 0.469,1.069 -2.96,7.149 H 0.352 L 2.71,3.047 5.054,8.848 H 6.255 L 2.71,0.337 C 2.285,-0.688 1.567,-1.084 0.63,-1.099 c -0.234,0 -0.601,0.044 -0.805,0.103 z"
             style="fill:#1d262d;fill-opacity:1;fill-rule:nonzero;stroke:none"
             id="path484" /></g></g></g></g></svg>
