<?xml version="1.0" encoding="UTF-8" standalone="no"?>
<!-- Created with Inkscape (http://www.inkscape.org/) -->

<svg
   version="1.1"
   id="svg2"
   xml:space="preserve"
   width="666.66669"
   height="666.66669"
   viewBox="0 0 666.66669 666.66669"
   sodipodi:docname="port4.svg"
   inkscape:version="1.1.1 (3bf5ae0d25, 2021-09-20)"
   xmlns:inkscape="http://www.inkscape.org/namespaces/inkscape"
   xmlns:sodipodi="http://sodipodi.sourceforge.net/DTD/sodipodi-0.dtd"
   xmlns="http://www.w3.org/2000/svg"
   xmlns:svg="http://www.w3.org/2000/svg"><defs
     id="defs6"><clipPath
       clipPathUnits="userSpaceOnUse"
       id="clipPath16"><path
         d="M 0,500 H 500 V 0 H 0 Z"
         id="path14" /></clipPath><clipPath
       clipPathUnits="userSpaceOnUse"
       id="clipPath28"><path
         d="M 0,500 H 500 V 0 H 0 Z"
         id="path26" /></clipPath><clipPath
       clipPathUnits="userSpaceOnUse"
       id="clipPath416"><path
         d="M 0,500 H 500 V 0 H 0 Z"
         id="path414" /></clipPath></defs><sodipodi:namedview
     id="namedview4"
     pagecolor="#ffffff"
     bordercolor="#666666"
     borderopacity="1.0"
     inkscape:pageshadow="2"
     inkscape:pageopacity="0.0"
     inkscape:pagecheckerboard="0"
     showgrid="false"
     inkscape:zoom="0.94199997"
     inkscape:cx="333.33334"
     inkscape:cy="332.80256"
     inkscape:window-width="1440"
     inkscape:window-height="839"
     inkscape:window-x="1440"
     inkscape:window-y="0"
     inkscape:window-maximized="1"
     inkscape:current-layer="g8" /><g
     id="g8"
     inkscape:groupmode="layer"
     inkscape:label="2113942"
     transform="matrix(1.3333333,0,0,-1.3333333,0,666.66667)"><g
       id="g10"><g
         id="g12"
         clip-path="url(#clipPath16)"><g
           id="g18"
           transform="translate(191.257,117.5241)"><path
             d="M 0,0 C 97.842,-18.915 205.926,-26.086 259.518,76.862 313.11,179.811 312.538,252.008 147.921,320.868 -16.695,389.728 -183.46,305.854 -164.714,174.121 -145.967,42.388 -66.719,12.898 0,0"
             style="fill:#dfe9ed;fill-opacity:1;fill-rule:nonzero;stroke:none"
             id="path20" /></g></g></g><g
       id="g22"><g
         id="g24"
         clip-path="url(#clipPath28)"><g
           id="g30"
           transform="translate(339.3776,88.5153)"><path
             d="m 0,0 c 28.041,0 31.994,11.058 31.994,35.916 v 239.493 c 0,13.339 -2.375,26.371 -31.126,26.367 -28.752,-0.005 -164.565,-0.005 -175.479,-0.005 -10.913,0 -23.039,-2.11 -23.039,-21.512 V 33.491 C -197.65,17.446 -198.091,0 -174.728,0 Z"
             style="fill:#508aa8;fill-opacity:1;fill-rule:nonzero;stroke:none"
             id="path32" /></g><g
           id="g34"
           transform="translate(155.2394,367.7136)"><path
             d="m 0,0 c 0,0 137.026,4.244 199.476,0 0,0 6.064,-214.331 6.064,-242.524 0,-14.007 -17.118,-24.57 -41.836,-25.588 -48.505,-1.999 -106.711,-3.355 -163.098,1.989 0,0 -5.457,59.977 -0.606,266.123"
             style="fill:#ffffff;fill-opacity:1;fill-rule:nonzero;stroke:none"
             id="path36" /></g><g
           id="g38"
           transform="translate(360.7789,125.1891)"><path
             d="M 0,0 C -3.638,-14.854 -17.851,-9.523 -17.851,-9.523 -19.538,-22.304 -41.836,-25.588 -41.836,-25.588 -17.117,-24.569 0,-14.006 0,0"
             style="fill:#77acc6;fill-opacity:1;fill-rule:nonzero;stroke:none"
             id="path40" /></g><g
           id="g42"
           transform="translate(172.755,154.9684)"><path
             d="M 0,0 C 0,0 41.835,2.426 100.648,0"
             style="fill:none;stroke:#77acc6;stroke-width:3;stroke-linecap:round;stroke-linejoin:round;stroke-miterlimit:10;stroke-dasharray:none;stroke-opacity:1"
             id="path44" /></g><g
           id="g46"
           transform="translate(172.755,143.0954)"><path
             d="M 0,0 C 0,0 30.652,0.909 51.874,0"
             style="fill:none;stroke:#77acc6;stroke-width:3;stroke-linecap:round;stroke-linejoin:round;stroke-miterlimit:10;stroke-dasharray:none;stroke-opacity:1"
             id="path48" /></g><g
           id="g50"
           transform="translate(273.403,143.4997)"><path
             d="M 0,0 C 0,0 -29.376,-0.519 -40.589,-0.404"
             style="fill:none;stroke:#77acc6;stroke-width:3;stroke-linecap:round;stroke-linejoin:round;stroke-miterlimit:10;stroke-dasharray:none;stroke-opacity:1"
             id="path52" /></g><g
           id="g54"
           transform="translate(172.755,129.4528)"><path
             d="M 0,0 C 0,0 64.539,-2.425 100.648,0"
             style="fill:none;stroke:#77acc6;stroke-width:3;stroke-linecap:round;stroke-linejoin:round;stroke-miterlimit:10;stroke-dasharray:none;stroke-opacity:1"
             id="path56" /></g><g
           id="g58"
           transform="translate(324.0201,122.4391)"><path
             d="m 0,0 c 7.275,0 13.673,3.916 12.983,15.006 -0.527,8.478 3.994,25.3 -9.345,25.3 H -13.643 C -24.569,40.306 -26.19,34.91 -26.678,25.637 -27.22,15.339 -29.71,1.306 -16.371,0 -11.842,-0.443 -4.093,0 0,0"
             style="fill:#cae3ef;fill-opacity:1;fill-rule:nonzero;stroke:none"
             id="path60" /></g><g
           id="g62"
           transform="translate(339.861,159.8268)"><path
             d="m 0,0 c -10.809,-0.089 -20.451,-8.168 -25.769,-17.526 -2.829,2.923 -7.553,5.781 -10.153,6.73 -4.246,1.549 -11.94,0.149 -7.653,-4.101 2.072,-2.054 4.839,-4.034 8.662,-8.194 6.871,-7.477 11.064,-11.772 13.866,-7.861 3.749,5.233 5.359,7.357 8.58,11.795 4.737,6.525 8.95,8.621 13.771,12.67 C 5.355,-3.082 3.891,0.031 0,0"
             style="fill:#304e63;fill-opacity:1;fill-rule:nonzero;stroke:none"
             id="path64" /></g><g
           id="g66"
           transform="translate(172.755,253.9201)"><path
             d="M 0,0 C 0,0 22.511,0.909 38.096,0"
             style="fill:none;stroke:#77acc6;stroke-width:3;stroke-linecap:round;stroke-linejoin:round;stroke-miterlimit:10;stroke-dasharray:none;stroke-opacity:1"
             id="path68" /></g><g
           id="g70"
           transform="translate(273.403,254.3239)"><path
             d="M 0,0 C 0,0 -44.534,-0.114 -55.747,0"
             style="fill:none;stroke:#77acc6;stroke-width:3;stroke-linecap:round;stroke-linejoin:round;stroke-miterlimit:10;stroke-dasharray:none;stroke-opacity:1"
             id="path72" /></g><g
           id="g74"
           transform="translate(172.755,266.6774)"><path
             d="M 0,0 C 0,0 30.652,0.91 51.874,0"
             style="fill:none;stroke:#77acc6;stroke-width:3;stroke-linecap:round;stroke-linejoin:round;stroke-miterlimit:10;stroke-dasharray:none;stroke-opacity:1"
             id="path76" /></g><g
           id="g78"
           transform="translate(273.403,267.0817)"><path
             d="M 0,0 C 0,0 -29.376,-0.519 -40.589,-0.404"
             style="fill:none;stroke:#77acc6;stroke-width:3;stroke-linecap:round;stroke-linejoin:round;stroke-miterlimit:10;stroke-dasharray:none;stroke-opacity:1"
             id="path80" /></g><g
           id="g82"
           transform="translate(172.755,240.278)"><path
             d="M 0,0 C 0,0 30.036,-0.744 67.334,0"
             style="fill:none;stroke:#77acc6;stroke-width:3;stroke-linecap:round;stroke-linejoin:round;stroke-miterlimit:10;stroke-dasharray:none;stroke-opacity:1"
             id="path84" /></g><g
           id="g86"
           transform="translate(245.5294,240.112)"><path
             d="M 0,0 C 0,0 23.056,0.294 29.12,-0.165"
             style="fill:none;stroke:#77acc6;stroke-width:3;stroke-linecap:round;stroke-linejoin:round;stroke-miterlimit:10;stroke-dasharray:none;stroke-opacity:1"
             id="path88" /></g><g
           id="g90"
           transform="translate(297.0143,260.321)"><path
             d="m 0,0 c 0,7.275 3.917,13.673 15.006,12.983 8.479,-0.527 25.3,3.994 25.3,-9.345 V -13.643 C 40.306,-24.569 34.91,-26.19 25.638,-26.678 15.339,-27.22 1.306,-29.71 0,-16.371 -0.442,-11.842 0,-4.093 0,0"
             style="fill:#cae3ef;fill-opacity:1;fill-rule:nonzero;stroke:none"
             id="path92" /></g><g
           id="g94"
           transform="translate(339.861,269.5949)"><path
             d="m 0,0 c -10.809,-0.088 -20.451,-8.167 -25.769,-17.526 -2.829,2.924 -7.553,5.781 -10.153,6.73 -4.246,1.549 -11.94,0.149 -7.653,-4.101 2.072,-2.054 4.839,-4.033 8.662,-8.193 6.871,-7.478 11.064,-11.773 13.866,-7.862 3.749,5.234 5.359,7.358 8.58,11.795 4.737,6.525 8.95,8.621 13.771,12.67 C 5.355,-3.082 3.891,0.032 0,0"
             style="fill:#304e63;fill-opacity:1;fill-rule:nonzero;stroke:none"
             id="path96" /></g><g
           id="g98"
           transform="translate(172.755,294.2433)"><path
             d="M 0,0 C 0,0 41.835,2.425 100.648,0"
             style="fill:none;stroke:#77acc6;stroke-width:3;stroke-linecap:round;stroke-linejoin:round;stroke-miterlimit:10;stroke-dasharray:none;stroke-opacity:1"
             id="path100" /></g><g
           id="g102"
           transform="translate(273.403,308.9465)"><path
             d="M 0,0 C 0,0 -6.655,-0.79 -27.874,0.171"
             style="fill:none;stroke:#77acc6;stroke-width:3;stroke-linecap:round;stroke-linejoin:round;stroke-miterlimit:10;stroke-dasharray:none;stroke-opacity:1"
             id="path104" /></g><g
           id="g106"
           transform="translate(172.755,308.7819)"><path
             d="M 0,0 C 0,0 18.165,0.59 29.377,0.449"
             style="fill:none;stroke:#77acc6;stroke-width:3;stroke-linecap:round;stroke-linejoin:round;stroke-miterlimit:10;stroke-dasharray:none;stroke-opacity:1"
             id="path108" /></g><g
           id="g110"
           transform="translate(273.3883,322.9748)"><path
             d="M 0,0 C 0,0 -64.493,3.425 -100.636,1.56"
             style="fill:none;stroke:#77acc6;stroke-width:3;stroke-linecap:round;stroke-linejoin:round;stroke-miterlimit:10;stroke-dasharray:none;stroke-opacity:1"
             id="path112" /></g><g
           id="g114"
           transform="translate(207.088,309.2526)"><path
             d="M 0,0 C 0,0 28.227,-0.135 33.667,-0.135"
             style="fill:none;stroke:#77acc6;stroke-width:3;stroke-linecap:round;stroke-linejoin:round;stroke-miterlimit:10;stroke-dasharray:none;stroke-opacity:1"
             id="path116" /></g><g
           id="g118"
           transform="translate(324.0201,329.1813)"><path
             d="m 0,0 c 7.275,0 13.673,-3.917 12.983,-15.006 -0.527,-8.479 3.994,-25.3 -9.345,-25.3 h -17.281 c -10.926,0 -12.547,5.396 -13.035,14.669 C -27.22,-15.339 -29.71,-1.306 -16.371,0 -11.842,0.443 -4.093,0 0,0"
             style="fill:#cae3ef;fill-opacity:1;fill-rule:nonzero;stroke:none"
             id="path120" /></g><g
           id="g122"
           transform="translate(339.861,325.8801)"><path
             d="m 0,0 c -10.809,-0.088 -20.451,-8.167 -25.769,-17.526 -2.829,2.924 -7.553,5.781 -10.153,6.73 -4.246,1.55 -11.94,0.149 -7.653,-4.101 2.072,-2.054 4.839,-4.033 8.662,-8.193 6.871,-7.478 11.064,-11.773 13.866,-7.862 3.749,5.234 5.359,7.358 8.58,11.795 4.737,6.526 8.95,8.621 13.771,12.67 C 5.355,-3.082 3.891,0.032 0,0"
             style="fill:#304e63;fill-opacity:1;fill-rule:nonzero;stroke:none"
             id="path124" /></g><g
           id="g126"
           transform="translate(273.403,198.5124)"><path
             d="M 0,0 C 0,0 -16.606,1.365 -100.648,0"
             style="fill:none;stroke:#77acc6;stroke-width:3;stroke-linecap:round;stroke-linejoin:round;stroke-miterlimit:10;stroke-dasharray:none;stroke-opacity:1"
             id="path128" /></g><g
           id="g130"
           transform="translate(172.755,185.2155)"><path
             d="M 0,0 C 0,0 30.652,0.909 51.874,0"
             style="fill:none;stroke:#77acc6;stroke-width:3;stroke-linecap:round;stroke-linejoin:round;stroke-miterlimit:10;stroke-dasharray:none;stroke-opacity:1"
             id="path132" /></g><g
           id="g134"
           transform="translate(273.403,185.6198)"><path
             d="M 0,0 C 0,0 -29.376,-0.519 -40.589,-0.404"
             style="fill:none;stroke:#77acc6;stroke-width:3;stroke-linecap:round;stroke-linejoin:round;stroke-miterlimit:10;stroke-dasharray:none;stroke-opacity:1"
             id="path136" /></g><g
           id="g138"
           transform="translate(273.403,212.0026)"><path
             d="M 0,0 C 0,0 -64.539,2.426 -100.648,0"
             style="fill:none;stroke:#77acc6;stroke-width:3;stroke-linecap:round;stroke-linejoin:round;stroke-miterlimit:10;stroke-dasharray:none;stroke-opacity:1"
             id="path140" /></g><g
           id="g142"
           transform="translate(337.1237,206.0788)"><path
             d="m 0,0 c 0,7.276 -3.917,13.673 -15.006,12.983 -8.479,-0.526 -25.3,3.994 -25.3,-9.345 v -17.28 c 0,-10.926 5.396,-12.547 14.668,-13.036 C -15.339,-27.219 -1.306,-29.709 0,-16.37 0.442,-11.842 0,-4.093 0,0"
             style="fill:#cae3ef;fill-opacity:1;fill-rule:nonzero;stroke:none"
             id="path144" /></g><g
           id="g146"
           transform="translate(339.861,214.405)"><path
             d="m 0,0 c -10.809,-0.088 -20.451,-8.167 -25.769,-17.525 -2.829,2.923 -7.553,5.781 -10.153,6.729 -4.246,1.55 -11.94,0.149 -7.653,-4.1 2.072,-2.055 4.839,-4.034 8.662,-8.194 6.871,-7.478 11.064,-11.773 13.866,-7.861 3.749,5.233 5.359,7.356 8.58,11.794 4.737,6.525 8.95,8.621 13.771,12.671 C 5.355,-3.082 3.891,0.032 0,0"
             style="fill:#304e63;fill-opacity:1;fill-rule:nonzero;stroke:none"
             id="path148" /></g><g
           id="g150"
           transform="translate(306.8229,378.4182)"><path
             d="m 0,0 c 10.926,0 10.549,-3.934 10.826,-6.186 0.278,-2.252 -0.124,-3.931 0,-7.655 C 11.034,-20.103 0,-19.985 -4.441,-19.985 h -25.678 c -12.43,0 -12.43,-7.696 -20.565,-7.696 -9.145,0 -11.329,8.335 -20.75,7.738 -10.438,-0.661 -21.84,-0.573 -25.449,-0.573 -3.609,0 -15.268,-0.189 -15.268,6.675 0,3.44 -0.11,6.195 -0.14,7.787 -0.113,6.054 5.456,5.825 13.424,5.825"
             style="fill:none;stroke:#c3d3d9;stroke-width:3;stroke-linecap:round;stroke-linejoin:miter;stroke-miterlimit:10;stroke-dasharray:none;stroke-opacity:1"
             id="path152" /></g><g
           id="g154"
           transform="translate(261.0699,374.3693)"><path
             d="m 0,0 c -45.608,0.923 -61.053,-4.77 -61.072,4.042 -0.01,4.501 7.146,4.042 20.722,4.042 13.578,0 35.01,0.446 57.166,0.446 29.627,0 33.586,0.488 33.586,-4.426 C 50.402,-0.808 45.47,-0.92 0,0"
             style="fill:#c6281c;fill-opacity:1;fill-rule:nonzero;stroke:none"
             id="path156" /></g><g
           id="g158"
           transform="translate(395.2731,223.4128)"><path
             d="M 0,0 C 3.771,5.065 -14.045,26.092 -22.365,11.746 -29.443,-0.457 -3.772,-5.066 0,0"
             style="fill:#97c3db;fill-opacity:1;fill-rule:nonzero;stroke:none"
             id="path160" /></g><g
           id="g162"
           transform="translate(400.3971,211.4987)"><path
             d="M 0,0 C -1.361,6.167 -27.418,2.692 -19.363,-11.109 -12.253,-23.294 1.361,-6.167 0,0"
             style="fill:#508aa8;fill-opacity:1;fill-rule:nonzero;stroke:none"
             id="path164" /></g><g
           id="g166"
           transform="translate(399.2194,218.1745)"><path
             d="M 0,0 C 1.031,-5.604 26.395,-9.367 22.638,2.615 18.83,14.759 -1.045,5.675 0,0"
             style="fill:#97c3db;fill-opacity:1;fill-rule:nonzero;stroke:none"
             id="path168" /></g><g
           id="g170"
           transform="translate(394.3073,234.3415)"><path
             d="M 0,0 C 7.24,-0.512 19.913,14.376 8.941,20.365 -3.368,27.086 -6.264,0.442 0,0"
             style="fill:#97c3db;fill-opacity:1;fill-rule:nonzero;stroke:none"
             id="path172" /></g><g
           id="g174"
           transform="translate(404.9147,193.1716)"><path
             d="M 0,0 C -6.232,3.72 -24.254,-3.861 -17.159,-14.152 -9.197,-25.699 5.393,-3.218 0,0"
             style="fill:#97c3db;fill-opacity:1;fill-rule:nonzero;stroke:none"
             id="path176" /></g><g
           id="g178"
           transform="translate(406.7008,197.1315)"><path
             d="m 0,0 c -5.414,19.413 -11.696,40.242 -21.811,57.785 -0.435,0.757 -1.576,0.311 -1.268,-0.545 3.466,-9.643 7.944,-18.923 11.5,-28.547 3.795,-10.27 7.142,-20.712 10.011,-31.278 5.407,-19.924 8.316,-40.077 11.748,-60.384 0.122,-0.719 1.133,-0.555 1.105,0.153 C 10.441,-41.677 5.667,-20.32 0,0"
             style="fill:#304e63;fill-opacity:1;fill-rule:nonzero;stroke:none"
             id="path180" /></g><g
           id="g182"
           transform="translate(388.484,245.6159)"><path
             d="M 0,0 C 4.919,5.133 -9.779,33.555 -19.167,21.007 -28.682,8.292 -4.983,-5.199 0,0"
             style="fill:#77acc6;fill-opacity:1;fill-rule:nonzero;stroke:none"
             id="path184" /></g><g
           id="g186"
           transform="translate(425.7428,201.3024)"><path
             d="M 0,0 C -4.171,6.249 18.284,30.142 27.292,12.587 34.954,-2.346 4.171,-6.249 0,0"
             style="fill:#508aa8;fill-opacity:1;fill-rule:nonzero;stroke:none"
             id="path188" /></g><g
           id="g190"
           transform="translate(422.8805,222.2634)"><path
             d="M 0,0 C -5.538,-5.079 -32.585,13.455 -16.616,25.044 -3.032,34.901 5.537,5.078 0,0"
             style="fill:#508aa8;fill-opacity:1;fill-rule:nonzero;stroke:none"
             id="path192" /></g><g
           id="g194"
           transform="translate(422.6754,197.5915)"><path
             d="M 0,0 C -4.919,-4.663 -31.937,9.5 -19.925,18.385 -7.753,27.387 4.983,4.723 0,0"
             style="fill:#77acc6;fill-opacity:1;fill-rule:nonzero;stroke:none"
             id="path196" /></g><g
           id="g198"
           transform="translate(428.0016,228.6618)"><path
             d="M 0,0 C -1.119,8.563 15.667,24.663 23.555,12.057 32.406,-2.089 0.968,-7.407 0,0"
             style="fill:#77acc6;fill-opacity:1;fill-rule:nonzero;stroke:none"
             id="path200" /></g><g
           id="g202"
           transform="translate(422.1041,173.6227)"><path
             d="M 0,0 C 2.273,8.33 -12.168,26.563 -21.697,15.147 -32.389,2.337 -1.966,-7.207 0,0"
             style="fill:#508aa8;fill-opacity:1;fill-rule:nonzero;stroke:none"
             id="path204" /></g><g
           id="g206"
           transform="translate(424.4303,169.7253)"><path
             d="M 0,0 C -3.357,6.516 19.502,30.298 25.104,15.144 30.778,-0.213 3.4,-6.6 0,0"
             style="fill:#508aa8;fill-opacity:1;fill-rule:nonzero;stroke:none"
             id="path208" /></g><g
           id="g210"
           transform="translate(427.2828,242.0925)"><path
             d="m 0,0 c -0.071,0.794 -1.311,1.104 -1.496,0.202 -3.508,-17.061 -2.672,-35.642 -3.115,-53 -0.468,-18.353 -1.215,-36.967 0.007,-55.299 0.096,-1.44 2.17,-1.453 2.249,0 0.96,17.978 0.542,36.07 1.001,54.071 C -0.902,-36.25 1.576,-17.719 0,0"
             style="fill:#304e63;fill-opacity:1;fill-rule:nonzero;stroke:none"
             id="path212" /></g><g
           id="g214"
           transform="translate(427.3932,240.7116)"><path
             d="M 0,0 C -7.477,-3.137 -16.869,33.396 2.403,33.926 19.417,34.393 7.476,3.137 0,0"
             style="fill:#77acc6;fill-opacity:1;fill-rule:nonzero;stroke:none"
             id="path216" /></g><g
           id="g218"
           transform="translate(441.6793,181.1481)"><path
             d="M 0,0 C -2.138,5.069 17.302,19.153 21.358,5.289 24.81,-6.504 2.138,-5.068 0,0"
             style="fill:#77acc6;fill-opacity:1;fill-rule:nonzero;stroke:none"
             id="path220" /></g><g
           id="g222"
           transform="translate(435.736,169.1725)"><path
             d="M 0,0 C 2.433,4.934 23.752,-3.42 14.07,-13.421 5.524,-22.25 -2.434,-4.934 0,0"
             style="fill:#77acc6;fill-opacity:1;fill-rule:nonzero;stroke:none"
             id="path224" /></g><g
           id="g226"
           transform="translate(436.6686,173.2477)"><path
             d="M 0,0 C -4.244,-2.571 -21.373,11.762 -11.397,16.25 -1.29,20.799 4.3,2.604 0,0"
             style="fill:#97c3db;fill-opacity:1;fill-rule:nonzero;stroke:none"
             id="path228" /></g><g
           id="g230"
           transform="translate(443.4,190.2516)"><path
             d="M 0,0 C -6.231,1.071 -13.856,16.298 -3.332,19.085 8.478,22.212 5.39,-0.927 0,0"
             style="fill:#97c3db;fill-opacity:1;fill-rule:nonzero;stroke:none"
             id="path232" /></g><g
           id="g234"
           transform="translate(453.4401,203.3522)"><path
             d="m 0,0 c -8.432,-8.124 -13.699,-21.078 -17.183,-32.073 -3.59,-11.334 -5.97,-24.154 -4.276,-36.037 0.087,-0.609 0.964,-0.399 1.008,0.136 0.997,12.046 1.706,23.691 5.42,35.308 3.779,11.823 10.448,21.046 16.158,31.798 C 1.505,-0.155 0.599,0.577 0,0"
             style="fill:#304e63;fill-opacity:1;fill-rule:nonzero;stroke:none"
             id="path236" /></g><g
           id="g238"
           transform="translate(451.86,201.0593)"><path
             d="M 0,0 C -3.095,5.363 15.243,26.351 20.578,13.786 25.983,1.054 3.134,-5.434 0,0"
             style="fill:#77acc6;fill-opacity:1;fill-rule:nonzero;stroke:none"
             id="path240" /></g><g
           id="g242"
           transform="translate(398.5836,171.5925)"><path
             d="M 0,0 C 3.195,-4.478 -12.687,-22.478 -19.683,-9.839 -25.633,0.912 -3.196,4.477 0,0"
             style="fill:#508aa8;fill-opacity:1;fill-rule:nonzero;stroke:none"
             id="path244" /></g><g
           id="g246"
           transform="translate(400.9381,168.5436)"><path
             d="M 0,0 C -4.994,2.307 -0.112,25.811 12.226,18.296 22.72,11.903 4.994,-2.306 0,0"
             style="fill:#97c3db;fill-opacity:1;fill-rule:nonzero;stroke:none"
             id="path248" /></g><g
           id="g250"
           transform="translate(388.2028,189.3786)"><path
             d="M 0,0 C -4.449,4.491 -1.811,21.314 8.375,17.469 19.804,13.153 3.849,-3.886 0,0"
             style="fill:#77acc6;fill-opacity:1;fill-rule:nonzero;stroke:none"
             id="path252" /></g><g
           id="g254"
           transform="translate(390.9137,183.1052)"><path
             d="M 0,0 C -0.246,-6.187 -26.955,-14.148 -24.761,-0.677 -22.536,12.976 0.249,6.268 0,0"
             style="fill:#77acc6;fill-opacity:1;fill-rule:nonzero;stroke:none"
             id="path256" /></g><g
           id="g258"
           transform="translate(379.3385,198.8073)"><path
             d="m 0,0 c -0.499,0.437 -1.162,-0.228 -0.727,-0.726 7.737,-8.856 14.725,-18.247 19.845,-28.875 5.19,-10.773 7.598,-21.828 10.18,-33.394 0.24,-1.077 1.97,-0.846 1.93,0.262 C 30.396,-39.7 17.127,-15.011 0,0"
             style="fill:#304e63;fill-opacity:1;fill-rule:nonzero;stroke:none"
             id="path260" /></g><g
           id="g262"
           transform="translate(380.3346,195.0231)"><path
             d="M 0,0 C 5.859,0.955 -2.496,27.282 -14.665,20.13 -25.408,13.815 -5.858,-0.954 0,0"
             style="fill:#77acc6;fill-opacity:1;fill-rule:nonzero;stroke:none"
             id="path264" /></g><g
           id="g266"
           transform="translate(396.4996,131.2165)"><path
             d="m 0,0 c 0,0 1.138,-16.909 2.113,-25.688 0.976,-8.78 1.951,-13.983 8.78,-15.771 6.829,-1.789 21.949,-1.301 27.315,0 5.365,1.301 7.967,7.642 8.617,15.12 C 47.475,-18.859 48.938,0 48.938,0 Z"
             style="fill:#c6281c;fill-opacity:1;fill-rule:nonzero;stroke:none"
             id="path268" /></g><g
           id="g270"
           transform="translate(391.1344,140.9724)"><path
             d="m 0,0 c 0,0 -0.976,-11.219 0,-17.56 0,0 37.069,-2.438 59.507,0 0,0 1.138,14.025 -0.325,18.574 C 59.182,1.014 8.292,1.95 0,0"
             style="fill:#ba1200;fill-opacity:1;fill-rule:nonzero;stroke:none"
             id="path272" /></g><g
           id="g274"
           transform="translate(109.5416,107.6725)"><path
             d="m 0,0 c -0.094,-3.729 -0.626,-8.91 0,-10.582 0.626,-1.671 5.616,-10.561 11.323,-9.369 5.707,1.19 -0.249,8.216 -1.899,11.331 C 7.773,-5.505 8.41,-1.521 8.748,1.69 9.086,4.901 0.181,7.13 0,0"
             style="fill:#f9d2b2;fill-opacity:1;fill-rule:nonzero;stroke:none"
             id="path276" /></g><g
           id="g278"
           transform="translate(119.4957,242.6657)"><path
             d="m 0,0 c 0,0 1.369,-10.512 1.369,-20.387 0,-9.876 -1.314,-84.616 -1.369,-97.09 -0.056,-12.473 0,-22.428 0,-22.428 0,0 -6.82,-2.43 -11.32,0 0,0 -9.151,80.963 -12.465,117.812 -1.2,13.35 0.232,20.668 0.232,20.668 z"
             style="fill:#508aa8;fill-opacity:1;fill-rule:nonzero;stroke:none"
             id="path280" /></g><g
           id="g282"
           transform="translate(120.2321,97.485)"><path
             d="m 0,0 c -0.365,0.729 -0.746,1.865 -3.537,1.189 -2.79,-0.675 -3.213,-1.726 -2.79,-2.553 0.422,-0.826 1.014,-2.01 1.014,-2.01 0,0 -4.41,2.282 -5.678,6.362 0,0 -0.842,-3.236 1.291,-6.287 6.291,-8.992 9.011,-12.848 13.504,-10.851 3.962,1.76 2.137,4.607 -0.751,9.002 C 1.247,-2.4 0.746,-1.49 0,0"
             style="fill:#c6281c;fill-opacity:1;fill-rule:nonzero;stroke:none"
             id="path284" /></g><g
           id="g286"
           transform="translate(114.9616,94.2946)"><path
             d="M 0,0 C 0.963,0.518 4.713,1.866 5.776,2.204 6.089,2.305 6.818,0.799 6.459,0.665 5.402,0.272 1.639,-1.03 0.702,-1.493 0.211,-1.735 -0.509,-0.273 0,0"
             style="fill:#ba1200;fill-opacity:1;fill-rule:nonzero;stroke:none"
             id="path288" /></g><g
           id="g290"
           transform="translate(110.5324,94.1862)"><path
             d="m 0,0 c 6.291,-8.992 9.011,-12.849 13.504,-10.852 1.742,0.775 2.28,1.947 2.093,3.389 -0.108,-0.47 -0.639,-1.472 -2.347,-2.29 -2.082,-0.998 -5.155,0.338 -8.779,4.656 C 1.251,-1.26 -0.922,2.657 -1.367,3.484 -1.217,2.433 -0.842,1.203 0,0"
             style="fill:#ba1200;fill-opacity:1;fill-rule:nonzero;stroke:none"
             id="path292" /></g><g
           id="g294"
           transform="translate(65.3034,110.0388)"><path
             d="m 0,0 c 0,0 -0.122,-4.249 -1.547,-8.599 -1.426,-4.349 -4.675,-12.021 0,-13.542 4.674,-1.521 8.223,7.12 9.406,12.433 1.183,5.313 1.015,8.405 1.015,10.662 C 8.874,3.211 0.61,4.95 0,0"
             style="fill:#f9d2b2;fill-opacity:1;fill-rule:nonzero;stroke:none"
             id="path296" /></g><g
           id="g298"
           transform="translate(101.9943,241.6071)"><path
             d="m 0,0 c 0,0 -18.783,-0.365 -25.512,1.059 0,0 -5.359,-49.844 -6.834,-68.714 -1.476,-18.869 -5.892,-68.357 -5.892,-68.357 0,0 7.298,-4.246 11.197,-2.835 0,0 12.919,65.045 20.278,91.451 C -0.541,-25.067 0,-16.801 0,0"
             style="fill:#77acc6;fill-opacity:1;fill-rule:nonzero;stroke:none"
             id="path300" /></g><g
           id="g302"
           transform="translate(62.3927,96.4753)"><path
             d="m 0,0 c 0,0 1.315,3.937 2.911,3.848 1.946,-0.109 4.107,-0.98 5.07,-1.82 1.167,-1.017 0,-4.12 0,-4.12 0,0 2.029,3.296 2.789,5.947 -0.38,-3.24 -1.094,-5.844 -3.105,-10.32 -3.106,-6.908 -5.136,-8.5 -9.351,-6.995 -4.215,1.504 -2.058,5.728 3.049,18.167 C 0.591,1.734 0,0 0,0"
             style="fill:#c6281c;fill-opacity:1;fill-rule:nonzero;stroke:none"
             id="path304" /></g><g
           id="g306"
           transform="translate(62.485,96.7321)"><path
             d="M 0,0 C 1.083,-0.153 6.861,-1.915 7.929,-2.235 8.563,-2.426 7.477,-4.06 6.97,-3.838 5.937,-3.386 0.71,-1.801 -0.319,-1.619 -0.857,-1.524 -0.573,0.081 0,0"
             style="fill:#ba1200;fill-opacity:1;fill-rule:nonzero;stroke:none"
             id="path308" /></g><g
           id="g310"
           transform="translate(60.7067,83.0153)"><path
             d="M 0,0 C 4.019,-1.435 6.053,-0.044 8.924,6.074 6.008,0.734 3.148,0.015 0.617,1.053 -2.225,2.219 -1.861,5.066 -1.844,5.46 -2.659,2.355 -2.22,0.792 0,0"
             style="fill:#ba1200;fill-opacity:1;fill-rule:nonzero;stroke:none"
             id="path312" /></g><g
           id="g314"
           transform="translate(96.1242,293.4953)"><path
             d="m 0,0 c -3.586,0.028 -9.905,-2.315 -9.905,-2.315 0,0 3.601,-15.465 14.096,-15.465 10.495,0 6.881,16.271 6.881,16.271 0,0 -4.751,1.459 -11.072,1.509"
             style="fill:#f9d2b2;fill-opacity:1;fill-rule:nonzero;stroke:none"
             id="path316" /></g><g
           id="g318"
           transform="translate(97.379,285.5358)"><path
             d="m 0,0 c -3.405,-0.237 -3.632,1.445 -4.111,5.104 -0.478,3.66 -1.754,9.703 1.798,10.857 4.811,1.563 5.884,-2.829 5.962,-5.748 C 3.727,7.293 5.809,0.404 0,0"
             style="fill:#f9d2b2;fill-opacity:1;fill-rule:nonzero;stroke:none"
             id="path320" /></g><g
           id="g322"
           transform="translate(90.2755,289.2785)"><path
             d="m 0,0 c 0,0 9.761,-5.324 16.352,1.268 0,0 2.333,-16.226 -6.312,-16.226 C 1.395,-14.958 0,0 0,0"
             style="fill:#ffffff;fill-opacity:1;fill-rule:nonzero;stroke:none"
             id="path324" /></g><g
           id="g326"
           transform="translate(137.4533,282.3054)"><path
             d="m 0,0 c -3.722,-2.758 -11.274,-7.529 -9.878,-11.872 1.395,-4.344 8.36,-0.918 14.151,5.005 C 10.063,-0.943 2.781,2.06 0,0"
             style="fill:#f9d2b2;fill-opacity:1;fill-rule:nonzero;stroke:none"
             id="path328" /></g><g
           id="g330"
           transform="translate(110.3663,290.5461)"><path
             d="m 0,0 c 10.864,-5.881 14.503,-15.439 14.503,-15.439 0,0 7.301,5.97 10.067,7.189 0,0 4.535,-5.252 5.663,-9.783 0,0 -14.616,-23.443 -24.167,-23.621 C -3.485,-41.832 0,0 0,0"
             style="fill:#c6281c;fill-opacity:1;fill-rule:nonzero;stroke:none"
             id="path332" /></g><g
           id="g334"
           transform="translate(105.5695,292.6716)"><path
             d="m 0,0 c -0.523,-6.473 -5.811,-13.027 -5.811,-13.027 -6.043,4.541 -8.524,9.732 -9.542,13.042 -19.953,-3.934 -36.536,-19.49 -39.335,-31.042 -3.071,-12.676 10.993,-24.523 10.993,-24.523 0,0 7.303,2.504 9.791,7.261 0,0 -8.104,11.914 3.288,20.926 0,0 -4.326,-25.526 -1.832,-44.736 0,0 36.802,-9.076 49.985,0 0,0 0.366,13.961 0,29.663 C 17.118,-24.465 15.125,-4.214 0,0"
             style="fill:#c6281c;fill-opacity:1;fill-rule:nonzero;stroke:none"
             id="path336" /></g><g
           id="g338"
           transform="translate(105.5695,292.6716)"><path
             d="m 0,0 c -0.523,-6.473 -5.811,-13.027 -5.811,-13.027 -6.043,4.541 -8.524,9.732 -9.542,13.042 -1.15,-0.227 -2.288,-0.497 -3.414,-0.798 2.005,-4.831 5.913,-11.141 13.531,-16.782 0,0 6.421,7.823 8.387,16.411 C 2.154,-0.701 1.109,-0.309 0,0"
             style="fill:#ba1200;fill-opacity:1;fill-rule:nonzero;stroke:none"
             id="path340" /></g><g
           id="g342"
           transform="translate(158.6066,301.0192)"><path
             d="m 0,0 c 2.066,-1.917 0.857,-4.356 -1.551,-10.152 -24.757,-21.441 -64.077,-52.464 -96.392,-78.891 -2.157,2.145 -5.272,5.838 -9.044,11.986 33.106,27.052 65.583,52.717 96.232,78.243 C -5.089,2.155 -2.823,2.619 0,0"
             style="fill:#f9b46e;fill-opacity:1;fill-rule:nonzero;stroke:none"
             id="path344" /></g><g
           id="g346"
           transform="translate(167.0236,307.1398)"><path
             d="m 0,0 c -2.692,-2.967 -9.968,-16.272 -9.968,-16.272 0,0 0.102,2.57 -0.896,4.566 -0.998,1.996 -4.13,1.25 -4.13,1.25 0,0 0.128,2.041 -0.825,3.656 -0.953,1.615 -3.353,1.865 -3.353,1.865 0,0 11.57,3.554 17.159,7.521 C -4.005,1.325 -2.215,-2.111 0,0"
             style="fill:#f9d2b2;fill-opacity:1;fill-rule:nonzero;stroke:none"
             id="path348" /></g><g
           id="g350"
           transform="translate(172.486,313.6935)"><path
             d="M 0,0 C 1.151,-1.479 -2.474,-3.26 -5.462,-6.554 -7.677,-8.665 -9.467,-5.229 -7.475,-3.968 -1.886,-0.001 -1.151,1.479 0,0"
             style="fill:#304e63;fill-opacity:1;fill-rule:nonzero;stroke:none"
             id="path352" /></g><g
           id="g354"
           transform="translate(46.8683,200.7028)"><path
             d="m 0,0 c -2.602,-2.123 -4.16,-3.392 -4.367,-3.553 -1.88,-1.463 -4.747,-4.08 -9.451,1.479 -4.704,5.558 -3.091,7.354 -0.848,9.329 0.713,0.628 2.583,2.187 5.338,4.461 C -8.078,8.987 -5.44,4.779 0,0"
             style="fill:#c6281c;fill-opacity:1;fill-rule:nonzero;stroke:none"
             id="path356" /></g><g
           id="g358"
           transform="translate(60.6632,211.9763)"><path
             d="m 0,0 c -5.809,-4.75 -10.596,-8.662 -13.795,-11.273 -5.44,4.779 -8.078,8.987 -9.328,11.715 3.453,2.85 8.309,6.829 14.079,11.544 C -5.272,5.838 -2.157,2.145 0,0"
             style="fill:#97c3db;fill-opacity:1;fill-rule:nonzero;stroke:none"
             id="path360" /></g><g
           id="g362"
           transform="translate(42.466,216.4694)"><path
             d="m 0,0 c 1.281,1.052 2.662,2.183 4.125,3.382 2.131,-4.996 6.766,-9.451 9.393,-11.7 -1.387,-1.134 -2.684,-2.195 -3.89,-3.18 C 4.078,-7.262 1.339,-2.978 0,0"
             style="fill:#304e63;fill-opacity:1;fill-rule:nonzero;stroke:none"
             id="path364" /></g><g
           id="g366"
           transform="translate(69.9552,243.3307)"><path
             d="M 0,0 C 4.192,-5.249 10.96,-7.962 10.152,-8.911 9.343,-9.86 6.76,-8.353 5.709,-7.869 c 0,0 2.555,-6.44 3.024,-9.517 0.47,-3.078 -1.136,-2.157 -1.136,-2.157 0,0 -2.324,6.874 -3.509,8.94 0,0 2.71,-8.997 2.105,-9.859 -0.606,-0.862 -1.304,0.715 -2.398,3.663 -1.093,2.949 -2.493,4.875 -2.493,4.875 0,0 3.204,-8.77 1.763,-9.379 -1.441,-0.608 -1.909,4.45 -3.966,8.105 0,0 0.257,-4.684 -0.519,-5.34 -1.077,-0.909 -0.696,1.594 -1.173,4.044 -1.428,7.341 -2.551,7.539 -4.425,9.653 C -5.205,-2.689 -2.624,-0.665 0,0"
             style="fill:#f9d2b2;fill-opacity:1;fill-rule:nonzero;stroke:none"
             id="path368" /></g><g
           id="g370"
           transform="translate(148.8913,279.2902)"><path
             d="m 0,0 c -0.799,-1.511 -1.792,-3.122 -3.252,-4.083 -1.498,-0.985 -3.146,-0.746 -4.661,0.14 -1.679,0.982 -3.226,2.452 -4.594,3.822 -0.887,0.888 -2.94,2.819 -2.597,3.377 0.546,0.887 1.898,-0.536 2.187,-0.742 0.748,-0.532 1.484,-1.082 2.263,-1.57 0.922,-0.578 2.396,-1.571 3.06,-1.96 -1.525,1.305 -4.504,3.852 -5.45,4.825 -0.868,0.891 -1.707,1.48 -2.378,2.536 -0.41,0.646 0.013,1.62 0.881,1.327 0.672,-0.228 2.38,-1.193 3.499,-2.085 1.912,-1.521 4.106,-3.016 5.428,-3.9 -1.56,1.204 -3.188,2.32 -4.712,3.571 -1.094,0.898 -4.727,3.768 -3.6,4.707 0.679,0.567 2.387,-0.225 2.951,-0.589 C -9.839,8.645 -5.586,5.938 -3.564,4.68 -4.101,5.109 -5.3,6.036 -6.487,6.925 -7.4,7.61 -8.379,8.197 -9.345,8.803 c -0.812,0.51 -2.089,1.107 -2.634,1.926 -0.193,0.288 -0.271,0.659 -0.167,0.99 0.139,0.446 1.436,0.38 2.042,0.147 1.607,-0.618 2.852,-1.236 4.348,-2.071 C -4.111,8.875 -2.435,8.004 -0.87,6.95 -0.255,6.535 0.354,6.08 0.771,5.466 1.887,3.826 0.812,1.537 0,0"
             style="fill:#f9d2b2;fill-opacity:1;fill-rule:nonzero;stroke:none"
             id="path372" /></g><g
           id="g374"
           transform="translate(110.3424,324.3889)"><path
             d="M 0,0 C 0,0 2.804,39.32 -23.235,36.414 -51.319,33.28 -47.378,-2.668 -34.13,-17.895 -21.266,-32.68 -2.606,-21.777 0,0"
             style="fill:#304e63;fill-opacity:1;fill-rule:nonzero;stroke:none"
             id="path376" /></g><g
           id="g378"
           transform="translate(91.3146,357.9684)"><path
             d="m 0,0 c 13.688,1.771 21.899,-12.238 22.417,-33.654 0.52,-21.417 -7.534,-27.661 -15.878,-28.205 -8.85,-0.576 -17.926,4.601 -22.634,23.902 C -21.074,-17.545 -17.758,-2.297 0,0"
             style="fill:#f9d2b2;fill-opacity:1;fill-rule:nonzero;stroke:none"
             id="path380" /></g><g
           id="g382"
           transform="translate(75.2199,320.0119)"><path
             d="m 0,0 c 0,0 5.042,16.928 2.76,24.28 0,0 21.042,-8.112 39.042,0 0,0 -3.811,-0.73 -5.445,0 0,0 7.473,1.735 8.741,6.445 0,0 -8.127,-1.653 -11.445,0 0,0 5.264,-0.722 8.101,4.529 0,0 -20.092,9.154 -34.382,4.324 C -6.918,34.749 -6.816,16.423 -3.803,1.464 Z"
             style="fill:#304e63;fill-opacity:1;fill-rule:nonzero;stroke:none"
             id="path384" /></g><g
           id="g386"
           transform="translate(76.2106,320.7477)"><path
             d="M 0,0 C -0.457,2.47 -4.848,8.199 -8.658,4.07 -13.781,-1.481 1.618,-8.747 0,0"
             style="fill:#f9d2b2;fill-opacity:1;fill-rule:nonzero;stroke:none"
             id="path388" /></g><g
           id="g390"
           transform="translate(99.7584,316.363)"><path
             d="m 0,0 c -7.9,-0.972 -16.962,-0.719 -20.765,3.786 -4.562,5.403 -5.668,10.866 -5.668,10.866 0,0 0.089,-8.42 1.105,-14.652 1.11,-6.811 3.803,-24.377 22.631,-24.377 24.947,0 16.287,39.566 16.287,39.566 0,0 0.287,-6.978 -0.773,-9.542 C 11.756,3.084 6.815,0.838 0,0"
             style="fill:#304e63;fill-opacity:1;fill-rule:nonzero;stroke:none"
             id="path392" /></g><g
           id="g394"
           transform="translate(96.9201,327.6271)"><path
             d="m 0,0 c -0.363,-0.225 -0.771,-1.564 -1.04,-2.461 -1.076,-3.588 -0.426,-10.31 5.121,-11.136 2.827,-0.422 4.183,0.943 4.183,2.155 0,1.304 -2.364,2.057 -5.344,6.614 C 1.301,-2.35 1.113,0.69 0,0"
             style="fill:#f9b46e;fill-opacity:1;fill-rule:nonzero;stroke:none"
             id="path396" /></g><g
           id="g398"
           transform="translate(107.5954,310.6887)"><path
             d="m 0,0 c 0,0 -4.513,-2.68 -15.058,0 0,0 1.7,-7.102 9.046,-7.675 C -1.211,-8.05 0,0 0,0"
             style="fill:#ffffff;fill-opacity:1;fill-rule:nonzero;stroke:none"
             id="path400" /></g><g
           id="g402"
           transform="translate(89.9015,327.6926)"><path
             d="M 0,0 C 2.498,0.016 2.565,-3.81 0.422,-4.034 -1.72,-4.258 -2.498,-0.016 0,0"
             style="fill:#304e63;fill-opacity:1;fill-rule:nonzero;stroke:none"
             id="path404" /></g><g
           id="g406"
           transform="translate(104.006,329.0329)"><path
             d="M 0,0 C 2.498,0.016 2.565,-3.81 0.422,-4.034 -1.721,-4.258 -2.498,-0.016 0,0"
             style="fill:#304e63;fill-opacity:1;fill-rule:nonzero;stroke:none"
             id="path408" /></g></g></g><g
       id="g410"><g
         id="g412"
         clip-path="url(#clipPath416)"><g
           id="g418"
           transform="translate(260.1041,34.5349)"><path
             d="m 0,0 c -0.433,-0.443 -0.804,-0.932 -1.108,-1.453 l -0.465,0.241 c -0.068,0.297 -0.35,0.502 -0.659,0.466 -0.331,-0.039 -0.568,-0.339 -0.53,-0.67 0.039,-0.331 0.339,-0.567 0.67,-0.528 0.066,0.007 0.127,0.025 0.184,0.051 l 0.451,-0.234 C -1.708,-2.681 -1.89,-3.266 -1.996,-3.87 l 0.747,-0.132 c 0.229,1.306 0.85,2.507 1.792,3.473 z"
             style="fill:#1c1c1b;fill-opacity:1;fill-rule:nonzero;stroke:none"
             id="path420" /></g><g
           id="g422"
           transform="translate(265.5914,36.8366)"><path
             d="m 0,0 c -0.171,0 -0.341,-0.006 -0.509,-0.017 l -0.074,0.626 c 0.187,0.15 0.296,0.389 0.266,0.645 C -0.363,1.646 -0.72,1.928 -1.112,1.882 -1.506,1.836 -1.787,1.479 -1.74,1.086 -1.71,0.832 -1.551,0.625 -1.336,0.522 l 0.073,-0.624 c -0.714,-0.116 -1.402,-0.332 -2.059,-0.645 l 0.327,-0.685 c 0.934,0.448 1.941,0.674 2.995,0.674 0.497,0 0.993,-0.053 1.476,-0.158 l 0.16,0.741 C 1.101,-0.059 0.551,0 0,0"
             style="fill:#1c1c1b;fill-opacity:1;fill-rule:nonzero;stroke:none"
             id="path424" /></g><g
           id="g426"
           transform="translate(272.194,34.2897)"><path
             d="M 0,0 C 0.331,0.04 0.566,0.341 0.525,0.672 0.485,1.003 0.185,1.238 -0.146,1.197 -0.456,1.159 -0.682,0.894 -0.677,0.589 L -1.093,0.226 C -1.511,0.655 -1.982,1.038 -2.5,1.365 L -2.904,0.724 c 1.134,-0.715 2.02,-1.727 2.563,-2.925 l 0.691,0.312 c -0.251,0.554 -0.568,1.072 -0.943,1.545 L -0.19,0.007 C -0.129,-0.005 -0.065,-0.009 0,0"
             style="fill:#1c1c1b;fill-opacity:1;fill-rule:nonzero;stroke:none"
             id="path428" /></g><g
           id="g430"
           transform="translate(265.0446,26.6286)"><path
             d="m 0,0 c -0.386,-0.023 -0.775,-0.035 -1.157,-0.035 -0.88,0 -1.734,0.06 -2.479,0.18 -0.39,0.061 -0.845,0.154 -1.27,0.292 1.047,-1.862 3.069,-3.125 5.388,-3.125 2.856,0 5.263,1.916 5.95,4.502 C 5.75,1.365 4.927,0.989 3.974,0.692 2.794,0.324 1.419,0.085 0,0"
             style="fill:#1c1c1b;fill-opacity:1;fill-rule:nonzero;stroke:none"
             id="path432" /></g><g
           id="g434"
           transform="translate(268.1696,29.7136)"><path
             d="M 0,0 C -0.75,0 -1.36,0.61 -1.36,1.36 -1.36,2.11 -0.75,2.721 0,2.721 0.75,2.721 1.36,2.11 1.36,1.36 1.36,0.61 0.75,0 0,0 m -4.737,-0.908 c -1.02,0 -1.85,0.83 -1.85,1.849 0,1.021 0.83,1.851 1.85,1.851 1.019,0 1.849,-0.83 1.849,-1.851 0,-1.019 -0.83,-1.849 -1.849,-1.849 m 2.159,6.514 c -3.352,0 -6.079,-2.666 -6.079,-5.943 0,-0.425 0.046,-0.849 0.136,-1.261 0.674,-0.483 2.707,-0.89 5.348,-0.731 2.88,0.174 5.297,0.958 6.672,2.159 C 3.494,0.024 3.479,0.22 3.454,0.411 3.074,3.373 0.48,5.606 -2.578,5.606"
             style="fill:#1c1c1b;fill-opacity:1;fill-rule:nonzero;stroke:none"
             id="path436" /></g><g
           id="g438"
           transform="translate(281.5953,33.4528)"><path
             d="M 0,0 C -0.295,0.116 -0.806,0.31 -1.383,0.238 -1.934,0.169 -2.227,-0.103 -2.227,-0.769 v -0.866 h 2.229 v -1.717 h -2.229 v -5.455 h -1.931 v 5.455 h -1.339 v 1.717 h 1.339 v 0.889 c 0,1.68 0.895,2.782 2.568,2.782 0.643,0 1.157,-0.121 1.59,-0.307 z"
             style="fill:#1c1c1b;fill-opacity:1;fill-rule:nonzero;stroke:none"
             id="path440" /></g><g
           id="g442"
           transform="translate(286.2975,30.1218)"><path
             d="m 0,0 c -0.177,0.029 -0.357,0.046 -0.525,0.046 -0.896,0 -1.51,-0.548 -1.51,-1.613 v -3.909 h -1.933 v 7.172 h 1.873 V 0.912 c 0.451,0.673 1.14,0.977 2.021,0.977 0.414,0 0.847,-0.128 1.095,-0.337 z"
             style="fill:#1c1c1b;fill-opacity:1;fill-rule:nonzero;stroke:none"
             id="path444" /></g><g
           id="g446"
           transform="translate(288.8512,28.9089)"><path
             d="M 0,0 H 3.175 C 2.997,0.918 2.442,1.437 1.613,1.437 0.703,1.437 0.17,0.889 0,0 m 5.114,-0.666 c 0,-0.222 -0.015,-0.488 -0.037,-0.651 h -5.085 c 0.207,-1.037 0.933,-1.488 1.843,-1.488 0.622,0 1.295,0.252 1.813,0.689 l 1.133,-1.243 c -0.814,-0.748 -1.85,-1.089 -3.056,-1.089 -2.199,0 -3.724,1.496 -3.724,3.753 0,2.257 1.48,3.797 3.627,3.797 2.064,0 3.478,-1.533 3.486,-3.768"
             style="fill:#1c1c1b;fill-opacity:1;fill-rule:nonzero;stroke:none"
             id="path448" /></g><g
           id="g450"
           transform="translate(296.5045,28.9089)"><path
             d="M 0,0 H 3.175 C 2.997,0.918 2.441,1.437 1.613,1.437 0.703,1.437 0.17,0.889 0,0 m 5.114,-0.666 c 0,-0.222 -0.015,-0.488 -0.037,-0.651 h -5.085 c 0.207,-1.037 0.933,-1.488 1.843,-1.488 0.622,0 1.296,0.252 1.813,0.689 l 1.133,-1.243 c -0.814,-0.748 -1.85,-1.089 -3.057,-1.089 -2.199,0 -3.723,1.496 -3.723,3.753 0,2.257 1.48,3.797 3.627,3.797 2.064,0 3.478,-1.533 3.486,-3.768"
             style="fill:#1c1c1b;fill-opacity:1;fill-rule:nonzero;stroke:none"
             id="path452" /></g><g
           id="g454"
           transform="translate(304.2867,28.236)"><path
             d="m 0,0 c 0,-1.133 0.748,-1.977 1.844,-1.977 1.139,0 1.849,0.881 1.849,1.977 0,1.095 -0.71,1.976 -1.849,1.976 C 0.748,1.976 0,1.132 0,0 m 5.678,0 c 0,-2.154 -1.495,-3.775 -3.472,-3.775 -0.962,0 -1.644,0.378 -2.109,0.932 V -6.551 H -1.828 V 3.582 H 0.06 V 2.79 c 0.466,0.585 1.154,0.984 2.138,0.984 1.985,0 3.48,-1.621 3.48,-3.774"
             style="fill:#1c1c1b;fill-opacity:1;fill-rule:nonzero;stroke:none"
             id="path456" /></g><path
           d="m 312.808,24.646 h -1.932 v 7.172 h 1.932 z m 0.26,9.519 c 0,-0.697 -0.541,-1.23 -1.236,-1.23 -0.697,0 -1.229,0.533 -1.229,1.23 0,0.695 0.532,1.243 1.229,1.243 0.695,0 1.236,-0.548 1.236,-1.243"
           style="fill:#1c1c1b;fill-opacity:1;fill-rule:nonzero;stroke:none"
           id="path458" /><g
           id="g460"
           transform="translate(316.0319,29.2643)"><path
             d="M 0,0 2.702,2.554 H 5.07 L 1.592,-0.821 5.093,-4.618 H 2.717 L 0,-1.717 V -4.618 H -1.932 V 6.04 L 0,6.04 Z"
             style="fill:#1c1c1b;fill-opacity:1;fill-rule:nonzero;stroke:none"
             id="path462" /></g><g
           id="g464"
           transform="translate(184.4127,26.6296)"><path
             d="m 0,0 v 3.208 c -0.395,0.615 -1.245,1.143 -2.124,1.143 -1.42,0 -2.27,-1.172 -2.27,-2.74 0,-1.567 0.85,-2.724 2.27,-2.724 0.879,0 1.729,0.498 2.124,1.113 m 0,-1.919 v 1.055 c -0.527,-0.718 -1.391,-1.231 -2.387,-1.231 -1.846,0 -3.15,1.407 -3.15,3.706 0,2.256 1.289,3.721 3.15,3.721 0.952,0 1.816,-0.469 2.387,-1.245 v 3.765 h 1.099 v -9.771 z"
             style="fill:#1c1c1b;fill-opacity:1;fill-rule:nonzero;stroke:none"
             id="path466" /></g><g
           id="g468"
           transform="translate(190.4039,31.0534)"><path
             d="M 0,0 C -1.509,0 -2.256,-1.274 -2.314,-2.358 H 2.329 C 2.314,-1.304 1.611,0 0,0 m -3.472,-2.798 c 0,2.051 1.465,3.706 3.487,3.706 2.138,0 3.398,-1.67 3.398,-3.794 v -0.278 h -5.727 c 0.087,-1.333 1.025,-2.446 2.548,-2.446 0.806,0 1.626,0.322 2.183,0.893 L 2.944,-5.435 C 2.241,-6.138 1.289,-6.519 0.132,-6.519 c -2.095,0 -3.604,1.509 -3.604,3.721"
             style="fill:#1c1c1b;fill-opacity:1;fill-rule:nonzero;stroke:none"
             id="path470" /></g><g
           id="g472"
           transform="translate(194.6076,25.6481)"><path
             d="M 0,0 0.571,0.791 C 1.04,0.249 1.934,-0.22 2.9,-0.22 c 1.084,0 1.67,0.513 1.67,1.216 0,1.714 -4.38,0.659 -4.38,3.281 0,1.099 0.952,2.036 2.637,2.036 1.201,0 2.051,-0.454 2.622,-1.025 L 4.936,4.526 C 4.512,5.039 3.735,5.42 2.827,5.42 1.86,5.42 1.26,4.937 1.26,4.307 1.26,2.754 5.639,3.779 5.639,1.025 5.639,-0.161 4.687,-1.113 2.856,-1.113 1.699,-1.113 0.718,-0.762 0,0"
             style="fill:#1c1c1b;fill-opacity:1;fill-rule:nonzero;stroke:none"
             id="path474" /></g><path
           d="m 201.668,31.786 h 1.099 v -7.075 h -1.099 z m -0.19,1.743 c 0,0.41 0.337,0.747 0.732,0.747 0.41,0 0.747,-0.337 0.747,-0.747 0,-0.41 -0.337,-0.732 -0.747,-0.732 -0.395,0 -0.732,0.322 -0.732,0.732"
           style="fill:#1c1c1b;fill-opacity:1;fill-rule:nonzero;stroke:none"
           id="path476" /><g
           id="g478"
           transform="translate(209.7091,26.7468)"><path
             d="m 0,0 v 3.091 c -0.381,0.615 -1.23,1.142 -2.109,1.142 -1.421,0 -2.27,-1.128 -2.27,-2.695 0,-1.553 0.849,-2.695 2.27,-2.695 0.879,0 1.728,0.542 2.109,1.157 m -5.126,-3.853 0.556,0.821 c 0.586,-0.703 1.289,-0.967 2.299,-0.967 1.172,0 2.271,0.571 2.271,2.124 v 1.011 c -0.513,-0.718 -1.377,-1.26 -2.373,-1.26 -1.846,0 -3.149,1.377 -3.149,3.662 0,2.271 1.289,3.677 3.149,3.677 0.952,0 1.802,-0.469 2.373,-1.245 v 1.069 h 1.099 v -6.87 c 0,-2.344 -1.641,-3.076 -3.37,-3.076 -1.201,0 -2.021,0.235 -2.855,1.054"
             style="fill:#1c1c1b;fill-opacity:1;fill-rule:nonzero;stroke:none"
             id="path480" /></g><g
           id="g482"
           transform="translate(217.4137,24.7106)"><path
             d="M 0,0 V 4.629 C 0,5.874 -0.63,6.27 -1.582,6.27 -2.446,6.27 -3.267,5.742 -3.676,5.171 V 0 h -1.099 v 7.075 h 1.099 V 6.05 c 0.497,0.586 1.464,1.201 2.519,1.201 1.479,0 2.256,-0.747 2.256,-2.285 L 1.099,0 Z"
             style="fill:#1c1c1b;fill-opacity:1;fill-rule:nonzero;stroke:none"
             id="path484" /></g><g
           id="g486"
           transform="translate(223.4044,31.0534)"><path
             d="M 0,0 C -1.509,0 -2.256,-1.274 -2.314,-2.358 H 2.329 C 2.314,-1.304 1.611,0 0,0 m -3.472,-2.798 c 0,2.051 1.465,3.706 3.487,3.706 2.138,0 3.398,-1.67 3.398,-3.794 v -0.278 h -5.727 c 0.088,-1.333 1.025,-2.446 2.548,-2.446 0.806,0 1.626,0.322 2.183,0.893 L 2.944,-5.435 C 2.241,-6.138 1.289,-6.519 0.132,-6.519 c -2.094,0 -3.604,1.509 -3.604,3.721"
             style="fill:#1c1c1b;fill-opacity:1;fill-rule:nonzero;stroke:none"
             id="path488" /></g><g
           id="g490"
           transform="translate(233.3507,26.6296)"><path
             d="m 0,0 v 3.208 c -0.396,0.615 -1.245,1.143 -2.124,1.143 -1.421,0 -2.271,-1.172 -2.271,-2.74 0,-1.567 0.85,-2.724 2.271,-2.724 0.879,0 1.728,0.498 2.124,1.113 m 0,-1.919 v 1.055 c -0.527,-0.718 -1.392,-1.231 -2.388,-1.231 -1.845,0 -3.149,1.407 -3.149,3.706 0,2.256 1.288,3.721 3.149,3.721 0.952,0 1.817,-0.469 2.388,-1.245 v 3.765 h 1.098 v -9.771 z"
             style="fill:#1c1c1b;fill-opacity:1;fill-rule:nonzero;stroke:none"
             id="path492" /></g><g
           id="g494"
           transform="translate(242.9005,25.5163)"><path
             d="M 0,0 C 1.436,0 2.285,1.157 2.285,2.725 2.285,4.292 1.436,5.464 0,5.464 -0.864,5.464 -1.729,4.937 -2.109,4.321 V 1.113 C -1.729,0.498 -0.864,0 0,0 m -3.208,-0.806 v 9.771 h 1.099 V 5.2 c 0.571,0.777 1.421,1.245 2.387,1.245 1.846,0 3.15,-1.465 3.15,-3.72 0,-2.3 -1.304,-3.706 -3.15,-3.706 -0.996,0 -1.86,0.512 -2.387,1.23 v -1.055 z"
             style="fill:#1c1c1b;fill-opacity:1;fill-rule:nonzero;stroke:none"
             id="path496" /></g><g
           id="g498"
           transform="translate(247.5289,22.9382)"><path
             d="m 0,0 c 0.161,-0.073 0.425,-0.117 0.601,-0.117 0.483,0 0.805,0.161 1.054,0.747 L 2.124,1.699 -0.835,8.848 H 0.352 L 2.71,3.047 5.054,8.848 h 1.2 L 2.71,0.337 C 2.285,-0.687 1.567,-1.084 0.63,-1.099 c -0.234,0 -0.601,0.044 -0.806,0.104 z"
             style="fill:#1c1c1b;fill-opacity:1;fill-rule:nonzero;stroke:none"
             id="path500" /></g></g></g></g></svg>
