<?xml version="1.0" encoding="UTF-8" standalone="no"?>
<!-- Created with Inkscape (http://www.inkscape.org/) -->

<svg
   version="1.1"
   id="svg2"
   xml:space="preserve"
   width="666.66669"
   height="666.66669"
   viewBox="0 0 666.66669 666.66669"
   sodipodi:docname="about.svg"
   inkscape:version="1.1.1 (3bf5ae0d25, 2021-09-20)"
   xmlns:inkscape="http://www.inkscape.org/namespaces/inkscape"
   xmlns:sodipodi="http://sodipodi.sourceforge.net/DTD/sodipodi-0.dtd"
   xmlns="http://www.w3.org/2000/svg"
   xmlns:svg="http://www.w3.org/2000/svg"><defs
     id="defs6"><clipPath
       clipPathUnits="userSpaceOnUse"
       id="clipPath98"><path
         d="m 2173.34,1035.83 c -0.81,0 -1.63,0.24 -2.35,0.74 -1.85,1.3 -2.29,3.85 -0.99,5.7 0.04,0.06 76.07,108.29 171.29,225.76 0.88,-3.27 1.76,-6.51 2.64,-9.75 -69.63,-86.18 -128.53,-166.73 -153.89,-202 -8.61,-11.97 -13.33,-18.69 -13.35,-18.71 v 0 c -0.79,-1.14 -2.06,-1.74 -3.35,-1.74 m 366.45,438.44 -1.07,10.09 c 18.42,16.63 36.18,31.21 52.95,43.04 h 14.53 c -20.39,-13.36 -42.85,-31.57 -66.41,-53.13"
         id="path96" /></clipPath></defs><sodipodi:namedview
     id="namedview4"
     pagecolor="#ffffff"
     bordercolor="#666666"
     borderopacity="1.0"
     inkscape:pageshadow="2"
     inkscape:pageopacity="0.0"
     inkscape:pagecheckerboard="0"
     showgrid="false"
     inkscape:zoom="0.94199997"
     inkscape:cx="333.33334"
     inkscape:cy="332.80256"
     inkscape:window-width="1440"
     inkscape:window-height="839"
     inkscape:window-x="1440"
     inkscape:window-y="0"
     inkscape:window-maximized="1"
     inkscape:current-layer="g8" /><g
     id="g8"
     inkscape:groupmode="layer"
     inkscape:label="ink_ext_XXXXXX"
     transform="matrix(1.3333333,0,0,-1.3333333,0,666.66667)"><g
       id="g10"
       transform="scale(0.1)"><path
         d="M 0,0 H 5000 V 5000 H 0 Z"
         style="fill:#ffffff;fill-opacity:1;fill-rule:nonzero;stroke:none"
         id="path12" /><path
         d="M 4177.56,2677.28 C 3944.14,2327.79 3446.01,1246.91 3568.54,845.77 l -1787.07,-0.411 c 0,0 -258.23,192.261 -509.09,526.531 -45.59,60.73 -90.93,126.21 -134.4,196.03 -46.16,73.98 -90.2,152.89 -130.22,236.37 -116.303,242.1 -199.295,522.68 -202.651,832.8 C 793.402,3710.61 1722.54,4708.33 2986.52,4305.72 4250.49,3903.11 4410.91,3026.77 4177.56,2677.28"
         style="fill:#eef9f8;fill-opacity:1;fill-rule:nonzero;stroke:none"
         id="path14" /><path
         d="m 3059.44,833.109 c -3.59,0 -7.15,1.571 -9.58,4.582 L 2096.84,2022.63 c -4.25,5.29 -3.41,13.01 1.87,17.27 5.29,4.24 13.02,3.41 17.26,-1.88 L 3069,853.09 c 4.25,-5.281 3.41,-13.008 -1.87,-17.258 -2.27,-1.832 -4.98,-2.723 -7.69,-2.723"
         style="fill:#e13122;fill-opacity:1;fill-rule:nonzero;stroke:none"
         id="path16" /><path
         d="m 1581.11,833.109 c -2.7,0 -5.42,0.891 -7.68,2.723 -5.28,4.25 -6.12,11.977 -1.88,17.258 l 953.03,1184.93 c 4.26,5.29 11.98,6.12 17.26,1.88 5.29,-4.26 6.13,-11.98 1.87,-17.27 L 1590.69,837.691 c -2.43,-3.011 -5.99,-4.582 -9.58,-4.582"
         style="fill:#f14e25;fill-opacity:1;fill-rule:nonzero;stroke:none"
         id="path18" /><path
         d="m 2534.15,833.109 c -3.59,0 -7.14,1.571 -9.57,4.582 L 1571.55,2022.63 c -4.24,5.29 -3.4,13.01 1.88,17.27 5.29,4.24 13.01,3.41 17.26,-1.88 L 2543.71,853.09 c 4.25,-5.281 3.41,-13.008 -1.87,-17.258 -2.27,-1.832 -4.99,-2.723 -7.69,-2.723"
         style="fill:#f14e25;fill-opacity:1;fill-rule:nonzero;stroke:none"
         id="path20" /><path
         d="m 1749.99,1998.87 h -442.76 c -17.37,0 -31.46,14.09 -31.46,31.46 0,17.37 14.09,31.45 31.46,31.45 h 442.76 c 17.37,0 31.46,-14.08 31.46,-31.45 0,-17.37 -14.09,-31.46 -31.46,-31.46"
         style="fill:#e13122;fill-opacity:1;fill-rule:nonzero;stroke:none"
         id="path22" /><path
         d="M 3023.92,1998.87 H 1758.44 c -17.37,0 -31.45,14.09 -31.45,31.46 0,17.37 14.08,31.45 31.45,31.45 h 1265.48 v -62.91"
         style="fill:#f14e25;fill-opacity:1;fill-rule:nonzero;stroke:none"
         id="path24" /><path
         d="m 2091.99,1437.86 c 0,-18.98 -15.38,-34.36 -34.36,-34.36 -18.98,0 -34.36,15.38 -34.36,34.36 0,18.97 15.38,34.36 34.36,34.36 18.98,0 34.36,-15.39 34.36,-34.36"
         style="fill:#e13122;fill-opacity:1;fill-rule:nonzero;stroke:none"
         id="path26" /><path
         d="m 2617.28,1437.86 c 0,-18.98 -15.39,-34.36 -34.36,-34.36 -18.98,0 -34.36,15.38 -34.36,34.36 0,18.97 15.38,34.36 34.36,34.36 18.97,0 34.36,-15.39 34.36,-34.36"
         style="fill:#fbc52f;fill-opacity:1;fill-rule:nonzero;stroke:none"
         id="path28" /><path
         d="m 2160.07,3000.96 h -446.06 c -22.03,0 -39.88,17.86 -39.88,39.88 v 331.74 c 0,22.02 17.85,39.88 39.88,39.88 h 446.06 c 22.03,0 39.88,-17.86 39.88,-39.88 v -331.74 c 0,-22.02 -17.85,-39.88 -39.88,-39.88"
         style="fill:#50c4c0;fill-opacity:1;fill-rule:nonzero;stroke:none"
         id="path30" /><path
         d="m 1950.59,3140.59 c -45.03,-8.52 -83.72,30.17 -75.2,75.2 4.75,25.15 25.04,45.44 50.2,50.2 45.03,8.51 83.72,-30.17 75.2,-75.2 -4.76,-25.16 -25.05,-45.45 -50.2,-50.2 z m 100.56,90.16 h -16.51 c -2.53,9.02 -6.27,17.57 -11.14,25.4 l 12.74,12.73 c 4.85,4.86 4.85,12.74 0,17.59 l -17.93,17.93 c -4.86,4.85 -12.73,4.85 -17.59,0 l -13.54,-13.54 c -7.48,4.21 -15.5,7.51 -23.97,9.66 v 20.3 c 0,6.87 -5.56,12.43 -12.43,12.43 h -25.35 c -6.87,0 -12.44,-5.56 -12.44,-12.43 v -20.53 c -8.22,-2.12 -16.01,-5.24 -23.27,-9.25 l -14.86,14.87 c -4.85,4.85 -12.73,4.85 -17.58,0 l -17.93,-17.93 c -4.86,-4.86 -4.86,-12.73 0,-17.59 l 13.76,-13.76 c -4.6,-7.32 -8.22,-15.31 -10.82,-23.75 h -19.36 c -6.87,0 -12.44,-5.56 -12.44,-12.43 v -25.35 c 0,-6.87 5.57,-12.44 12.44,-12.44 h 16.96 c 1.91,-9.37 5.13,-18.29 9.54,-26.55 l -11.59,-11.58 c -4.86,-4.86 -4.86,-12.73 0,-17.58 l 17.93,-17.93 c 4.86,-4.86 12.73,-4.86 17.59,0 l 10.06,10.06 c 8.39,-5.46 17.63,-9.68 27.44,-12.41 v -14.07 c 0,-6.87 5.57,-12.44 12.44,-12.44 h 25.35 c 6.87,0 12.44,5.57 12.44,12.44 v 13.13 c 10.16,2.39 19.73,6.26 28.44,11.47 l 9.69,-9.69 c 4.85,-4.86 12.72,-4.86 17.58,0 l 17.93,17.93 c 4.86,4.85 4.86,12.73 0,17.58 l -9.95,9.95 c 4.94,8.48 8.65,17.73 10.93,27.56 h 15.44 c 6.86,0 12.44,5.57 12.44,12.44 v 25.35 c 0,6.87 -5.58,12.43 -12.44,12.43"
         style="fill:#ffffff;fill-opacity:1;fill-rule:nonzero;stroke:none"
         id="path32" /><path
         d="m 2831.63,3228.28 h -446.07 c -22.02,0 -39.88,17.85 -39.88,39.88 v 331.73 c 0,22.03 17.86,39.88 39.88,39.88 h 446.07 c 22.02,0 39.88,-17.85 39.88,-39.88 v -331.73 c 0,-22.03 -17.86,-39.88 -39.88,-39.88"
         style="fill:#f14e25;fill-opacity:1;fill-rule:nonzero;stroke:none"
         id="path34" /><path
         d="m 2519.81,3364.87 c -3.14,0 -6.28,1.28 -8.68,3.84 l -55.42,59.32 c -4.8,5.13 -4.8,13.45 0,18.57 l 56.36,60.31 c 4.79,5.13 12.57,5.13 17.36,0 4.8,-5.13 4.8,-13.45 0,-18.57 l -47.68,-51.02 46.74,-50.03 c 4.8,-5.13 4.8,-13.45 0,-18.58 -2.4,-2.56 -5.53,-3.84 -8.68,-3.84"
         style="fill:#ffffff;fill-opacity:1;fill-rule:nonzero;stroke:none"
         id="path36" /><path
         d="m 2697.37,3364.87 c -3.14,0 -6.28,1.28 -8.68,3.84 -4.8,5.13 -4.8,13.45 0,18.58 l 46.75,50.03 -47.69,51.02 c -4.79,5.12 -4.79,13.44 0,18.57 4.8,5.13 12.57,5.13 17.36,0 l 56.37,-60.31 c 2.31,-2.46 3.59,-5.8 3.59,-9.28 0,-3.49 -1.28,-6.83 -3.59,-9.29 l -55.43,-59.32 c -2.4,-2.56 -5.55,-3.84 -8.68,-3.84"
         style="fill:#ffffff;fill-opacity:1;fill-rule:nonzero;stroke:none"
         id="path38" /><path
         d="m 2581.08,3348.57 c -1.53,0 -3.1,0.31 -4.62,0.97 -6.29,2.73 -9.3,10.4 -6.75,17.12 l 55.01,144.63 c 2.56,6.7 9.69,9.97 16.01,7.21 6.28,-2.73 9.3,-10.4 6.75,-17.12 l -55.02,-144.63 c -1.95,-5.09 -6.53,-8.18 -11.38,-8.18"
         style="fill:#ffffff;fill-opacity:1;fill-rule:nonzero;stroke:none"
         id="path40" /><path
         d="M 3234.28,3149.21 H 2127.52 v 33.97 c 0,9.17 7.42,16.6 16.59,16.6 h 1073.58 c 9.17,0 16.59,-7.43 16.59,-16.6 v -33.97"
         style="fill:#ffffff;fill-opacity:1;fill-rule:nonzero;stroke:none"
         id="path42" /><path
         d="M 3203.39,2559.15 H 2158.42 c -17.07,0 -30.9,13.84 -30.9,30.91 v 559.15 h 1106.76 v -559.15 c 0,-17.07 -13.82,-30.91 -30.89,-30.91"
         style="fill:#343573;fill-opacity:1;fill-rule:nonzero;stroke:none"
         id="path44" /><path
         d="m 3181.17,3174.49 c 0,-4.3 -3.49,-7.78 -7.78,-7.78 -4.3,0 -7.79,3.48 -7.79,7.78 0,4.3 3.49,7.78 7.79,7.78 4.29,0 7.78,-3.48 7.78,-7.78"
         style="fill:#f14e25;fill-opacity:1;fill-rule:nonzero;stroke:none"
         id="path46" /><path
         d="m 3127.68,3174.49 c 0,-4.3 -3.48,-7.78 -7.78,-7.78 -4.3,0 -7.78,3.48 -7.78,7.78 0,4.3 3.48,7.78 7.78,7.78 4.3,0 7.78,-3.48 7.78,-7.78"
         style="fill:#f14e25;fill-opacity:1;fill-rule:nonzero;stroke:none"
         id="path48" /><path
         d="m 3074.2,3174.49 c 0,-4.3 -3.49,-7.78 -7.79,-7.78 -4.29,0 -7.77,3.48 -7.77,7.78 0,4.3 3.48,7.78 7.77,7.78 4.3,0 7.79,-3.48 7.79,-7.78"
         style="fill:#f14e25;fill-opacity:1;fill-rule:nonzero;stroke:none"
         id="path50" /><path
         d="m 2799.48,3069.46 h -614.59 c -5.91,0 -10.7,4.79 -10.7,10.7 0,5.91 4.79,10.7 10.7,10.7 h 614.59 c 5.91,0 10.69,-4.79 10.69,-10.7 0,-5.91 -4.78,-10.7 -10.69,-10.7"
         style="fill:#50c4c0;fill-opacity:1;fill-rule:nonzero;stroke:none"
         id="path52" /><path
         d="m 2799.48,3001.39 h -614.59 c -5.91,0 -10.7,4.79 -10.7,10.7 0,5.91 4.79,10.7 10.7,10.7 h 614.59 c 5.91,0 10.69,-4.79 10.69,-10.7 0,-5.91 -4.78,-10.7 -10.69,-10.7"
         style="fill:#50c4c0;fill-opacity:1;fill-rule:nonzero;stroke:none"
         id="path54" /><path
         d="m 2506.29,2933.32 h -321.4 c -5.91,0 -10.7,4.79 -10.7,10.7 0,5.91 4.79,10.7 10.7,10.7 h 321.4 c 5.9,0 10.69,-4.79 10.69,-10.7 0,-5.91 -4.79,-10.7 -10.69,-10.7"
         style="fill:#50c4c0;fill-opacity:1;fill-rule:nonzero;stroke:none"
         id="path56" /><path
         d="m 2799.48,2797.18 h -614.59 c -5.91,0 -10.7,4.79 -10.7,10.7 0,5.91 4.79,10.7 10.7,10.7 h 614.59 c 5.91,0 10.69,-4.79 10.69,-10.7 0,-5.91 -4.78,-10.7 -10.69,-10.7"
         style="fill:#f14e25;fill-opacity:1;fill-rule:nonzero;stroke:none"
         id="path58" /><path
         d="m 2506.29,2729.11 h -321.4 c -5.91,0 -10.7,4.79 -10.7,10.7 0,5.9 4.79,10.69 10.7,10.69 h 321.4 c 5.9,0 10.69,-4.79 10.69,-10.69 0,-5.91 -4.79,-10.7 -10.69,-10.7"
         style="fill:#f14e25;fill-opacity:1;fill-rule:nonzero;stroke:none"
         id="path60" /><path
         d="m 2506.29,2661.04 h -321.4 c -5.91,0 -10.7,4.79 -10.7,10.7 0,5.9 4.79,10.69 10.7,10.69 h 321.4 c 5.9,0 10.69,-4.79 10.69,-10.69 0,-5.91 -4.79,-10.7 -10.69,-10.7"
         style="fill:#50c4c0;fill-opacity:1;fill-rule:nonzero;stroke:none"
         id="path62" /><path
         d="m 2799.48,2933.32 h -230.96 c -5.91,0 -10.7,4.79 -10.7,10.7 0,5.91 4.79,10.7 10.7,10.7 h 230.96 c 5.91,0 10.69,-4.79 10.69,-10.7 0,-5.91 -4.78,-10.7 -10.69,-10.7"
         style="fill:#ffffff;fill-opacity:1;fill-rule:nonzero;stroke:none"
         id="path64" /><path
         d="m 3104.55,3086.18 -163.31,-163.31 c -4.18,-4.18 -10.95,-4.18 -15.13,0 -4.18,4.18 -4.18,10.96 0,15.13 l 163.31,163.31 c 4.18,4.18 10.96,4.18 15.13,0 4.18,-4.17 4.18,-10.95 0,-15.13"
         style="fill:#f14e25;fill-opacity:1;fill-rule:nonzero;stroke:none"
         id="path66" /><path
         d="m 3111.64,2777.24 c 0,-53.18 -43.13,-96.3 -96.31,-96.3 -53.18,0 -96.3,43.12 -96.3,96.3 0,53.19 43.12,96.31 96.3,96.31 53.18,0 96.31,-43.12 96.31,-96.31"
         style="fill:#f14e25;fill-opacity:1;fill-rule:nonzero;stroke:none"
         id="path68" /><path
         d="m 3002.73,2710.13 c 0,-30.11 -24.4,-54.52 -54.51,-54.52 -30.11,0 -54.52,24.41 -54.52,54.52 0,30.11 24.41,54.52 54.52,54.52 30.11,0 54.51,-24.41 54.51,-54.52"
         style="fill:#50c4c0;fill-opacity:1;fill-rule:nonzero;stroke:none"
         id="path70" /><path
         d="m 2127.52,2618.86 v -194.7 l 178.94,178.95"
         style="fill:#343573;fill-opacity:1;fill-rule:nonzero;stroke:none"
         id="path72" /><path
         d="m 1937.04,2371.52 h 392.62 l 141.98,-273.26 h -392.62 l -141.98,273.26"
         style="fill:#87c5b8;fill-opacity:1;fill-rule:nonzero;stroke:none"
         id="path74" /><path
         d="m 2086.96,2118.47 -117.56,226.26 c -2.46,4.75 0.98,10.41 6.33,10.41 h 339.66 c 2.66,0 5.09,-1.47 6.32,-3.83 l 117.56,-226.26 c 2.47,-4.75 -0.97,-10.41 -6.32,-10.41 h -339.66 c -2.66,0 -5.1,1.47 -6.33,3.83"
         style="fill:#ffffff;fill-opacity:1;fill-rule:nonzero;stroke:none"
         id="path76" /><path
         d="m 2397.01,2098.26 h -317.99 v -36.48 h 317.99 v 36.48"
         style="fill:#bbe8e0;fill-opacity:1;fill-rule:nonzero;stroke:none"
         id="path78" /><path
         d="m 2670.2,2098.26 h -313.79 c -10.07,0 -18.23,-8.17 -18.23,-18.23 0,-10.08 8.16,-18.25 18.23,-18.25 h 313.79 c 10.08,0 18.24,8.17 18.24,18.25 0,10.06 -8.16,18.23 -18.24,18.23"
         style="fill:#9fd2c5;fill-opacity:1;fill-rule:nonzero;stroke:none"
         id="path80" /><path
         d="m 2079.02,2098.26 -141.98,273.26 -7.12,-5.34 c -4.59,-3.45 -6.01,-9.72 -3.33,-14.81 l 152.43,-289.59 v 36.48"
         style="fill:#bbe8e0;fill-opacity:1;fill-rule:nonzero;stroke:none"
         id="path82" /><path
         d="m 2221.97,2075.16 h -35.01 v 6.08 h 35.01 v -6.08"
         style="fill:#9fd2c5;fill-opacity:1;fill-rule:nonzero;stroke:none"
         id="path84" /><path
         d="m 2265.97,2075.16 h -35.01 v 6.08 h 35.01 v -6.08"
         style="fill:#9fd2c5;fill-opacity:1;fill-rule:nonzero;stroke:none"
         id="path86" /><path
         d="m 2309.97,2075.16 h -35 v 6.08 h 35 v -6.08"
         style="fill:#9fd2c5;fill-opacity:1;fill-rule:nonzero;stroke:none"
         id="path88" /><path
         d="m 2794.83,1563.42 c 0,0 -325.67,-253.57 -377.32,-317.98 -19.48,-24.4 -53.45,-67.12 -88.64,-110.91 -57.78,-71.95 -119.09,-146.921 -126.37,-148.721 -11.62,-2.938 -109.35,71.451 -112.3,87.501 -1.8,9.99 87.17,162.71 164.19,285.49 46.9,74.63 89.29,138.32 104.19,152.07 39.37,36.5 281.64,164.84 281.64,164.84 l 154.61,-112.29"
         style="fill:#343573;fill-opacity:1;fill-rule:nonzero;stroke:none"
         id="path90" /><g
         id="g92"><g
           id="g94"
           clip-path="url(#clipPath98)"><path
             d="m 2168.7,1035.83 h 437.5 v 491.566 h -437.5 z"
             style="fill:#2c2e5f;fill-opacity:1;fill-rule:nonzero;stroke:none"
             id="path100" /></g></g><path
         d="m 3134.25,2675.4 c -3.43,-7.86 -7.37,-16.04 -11.78,-24.39 -23.82,-45.51 -6.22,-91.1 -33.4,-102.72 -1.63,-0.66 -3.44,-1.31 -5.48,-1.72 -35.03,-7.78 -115.73,38.88 -119.26,62.2 -3.51,23.33 24.88,63.27 0,68.1 -24.87,4.83 -38.3,-36.99 -38.3,-36.99 -20.46,-2.13 -27.74,32.16 -61.31,32.16 -4.74,0 -9.4,-0.66 -13.9,-1.8 -15.8,-3.93 -29.63,-13.67 -38.48,-21.2 -6.54,-5.48 -10.31,-9.82 -10.31,-9.82 0,0 -29.87,18.91 -28.48,56.15 2.37,59.01 24.14,102.06 76.61,110.82 5.81,65.64 59.83,100.67 132.01,102.88 63.28,1.97 72.77,-54.92 74.24,-69.08 -0.56,10.56 -3.51,45.27 -18.57,69.08 31.67,1.4 59.58,-21.2 52.29,-94.86 7.29,21.93 32.83,35.77 52.47,19.73 -18.17,0 -35.69,-30.61 -35.69,-30.61 0,0 21.37,-13.67 35.94,-38.96 12.11,-20.88 7.53,-51.73 -8.6,-88.97"
         style="fill:#322020;fill-opacity:1;fill-rule:nonzero;stroke:none"
         id="path102" /><path
         d="m 3089.07,2548.29 -0.81,-10.81 -2.78,-38.3 c 0,0 -58.29,-49.85 -91.35,0 l -0.73,0.98 c -10.24,15.22 -19.49,20.54 -27.92,21.53 -6.39,0.77 -12.36,-0.92 -18.07,-2.61 -10.57,-3.13 -20.25,-6.26 -30.14,6.29 -43.54,55.25 -60.89,119.25 -66.45,144.87 4.5,1.14 9.16,1.8 13.9,1.8 33.57,0 40.85,-34.29 61.31,-32.16 0,0 13.43,41.82 38.3,36.99 24.88,-4.83 -3.51,-44.77 0,-68.1 1.56,-10.39 18.51,-25.45 39.94,-38.22 24.97,-14.98 56.08,-26.85 75.79,-24.56 1.23,0.17 2.39,0.34 3.53,0.58 2.04,0.41 3.85,1.06 5.48,1.72"
         style="fill:#f89d8a;fill-opacity:1;fill-rule:nonzero;stroke:none"
         id="path104" /><path
         d="m 2981.26,2467.08 c -4.35,7.77 -11.1,22.61 -5.63,32.1 1.48,2.62 5.16,6.22 10.39,10.48 v 0 c 0.01,0 0.01,0 0.01,0.01 2.4,-2.63 4.85,-5.77 7.37,-9.51 l 0.73,-0.98 c 4.28,-6.47 8.99,-11.25 13.94,-14.69 -7.74,-4.98 -16.95,-10.95 -26.81,-17.41"
         style="fill:#e9f8f5;fill-opacity:1;fill-rule:nonzero;stroke:none"
         id="path106" /><path
         d="m 3008.07,2484.49 c -4.95,3.44 -9.66,8.22 -13.94,14.69 l -0.73,0.98 c -2.52,3.74 -4.97,6.88 -7.37,9.51 10.57,8.67 27.59,19.79 45.18,28.96 v 0 c 0,0 0.01,0 0.01,0.01 -4.39,-6.54 -6.59,-11.12 -7.3,-12.7 l -0.08,-0.57 c -1.23,-5.32 -2.46,-10.89 -3.6,-16.7 -1.25,-6.02 -2.5,-12.27 -3.73,-18.76 -2.55,-1.63 -5.38,-3.45 -8.44,-5.42"
         style="fill:#f6836d;fill-opacity:1;fill-rule:nonzero;stroke:none"
         id="path108" /><path
         d="m 3090.38,1838.58 c -58.6,-11.29 -182.6,23.25 -241.94,49.93 -17.52,7.86 -29.47,15.06 -32.33,20.14 -11.38,20.05 0.08,35.44 28.32,99.11 3.19,7.21 6.54,14.98 10.15,23.41 19.15,45.1 19.23,141.27 19.15,224.19 -0.25,70.96 -0.57,132.18 10.72,143.06 24.47,23.58 146.59,100.76 146.59,100.76 l 24.31,-126.7 c 0,0 13.75,-64.34 28.24,-148.31 26.68,-154.61 55.99,-376.09 6.79,-385.59"
         style="fill:#50c4c0;fill-opacity:1;fill-rule:nonzero;stroke:none"
         id="path110" /><path
         d="m 3131.23,1782.19 c 0,-5.81 -58.36,-141.92 -107.31,-161.4 -48.94,-19.48 -343.92,1.96 -343.92,1.96 l -145.85,-95.35 30.52,-287.29 21.28,-200.19 0.66,-6.48 c -44.61,-29.13 -156.98,-36.991 -169.1,-11.86 l -0.08,0.17 c -11.71,25.29 -190.62,564.01 -120.56,657.4 69.98,93.3 519.24,229.5 519.24,229.5 11.71,-7.45 25.29,-14.16 40.11,-20.14 49.92,-20.46 113.36,-33.31 161.65,-40.84 18.57,-2.87 34.86,-5 47.3,-6.46 15.72,-1.89 25.21,-2.63 25.21,-2.63 0,0 40.85,-50.5 40.85,-56.39"
         style="fill:#343573;fill-opacity:1;fill-rule:nonzero;stroke:none"
         id="path112" /><path
         d="m 2605.1,845.77 h -379.28 c -1.88,6.71 0.66,13.5 6.39,20.378 15.38,18.5 53.93,37.082 91.09,53.122 35.28,15.23 69.17,28.312 80.54,37.32 26.77,21.199 14.41,62.45 13.67,64.99 4.09,-8.43 19.56,-13.17 40.03,-14.57 40.18,-2.86 99.53,7.12 129.07,26.43 l -0.66,6.48 c 11.3,-21.61 16.62,-128.432 18.42,-173.772 0.49,-12.519 0.73,-20.378 0.73,-20.378"
         style="fill:#202853;fill-opacity:1;fill-rule:nonzero;stroke:none"
         id="path114" /><path
         d="m 2457.54,1007.01 c -1.15,-18.088 -3.77,-47.381 -9.01,-55.248 -7.77,-11.703 -91.42,-52.543 -103.05,-48.621 -7.52,2.461 -16.69,10.648 -22.18,16.129 35.28,15.23 69.17,28.312 80.54,37.32 26.77,21.199 14.41,62.45 13.67,64.99 4.09,-8.43 19.56,-13.17 40.03,-14.57"
         style="fill:#304383;fill-opacity:1;fill-rule:nonzero;stroke:none"
         id="path116" /><path
         d="m 2605.1,845.77 h -379.28 c -1.88,6.71 0.66,13.5 6.39,20.378 h 372.16 c 0.49,-12.519 0.73,-20.378 0.73,-20.378"
         style="fill:#304383;fill-opacity:1;fill-rule:nonzero;stroke:none"
         id="path118" /><path
         d="m 2202.5,985.809 c 0,0 -28.81,-75.95 -53.78,-116.137 -9.9,-16.043 -19.31,-26.442 -25.95,-23.902 -23.32,8.761 -257.73,208.06 -235.31,222.63 3.28,2.12 8.52,3.6 15.07,4.42 20.38,2.62 54.18,-0.24 85.45,-3.44 26.84,-2.78 51.8,-5.81 64.82,-5.81 33.06,0 37.4,9.74 37.4,9.74 0.74,-3.85 6.96,-11.14 16.21,-19.97 28.97,-27.5 87.25,-69.738 96.09,-67.531"
         style="fill:#202853;fill-opacity:1;fill-rule:nonzero;stroke:none"
         id="path120" /><path
         d="m 2106.41,1053.34 c -49.68,-32.9 -101.49,-13.1 -111.73,-5.57 -7.53,5.49 -7.53,15.71 -6.7,21.61 26.84,-2.78 51.8,-5.81 64.82,-5.81 33.06,0 37.4,9.74 37.4,9.74 0.74,-3.85 6.96,-11.14 16.21,-19.97"
         style="fill:#304383;fill-opacity:1;fill-rule:nonzero;stroke:none"
         id="path122" /><path
         d="m 2148.72,869.672 c -9.9,-16.043 -19.31,-26.442 -25.95,-23.902 -23.32,8.761 -257.73,208.06 -235.31,222.63 3.28,2.12 8.52,3.6 15.07,4.42 l 246.19,-203.148"
         style="fill:#304383;fill-opacity:1;fill-rule:nonzero;stroke:none"
         id="path124" /><path
         d="m 2848.6,2086.83 c -18.33,-25.53 -51.15,-64.5 -78.16,-60.56 -0.98,0.15 -2.04,0.32 -3.35,0.56 -51.58,9.09 -354.82,85.13 -369.14,87.99 -14.57,2.86 -116.63,3.85 -110.82,14.57 5.81,10.72 64.17,44.69 79.72,43.87 15.55,-0.82 76.85,-18.58 138.07,-16.61 61.31,1.88 221.73,0 221.73,0 l 7.78,13.42 11.45,19.81 c -3.19,-59.42 68.43,-107.88 102.72,-103.05"
         style="fill:#f89d8a;fill-opacity:1;fill-rule:nonzero;stroke:none"
         id="path126" /><path
         d="m 2889.08,1762.08 c -0.57,0 -1.15,0.11 -1.7,0.36 -19.04,8.65 -30.33,23.25 -36.62,38.51 -6.32,15.28 -7.85,31.27 -7.86,43.57 0,12.64 1.65,21.42 1.68,21.59 v 0 c 0.37,1.97 2.09,3.34 4.02,3.34 0.25,0 0.5,-0.02 0.75,-0.07 2.23,-0.42 3.69,-2.56 3.27,-4.78 0,0 -0.08,-0.44 -0.22,-1.38 -0.15,-0.95 -0.34,-2.34 -0.54,-4.12 -0.38,-3.55 -0.78,-8.62 -0.78,-14.58 0,-11.62 1.51,-26.62 7.24,-40.44 5.76,-13.84 15.51,-26.45 32.45,-34.19 2.06,-0.93 2.97,-3.36 2.03,-5.42 -0.68,-1.5 -2.17,-2.39 -3.72,-2.39"
         style="fill:#2c2e5f;fill-opacity:1;fill-rule:nonzero;stroke:none"
         id="path128" /><path
         d="m 2534.14,1035.83 c -1.89,0 -3.59,1.32 -4,3.25 0,0.03 -52.6,249.5 -78.93,417.91 -8.78,56.19 -14.65,103.23 -14.66,129.54 0.03,8.41 0.52,14.63 2.1,19.12 1.43,3.87 4.19,7.57 7.99,11.55 3.8,3.97 8.7,8.17 14.57,12.64 11.73,8.93 27.32,18.9 45.52,29.5 36.36,21.2 83.08,44.91 129.25,67.12 92.32,44.42 182.41,82.84 182.44,82.86 0.52,0.22 1.07,0.33 1.6,0.33 1.59,0 3.11,-0.94 3.77,-2.49 0.89,-2.08 -0.08,-4.48 -2.16,-5.37 -0.03,-0.01 -11.11,-4.74 -29.53,-12.82 -18.43,-8.08 -44.17,-19.49 -73.39,-32.83 -58.44,-26.67 -130.85,-61.06 -186.55,-91.8 -37.1,-20.43 -66.92,-39.49 -79.61,-52.8 -3.39,-3.51 -5.47,-6.6 -6.2,-8.68 -0.96,-2.52 -1.65,-8.38 -1.62,-16.33 -0.03,-44.3 17.84,-154.77 37.97,-264.41 20.12,-109.72 42.49,-218.98 51.44,-262.11 2.55,-12.33 4.01,-19.23 4.01,-19.25 0.47,-2.21 -0.95,-4.38 -3.16,-4.85 -0.28,-0.06 -0.57,-0.08 -0.85,-0.08"
         style="fill:#2c2e5f;fill-opacity:1;fill-rule:nonzero;stroke:none"
         id="path130" /><path
         d="m 2564.67,1240.11 c 0,0 -61.63,328.13 -61.63,349.58 0,18.32 407.44,135.45 514.83,257.98 v 0 0 c 18.57,-2.92 34.87,-5.04 47.29,-6.49 0.23,-1.58 0.45,-3.16 0.67,-4.73 3.16,-23.17 5,-44.57 5,-63.09 0,-40.01 -8.59,-66.63 -31.03,-68.92 -56.4,-5.9 -93.39,-7.78 -106.97,-64.17 L 2680,1622.75 v 0 l -125.97,-81.19 -19.88,-14.16 30.52,-287.29"
         style="fill:#2c2e5f;fill-opacity:1;fill-rule:nonzero;stroke:none"
         id="path132" /><path
         d="m 2844.43,2007.76 c 3.19,7.21 6.54,14.98 10.15,23.41 7.37,17.37 11.92,42.32 14.72,71.18 51.45,49.55 96.29,123.97 94.11,189.99 3.39,-38.01 6.24,-118.72 -24.28,-161.97 -25.3,-35.85 -66.06,-81.35 -94.7,-122.61"
         style="fill:#43bab4;fill-opacity:1;fill-rule:nonzero;stroke:none"
         id="path134" /><path
         d="m 2864.57,2097.88 c -3.77,-3.44 -7.62,-6.88 -11.47,-10.07 -1.38,-0.49 -2.86,-0.82 -4.5,-0.98 -34.29,-4.83 -105.91,43.63 -102.72,103.05 0.25,4.41 3.77,13.25 9.5,24.79 29.3,59.1 117.45,190.63 133.66,184.57 0,0 56.63,-8.75 72.02,-86.1 14.4,-72.6 -37.57,-160.67 -96.49,-215.26"
         style="fill:#389a9a;fill-opacity:1;fill-rule:nonzero;stroke:none"
         id="path136" /><path
         d="m 3065.15,1841.21 c -12.44,1.47 -28.72,3.59 -47.28,6.46 -48.29,7.53 -111.73,20.38 -161.65,40.84 44.03,1.56 138.24,30.53 149.62,246.2 v 0 c 5.15,-40.35 12.93,-82.17 23.73,-124.98 14.45,-56.85 28.13,-116.86 35.58,-168.52"
         style="fill:#43bab4;fill-opacity:1;fill-rule:nonzero;stroke:none"
         id="path138" /><path
         d="m 2986.02,2509.66 c -1.8,1.97 -3.56,3.66 -5.3,5.09 1.74,-1.43 3.51,-3.11 5.31,-5.08 0,-0.01 0,-0.01 -0.01,-0.01 v 0"
         style="fill:#e9f8f5;fill-opacity:1;fill-rule:nonzero;stroke:none"
         id="path140" /><path
         d="m 2986.03,2509.67 c -1.8,1.97 -3.57,3.65 -5.31,5.08 -5.36,4.42 -10.42,6.38 -15.24,6.94 v 0 l 38.76,48.82 c 11.79,-7.06 24.93,-13.43 37.6,-17.96 l 0.04,0.03 v 0 l -0.04,-0.03 c -3.55,-4.15 -6.48,-7.99 -8.88,-11.39 -0.62,-0.87 -1.2,-1.72 -1.75,-2.53 v 0 c -17.59,-9.17 -34.61,-20.29 -45.18,-28.96"
         style="fill:#f6836d;fill-opacity:1;fill-rule:nonzero;stroke:none"
         id="path142" /><path
         d="m 2774.31,2025.99 c -1.3,0 -2.6,0.09 -3.87,0.28 -0.98,0.15 -2.04,0.32 -3.35,0.56 v 0 c -33.4,48.29 -34.63,111.57 -32.66,143.24 l 11.45,19.81 c -0.01,-0.24 -0.02,-0.49 -0.03,-0.73 -2.28,-52.25 53.11,-95.86 89.57,-101.93 0.03,0 0.06,-0.01 0.08,-0.01 0.07,-0.01 0.14,-0.02 0.21,-0.04 0.14,-0.02 0.29,-0.04 0.43,-0.06 0.09,-0.02 0.19,-0.03 0.28,-0.05 0.29,-0.04 0.57,-0.08 0.86,-0.12 v 0 c 0.27,-0.03 0.53,-0.07 0.79,-0.1 1.09,-0.13 2.15,-0.22 3.2,-0.28 h 0.01 c 0.31,-0.01 0.61,-0.03 0.92,-0.04 0.48,-0.01 0.95,-0.02 1.42,-0.02 v 0 0 0 c 1.73,0 3.4,0.11 4.98,0.33 -17.46,-24.32 -48.08,-60.84 -74.29,-60.84"
         style="fill:#f6836d;fill-opacity:1;fill-rule:nonzero;stroke:none"
         id="path144" /><path
         d="m 2843.62,2086.5 v 0 0 0 m -1.42,0.02 c -0.31,0.01 -0.61,0.03 -0.92,0.04 0.31,-0.01 0.61,-0.03 0.92,-0.04 m -0.93,0.04 c -1.05,0.06 -2.11,0.15 -3.2,0.28 1.09,-0.13 2.15,-0.22 3.2,-0.28 m -3.99,0.38 v 0 0 m -0.86,0.12 c -0.09,0.02 -0.19,0.03 -0.28,0.05 0.09,-0.02 0.19,-0.03 0.28,-0.05 m -0.71,0.11 c -0.07,0.02 -0.14,0.03 -0.21,0.04 0.07,-0.01 0.14,-0.02 0.21,-0.04 m -0.29,0.05 c -36.46,6.07 -91.85,49.68 -89.57,101.93 v 0 c -2.28,-52.25 53.11,-95.86 89.57,-101.93 m -89.54,102.66 v 0 0"
         style="fill:#2e7d80;fill-opacity:1;fill-rule:nonzero;stroke:none"
         id="path146" /><path
         d="m 3108.87,2603.74 c 1.17,9.26 2.88,19.13 6.1,29.22 -3.21,-10.08 -4.9,-19.94 -6.07,-29.2 -0.01,-0.01 -0.02,-0.01 -0.03,-0.02"
         style="fill:#272952;fill-opacity:1;fill-rule:nonzero;stroke:none"
         id="path148" /><path
         d="m 3041.93,2552.62 v 0 c -6.77,2.41 -13.69,5.32 -20.45,8.61 -5.91,2.87 -11.71,6.02 -17.21,9.32 -9.55,5.69 -18.22,11.84 -25.02,17.83 -8.45,7.44 -14.04,14.63 -14.92,20.39 v 0 c -0.21,1.41 -0.31,2.89 -0.3,4.41 0.02,15.82 10.62,36.97 10.62,50.58 v 0 c 0,6.73 -2.59,11.61 -10.32,13.11 v 0 c -1.36,0.27 -2.68,0.39 -3.97,0.39 v 0 0 0 c -0.01,0 -0.03,0 -0.04,0 -11.59,-0.03 -20.39,-10.12 -26.18,-19.81 -5.34,-8.96 -8.11,-17.57 -8.11,-17.57 -0.61,-0.07 -1.22,-0.1 -1.81,-0.1 v 0 c -0.01,0 -0.03,0 -0.04,0 -10.67,0.02 -17.83,10.11 -27.75,19 -7.83,7 -17.37,13.26 -31.71,13.26 -4.74,0 -9.4,-0.66 -13.9,-1.8 -15.8,-3.93 -29.63,-13.67 -38.48,-21.2 0,0 31.21,43.83 81.39,43.83 5.07,0 10.33,-0.45 15.77,-1.43 0,0 -7.73,14.73 -42.18,14.73 -2.05,0 -4.19,-0.05 -6.43,-0.16 33.24,10.83 61.72,15.66 85.58,15.66 36.18,0 61.75,-11.1 77.29,-29.25 13.86,-16.24 40.04,-35 67.76,-35.01 14.33,0 29.06,5.01 42.73,17.99 -3.43,-7.86 -7.37,-16.04 -11.78,-24.39 v 0 c -3.17,-6.05 -5.6,-12.09 -7.5,-18.05 -3.22,-10.09 -4.93,-19.96 -6.1,-29.22 -4.81,-2.49 -9.35,-5.02 -13.66,-7.57 v 0 c -25.29,-15.06 -42.31,-30.69 -53.28,-43.55 v 0"
         style="fill:#261a19;fill-opacity:1;fill-rule:nonzero;stroke:none"
         id="path150" /><path
         d="m 3021.48,2561.23 c -5.91,2.86 -11.71,6 -17.21,9.32 l -0.03,-0.04 c -9.54,5.71 -18.19,11.87 -24.99,17.87 6.8,-5.99 15.47,-12.14 25.02,-17.83 5.5,-3.3 11.3,-6.45 17.21,-9.32 m -57.15,47.54 v 0 c -0.21,1.41 -0.31,2.89 -0.3,4.41 -0.01,-1.52 0.09,-3 0.3,-4.41 v 0 m -40.11,31.01 v 0 0 0 0 0 m -0.04,0 c -10.67,0.02 -17.83,10.11 -27.75,19 v 0 c 9.92,-8.89 17.08,-18.98 27.75,-19 v 0 m 1.85,0.1 v 0 c 0,0 0.01,0.01 0.02,0.04 -0.01,-0.03 -0.02,-0.04 -0.02,-0.04 v 0 m 48.62,23.88 c 0,6.73 -2.59,11.61 -10.32,13.11 -1.35,0.27 -2.68,0.39 -3.97,0.39 v 0 c 1.29,0 2.61,-0.12 3.97,-0.39 v 0 c 7.73,-1.5 10.32,-6.38 10.32,-13.11 v 0 m -123.83,6.48 v 0 c 4.5,1.14 9.16,1.8 13.9,1.8 v 0 0 c -4.74,0 -9.4,-0.66 -13.9,-1.8 m 109.5,7.02 v 0 c 0.01,0 0.03,0 0.04,0 v 0 0 c -0.01,0 -0.03,0 -0.04,0"
         style="fill:#f6836d;fill-opacity:1;fill-rule:nonzero;stroke:none"
         id="path152" /><path
         d="m 3107.16,2587.99 c 0,0 -0.01,0.01 -0.02,0.02 0,0.02 0,0.04 0.01,0.07 0.01,-0.01 0.01,-0.02 0.02,-0.02 0,-0.03 0,-0.05 -0.01,-0.07"
         style="fill:#272952;fill-opacity:1;fill-rule:nonzero;stroke:none"
         id="path154" /><path
         d="m 3107.14,2588.01 c -2.85,2.19 -5.74,4.25 -8.65,6.13 2.91,-1.87 5.79,-3.88 8.66,-6.06 -0.01,-0.03 -0.01,-0.05 -0.01,-0.07"
         style="fill:#261a19;fill-opacity:1;fill-rule:nonzero;stroke:none"
         id="path156" /><path
         d="m 3041.88,2552.58 c -6.76,2.41 -13.65,5.36 -20.4,8.65 6.76,-3.29 13.68,-6.2 20.45,-8.61 v 0 l -0.05,-0.04"
         style="fill:#1f1616;fill-opacity:1;fill-rule:nonzero;stroke:none"
         id="path158" /><path
         d="m 3041.84,2552.55 c -12.67,4.53 -25.81,10.9 -37.6,17.96 l 0.03,0.04 c 5.5,-3.32 11.3,-6.46 17.21,-9.32 6.75,-3.29 13.64,-6.24 20.4,-8.65 l -0.04,-0.03"
         style="fill:#f3654f;fill-opacity:1;fill-rule:nonzero;stroke:none"
         id="path160" /><path
         d="m 3304.33,1527.4 h -291.78 c 0,0 231.46,68.1 231.46,527.1 0,5.9 0,11.71 -0.08,17.52 -2.37,306.76 -67.94,475.94 -148.72,524.15 25.29,14.97 58.93,29.3 103.37,39.2 19.41,4.42 40.76,7.94 64.42,10.4 199.79,20.38 359.39,-57.95 378.38,-146.59 18.91,-88.65 -97.89,-971.78 -337.05,-971.78"
         style="fill:#bbe8e0;fill-opacity:1;fill-rule:nonzero;stroke:none"
         id="path162" /><path
         d="m 3244.01,2054.5 c 0,-459 -231.46,-527.1 -231.46,-527.1 h -478.4 l 19.88,14.16 125.97,81.19 252.83,17.52 c 13.58,56.39 50.57,58.27 106.97,64.17 32.82,3.35 36.02,58.76 26.03,132.01 -7.29,52.72 -21.36,114.68 -36.26,173.28 -10.8,42.81 -18.58,84.63 -23.73,124.98 -6.15,47.23 -8.84,92.33 -9.1,134.81 -0.73,96.74 11.06,179.4 23.5,239.15 1.14,5.81 2.37,11.38 3.6,16.7 l 0.08,0.57 c 1.14,2.54 6.15,12.85 17.92,26.61 l 0.09,0.07 c 10.97,12.86 27.99,28.49 53.28,43.55 4.02,-2.37 8.02,-5.16 11.95,-8.18 75.22,-57.3 134.48,-224.52 136.77,-515.97 0.08,-5.81 0.08,-11.62 0.08,-17.52"
         style="fill:#87c5b8;fill-opacity:1;fill-rule:nonzero;stroke:none"
         id="path164" /><path
         d="m 3151.69,845.77 h -344.42 c -11.79,0 -16.94,14.902 -7.61,22.191 l 86.19,67.437 c 38.22,29.954 60.56,75.872 60.56,124.402 v 467.6 h 66.14 v -467.6 c 0,-48.53 22.34,-94.448 60.64,-124.402 l 86.1,-67.437 c 9.34,-7.289 4.18,-22.191 -7.6,-22.191"
         style="fill:#bbe8e0;fill-opacity:1;fill-rule:nonzero;stroke:none"
         id="path166" /><path
         d="m 3421,2604.75 c -1.73,0 -3.34,1.11 -3.9,2.85 -2.04,6.4 -3.69,11.18 -4.81,14.36 -1.13,3.18 -1.73,4.7 -1.73,4.7 v 0 c -0.82,2.11 0.22,4.48 2.32,5.3 0.49,0.19 0.99,0.28 1.49,0.28 1.64,0 3.18,-0.98 3.81,-2.6 0.03,-0.08 2.57,-6.58 6.72,-19.55 0.69,-2.15 -0.5,-4.46 -2.65,-5.14 -0.41,-0.14 -0.84,-0.2 -1.25,-0.2"
         style="fill:#aae2d8;fill-opacity:1;fill-rule:nonzero;stroke:none"
         id="path168" /><path
         d="m 3275.44,1579.53 c -0.99,0 -1.98,0.36 -2.76,1.08 -1.67,1.52 -1.78,4.11 -0.26,5.78 9.32,10.18 18.27,20.62 26.85,31.3 v 0 c 0.81,1 1.99,1.52 3.19,1.52 0.9,0 1.81,-0.29 2.56,-0.9 1.76,-1.41 2.04,-3.99 0.63,-5.75 -8.69,-10.81 -17.75,-21.38 -27.19,-31.7 -0.81,-0.88 -1.91,-1.33 -3.02,-1.33 m 51.99,64.64 c -0.81,0 -1.64,0.25 -2.35,0.75 -1.85,1.31 -2.29,3.86 -0.99,5.71 7.95,11.26 15.55,22.73 22.79,34.4 0.77,1.25 2.11,1.94 3.48,1.94 0.73,0 1.48,-0.2 2.15,-0.62 1.92,-1.19 2.51,-3.71 1.32,-5.63 -7.32,-11.81 -15,-23.42 -23.05,-34.81 -0.8,-1.13 -2.06,-1.74 -3.35,-1.74 m 43.78,70.5 c -0.66,0 -1.33,0.16 -1.95,0.5 -1.99,1.08 -2.72,3.57 -1.64,5.55 6.58,12.1 12.82,24.38 18.73,36.8 0.7,1.48 2.17,2.34 3.7,2.34 0.59,0 1.19,-0.13 1.76,-0.4 2.04,-0.97 2.91,-3.41 1.93,-5.45 -5.97,-12.56 -12.28,-24.97 -18.93,-37.2 -0.74,-1.36 -2.15,-2.14 -3.6,-2.14 m 35.7,74.94 c -0.52,0 -1.05,0.1 -1.56,0.31 -2.09,0.87 -3.08,3.26 -2.22,5.35 5.28,12.73 10.23,25.59 14.88,38.55 0.6,1.67 2.18,2.71 3.85,2.71 0.46,0 0.93,-0.08 1.39,-0.24 2.12,-0.76 3.23,-3.1 2.47,-5.23 -4.7,-13.09 -9.7,-26.07 -15.03,-38.92 -0.65,-1.58 -2.17,-2.53 -3.78,-2.53 m 28.07,78.13 c -0.4,0 -0.81,0.06 -1.21,0.19 -2.16,0.66 -3.37,2.95 -2.71,5.11 4.06,13.19 7.82,26.45 11.3,39.77 v 0 c 0.48,1.85 2.14,3.07 3.96,3.07 0.34,0 0.69,-0.05 1.04,-0.14 2.18,-0.57 3.49,-2.8 2.92,-4.99 -3.5,-13.44 -7.3,-26.82 -11.39,-40.12 -0.54,-1.76 -2.16,-2.89 -3.91,-2.89 m 21,80.34 c -0.29,0 -0.58,0.03 -0.88,0.09 -2.2,0.48 -3.61,2.66 -3.12,4.87 2.93,13.5 5.6,27.04 7.99,40.58 0.36,1.99 2.08,3.38 4.03,3.38 0.24,0 0.48,-0.02 0.72,-0.06 2.22,-0.39 3.71,-2.52 3.31,-4.74 -2.41,-13.65 -5.1,-27.29 -8.06,-40.9 -0.41,-1.92 -2.11,-3.22 -3.99,-3.22 m 14.5,81.76 c -0.18,0 -0.37,0.01 -0.57,0.04 -2.23,0.31 -3.8,2.37 -3.49,4.61 1.91,13.72 3.56,27.42 4.96,41.09 h 0.01 c 0.21,2.1 1.99,3.67 4.06,3.67 0.14,0 0.28,-0.01 0.42,-0.02 2.25,-0.23 3.89,-2.24 3.66,-4.49 -1.42,-13.76 -3.08,-27.56 -5,-41.37 -0.28,-2.05 -2.04,-3.53 -4.05,-3.53 m 8.51,82.61 c -0.09,0 -0.19,0 -0.28,0.01 -2.26,0.15 -3.96,2.1 -3.8,4.36 0.94,13.86 1.64,27.64 2.12,41.34 0.07,2.21 1.89,3.95 4.08,3.95 0.05,0 0.1,0 0.15,0 2.26,-0.08 4.02,-1.98 3.95,-4.24 -0.48,-13.78 -1.19,-27.66 -2.14,-41.61 -0.15,-2.16 -1.94,-3.81 -4.08,-3.81 m 2.88,83 v 0 c -2.26,0 -4.09,1.84 -4.09,4.1 l 0.01,2.47 c 0,13.1 -0.21,26.08 -0.6,38.92 -0.07,2.26 1.71,4.14 3.97,4.21 0.04,0 0.08,0 0.12,0 2.21,0 4.03,-1.75 4.09,-3.96 0.4,-12.92 0.6,-25.99 0.6,-39.17 v -2.49 c -0.01,-2.25 -1.84,-4.08 -4.1,-4.08 m -2.53,83 c -2.14,0 -3.94,1.67 -4.08,3.83 -0.88,13.98 -1.98,27.74 -3.28,41.26 -0.21,2.25 1.44,4.25 3.68,4.46 0.14,0.02 0.27,0.02 0.4,0.02 2.08,0 3.87,-1.58 4.07,-3.7 1.31,-13.6 2.42,-27.46 3.3,-41.52 0.14,-2.26 -1.57,-4.2 -3.83,-4.34 -0.08,-0.01 -0.17,-0.01 -0.26,-0.01 m -7.96,82.64 c -2.03,0 -3.79,1.5 -4.06,3.57 -1.86,14.26 -3.79,27.94 -5.78,41.03 -0.33,2.24 1.2,4.32 3.44,4.66 0.21,0.03 0.41,0.05 0.62,0.05 1.98,0 3.73,-1.46 4.04,-3.48 1.99,-13.15 3.93,-26.89 5.8,-41.21 0.29,-2.24 -1.29,-4.29 -3.53,-4.58 -0.18,-0.03 -0.36,-0.04 -0.53,-0.04 m -12.46,82.11 c -1.96,0 -3.68,1.4 -4.03,3.39 -2.52,14.44 -5.08,28.01 -7.62,40.71 -0.44,2.22 0.99,4.38 3.21,4.82 0.27,0.05 0.54,0.08 0.81,0.08 1.91,0 3.62,-1.35 4.01,-3.29 2.55,-12.77 5.12,-26.41 7.65,-40.92 0.39,-2.22 -1.1,-4.34 -3.33,-4.73 -0.23,-0.04 -0.47,-0.06 -0.7,-0.06 m -16.36,81.41 c -1.86,0 -3.55,1.28 -3.98,3.18 -3.48,15.13 -6.84,28.52 -9.95,40.17 v 0 c -0.58,2.18 0.72,4.42 2.9,5 0.35,0.1 0.71,0.14 1.06,0.14 1.81,0 3.46,-1.2 3.95,-3.03 3.13,-11.75 6.51,-25.23 10.01,-40.45 0.51,-2.2 -0.86,-4.4 -3.07,-4.9 -0.31,-0.07 -0.61,-0.11 -0.92,-0.11"
         style="fill:#aae2d8;fill-opacity:1;fill-rule:nonzero;stroke:none"
         id="path170" /><path
         d="m 2946.41,1371.89 v 155.51 h 66.14 v -127.69 c -22.92,-11.94 -46.17,-21.11 -66.14,-27.82"
         style="fill:#b1e4db;fill-opacity:1;fill-rule:nonzero;stroke:none"
         id="path172" /><path
         d="m 2725.43,1527.4 h -191.28 l 19.88,14.16 125.97,81.19 252.83,17.52 c 13.58,56.39 50.57,58.27 106.97,64.17 22.44,2.29 31.03,28.91 31.03,68.92 0,18.52 -1.84,39.92 -5,63.09 -7.29,52.72 -21.36,114.68 -36.26,173.28 -10.8,42.81 -18.58,84.63 -23.73,124.98 -6.15,47.23 -8.84,92.33 -9.1,134.81 37.42,-194.97 118.77,-507.71 107.23,-543.72 -15.56,-48.61 -112.7,-39.91 -124.49,-75.87 -14.75,-44.97 -25.61,-51.78 -51.73,-51.78 -5.67,0 -12.06,0.33 -19.36,0.65 -7.31,0.32 -15.53,0.64 -24.85,0.64 -11.3,0 -24.21,-0.47 -39.11,-1.98 -55,-5.57 -94.94,-40.84 -119,-70.06"
         style="fill:#74baaf;fill-opacity:1;fill-rule:nonzero;stroke:none"
         id="path174" /><path
         d="m 3285.02,1527.4 h -272.47 c 0,0 231.46,68.1 231.46,527.1 v 0 0 0 0 c 0,5.9 0,11.71 -0.08,17.52 -2.25,291.5 -61.57,458.77 -136.78,516.06 -2.87,2.18 -5.75,4.19 -8.66,6.06 v 0 c -1.09,0.7 -2.18,1.38 -3.28,2.03 25.29,14.97 58.93,29.3 103.37,39.2 -13.34,-19.23 -27.26,-48.12 -20.7,-78.98 11.71,-54.59 143.97,-264.62 93.39,-601.09 -36.51,-242.76 -24.4,-369.05 13.75,-427.9 m -38.81,30.42 c -1.02,0 -2.04,-0.38 -2.83,-1.13 -4.88,-4.67 -9.86,-9.28 -14.92,-13.82 -1.69,-1.51 -1.83,-4.1 -0.32,-5.78 0.81,-0.9 1.93,-1.36 3.05,-1.36 0.97,0 1.95,0.34 2.73,1.04 5.13,4.6 10.17,9.27 15.12,14 1.63,1.56 1.69,4.15 0.13,5.79 -0.81,0.84 -1.89,1.26 -2.96,1.26"
         style="fill:#b1e4db;fill-opacity:1;fill-rule:nonzero;stroke:none"
         id="path176" /><path
         d="m 3244.01,2054.5 c 0,5.9 0,11.71 -0.08,17.52 v 0 0 c 0.08,-5.81 0.08,-11.62 0.08,-17.52 v 0 0 m -145.52,539.64 c -1.09,0.7 -2.18,1.38 -3.28,2.03 v 0 c 1.1,-0.65 2.19,-1.33 3.28,-2.03 v 0"
         style="fill:#74baaf;fill-opacity:1;fill-rule:nonzero;stroke:none"
         id="path178" /><path
         d="m 3231.19,1535.73 c -1.12,0 -2.24,0.46 -3.05,1.36 -1.51,1.68 -1.37,4.27 0.32,5.78 5.06,4.54 10.04,9.15 14.92,13.82 0.79,0.75 1.81,1.13 2.83,1.13 1.07,0 2.15,-0.42 2.96,-1.26 1.56,-1.64 1.5,-4.23 -0.13,-5.79 -4.95,-4.73 -9.99,-9.4 -15.12,-14 -0.78,-0.7 -1.76,-1.04 -2.73,-1.04"
         style="fill:#9cddd2;fill-opacity:1;fill-rule:nonzero;stroke:none"
         id="path180" /><path
         d="m 1792.6,2677.28 c -10.47,-38.06 -58.52,-111.89 -102.39,-190.95 -47.96,-86.26 -90.85,-178.68 -74.07,-237.36 4.17,-14.73 6.05,-25.53 6.05,-33.31 0.17,-25.54 -19.23,-17.6 -38.79,-3.11 -19.97,14.81 -40.19,36.42 -40.19,36.42 l 1.47,113.77 c 0,0 -64.49,59.26 -11.53,188.9 3.35,8.19 7.2,16.7 11.53,25.54 72.93,147.32 182.28,301.94 78.74,345.73 142.99,8.75 191.12,-165.99 169.18,-245.63"
         style="fill:#50c4c0;fill-opacity:1;fill-rule:nonzero;stroke:none"
         id="path182" /><path
         d="m 1623.47,2922.89 c -0.01,0 -0.03,0 -0.05,0.01 0.02,-0.01 0.03,-0.01 0.05,-0.01 v 0"
         style="fill:#e4f6f3;fill-opacity:1;fill-rule:nonzero;stroke:none"
         id="path184" /><path
         d="m 1570.72,2438.02 c -1.95,1.46 -3.81,3.1 -5.57,4.9 6.72,18.5 14.46,36.55 22.41,54.46 22.39,49.91 47.54,98.37 70.89,147.64 11.66,24.63 22.94,49.45 32.74,74.84 9.4,25.4 18.43,51.58 19.32,78.72 l -0.49,10.08 -1.65,10.05 c -0.88,6.76 -2.65,13.31 -4.45,19.86 -1.53,6.63 -4.47,12.81 -6.76,19.2 -3.06,6.05 -5.79,12.3 -9.68,17.89 -14.38,22.87 -37.33,41.06 -64.01,47.23 v 0 c 26.76,-5.84 50.08,-23.78 64.87,-46.67 4,-5.6 6.83,-11.86 9.99,-17.94 2.39,-6.4 5.44,-12.61 7.06,-19.28 1.91,-6.58 3.77,-13.18 4.74,-19.97 l 1.79,-10.13 0.63,-10.33 c -0.57,-27.69 -9.37,-54.12 -18.49,-79.78 -9.53,-25.65 -20.53,-50.68 -31.9,-75.51 -22.77,-49.64 -47.32,-98.41 -68.98,-148.37 -8.05,-18.76 -15.85,-37.66 -22.46,-56.89"
         style="fill:#3da7a6;fill-opacity:1;fill-rule:nonzero;stroke:none"
         id="path186" /><path
         d="m 1726.96,2447.37 c -43.71,-115.24 0,-202.66 -65.64,-215.1 -30.04,-5.73 -43.3,16.54 -48.78,42.4 -6.55,30.61 -2.21,66.22 -2.21,66.22 0,0 11.13,28.48 34.53,56.14 19.08,22.51 46.17,44.44 82.1,50.34"
         style="fill:#389a9a;fill-opacity:1;fill-rule:nonzero;stroke:none"
         id="path188" /><path
         d="m 1574.56,2304.55 c -0.25,-26.85 -6.3,-49.6 -18.74,-61.55 -1.23,-1.24 -2.46,-2.3 -3.61,-3.2 -31.02,-25.13 -50.82,20.87 -50.82,20.87 0,0 -82.5,40.68 -123.43,123.26 -31.35,63.44 -38.31,151.67 35.44,265.11 10.81,-80.78 55.08,-135.79 98.95,-188 v -0.09 c 5.49,-6.54 10.89,-12.93 16.29,-19.39 30.37,-36.43 46.33,-92.41 45.92,-137.01"
         style="fill:#bbe8e0;fill-opacity:1;fill-rule:nonzero;stroke:none"
         id="path190" /><path
         d="m 1413.37,2648.99 c 0,0.01 0,0.03 0.01,0.04 -0.01,-0.01 -0.01,-0.03 -0.01,-0.04 -0.01,-0.01 0,0 0,0"
         style="fill:#e4f6f3;fill-opacity:1;fill-rule:nonzero;stroke:none"
         id="path192" /><path
         d="m 1547.54,2274.92 h -7.97 c -0.21,13.37 -3.19,26.66 -8.73,39 -6.98,15.78 -17.38,30.04 -28.47,43.68 -22.26,27.25 -47.59,52.93 -65.65,83.98 -18.81,30.62 -27.9,66.22 -30.95,101.54 -2.63,35.46 -0.21,71.27 7.6,105.87 0,0 -0.01,-0.01 0,0 -7.14,-34.73 -8.85,-70.52 -5.56,-105.68 3.72,-35.07 13.37,-69.92 32.42,-99.61 18.32,-30.19 43.78,-55.04 66.87,-82.18 11.49,-13.61 22.53,-28.06 30.26,-44.65 6.17,-13 9.7,-27.42 10.18,-41.95"
         style="fill:#95dbcf;fill-opacity:1;fill-rule:nonzero;stroke:none"
         id="path194" /><path
         d="m 1726.94,2447.31 c 0,0.01 0,0 0,0.01 0.02,0.01 0.03,0.03 0.05,0.05 -0.02,-0.02 -0.04,-0.04 -0.05,-0.06"
         style="fill:#e9f8f5;fill-opacity:1;fill-rule:nonzero;stroke:none"
         id="path196" /><path
         d="m 1625.76,2274.92 h -7.53 c 8.82,28.95 23.04,55.8 38.77,81.15 10.15,16.35 21.37,31.98 33.01,47.24 11.71,15.17 23.91,29.97 36.93,44.01 0,-0.01 0,0 0,-0.01 -12.52,-14.48 -24.16,-29.69 -35.29,-45.22 -11.06,-15.61 -21.65,-31.56 -31.15,-48.13 -14.37,-25.05 -27.12,-51.49 -34.74,-79.04"
         style="fill:#2e7d80;fill-opacity:1;fill-rule:nonzero;stroke:none"
         id="path198" /><path
         d="m 1700.44,2246.1 -27.99,-171.87 c -1.39,-7.21 -7.69,-12.45 -15.06,-12.45 h -174.42 c -7.36,0 -13.67,5.24 -15.06,12.45 l -22.75,139.55 -5.24,32.32 c -1.72,9.41 5.48,18.1 15.06,18.1 h 230.4 c 9.58,0 16.78,-8.69 15.06,-18.1"
         style="fill:#bbe8e0;fill-opacity:1;fill-rule:nonzero;stroke:none"
         id="path200" /><path
         d="M 1726.96,2211.07 H 1413.4 l 8.27,46.82 c 1.8,9.82 10.31,17.03 20.3,17.03 h 256.51 c 9.9,0 18.49,-7.21 20.21,-17.03 l 8.27,-46.82"
         style="fill:#87c5b8;fill-opacity:1;fill-rule:nonzero;stroke:none"
         id="path202" /><path
         d="m 1644.86,2397.02 c 6.61,14.91 13.95,30.06 21.72,45.21 -7.75,-15.14 -15.08,-30.28 -21.72,-45.2 v 0 c 0,0 0,0 0,-0.01"
         style="fill:#e9f8f5;fill-opacity:1;fill-rule:nonzero;stroke:none"
         id="path204" /><path
         d="m 1612.46,2274.92 h -40.98 c 1.97,8.95 2.98,18.97 3.08,29.63 v 0 c 0.01,0.52 0.01,1.04 0.01,1.57 0.01,26.54 -5.69,56.95 -16.72,84.8 1.7,9.34 3.97,18.63 6.72,27.81 1.89,6.47 3.96,12.9 6.15,19.29 4.78,-3.58 10.16,-6.07 16.2,-7.18 2.55,-0.47 5.15,-0.69 7.81,-0.69 30.11,0 66.9,28.5 95.48,56.18 v 0 c -8.12,-14.59 -16.08,-29.35 -23.63,-44.1 -7.77,-15.15 -15.11,-30.3 -21.72,-45.21 -23.4,-27.65 -34.53,-56.13 -34.53,-56.13 v 0 c -0.02,-0.14 -4.33,-35.5 2.13,-65.97 m -59.72,127.9 c -6.6,14.18 -14.65,27.41 -24.1,38.74 -5.4,6.46 -10.8,12.85 -16.29,19.39 v 0.09 c 0.66,25.13 6.39,55.25 20.8,90.6 1.88,-32.8 8.66,-84.84 32,-108.72 -2.66,-7.3 -5.15,-14.68 -7.44,-22.14 -1.85,-5.91 -3.52,-11.9 -4.97,-17.96"
         style="fill:#43bab4;fill-opacity:1;fill-rule:nonzero;stroke:none"
         id="path206" /><path
         d="m 1557.85,2390.92 c -1.59,4.03 -3.3,8 -5.11,11.9 1.45,6.06 3.12,12.05 4.97,17.96 2.29,7.46 4.78,14.84 7.44,22.14 1.76,-1.8 3.62,-3.44 5.57,-4.9 -2.19,-6.39 -4.26,-12.82 -6.15,-19.29 -2.75,-9.18 -5.02,-18.47 -6.72,-27.81"
         style="fill:#348e91;fill-opacity:1;fill-rule:nonzero;stroke:none"
         id="path208" /><path
         d="m 1610.33,2340.89 v 0 c 0,0 11.13,28.48 34.53,56.13 0,0.01 0,0.01 0,0.01 v 0 0 c -23.4,-27.66 -34.53,-56.14 -34.53,-56.14 v 0"
         style="fill:#2e7d80;fill-opacity:1;fill-rule:nonzero;stroke:none"
         id="path210" /><path
         d="m 1571.48,2274.92 h -0.03 c 1.96,8.91 2.95,18.98 3.11,29.63 -0.1,-10.66 -1.11,-20.68 -3.08,-29.63 m 3.09,31.2 c 0.02,44.34 -15.92,99.44 -45.93,135.44 -5.4,6.46 -10.8,12.85 -16.29,19.39 v 0 c 5.49,-6.54 10.89,-12.93 16.29,-19.39 9.45,-11.33 17.5,-24.56 24.1,-38.74 1.81,-3.9 3.52,-7.87 5.11,-11.9 11.03,-27.85 16.73,-58.26 16.72,-84.8"
         style="fill:#aae2d8;fill-opacity:1;fill-rule:nonzero;stroke:none"
         id="path212" /><path
         d="m 1612.46,2274.92 h -41.01 v 0 h 41.01 v 0"
         style="fill:#68b3a7;fill-opacity:1;fill-rule:nonzero;stroke:none"
         id="path214" /><path
         d="m 1482.97,2061.78 v 0 c -7.36,0 -13.67,5.24 -15.06,12.45 l -22.34,136.84 h 0.03 l 22.31,-136.84 c 1.39,-7.21 7.7,-12.45 15.06,-12.45"
         style="fill:#e9f8f5;fill-opacity:1;fill-rule:nonzero;stroke:none"
         id="path216" /><path
         d="m 1587.08,2061.78 h -104.11 v 0 c -7.36,0 -13.67,5.24 -15.06,12.45 l -22.31,136.84 h 89.92 c -2.21,-19.15 -4.91,-54.92 1.88,-82.67 5.32,-22.01 24.64,-50.33 49.68,-66.62"
         style="fill:#aae2d8;fill-opacity:1;fill-rule:nonzero;stroke:none"
         id="path218" /><path
         d="m 2375.81,3477.55 h -446.06 c -22.03,0 -39.89,17.86 -39.89,39.88 v 331.74 c 0,22.02 17.86,39.88 39.89,39.88 h 446.06 c 22.03,0 39.88,-17.86 39.88,-39.88 v -331.74 c 0,-22.02 -17.85,-39.88 -39.88,-39.88"
         style="fill:#343573;fill-opacity:1;fill-rule:nonzero;stroke:none"
         id="path220" /><path
         d="m 2012.29,3743.5 v -44.29 c 0,-3.54 2.88,-6.42 6.43,-6.42 h 24.51 c 3.55,0 6.42,2.88 6.42,6.42 v 44.29 c 0,3.55 2.88,6.42 6.43,6.42 h 2.37 c 3.54,0 6.42,-2.87 6.42,-6.42 v -120.4 c 0,-3.54 -2.88,-6.42 -6.42,-6.42 h -2.37 c -3.55,0 -6.43,2.88 -6.43,6.42 v 49.43 c 0,3.55 -2.87,6.42 -6.42,6.42 h -24.51 c -3.55,0 -6.43,-2.87 -6.43,-6.42 v -49.43 c 0,-3.54 -2.87,-6.42 -6.42,-6.42 h -2.38 c -3.55,0 -6.42,2.88 -6.42,6.42 v 120.4 c 0,3.55 2.87,6.42 6.42,6.42 h 2.38 c 3.55,0 6.42,-2.87 6.42,-6.42"
         style="fill:#ffffff;fill-opacity:1;fill-rule:nonzero;stroke:none"
         id="path222" /><path
         d="m 2097.76,3736.28 h -11.47 c -3.54,0 -6.42,2.88 -6.42,6.42 v 0.8 c 0,3.55 2.88,6.42 6.42,6.42 h 51.01 c 3.55,0 6.42,-2.87 6.42,-6.42 v -0.8 c 0,-3.54 -2.87,-6.42 -6.42,-6.42 h -11.47 c -3.55,0 -6.42,-2.87 -6.42,-6.42 V 3623.1 c 0,-3.54 -2.88,-6.42 -6.43,-6.42 h -2.37 c -3.55,0 -6.43,2.88 -6.43,6.42 v 106.76 c 0,3.55 -2.87,6.42 -6.42,6.42"
         style="fill:#ffffff;fill-opacity:1;fill-rule:nonzero;stroke:none"
         id="path224" /><path
         d="m 2238.4,3674.01 c -1,17.6 -1.99,37.16 -1.39,52.19 h -0.79 c -2.97,-14.83 -6.53,-30.64 -10.68,-46.26 l -16.4,-62.47 h -9.7 l -15.61,59.9 c -4.35,17 -8.3,33.41 -10.87,48.83 h -0.59 c 0,-15.62 -0.8,-34.2 -1.58,-53.18 l -2.29,-50.21 c -0.16,-3.43 -2.99,-6.13 -6.42,-6.13 h -0.69 c -3.7,0 -6.63,3.11 -6.41,6.8 l 7.14,120.4 c 0.2,3.39 3.01,6.04 6.41,6.04 h 5.37 c 2.94,0 5.5,-1.98 6.22,-4.82 l 14.39,-56.06 c 4.54,-17.6 7.91,-30.64 10.67,-45.87 h 0.59 c 2.58,15.23 5.54,27.88 9.89,45.87 l 13.82,56 c 0.71,2.87 3.29,4.88 6.24,4.88 h 5.9 c 3.41,0 6.22,-2.65 6.41,-6.05 l 6.97,-120.4 c 0.21,-3.68 -2.72,-6.79 -6.41,-6.79 h -1.31 c -3.43,0 -6.25,2.69 -6.42,6.11 l -2.46,51.22"
         style="fill:#ffffff;fill-opacity:1;fill-rule:nonzero;stroke:none"
         id="path226" /><path
         d="m 2282.54,3749.92 h 2.37 c 3.55,0 6.43,-2.87 6.43,-6.42 v -107.55 c 0,-3.55 2.88,-6.42 6.42,-6.42 h 24.71 c 3.55,0 6.42,-2.88 6.42,-6.43 0,-3.54 -2.87,-6.42 -6.42,-6.42 h -39.93 c -3.55,0 -6.43,2.88 -6.43,6.42 v 120.4 c 0,3.55 2.88,6.42 6.43,6.42"
         style="fill:#ffffff;fill-opacity:1;fill-rule:nonzero;stroke:none"
         id="path228" /><path
         d="m 2579.16,3853.8 c 16.69,0 20.63,11.23 20.63,21.24 0,8.79 -0.91,17.3 -1.81,25.79 -0.91,9.11 -1.83,17.3 -1.83,26.71 0,27.31 16.7,38.84 38.24,38.84 h 3.64 v -15.78 h -4.56 c -12.74,0 -17.9,-9.1 -17.9,-22.76 0,-8.19 0.92,-15.78 1.83,-23.06 0.6,-7.89 1.51,-15.17 1.51,-22.46 0.31,-23.67 -7.89,-31.86 -20.93,-35.51 v -0.6 c 13.04,-3.95 21.24,-12.14 20.93,-36.12 0,-7.58 -0.91,-15.17 -1.51,-22.75 -0.91,-7.59 -1.83,-15.18 -1.83,-23.37 0,-13.66 4.55,-23.06 18.22,-23.06 h 4.24 v -15.79 h -3.94 c -20.03,0 -37.94,10.02 -37.94,38.85 0,9.1 0.92,18.21 1.83,27.01 0.9,8.8 1.81,17.6 1.81,26.1 0,9.7 -3.94,21.54 -20.63,21.54 v 15.18"
         style="fill:#343573;fill-opacity:1;fill-rule:nonzero;stroke:none"
         id="path230" /><path
         d="m 2888.53,3838.62 c -16.69,0 -20.63,-11.84 -20.63,-21.54 0,-8.5 0.91,-17.3 1.81,-26.1 0.91,-8.8 1.83,-17.91 1.83,-27.01 0,-28.83 -17.91,-38.85 -37.94,-38.85 h -3.95 v 15.79 h 4.25 c 13.67,1.51 18.22,9.4 18.22,23.06 0,8.19 -0.92,15.78 -1.53,23.37 -0.91,7.58 -1.81,15.17 -1.81,22.75 -0.31,23.98 7.88,32.17 20.93,36.12 v 0.6 c -13.05,3.65 -21.24,11.84 -20.93,35.51 0,7.29 0.9,14.57 1.81,22.46 0.61,7.28 1.53,14.87 1.53,23.06 0,13.66 -5.17,21.24 -17.91,22.76 h -4.56 v 15.78 h 3.65 c 21.54,0 38.24,-11.53 38.24,-38.84 0,-9.41 -0.92,-17.6 -1.83,-26.71 -0.9,-8.49 -1.81,-17 -1.81,-25.79 0,-10.01 3.94,-21.24 20.63,-21.24 v -15.18"
         style="fill:#343573;fill-opacity:1;fill-rule:nonzero;stroke:none"
         id="path232" /><path
         d="m 2784.4,3816.56 v 58.38 l -50.56,29.19 -50.55,-29.19 v -58.38 l 50.55,-29.19 50.56,29.19"
         style="fill:#f14e25;fill-opacity:1;fill-rule:nonzero;stroke:none"
         id="path234" /><path
         d="m 3164.75,3525.7 c -47.51,23.66 -104.67,14.32 -142.22,-23.24 -46.36,-46.36 -47.9,-120.67 -4.9,-169.06 l -18.53,2.2 c -2.24,0.27 -4.28,-1.34 -4.54,-3.58 -0.27,-2.24 1.34,-4.28 3.57,-4.55 l 28.23,-3.35 c 1.13,-0.14 2.19,0.2 3.02,0.84 0.82,0.65 1.4,1.61 1.53,2.74 l 3.25,27.31 c 0.27,2.24 -1.33,4.27 -3.58,4.54 -2.24,0.27 -4.28,-1.33 -4.55,-3.58 l -2.07,-17.39 c -40.37,45.18 -39.01,114.72 4.36,158.09 35.07,35.07 88.43,43.79 132.79,21.71 2.02,-1.02 4.48,-0.18 5.49,1.84 1,2.02 0.18,4.47 -1.85,5.48"
         style="fill:#f14e25;fill-opacity:1;fill-rule:nonzero;stroke:none"
         id="path236" /><path
         d="m 3058.51,3299.22 c 47.51,-23.67 104.67,-14.33 142.23,23.23 46.36,46.37 47.9,120.67 4.89,169.07 l 18.54,-2.21 c 2.24,-0.27 4.27,1.34 4.54,3.58 0.27,2.25 -1.33,4.28 -3.58,4.55 l -28.23,3.35 c -1.12,0.14 -2.19,-0.2 -3.02,-0.84 -0.82,-0.65 -1.39,-1.61 -1.52,-2.74 l -3.25,-27.31 c -0.27,-2.24 1.34,-4.27 3.57,-4.54 2.25,-0.27 4.29,1.34 4.55,3.58 l 2.07,17.39 c 40.38,-45.18 39.02,-114.72 -4.35,-158.09 -35.06,-35.06 -88.43,-43.79 -132.8,-21.7 -2.02,1.01 -4.47,0.18 -5.48,-1.84 -1.01,-2.03 -0.18,-4.48 1.84,-5.48"
         style="fill:#f14e25;fill-opacity:1;fill-rule:nonzero;stroke:none"
         id="path238" /><path
         d="m 4153.11,3069.46 h -740.73 c -13.5,0 -24.44,10.95 -24.44,24.45 0,13.5 10.94,24.45 24.44,24.45 h 740.73 c 13.51,0 24.46,-10.95 24.46,-24.45 0,-13.5 -10.95,-24.45 -24.46,-24.45"
         style="fill:#f14e25;fill-opacity:1;fill-rule:nonzero;stroke:none"
         id="path240" /><path
         d="m 3888.61,2963.2 h -476.23 c -13.5,0 -24.44,10.94 -24.44,24.44 0,13.51 10.94,24.45 24.44,24.45 h 476.23 c 13.51,0 24.44,-10.94 24.44,-24.45 0,-13.5 -10.93,-24.44 -24.44,-24.44"
         style="fill:#50c4c0;fill-opacity:1;fill-rule:nonzero;stroke:none"
         id="path242" /><path
         d="m 3888.61,2849.1 h -476.23 c -13.5,0 -24.44,10.95 -24.44,24.45 0,13.5 10.94,24.44 24.44,24.44 h 476.23 c 13.51,0 24.44,-10.94 24.44,-24.44 0,-13.5 -10.93,-24.45 -24.44,-24.45"
         style="fill:#50c4c0;fill-opacity:1;fill-rule:nonzero;stroke:none"
         id="path244" /><path
         d="M 1526.67,3475.67 H 1141.9 c -13.5,0 -24.45,10.94 -24.45,24.44 0,13.51 10.95,24.45 24.45,24.45 h 384.77 c 13.5,0 24.44,-10.94 24.44,-24.45 0,-13.5 -10.94,-24.44 -24.44,-24.44"
         style="fill:#50c4c0;fill-opacity:1;fill-rule:nonzero;stroke:none"
         id="path246" /><path
         d="m 1381.4,3369.4 h -239.5 c -13.5,0 -24.45,10.94 -24.45,24.44 0,13.51 10.95,24.45 24.45,24.45 h 239.5 c 13.5,0 24.45,-10.94 24.45,-24.45 0,-13.5 -10.95,-24.44 -24.45,-24.44"
         style="fill:#f14e25;fill-opacity:1;fill-rule:nonzero;stroke:none"
         id="path248" /><path
         d="m 1381.4,3255.3 h -239.5 c -13.5,0 -24.45,10.95 -24.45,24.45 0,13.5 10.95,24.45 24.45,24.45 h 239.5 c 13.5,0 24.45,-10.95 24.45,-24.45 0,-13.5 -10.95,-24.45 -24.45,-24.45"
         style="fill:#f14e25;fill-opacity:1;fill-rule:nonzero;stroke:none"
         id="path250" /><path
         d="m 3819.4,1703.45 c -23.98,-69.57 -52.63,-130.3 -82.59,-185.13 -103.53,-189.15 -223.77,-309.48 -228.27,-485.85 0,0 -37.32,166.15 -7.36,355.46 16.78,106.32 54.75,219.93 132.43,315.52 216.15,265.84 184.15,507.62 184.15,507.62 0,0 108.37,-198.31 1.64,-507.62"
         style="fill:#389a9a;fill-opacity:1;fill-rule:nonzero;stroke:none"
         id="path252" /><path
         d="m 3818.61,2209.45 c -0.42,0.82 -0.69,1.32 -0.8,1.52 0.28,-0.5 0.54,-1.01 0.8,-1.52"
         style="fill:#e9f8f5;fill-opacity:1;fill-rule:nonzero;stroke:none"
         id="path254" /><path
         d="m 3596.44,1431.24 c 7.56,19.39 16.13,38.38 25.5,56.93 9.32,19.36 20.45,37.73 31.33,56.21 l 34.8,53.74 c 22.18,36.13 40.89,74.45 56.64,113.96 15.88,39.46 29.25,79.96 40.47,121.04 11.34,41.07 20.61,82.72 27.9,124.71 7.34,41.97 12.69,84.34 15.34,126.88 1.27,21.27 1.86,42.61 0.94,63.91 -0.53,10.64 -1.19,21.3 -2.93,31.82 -1.76,10.46 -3.7,21.12 -8.67,30.63 0.02,-0.03 0.04,-0.06 0.05,-0.1 0.11,-0.2 0.38,-0.7 0.8,-1.52 4.52,-9.02 6.53,-19.07 8.34,-28.93 1.91,-10.51 2.75,-21.19 3.47,-31.84 1.27,-21.34 1.02,-42.74 0.1,-64.07 -1.85,-42.71 -6.9,-85.23 -13.77,-127.41 -6.85,-42.18 -15.69,-84.06 -26.62,-125.41 -10.82,-41.37 -23.8,-82.21 -39.36,-122.11 -15.42,-39.96 -33.87,-78.82 -55.95,-115.7 l -34.49,-53.93 c -10.71,-18.31 -21.68,-36.53 -30.83,-55.68 -7.75,-15.43 -14.93,-31.17 -21.42,-47.17 -3.89,-2.02 -7.78,-4.01 -11.64,-5.96"
         style="fill:#2e7d80;fill-opacity:1;fill-rule:nonzero;stroke:none"
         id="path256" /><path
         d="m 3492.2,1157.59 c -1.61,23.35 -2.67,49.21 -2.66,76.87 0,47.03 3.07,99.3 11.64,153.47 28.13,11.49 61.05,26.02 95.26,43.31 -8.05,-20.65 -14.97,-41.76 -20.5,-63.27 -5.52,-20.81 -9.38,-42.08 -11.51,-63.56 -1.14,-12.11 -1.91,-24.2 -1.81,-36.38 -27.13,-35.68 -51.16,-72.5 -70.42,-110.44 m 79.05,121.61 c 0.32,8.14 0.96,16.28 1.8,24.32 2.33,20.97 6.07,41.82 11.41,62.29 6.18,24.3 14.17,48.13 23.62,71.39 43.86,22.8 89.17,50.02 128.73,81.12 -31.9,-58.28 -65.38,-110.02 -96.58,-158.88 -24.24,-26.06 -47.47,-52.79 -68.98,-80.24"
         style="fill:#2e7d80;fill-opacity:1;fill-rule:nonzero;stroke:none"
         id="path258" /><path
         d="m 3562.62,1268.03 c -0.1,12.18 0.67,24.27 1.81,36.38 2.13,21.48 5.99,42.75 11.51,63.56 5.53,21.51 12.45,42.62 20.5,63.27 3.86,1.95 7.75,3.94 11.64,5.96 -9.45,-23.26 -17.44,-47.09 -23.62,-71.39 -5.34,-20.47 -9.08,-41.32 -11.41,-62.29 -0.84,-8.04 -1.48,-16.18 -1.8,-24.32 -2.9,-3.7 -5.79,-7.45 -8.63,-11.17"
         style="fill:#235a5d;fill-opacity:1;fill-rule:nonzero;stroke:none"
         id="path260" /><path
         d="m 3568.56,845.75 c 0,0 -75.6,129.27 103.33,288.78 178.93,159.52 318.97,370.49 291.73,541.18 -171.14,-198.85 -626.25,-480.8 -497.89,-829.94 l 102.83,-0.02"
         style="fill:#50c4c0;fill-opacity:1;fill-rule:nonzero;stroke:none"
         id="path262" /><path
         d="m 3521.17,841.281 c -1.57,0 -3.07,0.91 -3.74,2.438 l -0.02,0.043 c -0.29,0.66 -0.57,1.328 -0.85,2 h 6.38 2.3 c 0.17,-1.711 -0.76,-3.403 -2.42,-4.133 -0.54,-0.238 -1.1,-0.348 -1.65,-0.348"
         style="fill:#ffffff;fill-opacity:1;fill-rule:nonzero;stroke:none"
         id="path264" /><path
         d="m 3516.56,845.762 v 0 h 6.38 -6.38"
         style="fill:#e9f8f5;fill-opacity:1;fill-rule:nonzero;stroke:none"
         id="path266" /><path
         d="m 3525.24,845.762 h -8.68 c -15.97,38.328 -20.69,80.207 -19.16,121.039 1.5,41.739 10,82.829 22.13,122.509 24.82,79.34 65.44,153.28 117.05,218.08 25.83,32.39 54.74,62.41 86.56,88.95 31.93,26.29 63.87,52.41 92.98,81.77 29.34,29.04 56.93,59.87 82.08,92.64 24.88,32.9 48.03,67.44 65.42,104.96 -17.08,-37.67 -39.97,-72.44 -64.61,-105.58 -24.9,-33.01 -52.29,-64.13 -81.46,-93.46 -28.88,-29.65 -60.81,-56.18 -92.43,-82.69 -31.44,-26.64 -59.93,-56.73 -85.34,-89.14 -50.76,-64.81 -90.47,-138.61 -114.38,-217.32 -11.68,-39.36 -19.71,-80 -20.84,-120.961 -1.2,-40.778 4.02,-82.289 20.35,-119.539 0.18,-0.411 0.29,-0.84 0.33,-1.258"
         style="fill:#43bab4;fill-opacity:1;fill-rule:nonzero;stroke:none"
         id="path268" /><path
         d="m 1000.57,1782.21 c 0,0 -93.355,85.08 -142.953,297.82 285.903,-242.39 355.923,-458.26 355.923,-458.26 l -212.97,160.44"
         style="fill:#389a9a;fill-opacity:1;fill-rule:nonzero;stroke:none"
         id="path270" /><path
         d="m 1057.35,1771.11 c -4.21,2.78 -8.42,5.57 -12.64,8.37 -6.63,12.26 -13.51,24.4 -20.45,36.48 -17.34,30.01 -35.252,59.72 -53.576,89.19 -36.668,58.92 -74.422,117.19 -113.067,174.88 39.774,-56.92 78.668,-114.45 116.524,-172.69 18.91,-29.12 37.429,-58.51 55.419,-88.27 9.5,-15.83 18.89,-31.74 27.79,-47.96"
         style="fill:#2e7d80;fill-opacity:1;fill-rule:nonzero;stroke:none"
         id="path272" /><path
         d="m 1207.72,1662.61 c -51.4,46.33 -127.52,92.24 -199.96,141.68 -96.334,65.73 -186.119,137.91 -202.733,226.07 -37.812,-318.15 332.223,-461.38 332.223,-461.38 l 0.73,-1.06 134.4,-196.03 c 0,0 54.92,182.77 -64.66,290.72"
         style="fill:#50c4c0;fill-opacity:1;fill-rule:nonzero;stroke:none"
         id="path274" /><path
         d="m 1272.36,1367.77 c -2.24,0 -4.06,1.82 -4.08,4.06 v 0.06 c 0.02,1.82 0.02,3.64 0.02,5.45 1.36,-1.82 2.72,-3.64 4.08,-5.45 v 0 0 c 0.83,-1.1 1.64,-2.19 2.47,-3.29 -0.68,-0.52 -1.53,-0.83 -2.45,-0.83 -0.01,0 -0.02,0 -0.04,0"
         style="fill:#ffffff;fill-opacity:1;fill-rule:nonzero;stroke:none"
         id="path276" /><path
         d="m 1274.85,1368.6 c -0.83,1.1 -1.64,2.19 -2.47,3.29 0,0 1.68,5.58 3.8,15.36 0.2,-5.12 0.29,-10.25 0.29,-15.37 0.01,-1.33 -0.63,-2.53 -1.62,-3.28 m -2.47,3.29 c -1.36,1.81 -2.72,3.63 -4.08,5.45 0,0.17 -0.01,0.34 -0.01,0.51 l 4.09,-5.96"
         style="fill:#e9f8f5;fill-opacity:1;fill-rule:nonzero;stroke:none"
         id="path278" /><path
         d="m 1272.38,1371.89 v 0 l -4.09,5.96 c -0.36,67.99 -17.65,136.45 -55,193.74 -37.87,59.41 -92.78,105.87 -150.57,145.95 -28.98,20.16 -58.87,39.06 -88.333,58.67 -29.465,19.52 -58.457,40.29 -83.516,65.47 -25.07,25.07 -46.016,54.27 -61.32,86.23 -14.672,32.12 -24.633,66.98 -24.524,102.45 0.235,-35.46 10.528,-70.16 25.446,-102.01 15.558,-31.7 36.679,-60.54 61.843,-85.22 25.137,-24.78 54.145,-45.15 83.766,-64.36 29.598,-19.29 59.688,-37.91 88.958,-57.86 58.35,-39.65 114.28,-85.93 153.41,-146 36.84,-55.3 55.27,-121.52 57.73,-187.66 -2.12,-9.78 -3.8,-15.36 -3.8,-15.36 v 0"
         style="fill:#43bab4;fill-opacity:1;fill-rule:nonzero;stroke:none"
         id="path280" /><path
         d="m 3842.06,703.789 h -2486.1 c -39.21,0 -70.99,31.77 -70.99,70.981 0,39.21 31.78,71 70.99,71 h 2486.1 c 39.21,0 70.99,-31.79 70.99,-71 0,-39.211 -31.78,-70.981 -70.99,-70.981"
         style="fill:#eef9f8;fill-opacity:1;fill-rule:nonzero;stroke:none"
         id="path282" /><path
         d="m 2601.04,345.352 c -4.32,-4.442 -8.04,-9.313 -11.08,-14.532 l -4.65,2.41 c -0.67,2.969 -3.5,5.02 -6.59,4.661 -3.31,-0.391 -5.68,-3.391 -5.3,-6.7 0.4,-3.312 3.39,-5.679 6.7,-5.281 l 1.84,0.512 4.51,-2.34 c -2.51,-5.543 -4.32,-11.391 -5.39,-17.434 l 7.47,-1.316 c 2.3,13.059 8.5,25.066 17.91,34.727 l -5.42,5.293"
         style="fill:#1e2328;fill-opacity:1;fill-rule:nonzero;stroke:none"
         id="path284" /><path
         d="m 2655.91,368.371 c -1.7,0 -3.4,-0.062 -5.09,-0.172 l -0.74,6.262 c 1.88,1.488 2.96,3.891 2.66,6.449 -0.46,3.922 -4.02,6.731 -7.95,6.27 -3.93,-0.45 -6.75,-4.02 -6.28,-7.95 0.31,-2.539 1.9,-4.609 4.05,-5.64 l 0.73,-6.238 c -7.14,-1.161 -14.03,-3.321 -20.6,-6.454 l 3.27,-6.847 c 9.34,4.469 19.42,6.738 29.95,6.738 4.98,0 9.94,-0.527 14.76,-1.578 l 1.6,7.41 c -5.35,1.16 -10.85,1.75 -16.36,1.75"
         style="fill:#1e2328;fill-opacity:1;fill-rule:nonzero;stroke:none"
         id="path286" /><path
         d="m 2721.94,342.898 c 3.31,0.403 5.66,3.411 5.25,6.723 -0.4,3.309 -3.4,5.66 -6.71,5.25 -3.1,-0.379 -5.36,-3.039 -5.31,-6.082 l -4.16,-3.637 c -4.18,4.309 -8.89,8.129 -14.07,11.399 l -4.04,-6.422 c 11.34,-7.137 20.2,-17.258 25.63,-29.238 l 6.91,3.121 c -2.51,5.539 -5.68,10.707 -9.43,15.449 l 4.03,3.508 1.9,-0.071"
         style="fill:#1e2328;fill-opacity:1;fill-rule:nonzero;stroke:none"
         id="path288" /><path
         d="m 2650.45,266.289 c -3.86,-0.238 -7.76,-0.359 -11.58,-0.359 -8.8,0 -17.33,0.609 -24.78,1.8 -3.91,0.622 -8.46,1.54 -12.71,2.918 10.47,-18.609 30.7,-31.25 53.89,-31.25 28.55,0 52.62,19.161 59.49,45.032 -6.81,-4.489 -15.05,-8.25 -24.58,-11.219 -11.79,-3.68 -25.54,-6.07 -39.73,-6.922"
         style="fill:#1e2328;fill-opacity:1;fill-rule:nonzero;stroke:none"
         id="path290" /><path
         d="m 2681.7,297.141 c -7.5,0 -13.61,6.101 -13.61,13.601 0,7.5 6.11,13.598 13.61,13.598 7.5,0 13.6,-6.098 13.6,-13.598 0,-7.5 -6.1,-13.601 -13.6,-13.601 z m -47.38,-9.09 c -10.19,0 -18.49,8.301 -18.49,18.5 0,10.199 8.3,18.508 18.49,18.508 10.2,0 18.5,-8.309 18.5,-18.508 0,-10.199 -8.3,-18.5 -18.5,-18.5 z m 21.59,65.16 c -33.51,0 -60.79,-26.672 -60.79,-59.441 0,-4.25 0.46,-8.489 1.37,-12.61 6.74,-4.828 27.06,-8.91 53.48,-7.32 28.8,1.742 52.97,9.582 66.72,21.601 -0.05,1.938 -0.21,3.891 -0.45,5.809 -3.8,29.621 -29.74,51.961 -60.33,51.961"
         style="fill:#1e2328;fill-opacity:1;fill-rule:nonzero;stroke:none"
         id="path292" /><path
         d="m 2815.95,334.531 c -2.95,1.16 -8.05,3.09 -13.82,2.367 -5.51,-0.679 -8.44,-3.398 -8.44,-10.058 v -8.66 h 22.28 v -17.168 h -22.28 v -54.551 h -19.32 v 54.551 h -13.4 v 17.168 h 13.4 v 8.89 c 0,16.789 8.96,27.821 25.69,27.821 6.42,0 11.57,-1.211 15.89,-3.082 v -17.278"
         style="fill:#1e2328;fill-opacity:1;fill-rule:nonzero;stroke:none"
         id="path294" /><path
         d="m 2862.98,301.219 c -1.77,0.293 -3.58,0.461 -5.27,0.461 -8.95,0 -15.1,-5.481 -15.1,-16.141 v -39.078 h -19.31 v 71.719 h 18.73 v -7.84 c 4.51,6.73 11.39,9.762 20.2,9.762 4.14,0 8.48,-1.27 10.94,-3.36 l -10.19,-15.523"
         style="fill:#1e2328;fill-opacity:1;fill-rule:nonzero;stroke:none"
         id="path296" /><path
         d="m 2888.5,289.09 h 31.76 c -1.78,9.18 -7.33,14.359 -15.61,14.359 -9.12,0 -14.44,-5.469 -16.15,-14.359 z m 51.15,-6.66 c 0,-2.219 -0.15,-4.879 -0.37,-6.52 h -50.85 c 2.07,-10.359 9.33,-14.871 18.43,-14.871 6.22,0 12.95,2.52 18.14,6.891 l 11.32,-12.438 c -8.14,-7.48 -18.5,-10.883 -30.57,-10.883 -21.98,0 -37.23,14.95 -37.23,37.532 0,22.57 14.81,37.961 36.27,37.961 20.65,0 34.79,-15.321 34.86,-37.672"
         style="fill:#1e2328;fill-opacity:1;fill-rule:nonzero;stroke:none"
         id="path298" /><path
         d="m 2965.04,289.09 h 31.75 c -1.77,9.18 -7.33,14.359 -15.61,14.359 -9.11,0 -14.44,-5.469 -16.14,-14.359 z m 51.15,-6.66 c 0,-2.219 -0.16,-4.879 -0.37,-6.52 h -50.85 c 2.07,-10.359 9.32,-14.871 18.43,-14.871 6.22,0 12.94,2.52 18.13,6.891 l 11.32,-12.438 c -8.14,-7.48 -18.5,-10.883 -30.57,-10.883 -21.98,0 -37.22,14.95 -37.22,37.532 0,22.57 14.8,37.961 36.26,37.961 20.65,0 34.79,-15.321 34.87,-37.672"
         style="fill:#1e2328;fill-opacity:1;fill-rule:nonzero;stroke:none"
         id="path300" /><path
         d="m 3042.87,282.359 c 0,-11.328 7.48,-19.769 18.43,-19.769 11.4,0 18.5,8.812 18.5,19.769 0,10.95 -7.1,19.762 -18.5,19.762 -10.95,0 -18.43,-8.441 -18.43,-19.762 z m 56.77,0 c 0,-21.539 -14.95,-37.75 -34.71,-37.75 -9.62,0 -16.44,3.782 -21.1,9.321 v -37.078 h -19.24 V 318.18 h 18.87 v -7.918 c 4.66,5.847 11.55,9.84 21.39,9.84 19.84,0 34.79,-16.211 34.79,-37.743"
         style="fill:#1e2328;fill-opacity:1;fill-rule:nonzero;stroke:none"
         id="path302" /><path
         d="m 3128.08,246.461 h -19.31 v 71.719 h 19.31 z m 2.59,95.187 c 0,-6.968 -5.4,-12.296 -12.35,-12.296 -6.97,0 -12.29,5.328 -12.29,12.296 0,6.954 5.32,12.434 12.29,12.434 6.95,0 12.35,-5.48 12.35,-12.434"
         style="fill:#1e2328;fill-opacity:1;fill-rule:nonzero;stroke:none"
         id="path304" /><path
         d="m 3160.32,292.641 27.02,25.539 h 23.68 l -34.78,-33.75 35.01,-37.969 h -23.76 l -27.17,29.019 V 246.461 H 3141 v 106.578 h 19.32 v -60.398"
         style="fill:#1e2328;fill-opacity:1;fill-rule:nonzero;stroke:none"
         id="path306" /><path
         d="m 1844.12,266.301 v 32.078 c -3.95,6.152 -12.44,11.422 -21.24,11.422 -14.2,0 -22.7,-11.719 -22.7,-27.391 0,-15.668 8.5,-27.25 22.7,-27.25 8.8,0 17.29,4.981 21.24,11.141 z m 0,-19.192 v 10.543 c -5.27,-7.172 -13.91,-12.3 -23.87,-12.3 -18.46,0 -31.49,14.058 -31.49,37.058 0,22.559 12.89,37.211 31.49,37.211 9.52,0 18.16,-4.691 23.87,-12.461 v 37.649 h 10.99 v -97.7 h -10.99"
         style="fill:#1e2328;fill-opacity:1;fill-rule:nonzero;stroke:none"
         id="path308" /><path
         d="m 1904.03,310.531 c -15.08,0 -22.55,-12.742 -23.14,-23.582 h 46.44 c -0.15,10.551 -7.18,23.582 -23.3,23.582 z m -34.71,-27.972 c 0,20.5 14.65,37.062 34.86,37.062 21.39,0 33.98,-16.699 33.98,-37.941 v -2.789 h -57.27 c 0.88,-13.332 10.25,-24.461 25.49,-24.461 8.05,0 16.26,3.222 21.82,8.941 l 5.27,-7.18 c -7.03,-7.031 -16.54,-10.839 -28.12,-10.839 -20.94,0 -36.03,15.089 -36.03,37.207"
         style="fill:#1e2328;fill-opacity:1;fill-rule:nonzero;stroke:none"
         id="path310" /><path
         d="m 1946.07,256.48 5.71,7.911 c 4.69,-5.422 13.63,-10.11 23.29,-10.11 10.84,0 16.7,5.129 16.7,12.16 0,17.141 -43.79,6.59 -43.79,32.809 0,10.988 9.51,20.371 26.36,20.371 12.01,0 20.51,-4.539 26.22,-10.262 l -5.13,-7.617 c -4.24,5.129 -12.01,8.938 -21.09,8.938 -9.67,0 -15.67,-4.828 -15.67,-11.129 0,-15.531 43.79,-5.281 43.79,-32.809 0,-11.871 -9.51,-21.39 -27.82,-21.39 -11.58,0 -21.4,3.507 -28.57,11.128"
         style="fill:#1e2328;fill-opacity:1;fill-rule:nonzero;stroke:none"
         id="path312" /><path
         d="m 2016.67,247.109 v 70.75 h 10.99 v -70.75 z m -1.9,88.18 c 0,4.102 3.37,7.473 7.32,7.473 4.1,0 7.47,-3.371 7.47,-7.473 0,-4.098 -3.37,-7.32 -7.47,-7.32 -3.95,0 -7.32,3.222 -7.32,7.32"
         style="fill:#1e2328;fill-opacity:1;fill-rule:nonzero;stroke:none"
         id="path314" /><path
         d="m 2097.09,267.469 v 30.91 c -3.81,6.152 -12.31,11.422 -21.1,11.422 -14.21,0 -22.7,-11.281 -22.7,-26.949 0,-15.532 8.49,-26.954 22.7,-26.954 8.79,0 17.29,5.422 21.1,11.571 z m -51.27,-38.528 5.56,8.207 c 5.86,-7.027 12.89,-9.668 23,-9.668 11.72,0 22.71,5.711 22.71,21.239 v 10.113 c -5.13,-7.184 -13.77,-12.602 -23.73,-12.602 -18.46,0 -31.5,13.77 -31.5,36.622 0,22.699 12.89,36.769 31.5,36.769 9.52,0 18.01,-4.691 23.73,-12.461 v 10.699 h 10.98 V 249.16 c 0,-23.441 -16.4,-30.762 -33.69,-30.762 -12.01,0 -20.21,2.352 -28.56,10.543"
         style="fill:#1e2328;fill-opacity:1;fill-rule:nonzero;stroke:none"
         id="path316" /><path
         d="m 2174.13,247.109 v 46.289 c 0,12.454 -6.3,16.403 -15.82,16.403 -8.64,0 -16.84,-5.27 -20.94,-10.981 v -51.711 h -10.99 v 70.75 h 10.99 v -10.257 c 4.98,5.859 14.64,12.019 25.19,12.019 14.8,0 22.56,-7.473 22.56,-22.859 v -49.653 h -10.99"
         style="fill:#1e2328;fill-opacity:1;fill-rule:nonzero;stroke:none"
         id="path318" /><path
         d="m 2234.04,310.531 c -15.09,0 -22.56,-12.742 -23.14,-23.582 h 46.43 c -0.15,10.551 -7.18,23.582 -23.29,23.582 z m -34.72,-27.972 c 0,20.5 14.65,37.062 34.87,37.062 21.38,0 33.98,-16.699 33.98,-37.941 v -2.789 h -57.27 c 0.88,-13.332 10.25,-24.461 25.48,-24.461 8.06,0 16.26,3.222 21.83,8.941 l 5.27,-7.18 c -7.03,-7.031 -16.55,-10.839 -28.12,-10.839 -20.94,0 -36.04,15.089 -36.04,37.207"
         style="fill:#1e2328;fill-opacity:1;fill-rule:nonzero;stroke:none"
         id="path320" /><path
         d="m 2333.5,266.301 v 32.078 c -3.96,6.152 -12.45,11.422 -21.24,11.422 -14.21,0 -22.7,-11.719 -22.7,-27.391 0,-15.668 8.49,-27.25 22.7,-27.25 8.79,0 17.28,4.981 21.24,11.141 z m 0,-19.192 v 10.543 c -5.27,-7.172 -13.91,-12.3 -23.88,-12.3 -18.45,0 -31.49,14.058 -31.49,37.058 0,22.559 12.89,37.211 31.49,37.211 9.52,0 18.17,-4.691 23.88,-12.461 v 37.649 h 10.98 v -97.7 h -10.98"
         style="fill:#1e2328;fill-opacity:1;fill-rule:nonzero;stroke:none"
         id="path322" /><path
         d="m 2429,255.16 c 14.36,0 22.85,11.582 22.85,27.25 0,15.672 -8.49,27.391 -22.85,27.391 -8.64,0 -17.28,-5.27 -21.09,-11.422 v -32.078 c 3.81,-6.16 12.45,-11.141 21.09,-11.141 z m -32.08,-8.051 v 97.7 h 10.99 V 307.16 c 5.71,7.77 14.21,12.461 23.87,12.461 18.46,0 31.5,-14.652 31.5,-37.211 0,-23 -13.04,-37.058 -31.5,-37.058 -9.96,0 -18.6,5.128 -23.87,12.3 v -10.543 h -10.99"
         style="fill:#1e2328;fill-opacity:1;fill-rule:nonzero;stroke:none"
         id="path324" /><path
         d="m 2475.28,229.379 c 1.62,-0.731 4.25,-1.168 6.01,-1.168 4.83,0 8.06,1.609 10.55,7.469 l 4.68,10.691 -29.58,71.488 h 11.86 l 23.58,-58.007 23.44,58.007 h 12.01 l -35.45,-85.109 c -4.24,-10.238 -11.42,-14.211 -20.8,-14.352 -2.34,0 -6,0.434 -8.05,1.032 l 1.75,9.949"
         style="fill:#1e2328;fill-opacity:1;fill-rule:nonzero;stroke:none"
         id="path326" /></g></g></svg>
