<?xml version="1.0" encoding="UTF-8" standalone="no"?>
<!-- Created with Inkscape (http://www.inkscape.org/) -->

<svg
   version="1.1"
   id="svg2"
   xml:space="preserve"
   width="1000"
   height="666.66669"
   viewBox="0 0 1000 666.66669"
   sodipodi:docname="pattern2.svg"
   inkscape:version="1.1.1 (3bf5ae0d25, 2021-09-20)"
   xmlns:inkscape="http://www.inkscape.org/namespaces/inkscape"
   xmlns:sodipodi="http://sodipodi.sourceforge.net/DTD/sodipodi-0.dtd"
   xmlns="http://www.w3.org/2000/svg"
   xmlns:svg="http://www.w3.org/2000/svg"><defs
     id="defs6"><clipPath
       clipPathUnits="userSpaceOnUse"
       id="clipPath18"><path
         d="m 728.509,500 v -26.44 l -27.135,-15.666 v 31.331 L 720.038,500 h -2 L 700.875,490.091 683.711,500 h -2.001 l 18.664,-10.775 v -31.331 l -27.115,15.654 v 0.589 l -0.02,-0.013 V 500 h -1.001 v -26.452 l -27.864,-16.088 -0.25,-0.143 v -30.885 c -0.84,-0.223 -1.463,-0.981 -1.463,-1.891 v 0 c 0,-0.91 0.623,-1.669 1.463,-1.891 v 0 -30.89 l 28.135,-16.243 v -31.91 l -27.135,-15.666 v 31.915 l -28.135,16.243 v 0.579 l -0.502,-0.289 -0.499,0.288 v -0.576 l -27.886,-16.1 -0.25,-0.144 v -33.644 l 27.241,15.728 c 0.356,-0.359 0.849,-0.583 1.395,-0.583 v 0 c 0.547,0 1.039,0.223 1.394,0.583 v 0 l 26.242,-15.149 v -65.557 l 28.636,16.533 27.636,-15.954 27.636,-15.956 -27.135,-15.667 -0.501,0.288 v -0.577 l -0.499,-0.289 0.499,-0.288 v -32.489 l 28.136,-16.243 v -30.31 c -0.84,-0.222 -1.463,-0.98 -1.463,-1.89 v 0 c 0,-1.085 0.879,-1.963 1.963,-1.963 v 0 c 1.084,0 1.963,0.878 1.963,1.963 v 0 c 0,0.178 -0.031,0.347 -0.076,0.512 v 0 L 750,159.921 v 1.155 l -19.575,-11.302 c -0.242,0.244 -0.55,0.418 -0.893,0.509 v 0 30.309 L 750,192.409 v 1.155 l -20.468,-11.817 v 31.334 L 750,224.898 v 1.154 l -20.967,-12.105 -27.137,15.666 26.636,15.38 v 0 l 0.5,0.288 0.5,-0.288 v 0 L 750,233.175 v 1.155 L 730.032,245.858 750,257.387 v 1.155 l -20.468,-11.818 v 31.334 L 750,289.875 v 1.155 l -6.159,-3.556 -14.808,-8.55 -26.25,15.155 c 0.045,0.164 0.076,0.334 0.076,0.513 v 0 c 0,0.178 -0.031,0.347 -0.076,0.511 v 0 L 729.032,310.258 750,298.153 v 1.154 l -20.468,11.818 v 31.333 L 750,330.641 v 1.155 L 730.044,343.318 750,354.839 v 1.155 l -20.446,-11.803 v 31.331 L 750,387.325 v 1.155 l -21.195,-12.237 -0.25,-0.143 v -31.922 l -0.023,0.013 V 311.124 L 702.29,295.972 c -0.242,0.245 -0.551,0.419 -0.894,0.51 v 0 63.37 l -28.137,16.243 v 32.486 l -26.749,15.443 c 0.045,0.166 0.078,0.337 0.078,0.517 v 0 c 0,0.178 -0.033,0.347 -0.077,0.512 v 0 l 26.499,15.298 0.249,0.143 v 31.898 l 27.115,-15.653 v -65.551 l 27.244,15.728 c 0.354,-0.359 0.846,-0.581 1.393,-0.581 v 0 c 1.083,0 1.963,0.878 1.963,1.963 v 0 c 0,0.91 -0.623,1.668 -1.465,1.891 v 0 62.758 L 750,484.778 v 1.154 L 729.554,474.128 V 500 Z m -27.135,-43.261 27.135,15.666 v -31.332 l -27.135,-15.666 z m -56.25,-30.307 v 30.307 l 27.135,15.666 v -31.332 l -26.242,-15.151 c -0.242,0.244 -0.551,0.419 -0.893,0.51 m 56.25,-2.18 27.135,15.665 v -29.729 c -0.839,-0.222 -1.461,-0.981 -1.461,-1.89 v 0 c 0,-0.179 0.031,-0.349 0.075,-0.513 v 0 L 701.374,392.92 Z m -56.25,-31.913 v 30.311 c 0.342,0.09 0.648,0.263 0.891,0.506 v 0 l 26.244,-15.153 v -31.331 z m -56.271,-33.06 27.135,15.666 v -29.733 c -0.84,-0.222 -1.463,-0.981 -1.463,-1.891 v 0 c 0,-0.177 0.032,-0.346 0.076,-0.509 v 0 l -25.748,-14.866 z m 29.523,-16.467 c 0.044,0.163 0.075,0.332 0.075,0.509 v 0 c 0,0.91 -0.622,1.669 -1.462,1.891 v 0 29.732 l 27.135,-15.666 v -31.331 z m 68.452,-7.037 -13.569,7.833 v 31.332 l 27.137,-15.667 v -31.331 z m 0,-32.487 -13.569,7.834 v 31.331 l 13.569,-7.833 13.568,-7.834 v -30.304 c -0.343,-0.09 -0.651,-0.265 -0.894,-0.511 v 0 z m -41.704,23.498 27.135,15.667 v -31.33 l -27.135,-15.667 z m 0,-32.486 27.135,15.667 v -31.332 l -27.135,-15.668 z m 28.135,-15.665 v 31.331 l 13.569,-7.832 12.18,-7.032 c -0.043,-0.164 -0.074,-0.333 -0.074,-0.51 v 0 c 0,-0.911 0.622,-1.669 1.462,-1.891 v 0 -29.732 z m 28.137,-16.243 v 30.309 c 0.343,0.091 0.652,0.264 0.893,0.508 v 0 l 26.243,-15.151 v -31.334 z m 0,-64.978 v 31.333 L 728.532,213.08 V 181.747 Z M 644.168,500 v -8.965 c -0.84,-0.222 -1.462,-0.98 -1.462,-1.89 v 0 c 0,-0.063 0.013,-0.122 0.018,-0.184 v 0 L 617.032,474.128 V 500 h -1.044 v -26.44 l -27.135,-15.666 v 31.331 L 607.517,500 h -2 L 588.353,490.091 571.189,500 h -2.002 l 18.665,-10.775 v -31.33 l -27.135,15.666 V 500 h -1 v -25.861 h -0.002 v -33.067 l -27.635,-15.955 -27.136,15.667 27.386,15.812 0.25,0.144 v 32.488 l 0.5,0.289 -0.5,0.289 V 500 h -0.999 v -9.617 L 514.923,500 h -2.001 l 18.158,-10.483 -12.327,-7.117 -14.808,-8.55 -27.136,15.667 12.327,7.117 5.83,3.366 h -2 l -16.657,-9.617 V 500 h -1 v -9.617 L 458.65,500 h -2.001 l 18.66,-10.772 v -30.31 c -0.841,-0.222 -1.464,-0.981 -1.464,-1.891 v 0 c 0,-0.178 0.032,-0.347 0.077,-0.511 v 0 l -26.5,-15.3 -0.25,-0.143 v -33.642 l 28.635,16.532 28.137,-16.245 28.136,16.244 28.136,-16.244 27.636,15.955 v -29.729 c -0.84,-0.221 -1.462,-0.98 -1.462,-1.89 v 0 c 0,-1.084 0.879,-1.963 1.962,-1.963 v 0 c 1.084,0 1.963,0.879 1.963,1.963 v 0 c 0,0.179 -0.031,0.348 -0.076,0.512 v 0 l 26.499,15.299 0.251,0.144 v 64.938 l 26.084,15.061 c 0.356,-0.498 0.936,-0.826 1.596,-0.826 v 0 c 1.084,0 1.963,0.879 1.963,1.963 v 0 c 0,0.91 -0.623,1.669 -1.464,1.891 v 0 V 500 Z M 504.445,472.984 531.581,488.65 V 457.318 L 504.445,441.65 Z m -26.748,-16.467 c 0.043,0.164 0.074,0.333 0.074,0.51 v 0 c 0,0.91 -0.622,1.669 -1.462,1.891 v 0 29.732 l 27.136,-15.666 V 441.65 Z m 83.019,-15.444 v 31.332 l 27.136,-15.666 v -31.333 z m 28.137,15.666 27.135,15.666 v -31.332 l -27.135,-15.666 z m -112.544,-1.603 c 0.343,0.091 0.651,0.266 0.893,0.511 v 0 l 25.742,-14.864 -26.635,-15.377 z m -28.137,-14.642 26.243,15.152 c 0.242,-0.244 0.551,-0.419 0.894,-0.51 v 0 -30.306 l -27.137,-15.667 z m 84.908,-15.954 27.136,15.666 27.137,-15.666 -27.137,-15.667 z m -29.136,15.666 0.501,-0.289 v 0.001 l 26.635,-15.378 -27.136,-15.667 -27.136,15.667 26.637,15.378 v -0.001 z m 84.909,-46.262 v 30.307 l 0.499,0.289 26.636,15.377 v -31.331 l -26.242,-15.15 c -0.242,0.244 -0.551,0.418 -0.893,0.508 M 447.172,500 v -26.439 l -27.136,-15.668 v 31.334 L 438.696,500 h -2.001 l -16.659,-9.617 V 500 h -1 v -42.687 l -27.885,-16.1 -0.25,-0.143 v -33.644 l 27.243,15.728 c 0.355,-0.358 0.847,-0.581 1.392,-0.581 v 0 c 1.085,0 1.964,0.879 1.964,1.963 v 0 c 0,0.91 -0.623,1.669 -1.464,1.89 v 0 30.311 l 27.886,16.102 0.25,0.144 V 500 Z m -55.272,-59.509 27.136,15.668 v -29.733 c -0.839,-0.222 -1.463,-0.98 -1.463,-1.89 v 0 c 0,-0.179 0.032,-0.348 0.077,-0.512 v 0 L 391.9,409.158 Z M 390.901,500 v -25.862 l -27.136,15.667 V 500 h -1 V 489.807 L 335.629,474.141 V 500 h -1 v -25.859 l -13.568,7.833 -13.569,7.833 V 500 h -1 V 489.807 L 279.356,474.141 V 500 h -0.999 v -25.859 l -27.136,15.667 V 500 h -1 v -9.616 L 233.565,500 h -2.001 l 18.156,-10.482 -12.326,-7.117 -14.809,-8.55 -26.25,15.155 c 0.045,0.164 0.076,0.333 0.076,0.512 v 0 c 0,0.178 -0.031,0.348 -0.076,0.512 v 0 l 17.27,9.97 h -2 l -15.763,-9.1 c -0.357,0.359 -0.848,0.581 -1.393,0.581 v 0 c -1.085,0 -1.963,-0.879 -1.963,-1.963 v 0 c 0,-1.083 0.878,-1.963 1.963,-1.963 v 0 c 0.545,0 1.036,0.222 1.393,0.582 v 0 l 26.243,-15.152 v -33.067 l 28.885,16.679 0.251,0.144 v 31.911 l 27.136,-15.666 v -33.063 l 27.242,15.727 c 0.242,-0.245 0.55,-0.418 0.893,-0.509 v 0 -30.886 l 29.137,-16.82 v 32.487 l 28.136,-16.243 v 33.642 l -27.636,15.954 27.133,15.664 28.638,-16.534 V 500 Z m -69.84,-50.512 -12.182,7.032 c 0.045,0.163 0.077,0.333 0.077,0.511 v 0 c 0,0.911 -0.623,1.669 -1.464,1.891 v 0 29.729 l 13.569,-7.832 13.568,-7.833 v -31.331 z m -41.705,23.498 27.136,15.665 v -29.729 c -0.84,-0.223 -1.463,-0.98 -1.463,-1.891 v 0 c 0,-0.178 0.032,-0.347 0.076,-0.511 v 0 l -25.749,-14.865 z m -56.271,-10e-4 27.136,15.666 v -31.332 l -27.136,-15.668 z m 112.544,-31.908 v 31.332 l 27.136,-15.666 V 425.41 Z m -28.137,-16.244 v 30.308 c 0.343,0.09 0.652,0.264 0.894,0.508 v 0 l 12.675,-7.317 13.568,-7.832 V 409.168 Z M 23.648,365.382 c 0,-0.91 0.622,-1.668 1.462,-1.89 v 0 -30.309 L 0,318.684 V 317.53 L 25.609,332.316 52.746,316.649 26.111,301.27 v 0.001 l -0.501,-0.289 -0.5,0.289 V 301.27 L 0,315.768 v -1.155 L 24.611,300.405 0,286.196 v -1.155 l 25.11,14.498 V 268.205 L 0,253.707 v -1.154 l 10.802,6.237 14.807,8.549 26.251,-15.155 c -0.045,-0.164 -0.077,-0.334 -0.077,-0.513 v 0 c 0,-0.178 0.032,-0.347 0.077,-0.511 v 0 L 25.61,236.005 0,250.792 v -1.156 L 25.11,235.138 V 203.805 L 0,218.302 v -1.155 L 24.599,202.945 0,188.743 v -1.155 l 25.089,14.484 V 170.741 L 0,156.257 v -1.154 l 25.839,14.917 0.25,0.143 v 31.922 l 0.022,-0.013 v 33.067 l 26.242,15.152 c 0.242,-0.245 0.55,-0.419 0.893,-0.51 v 0 -30.886 l 27.636,-15.954 -27.386,-15.81 -0.25,-0.143 v -32.503 l -26.22,-15.138 c -0.355,0.359 -0.849,0.581 -1.393,0.581 v 0 c -1.085,0 -1.964,-0.878 -1.964,-1.963 v 0 c 0,-0.909 0.624,-1.668 1.464,-1.889 v 0 -62.76 L 0,58.804 V 57.649 L 25.089,72.135 V 40.801 L 0,26.316 V 25.161 L 25.133,39.672 V 39.64 L 53.768,56.172 82.404,39.64 v 33.075 l 27.865,16.088 0.249,0.143 v 30.886 c 0.841,0.222 1.464,0.98 1.464,1.89 v 0 c 0,1.085 -0.88,1.963 -1.963,1.963 v 0 c -1.085,0 -1.963,-0.878 -1.963,-1.963 v 0 c 0,-0.178 0.031,-0.348 0.075,-0.512 v 0 l -26.498,-15.299 -0.25,-0.143 V 73.871 L 54.268,89.525 v 64.412 l 27.614,15.941 28.636,-16.532 v 33.064 l 26.243,15.15 c 0.242,-0.244 0.55,-0.418 0.893,-0.508 v 0 -30.888 l 26.749,-15.443 c -0.044,-0.164 -0.076,-0.333 -0.076,-0.512 v 0 c 0,-0.178 0.032,-0.348 0.076,-0.512 v 0 l -26.499,-15.3 -0.25,-0.144 V 73.316 L 111.57,58.255 c -0.356,0.498 -0.937,0.826 -1.595,0.826 v 0 c -1.085,0 -1.964,-0.879 -1.964,-1.963 v 0 c 0,-0.91 0.624,-1.669 1.463,-1.89 v 0 -31.826 L 137.61,39.647 V 7.735 L 151.006,0 h 2.001 L 138.61,8.312 V 39.646 L 165.746,23.979 V 0 h 1 v 24.557 l -27.609,15.939 27.152,15.676 26.251,-15.154 c -0.045,-0.164 -0.077,-0.334 -0.077,-0.512 v 0 c 0,-1.084 0.879,-1.963 1.963,-1.963 v 0 c 1.085,0 1.964,0.879 1.964,1.963 v 0 c 0,0.91 -0.623,1.668 -1.464,1.89 v 0 62.794 l 27.637,15.956 27.135,-15.667 -27.385,-15.812 -0.251,-0.144 V 57.035 l -0.499,-0.289 0.499,-0.288 V 24.546 L 194.177,8.447 193.927,8.303 V 0 h 0.999 v 7.725 l 27.136,15.666 V 0 h 1 V 23.391 L 250.198,7.725 V 7.147 L 250.699,7.436 263.577,0 h 2 l -13.878,8.013 25.742,14.863 c 0.242,-0.245 0.551,-0.418 0.893,-0.509 v 0 V 0 h 1 v 22.367 c 0.343,0.09 0.652,0.264 0.894,0.51 v 0 L 306.471,7.727 V 0 h 1 v 7.727 l 27.136,15.668 V 0 h 0.999 v 23.971 l 27.136,15.666 V 8.304 L 348.357,0 h 2 l 13.135,7.583 0.25,0.144 v 31.91 l 25.75,-14.866 c -0.045,-0.165 -0.076,-0.334 -0.076,-0.513 v 0 c 0,-1.084 0.879,-1.963 1.963,-1.963 v 0 c 1.084,0 1.962,0.879 1.962,1.963 v 0 c 0,0.91 -0.622,1.669 -1.463,1.891 v 0 30.887 L 362.742,73.858 V 40.792 L 335.606,25.126 V 57.613 L 306.971,41.081 279.334,57.035 v 30.31 c 0.84,0.222 1.463,0.98 1.463,1.89 v 0 c 0,0.179 -0.031,0.349 -0.075,0.513 v 0 l 26.498,15.298 0.251,0.143 v 33.643 l -28.635,-16.532 -28.137,16.245 -28.136,-16.243 -27.637,15.955 v 31.909 l 28.637,16.532 -28.637,16.534 v 33.066 l -28.886,-16.679 -0.25,-0.143 v -31.912 l -25.748,14.866 c 0.044,0.164 0.075,0.334 0.075,0.513 v 0 c 0,0.91 -0.622,1.668 -1.463,1.89 v 0 62.797 l 27.886,16.101 0.25,0.143 v 33.644 l -28.886,-16.678 -0.25,-0.143 v -32.492 l -27.635,-15.956 -27.139,15.668 27.389,15.814 0.249,0.143 v 33.644 l -28.885,-16.678 -0.25,-0.143 v -64.402 l -25.75,14.865 c 0.045,0.164 0.076,0.333 0.076,0.511 v 0 c 0,0.911 -0.622,1.67 -1.463,1.891 v 0 30.887 l -27.636,15.956 27.136,15.666 0.5,-0.288 v 0.577 l 0.5,0.289 -0.5,0.289 v 32.489 L 27.498,364.87 c 0.044,0.165 0.075,0.334 0.075,0.512 v 0 c 0,1.084 -0.878,1.963 -1.963,1.963 v 0 c -1.083,0 -1.962,-0.879 -1.962,-1.963 m 2.463,-32.199 v 30.308 c 0.342,0.091 0.651,0.266 0.893,0.509 v 0 l 26.242,-15.151 v -31.333 z m 112.543,-33.065 27.136,15.668 v -31.334 l -27.136,-15.666 z m -56.272,0 27.136,15.668 V 284.452 L 82.382,268.786 Z M 26.111,268.205 v 31.334 l 27.135,-15.667 v -30.31 c -0.342,-0.091 -0.65,-0.264 -0.892,-0.508 v 0 z m 84.407,-16.822 27.136,15.668 v -31.334 l -8.878,-5.125 -18.258,-10.541 z m -14.567,-23.499 -13.569,7.833 v 31.332 l 27.136,-15.666 v -31.331 z m -41.705,-8.41 v 30.307 c 0.343,0.091 0.651,0.265 0.893,0.509 v 0 l 26.244,-15.151 v -31.331 z m 112.544,-0.577 27.137,15.668 V 203.232 L 166.79,187.564 Z m -56.272,-0.002 15.507,8.953 11.629,6.714 v -29.729 c -0.84,-0.222 -1.462,-0.98 -1.462,-1.89 v 0 c 0,-0.179 0.031,-0.349 0.075,-0.513 v 0 l -25.749,-14.866 z m -14.567,-23.498 -13.569,7.834 v 31.331 l 13.569,-7.833 13.567,-7.834 v -31.33 z m 71.339,-8.699 13.309,7.685 13.828,7.982 27.136,-15.667 -27.136,-15.666 z M 82.382,170.744 v 31.331 l 13.569,-7.833 13.567,-7.833 v -31.331 z m -28.136,15.665 27.137,15.666 V 170.744 L 54.246,155.078 Z m 84.408,-15.666 v 30.308 c 0.343,0.091 0.652,0.265 0.894,0.508 v 0 L 165.79,186.408 V 156.1 c -0.342,-0.091 -0.651,-0.265 -0.893,-0.509 v 0 z m 29.524,-17.045 c 0.045,0.164 0.075,0.333 0.075,0.511 v 0 c 0,0.91 -0.622,1.669 -1.463,1.891 v 0 29.732 l 27.137,-15.667 V 138.832 Z M 26.132,136.076 c 0.841,0.221 1.464,0.98 1.464,1.889 v 0 c 0,0.179 -0.032,0.348 -0.076,0.512 v 0 l 25.748,14.866 V 122.01 L 26.132,106.345 Z m 140.658,16.243 c 0.344,0.091 0.652,0.264 0.894,0.509 v 0 l 25.74,-14.862 -26.634,-15.376 z m -28.136,-14.643 26.243,15.151 c 0.242,-0.244 0.55,-0.417 0.893,-0.508 v 0 -30.306 l -0.5,-0.29 h 0.001 l -26.637,-15.378 z m 111.544,-31.331 -26.635,15.378 27.136,15.667 27.135,-15.667 -26.636,-15.378 -0.499,-0.288 z m -82.908,15.378 27.135,15.666 0.501,-0.289 v 0.002 l 26.637,-15.379 -27.136,-15.666 z M 279.334,91.127 v 30.306 l 27.137,15.667 v -31.332 l -26.243,-15.15 c -0.242,0.244 -0.551,0.418 -0.894,0.509 m -27.635,14.352 26.635,15.378 V 91.126 c -0.343,-0.09 -0.652,-0.265 -0.894,-0.509 v 0 z M 166.79,89.525 v 31.332 l 27.137,-15.668 v -31.33 z m -28.136,15.664 27.136,15.667 V 89.525 L 138.654,73.859 Z m -112.522,0 27.136,15.667 V 89.525 L 26.132,73.859 Z m 56.25,0 26.244,15.151 c 0.242,-0.243 0.55,-0.418 0.892,-0.508 v 0 -30.307 L 82.382,73.859 Z m 168.816,-31.91 v 31.333 l 25.749,-14.866 c -0.044,-0.163 -0.076,-0.332 -0.076,-0.511 v 0 c 0,-0.909 0.622,-1.668 1.463,-1.889 v 0 -29.733 z m -28.136,15.666 27.136,15.667 V 73.279 L 223.062,57.613 Z M 138.654,72.703 165.79,88.369 V 57.038 L 138.654,41.372 Z M 54.268,57.038 V 88.369 L 81.383,72.715 v -0.589 l 0.021,0.013 V 41.372 Z M 26.132,72.703 53.268,88.369 V 57.038 L 26.132,41.372 Z M 166.79,57.038 v 31.33 L 193.927,72.702 V 42.396 c -0.343,-0.09 -0.651,-0.264 -0.893,-0.508 v 0 z m 56.773,-0.292 12.327,7.117 14.808,8.55 27.136,-15.667 -12.327,-7.117 -14.808,-8.548 z M 110.475,55.228 c 0.84,0.222 1.463,0.98 1.463,1.89 v 0 c 0,0.063 -0.013,0.122 -0.019,0.183 v 0 L 137.61,72.135 V 40.801 L 110.475,25.133 Z M 363.742,40.792 V 72.125 L 390.878,56.458 V 26.149 c -0.342,-0.091 -0.65,-0.265 -0.892,-0.508 v 0 z M 307.471,40.214 334.607,55.88 V 24.556 L 307.471,8.888 Z M 280.723,23.748 c 0.043,0.163 0.074,0.332 0.074,0.51 v 0 c 0,0.91 -0.623,1.669 -1.463,1.891 v 0 29.731 L 306.471,40.214 V 8.882 Z M 251.699,40.502 278.334,55.88 V 26.149 c -0.343,-0.091 -0.651,-0.265 -0.893,-0.51 v 0 z M 223.062,24.546 V 55.88 L 250.198,40.213 V 8.878 Z m 28.136,15.09 25.749,-14.867 c -0.044,-0.165 -0.076,-0.333 -0.076,-0.511 v 0 c 0,-0.179 0.032,-0.348 0.076,-0.511 v 0 L 251.198,8.878 Z M 27.026,9.405 c -0.355,0.359 -0.849,0.581 -1.393,0.581 v 0 c -0.546,0 -1.039,-0.222 -1.393,-0.581 v 0 L 0,23.399 V 22.244 L 23.745,8.536 C 23.702,8.371 23.669,8.201 23.669,8.023 v 0 c 0,-0.909 0.624,-1.667 1.464,-1.89 v 0 V 0 h 0.999 v 6.133 c 0.841,0.223 1.464,0.981 1.464,1.89 v 0 c 0,0.179 -0.032,0.348 -0.077,0.513 v 0 L 53.268,23.402 V 0 h 1 v 25.133 z"
         id="path16" /></clipPath><linearGradient
       x1="0"
       y1="0"
       x2="1"
       y2="0"
       gradientUnits="userSpaceOnUse"
       gradientTransform="matrix(511.55707,738.2276,738.2276,-511.55707,131.16245,-109.30565)"
       spreadMethod="pad"
       id="linearGradient38"><stop
         style="stop-opacity:1;stop-color:#c8cacc"
         offset="0"
         id="stop24" /><stop
         style="stop-opacity:1;stop-color:#eaebeb"
         offset="0.34856444"
         id="stop26" /><stop
         style="stop-opacity:1;stop-color:#eaebeb"
         offset="0.571325"
         id="stop28" /><stop
         style="stop-opacity:1;stop-color:#eaebeb"
         offset="0.76921805"
         id="stop30" /><stop
         style="stop-opacity:1;stop-color:#ffffff"
         offset="0.975951"
         id="stop32" /><stop
         style="stop-opacity:1;stop-color:#ffffff"
         offset="0.98838695"
         id="stop34" /><stop
         style="stop-opacity:1;stop-color:#ffffff"
         offset="1"
         id="stop36" /></linearGradient></defs><sodipodi:namedview
     id="namedview4"
     pagecolor="#ffffff"
     bordercolor="#666666"
     borderopacity="1.0"
     inkscape:pageshadow="2"
     inkscape:pageopacity="0.0"
     inkscape:pagecheckerboard="0"
     showgrid="false"
     inkscape:zoom="0.94199997"
     inkscape:cx="500.00002"
     inkscape:cy="332.80256"
     inkscape:window-width="1440"
     inkscape:window-height="839"
     inkscape:window-x="1440"
     inkscape:window-y="0"
     inkscape:window-maximized="1"
     inkscape:current-layer="g8" /><g
     id="g8"
     inkscape:groupmode="layer"
     inkscape:label="5570862"
     transform="matrix(1.3333333,0,0,-1.3333333,0,666.66667)"><path
       d="M 0,0 H 750 V 500 H 0 Z"
       style="fill:#ffffff;fill-opacity:1;fill-rule:nonzero;stroke:none"
       id="path10" /><g
       id="g12"><g
         id="g14"
         clip-path="url(#clipPath18)"><g
           id="g20"><g
             id="g22"><path
               d="m 728.509,500 v -26.44 l -27.135,-15.666 v 31.331 L 720.038,500 h -2 L 700.875,490.091 683.711,500 h -2.001 l 18.664,-10.775 v -31.331 l -27.115,15.654 v 0.589 l -0.02,-0.013 V 500 h -1.001 v -26.452 l -27.864,-16.088 -0.25,-0.143 v -30.885 c -0.84,-0.223 -1.463,-0.981 -1.463,-1.891 v 0 c 0,-0.91 0.623,-1.669 1.463,-1.891 v 0 -30.89 l 28.135,-16.243 v -31.91 l -27.135,-15.666 v 31.915 l -28.135,16.243 v 0.579 l -0.502,-0.289 -0.499,0.288 v -0.576 l -27.886,-16.1 -0.25,-0.144 v -33.644 l 27.241,15.728 c 0.356,-0.359 0.849,-0.583 1.395,-0.583 v 0 c 0.547,0 1.039,0.223 1.394,0.583 v 0 l 26.242,-15.149 v -65.557 l 28.636,16.533 27.636,-15.954 27.636,-15.956 -27.135,-15.667 -0.501,0.288 v -0.577 l -0.499,-0.289 0.499,-0.288 v -32.489 l 28.136,-16.243 v -30.31 c -0.84,-0.222 -1.463,-0.98 -1.463,-1.89 v 0 c 0,-1.085 0.879,-1.963 1.963,-1.963 v 0 c 1.084,0 1.963,0.878 1.963,1.963 v 0 c 0,0.178 -0.031,0.347 -0.076,0.512 v 0 L 750,159.921 v 1.155 l -19.575,-11.302 c -0.242,0.244 -0.55,0.418 -0.893,0.509 v 0 30.309 L 750,192.409 v 1.155 l -20.468,-11.817 v 31.334 L 750,224.898 v 1.154 l -20.967,-12.105 -27.137,15.666 26.636,15.38 v 0 l 0.5,0.288 0.5,-0.288 v 0 L 750,233.175 v 1.155 L 730.032,245.858 750,257.387 v 1.155 l -20.468,-11.818 v 31.334 L 750,289.875 v 1.155 l -6.159,-3.556 -14.808,-8.55 -26.25,15.155 c 0.045,0.164 0.076,0.334 0.076,0.513 v 0 c 0,0.178 -0.031,0.347 -0.076,0.511 v 0 L 729.032,310.258 750,298.153 v 1.154 l -20.468,11.818 v 31.333 L 750,330.641 v 1.155 L 730.044,343.318 750,354.839 v 1.155 l -20.446,-11.803 v 31.331 L 750,387.325 v 1.155 l -21.195,-12.237 -0.25,-0.143 v -31.922 l -0.023,0.013 V 311.124 L 702.29,295.972 c -0.242,0.245 -0.551,0.419 -0.894,0.51 v 0 63.37 l -28.137,16.243 v 32.486 l -26.749,15.443 c 0.045,0.166 0.078,0.337 0.078,0.517 v 0 c 0,0.178 -0.033,0.347 -0.077,0.512 v 0 l 26.499,15.298 0.249,0.143 v 31.898 l 27.115,-15.653 v -65.551 l 27.244,15.728 c 0.354,-0.359 0.846,-0.581 1.393,-0.581 v 0 c 1.083,0 1.963,0.878 1.963,1.963 v 0 c 0,0.91 -0.623,1.668 -1.465,1.891 v 0 62.758 L 750,484.778 v 1.154 L 729.554,474.128 V 500 Z m -27.135,-43.261 27.135,15.666 v -31.332 l -27.135,-15.666 z m -56.25,-30.307 v 30.307 l 27.135,15.666 v -31.332 l -26.242,-15.151 c -0.242,0.244 -0.551,0.419 -0.893,0.51 m 56.25,-2.18 27.135,15.665 v -29.729 c -0.839,-0.222 -1.461,-0.981 -1.461,-1.89 v 0 c 0,-0.179 0.031,-0.349 0.075,-0.513 v 0 L 701.374,392.92 Z m -56.25,-31.913 v 30.311 c 0.342,0.09 0.648,0.263 0.891,0.506 v 0 l 26.244,-15.153 v -31.331 z m -56.271,-33.06 27.135,15.666 v -29.733 c -0.84,-0.222 -1.463,-0.981 -1.463,-1.891 v 0 c 0,-0.177 0.032,-0.346 0.076,-0.509 v 0 l -25.748,-14.866 z m 29.523,-16.467 c 0.044,0.163 0.075,0.332 0.075,0.509 v 0 c 0,0.91 -0.622,1.669 -1.462,1.891 v 0 29.732 l 27.135,-15.666 v -31.331 z m 68.452,-7.037 -13.569,7.833 v 31.332 l 27.137,-15.667 v -31.331 z m 0,-32.487 -13.569,7.834 v 31.331 l 13.569,-7.833 13.568,-7.834 v -30.304 c -0.343,-0.09 -0.651,-0.265 -0.894,-0.511 v 0 z m -41.704,23.498 27.135,15.667 v -31.33 l -27.135,-15.667 z m 0,-32.486 27.135,15.667 v -31.332 l -27.135,-15.668 z m 28.135,-15.665 v 31.331 l 13.569,-7.832 12.18,-7.032 c -0.043,-0.164 -0.074,-0.333 -0.074,-0.51 v 0 c 0,-0.911 0.622,-1.669 1.462,-1.891 v 0 -29.732 z m 28.137,-16.243 v 30.309 c 0.343,0.091 0.652,0.264 0.893,0.508 v 0 l 26.243,-15.151 v -31.334 z m 0,-64.978 v 31.333 L 728.532,213.08 V 181.747 Z M 644.168,500 v -8.965 c -0.84,-0.222 -1.462,-0.98 -1.462,-1.89 v 0 c 0,-0.063 0.013,-0.122 0.018,-0.184 v 0 L 617.032,474.128 V 500 h -1.044 v -26.44 l -27.135,-15.666 v 31.331 L 607.517,500 h -2 L 588.353,490.091 571.189,500 h -2.002 l 18.665,-10.775 v -31.33 l -27.135,15.666 V 500 h -1 v -25.861 h -0.002 v -33.067 l -27.635,-15.955 -27.136,15.667 27.386,15.812 0.25,0.144 v 32.488 l 0.5,0.289 -0.5,0.289 V 500 h -0.999 v -9.617 L 514.923,500 h -2.001 l 18.158,-10.483 -12.327,-7.117 -14.808,-8.55 -27.136,15.667 12.327,7.117 5.83,3.366 h -2 l -16.657,-9.617 V 500 h -1 v -9.617 L 458.65,500 h -2.001 l 18.66,-10.772 v -30.31 c -0.841,-0.222 -1.464,-0.981 -1.464,-1.891 v 0 c 0,-0.178 0.032,-0.347 0.077,-0.511 v 0 l -26.5,-15.3 -0.25,-0.143 v -33.642 l 28.635,16.532 28.137,-16.245 28.136,16.244 28.136,-16.244 27.636,15.955 v -29.729 c -0.84,-0.221 -1.462,-0.98 -1.462,-1.89 v 0 c 0,-1.084 0.879,-1.963 1.962,-1.963 v 0 c 1.084,0 1.963,0.879 1.963,1.963 v 0 c 0,0.179 -0.031,0.348 -0.076,0.512 v 0 l 26.499,15.299 0.251,0.144 v 64.938 l 26.084,15.061 c 0.356,-0.498 0.936,-0.826 1.596,-0.826 v 0 c 1.084,0 1.963,0.879 1.963,1.963 v 0 c 0,0.91 -0.623,1.669 -1.464,1.891 v 0 V 500 Z M 504.445,472.984 531.581,488.65 V 457.318 L 504.445,441.65 Z m -26.748,-16.467 c 0.043,0.164 0.074,0.333 0.074,0.51 v 0 c 0,0.91 -0.622,1.669 -1.462,1.891 v 0 29.732 l 27.136,-15.666 V 441.65 Z m 83.019,-15.444 v 31.332 l 27.136,-15.666 v -31.333 z m 28.137,15.666 27.135,15.666 v -31.332 l -27.135,-15.666 z m -112.544,-1.603 c 0.343,0.091 0.651,0.266 0.893,0.511 v 0 l 25.742,-14.864 -26.635,-15.377 z m -28.137,-14.642 26.243,15.152 c 0.242,-0.244 0.551,-0.419 0.894,-0.51 v 0 -30.306 l -27.137,-15.667 z m 84.908,-15.954 27.136,15.666 27.137,-15.666 -27.137,-15.667 z m -29.136,15.666 0.501,-0.289 v 0.001 l 26.635,-15.378 -27.136,-15.667 -27.136,15.667 26.637,15.378 v -0.001 z m 84.909,-46.262 v 30.307 l 0.499,0.289 26.636,15.377 v -31.331 l -26.242,-15.15 c -0.242,0.244 -0.551,0.418 -0.893,0.508 M 447.172,500 v -26.439 l -27.136,-15.668 v 31.334 L 438.696,500 h -2.001 l -16.659,-9.617 V 500 h -1 v -42.687 l -27.885,-16.1 -0.25,-0.143 v -33.644 l 27.243,15.728 c 0.355,-0.358 0.847,-0.581 1.392,-0.581 v 0 c 1.085,0 1.964,0.879 1.964,1.963 v 0 c 0,0.91 -0.623,1.669 -1.464,1.89 v 0 30.311 l 27.886,16.102 0.25,0.144 V 500 Z m -55.272,-59.509 27.136,15.668 v -29.733 c -0.839,-0.222 -1.463,-0.98 -1.463,-1.89 v 0 c 0,-0.179 0.032,-0.348 0.077,-0.512 v 0 L 391.9,409.158 Z M 390.901,500 v -25.862 l -27.136,15.667 V 500 h -1 V 489.807 L 335.629,474.141 V 500 h -1 v -25.859 l -13.568,7.833 -13.569,7.833 V 500 h -1 V 489.807 L 279.356,474.141 V 500 h -0.999 v -25.859 l -27.136,15.667 V 500 h -1 v -9.616 L 233.565,500 h -2.001 l 18.156,-10.482 -12.326,-7.117 -14.809,-8.55 -26.25,15.155 c 0.045,0.164 0.076,0.333 0.076,0.512 v 0 c 0,0.178 -0.031,0.348 -0.076,0.512 v 0 l 17.27,9.97 h -2 l -15.763,-9.1 c -0.357,0.359 -0.848,0.581 -1.393,0.581 v 0 c -1.085,0 -1.963,-0.879 -1.963,-1.963 v 0 c 0,-1.083 0.878,-1.963 1.963,-1.963 v 0 c 0.545,0 1.036,0.222 1.393,0.582 v 0 l 26.243,-15.152 v -33.067 l 28.885,16.679 0.251,0.144 v 31.911 l 27.136,-15.666 v -33.063 l 27.242,15.727 c 0.242,-0.245 0.55,-0.418 0.893,-0.509 v 0 -30.886 l 29.137,-16.82 v 32.487 l 28.136,-16.243 v 33.642 l -27.636,15.954 27.133,15.664 28.638,-16.534 V 500 Z m -69.84,-50.512 -12.182,7.032 c 0.045,0.163 0.077,0.333 0.077,0.511 v 0 c 0,0.911 -0.623,1.669 -1.464,1.891 v 0 29.729 l 13.569,-7.832 13.568,-7.833 v -31.331 z m -41.705,23.498 27.136,15.665 v -29.729 c -0.84,-0.223 -1.463,-0.98 -1.463,-1.891 v 0 c 0,-0.178 0.032,-0.347 0.076,-0.511 v 0 l -25.749,-14.865 z m -56.271,-10e-4 27.136,15.666 v -31.332 l -27.136,-15.668 z m 112.544,-31.908 v 31.332 l 27.136,-15.666 V 425.41 Z m -28.137,-16.244 v 30.308 c 0.343,0.09 0.652,0.264 0.894,0.508 v 0 l 12.675,-7.317 13.568,-7.832 V 409.168 Z M 23.648,365.382 c 0,-0.91 0.622,-1.668 1.462,-1.89 v 0 -30.309 L 0,318.684 V 317.53 L 25.609,332.316 52.746,316.649 26.111,301.27 v 0.001 l -0.501,-0.289 -0.5,0.289 V 301.27 L 0,315.768 v -1.155 L 24.611,300.405 0,286.196 v -1.155 l 25.11,14.498 V 268.205 L 0,253.707 v -1.154 l 10.802,6.237 14.807,8.549 26.251,-15.155 c -0.045,-0.164 -0.077,-0.334 -0.077,-0.513 v 0 c 0,-0.178 0.032,-0.347 0.077,-0.511 v 0 L 25.61,236.005 0,250.792 v -1.156 L 25.11,235.138 V 203.805 L 0,218.302 v -1.155 L 24.599,202.945 0,188.743 v -1.155 l 25.089,14.484 V 170.741 L 0,156.257 v -1.154 l 25.839,14.917 0.25,0.143 v 31.922 l 0.022,-0.013 v 33.067 l 26.242,15.152 c 0.242,-0.245 0.55,-0.419 0.893,-0.51 v 0 -30.886 l 27.636,-15.954 -27.386,-15.81 -0.25,-0.143 v -32.503 l -26.22,-15.138 c -0.355,0.359 -0.849,0.581 -1.393,0.581 v 0 c -1.085,0 -1.964,-0.878 -1.964,-1.963 v 0 c 0,-0.909 0.624,-1.668 1.464,-1.889 v 0 -62.76 L 0,58.804 V 57.649 L 25.089,72.135 V 40.801 L 0,26.316 V 25.161 L 25.133,39.672 V 39.64 L 53.768,56.172 82.404,39.64 v 33.075 l 27.865,16.088 0.249,0.143 v 30.886 c 0.841,0.222 1.464,0.98 1.464,1.89 v 0 c 0,1.085 -0.88,1.963 -1.963,1.963 v 0 c -1.085,0 -1.963,-0.878 -1.963,-1.963 v 0 c 0,-0.178 0.031,-0.348 0.075,-0.512 v 0 l -26.498,-15.299 -0.25,-0.143 V 73.871 L 54.268,89.525 v 64.412 l 27.614,15.941 28.636,-16.532 v 33.064 l 26.243,15.15 c 0.242,-0.244 0.55,-0.418 0.893,-0.508 v 0 -30.888 l 26.749,-15.443 c -0.044,-0.164 -0.076,-0.333 -0.076,-0.512 v 0 c 0,-0.178 0.032,-0.348 0.076,-0.512 v 0 l -26.499,-15.3 -0.25,-0.144 V 73.316 L 111.57,58.255 c -0.356,0.498 -0.937,0.826 -1.595,0.826 v 0 c -1.085,0 -1.964,-0.879 -1.964,-1.963 v 0 c 0,-0.91 0.624,-1.669 1.463,-1.89 v 0 -31.826 L 137.61,39.647 V 7.735 L 151.006,0 h 2.001 L 138.61,8.312 V 39.646 L 165.746,23.979 V 0 h 1 v 24.557 l -27.609,15.939 27.152,15.676 26.251,-15.154 c -0.045,-0.164 -0.077,-0.334 -0.077,-0.512 v 0 c 0,-1.084 0.879,-1.963 1.963,-1.963 v 0 c 1.085,0 1.964,0.879 1.964,1.963 v 0 c 0,0.91 -0.623,1.668 -1.464,1.89 v 0 62.794 l 27.637,15.956 27.135,-15.667 -27.385,-15.812 -0.251,-0.144 V 57.035 l -0.499,-0.289 0.499,-0.288 V 24.546 L 194.177,8.447 193.927,8.303 V 0 h 0.999 v 7.725 l 27.136,15.666 V 0 h 1 V 23.391 L 250.198,7.725 V 7.147 L 250.699,7.436 263.577,0 h 2 l -13.878,8.013 25.742,14.863 c 0.242,-0.245 0.551,-0.418 0.893,-0.509 v 0 V 0 h 1 v 22.367 c 0.343,0.09 0.652,0.264 0.894,0.51 v 0 L 306.471,7.727 V 0 h 1 v 7.727 l 27.136,15.668 V 0 h 0.999 v 23.971 l 27.136,15.666 V 8.304 L 348.357,0 h 2 l 13.135,7.583 0.25,0.144 v 31.91 l 25.75,-14.866 c -0.045,-0.165 -0.076,-0.334 -0.076,-0.513 v 0 c 0,-1.084 0.879,-1.963 1.963,-1.963 v 0 c 1.084,0 1.962,0.879 1.962,1.963 v 0 c 0,0.91 -0.622,1.669 -1.463,1.891 v 0 30.887 L 362.742,73.858 V 40.792 L 335.606,25.126 V 57.613 L 306.971,41.081 279.334,57.035 v 30.31 c 0.84,0.222 1.463,0.98 1.463,1.89 v 0 c 0,0.179 -0.031,0.349 -0.075,0.513 v 0 l 26.498,15.298 0.251,0.143 v 33.643 l -28.635,-16.532 -28.137,16.245 -28.136,-16.243 -27.637,15.955 v 31.909 l 28.637,16.532 -28.637,16.534 v 33.066 l -28.886,-16.679 -0.25,-0.143 v -31.912 l -25.748,14.866 c 0.044,0.164 0.075,0.334 0.075,0.513 v 0 c 0,0.91 -0.622,1.668 -1.463,1.89 v 0 62.797 l 27.886,16.101 0.25,0.143 v 33.644 l -28.886,-16.678 -0.25,-0.143 v -32.492 l -27.635,-15.956 -27.139,15.668 27.389,15.814 0.249,0.143 v 33.644 l -28.885,-16.678 -0.25,-0.143 v -64.402 l -25.75,14.865 c 0.045,0.164 0.076,0.333 0.076,0.511 v 0 c 0,0.911 -0.622,1.67 -1.463,1.891 v 0 30.887 l -27.636,15.956 27.136,15.666 0.5,-0.288 v 0.577 l 0.5,0.289 -0.5,0.289 v 32.489 L 27.498,364.87 c 0.044,0.165 0.075,0.334 0.075,0.512 v 0 c 0,1.084 -0.878,1.963 -1.963,1.963 v 0 c -1.083,0 -1.962,-0.879 -1.962,-1.963 m 2.463,-32.199 v 30.308 c 0.342,0.091 0.651,0.266 0.893,0.509 v 0 l 26.242,-15.151 v -31.333 z m 112.543,-33.065 27.136,15.668 v -31.334 l -27.136,-15.666 z m -56.272,0 27.136,15.668 V 284.452 L 82.382,268.786 Z M 26.111,268.205 v 31.334 l 27.135,-15.667 v -30.31 c -0.342,-0.091 -0.65,-0.264 -0.892,-0.508 v 0 z m 84.407,-16.822 27.136,15.668 v -31.334 l -8.878,-5.125 -18.258,-10.541 z m -14.567,-23.499 -13.569,7.833 v 31.332 l 27.136,-15.666 v -31.331 z m -41.705,-8.41 v 30.307 c 0.343,0.091 0.651,0.265 0.893,0.509 v 0 l 26.244,-15.151 v -31.331 z m 112.544,-0.577 27.137,15.668 V 203.232 L 166.79,187.564 Z m -56.272,-0.002 15.507,8.953 11.629,6.714 v -29.729 c -0.84,-0.222 -1.462,-0.98 -1.462,-1.89 v 0 c 0,-0.179 0.031,-0.349 0.075,-0.513 v 0 l -25.749,-14.866 z m -14.567,-23.498 -13.569,7.834 v 31.331 l 13.569,-7.833 13.567,-7.834 v -31.33 z m 71.339,-8.699 13.309,7.685 13.828,7.982 27.136,-15.667 -27.136,-15.666 z M 82.382,170.744 v 31.331 l 13.569,-7.833 13.567,-7.833 v -31.331 z m -28.136,15.665 27.137,15.666 V 170.744 L 54.246,155.078 Z m 84.408,-15.666 v 30.308 c 0.343,0.091 0.652,0.265 0.894,0.508 v 0 L 165.79,186.408 V 156.1 c -0.342,-0.091 -0.651,-0.265 -0.893,-0.509 v 0 z m 29.524,-17.045 c 0.045,0.164 0.075,0.333 0.075,0.511 v 0 c 0,0.91 -0.622,1.669 -1.463,1.891 v 0 29.732 l 27.137,-15.667 V 138.832 Z M 26.132,136.076 c 0.841,0.221 1.464,0.98 1.464,1.889 v 0 c 0,0.179 -0.032,0.348 -0.076,0.512 v 0 l 25.748,14.866 V 122.01 L 26.132,106.345 Z m 140.658,16.243 c 0.344,0.091 0.652,0.264 0.894,0.509 v 0 l 25.74,-14.862 -26.634,-15.376 z m -28.136,-14.643 26.243,15.151 c 0.242,-0.244 0.55,-0.417 0.893,-0.508 v 0 -30.306 l -0.5,-0.29 h 0.001 l -26.637,-15.378 z m 111.544,-31.331 -26.635,15.378 27.136,15.667 27.135,-15.667 -26.636,-15.378 -0.499,-0.288 z m -82.908,15.378 27.135,15.666 0.501,-0.289 v 0.002 l 26.637,-15.379 -27.136,-15.666 z M 279.334,91.127 v 30.306 l 27.137,15.667 v -31.332 l -26.243,-15.15 c -0.242,0.244 -0.551,0.418 -0.894,0.509 m -27.635,14.352 26.635,15.378 V 91.126 c -0.343,-0.09 -0.652,-0.265 -0.894,-0.509 v 0 z M 166.79,89.525 v 31.332 l 27.137,-15.668 v -31.33 z m -28.136,15.664 27.136,15.667 V 89.525 L 138.654,73.859 Z m -112.522,0 27.136,15.667 V 89.525 L 26.132,73.859 Z m 56.25,0 26.244,15.151 c 0.242,-0.243 0.55,-0.418 0.892,-0.508 v 0 -30.307 L 82.382,73.859 Z m 168.816,-31.91 v 31.333 l 25.749,-14.866 c -0.044,-0.163 -0.076,-0.332 -0.076,-0.511 v 0 c 0,-0.909 0.622,-1.668 1.463,-1.889 v 0 -29.733 z m -28.136,15.666 27.136,15.667 V 73.279 L 223.062,57.613 Z M 138.654,72.703 165.79,88.369 V 57.038 L 138.654,41.372 Z M 54.268,57.038 V 88.369 L 81.383,72.715 v -0.589 l 0.021,0.013 V 41.372 Z M 26.132,72.703 53.268,88.369 V 57.038 L 26.132,41.372 Z M 166.79,57.038 v 31.33 L 193.927,72.702 V 42.396 c -0.343,-0.09 -0.651,-0.264 -0.893,-0.508 v 0 z m 56.773,-0.292 12.327,7.117 14.808,8.55 27.136,-15.667 -12.327,-7.117 -14.808,-8.548 z M 110.475,55.228 c 0.84,0.222 1.463,0.98 1.463,1.89 v 0 c 0,0.063 -0.013,0.122 -0.019,0.183 v 0 L 137.61,72.135 V 40.801 L 110.475,25.133 Z M 363.742,40.792 V 72.125 L 390.878,56.458 V 26.149 c -0.342,-0.091 -0.65,-0.265 -0.892,-0.508 v 0 z M 307.471,40.214 334.607,55.88 V 24.556 L 307.471,8.888 Z M 280.723,23.748 c 0.043,0.163 0.074,0.332 0.074,0.51 v 0 c 0,0.91 -0.623,1.669 -1.463,1.891 v 0 29.731 L 306.471,40.214 V 8.882 Z M 251.699,40.502 278.334,55.88 V 26.149 c -0.343,-0.091 -0.651,-0.265 -0.893,-0.51 v 0 z M 223.062,24.546 V 55.88 L 250.198,40.213 V 8.878 Z m 28.136,15.09 25.749,-14.867 c -0.044,-0.165 -0.076,-0.333 -0.076,-0.511 v 0 c 0,-0.179 0.032,-0.348 0.076,-0.511 v 0 L 251.198,8.878 Z M 27.026,9.405 c -0.355,0.359 -0.849,0.581 -1.393,0.581 v 0 c -0.546,0 -1.039,-0.222 -1.393,-0.581 v 0 L 0,23.399 V 22.244 L 23.745,8.536 C 23.702,8.371 23.669,8.201 23.669,8.023 v 0 c 0,-0.909 0.624,-1.667 1.464,-1.89 v 0 V 0 h 0.999 v 6.133 c 0.841,0.223 1.464,0.981 1.464,1.89 v 0 c 0,0.179 -0.032,0.348 -0.077,0.513 v 0 L 53.268,23.402 V 0 h 1 v 25.133 z"
               style="fill:url(#linearGradient38);stroke:none"
               id="path40" /></g></g></g></g></g></svg>
