<?xml version="1.0" encoding="UTF-8" standalone="no"?>
<!-- Created with Inkscape (http://www.inkscape.org/) -->

<svg
   version="1.1"
   id="svg2"
   xml:space="preserve"
   width="666.66669"
   height="666.66669"
   viewBox="0 0 666.66669 666.66669"
   sodipodi:docname="resume5.svg"
   inkscape:version="1.1.1 (3bf5ae0d25, 2021-09-20)"
   xmlns:inkscape="http://www.inkscape.org/namespaces/inkscape"
   xmlns:sodipodi="http://sodipodi.sourceforge.net/DTD/sodipodi-0.dtd"
   xmlns="http://www.w3.org/2000/svg"
   xmlns:svg="http://www.w3.org/2000/svg"><defs
     id="defs6"><clipPath
       clipPathUnits="userSpaceOnUse"
       id="clipPath16"><path
         d="M 0,500 H 500 V 0 H 0 Z"
         id="path14" /></clipPath><clipPath
       clipPathUnits="userSpaceOnUse"
       id="clipPath28"><path
         d="M 30.4621,457.609 H 469.538 V 101.413 H 30.4621 Z"
         id="path26" /></clipPath><clipPath
       clipPathUnits="userSpaceOnUse"
       id="clipPath44"><path
         d="M 0,500 H 500 V 0 H 0 Z"
         id="path42" /></clipPath><clipPath
       clipPathUnits="userSpaceOnUse"
       id="clipPath60"><path
         d="M 0,500 H 500 V 0 H 0 Z"
         id="path58" /></clipPath><clipPath
       clipPathUnits="userSpaceOnUse"
       id="clipPath72"><path
         d="M 58.4783,81.3652 H 441.522 V 27.8376 H 58.4783 Z"
         id="path70" /></clipPath><clipPath
       clipPathUnits="userSpaceOnUse"
       id="clipPath88"><path
         d="M 0,500 H 500 V 0 H 0 Z"
         id="path86" /></clipPath><clipPath
       clipPathUnits="userSpaceOnUse"
       id="clipPath108"><path
         d="M 80.26,359.725 H 420.877 V 172.594 H 80.26 Z"
         id="path106" /></clipPath><clipPath
       clipPathUnits="userSpaceOnUse"
       id="clipPath168"><path
         d="M 0,500 H 500 V 0 H 0 Z"
         id="path166" /></clipPath><clipPath
       clipPathUnits="userSpaceOnUse"
       id="clipPath184"><path
         d="M 85.3891,312.23 H 216.186 V 141.216 H 85.3891 Z"
         id="path182" /></clipPath><clipPath
       clipPathUnits="userSpaceOnUse"
       id="clipPath280"><path
         d="M 0,500 H 500 V 0 H 0 Z"
         id="path278" /></clipPath><clipPath
       clipPathUnits="userSpaceOnUse"
       id="clipPath328"><path
         d="m 282.677,229.181 h 35.94 v -28.857 h -35.94 z"
         id="path326" /></clipPath><clipPath
       clipPathUnits="userSpaceOnUse"
       id="clipPath344"><path
         d="m 313.333,218.382 h 66.252 V 107.928 h -66.252 z"
         id="path342" /></clipPath><clipPath
       clipPathUnits="userSpaceOnUse"
       id="clipPath360"><path
         d="m 247.043,198.649 h 30.825 v -71.472 h -30.825 z"
         id="path358" /></clipPath><clipPath
       clipPathUnits="userSpaceOnUse"
       id="clipPath432"><path
         d="m 280.341,287.753 h 48.352 v -20.014 h -48.352 z"
         id="path430" /></clipPath><clipPath
       clipPathUnits="userSpaceOnUse"
       id="clipPath448"><path
         d="M 275.074,283.802 H 285.21 V 269.617 H 275.074 Z"
         id="path446" /></clipPath></defs><sodipodi:namedview
     id="namedview4"
     pagecolor="#ffffff"
     bordercolor="#666666"
     borderopacity="1.0"
     inkscape:pageshadow="2"
     inkscape:pageopacity="0.0"
     inkscape:pagecheckerboard="0"
     showgrid="false"
     inkscape:zoom="0.94199997"
     inkscape:cx="333.33334"
     inkscape:cy="332.80256"
     inkscape:window-width="1440"
     inkscape:window-height="839"
     inkscape:window-x="1440"
     inkscape:window-y="0"
     inkscape:window-maximized="1"
     inkscape:current-layer="g8" /><g
     id="g8"
     inkscape:groupmode="layer"
     inkscape:label="4136916"
     transform="matrix(1.3333333,0,0,-1.3333333,0,666.66667)"><g
       id="g10"><g
         id="g12"
         clip-path="url(#clipPath16)"><g
           id="g18"
           transform="translate(456.5508,290.8945)"><path
             d="m 0,0 c -48.744,83.474 -180.95,53.744 -207.955,94.349 -13.827,20.79 -29.296,44.889 -51.732,57.421 -21.39,11.947 -46.19,16.21 -67.812,14.627 -77.207,-5.651 -109.944,-74.731 -95.107,-150.59 19.792,-101.193 109.496,-204.56 216.064,-205.284 55.735,-0.377 108.947,19.545 150.688,47.711 0.313,0.21 0.625,0.421 0.935,0.633 C -13.22,-112.748 37.216,-63.731 0,0"
             style="fill:#5ae4a7;fill-opacity:1;fill-rule:nonzero;stroke:none"
             id="path20" /></g><g
           id="g22"><g
             id="g24" /><g
             id="g36"><g
               clip-path="url(#clipPath28)"
               opacity="0.699997"
               id="g34"><g
                 transform="translate(456.5508,290.8945)"
                 id="g32"><path
                   d="m 0,0 c -48.744,83.474 -180.95,53.744 -207.955,94.349 -13.827,20.79 -29.296,44.889 -51.732,57.421 -21.39,11.947 -46.19,16.21 -67.812,14.627 -77.207,-5.651 -109.944,-74.731 -95.107,-150.59 19.792,-101.193 109.496,-204.56 216.064,-205.284 55.735,-0.377 108.947,19.545 150.688,47.711 0.313,0.21 0.625,0.421 0.935,0.633 C -13.22,-112.748 37.216,-63.731 0,0"
                   style="fill:#ffffff;fill-opacity:1;fill-rule:nonzero;stroke:none"
                   id="path30" /></g></g></g></g></g></g><g
       id="g38"><g
         id="g40"
         clip-path="url(#clipPath44)"><g
           id="g46"
           transform="translate(78.189,284.8208)"><path
             d="m 0,0 h -5.419 c -12.113,0 -21.932,-9.819 -21.932,-21.932 v -120.342 c 0,-12.112 9.819,-21.932 21.932,-21.932 h 74.36 c 12.113,0 21.932,9.82 21.932,21.932"
             style="fill:none;stroke:#1a2e35;stroke-width:1.103;stroke-linecap:round;stroke-linejoin:round;stroke-miterlimit:10;stroke-dasharray:4.412;stroke-dashoffset:0;stroke-opacity:1"
             id="path48" /></g><g
           id="g50"
           transform="translate(162.9644,398.3711)"><path
             d="m 0,0 v 23.771 c 0,7.418 6.014,13.432 13.432,13.432 h 96.701 c 7.418,0 13.432,-6.014 13.432,-13.432"
             style="fill:none;stroke:#1a2e35;stroke-width:1.103;stroke-linecap:round;stroke-linejoin:round;stroke-miterlimit:10;stroke-dasharray:4.412;stroke-dashoffset:0;stroke-opacity:1"
             id="path52" /></g></g></g><g
       id="g54"><g
         id="g56"
         clip-path="url(#clipPath60)"><g
           id="g62"
           transform="translate(441.5215,54.6016)"><path
             d="m 0,0 c 0,-14.781 -85.747,-26.764 -191.521,-26.764 -105.775,0 -191.522,11.983 -191.522,26.764 0,14.781 85.747,26.764 191.522,26.764 C -85.747,26.764 0,14.781 0,0"
             style="fill:#5ae4a7;fill-opacity:1;fill-rule:nonzero;stroke:none"
             id="path64" /></g><g
           id="g66"><g
             id="g68" /><g
             id="g80"><g
               clip-path="url(#clipPath72)"
               opacity="0.5"
               id="g78"><g
                 transform="translate(441.5215,54.6016)"
                 id="g76"><path
                   d="m 0,0 c 0,-14.781 -85.747,-26.764 -191.521,-26.764 -105.775,0 -191.522,11.983 -191.522,26.764 0,14.781 85.747,26.764 191.522,26.764 C -85.747,26.764 0,14.781 0,0"
                   style="fill:#ffffff;fill-opacity:1;fill-rule:nonzero;stroke:none"
                   id="path74" /></g></g></g></g></g></g><g
       id="g82"><g
         id="g84"
         clip-path="url(#clipPath88)"><g
           id="g90"
           transform="translate(430.54,366.4756)"><path
             d="m 0,0 v -180.06 c 0,-12.255 -9.939,-22.195 -22.194,-22.195 h -316.691 c -12.256,0 -22.195,9.94 -22.195,22.195 V 0 c 0,0.53 0.022,1.048 0.066,1.566 0.795,11.528 10.403,20.64 22.129,20.64 h 316.691 c 11.725,0 21.334,-9.112 22.128,-20.64 C -0.022,1.048 0,0.53 0,0"
             style="fill:#ffffff;fill-opacity:1;fill-rule:nonzero;stroke:none"
             id="path92" /></g><g
           id="g94"
           transform="translate(430.54,366.4756)"><path
             d="m 0,0 v -180.06 c 0,-12.255 -9.939,-22.195 -22.194,-22.195 h -316.691 c -12.256,0 -22.195,9.94 -22.195,22.195 V 0 c 0,0.53 0.022,1.048 0.066,1.566 0.795,11.528 10.403,20.64 22.129,20.64 h 316.691 c 11.725,0 21.334,-9.112 22.128,-20.64 C -0.022,1.048 0,0.53 0,0 Z"
             style="fill:none;stroke:#1a2e35;stroke-width:1.103;stroke-linecap:round;stroke-linejoin:round;stroke-miterlimit:10;stroke-dasharray:none;stroke-opacity:1"
             id="path96" /></g><g
           id="g98"
           transform="translate(400.0713,172.5928)"><path
             d="m 0,0 h -299.011 c -11.488,0 -20.801,9.313 -20.801,20.8 V 187.131 H 20.8 V 20.8 C 20.8,9.313 11.487,0 0,0"
             style="fill:#1a2e35;fill-opacity:1;fill-rule:nonzero;stroke:none"
             id="path100" /></g><g
           id="g102"><g
             id="g104" /><g
             id="g116"><g
               clip-path="url(#clipPath108)"
               opacity="0.199997"
               id="g114"><g
                 transform="translate(420.877,359.7246)"
                 id="g112"><path
                   d="m 0,0 v -166.337 c 0,-11.483 -9.216,-20.794 -20.569,-20.794 h -299.479 c -11.353,0 -20.569,9.311 -20.569,20.794 V 0 Z"
                   style="fill:#ffffff;fill-opacity:1;fill-rule:nonzero;stroke:none"
                   id="path110" /></g></g></g></g><g
           id="g118"
           transform="translate(430.4736,368.042)"><path
             d="m 0,0 h -360.947 c 0.794,11.528 10.402,20.639 22.128,20.639 H -22.128 C -10.402,20.639 -0.794,11.528 0,0"
             style="fill:#5ae4a7;fill-opacity:1;fill-rule:nonzero;stroke:none"
             id="path120" /></g><g
           id="g122"
           transform="translate(430.4736,368.042)"><path
             d="m 0,0 h -360.947 c 0.794,11.528 10.402,20.639 22.128,20.639 H -22.128 C -10.402,20.639 -0.794,11.528 0,0 Z"
             style="fill:none;stroke:#1a2e35;stroke-width:1.103;stroke-linecap:butt;stroke-linejoin:miter;stroke-miterlimit:10;stroke-dasharray:none;stroke-opacity:1"
             id="path124" /></g><g
           id="g126"
           transform="translate(113.8813,378.3618)"><path
             d="m 0,0 c 0,-2.171 -1.76,-3.932 -3.931,-3.932 -2.172,0 -3.932,1.761 -3.932,3.932 0,2.171 1.76,3.931 3.932,3.931 C -1.76,3.931 0,2.171 0,0"
             style="fill:#1a2e35;fill-opacity:1;fill-rule:nonzero;stroke:none"
             id="path128" /></g><g
           id="g130"
           transform="translate(130.5034,378.3618)"><path
             d="m 0,0 c 0,-2.171 -1.76,-3.932 -3.931,-3.932 -2.172,0 -3.931,1.761 -3.931,3.932 0,2.171 1.759,3.931 3.931,3.931 C -1.76,3.931 0,2.171 0,0"
             style="fill:#1a2e35;fill-opacity:1;fill-rule:nonzero;stroke:none"
             id="path132" /></g><g
           id="g134"
           transform="translate(147.126,378.3618)"><path
             d="m 0,0 c 0,-2.171 -1.76,-3.932 -3.931,-3.932 -2.172,0 -3.932,1.761 -3.932,3.932 0,2.171 1.76,3.931 3.932,3.931 C -1.76,3.931 0,2.171 0,0"
             style="fill:#1a2e35;fill-opacity:1;fill-rule:nonzero;stroke:none"
             id="path136" /></g><g
           id="g138"
           transform="translate(420.8711,359.7183)"><path
             d="m 0,0 v -166.327 c 0,-11.483 -9.311,-20.804 -20.805,-20.804 h -299.007 c -10.105,0 -18.521,7.214 -20.397,16.767 l -0.011,0.011 v 0.045 c -0.254,1.29 -0.386,2.625 -0.386,3.981 l 0,166.327 z"
             style="fill:none;stroke:#1a2e35;stroke-width:1.103;stroke-linecap:butt;stroke-linejoin:miter;stroke-miterlimit:10;stroke-dasharray:none;stroke-opacity:1"
             id="path140" /></g><g
           id="g142"
           transform="translate(410.1123,305.0356)"><path
             d="m 0,0 c -5.669,0 -10.259,4.589 -10.259,10.259 0,5.658 4.59,10.259 10.259,10.259 5.67,0 10.26,-4.601 10.26,-10.259 C 10.26,4.589 5.67,0 0,0 m 10.436,28.957 c -1.457,0.815 -3.011,1.456 -4.623,1.908 l -1.864,8.35 h -7.942 l -1.853,-8.35 c -1.622,-0.442 -3.177,-1.093 -4.633,-1.908 l -7.17,4.588 -5.615,-5.615 4.512,-7.17 c -0.828,-1.467 -1.468,-3.022 -1.909,-4.633 l -8.351,-1.853 V 6.332 l 8.351,-1.865 c 0.441,-1.632 1.081,-3.198 1.909,-4.666 l -4.589,-7.214 5.614,-5.615 7.215,4.589 c 1.456,-0.827 3.011,-1.467 4.633,-1.919 l 1.854,-8.34 h 7.942 l 1.863,8.34 c 1.612,0.452 3.166,1.103 4.622,1.919 l 0.365,-0.231 v 37.836 z"
             style="fill:#1a2e35;fill-opacity:1;fill-rule:nonzero;stroke:none"
             id="path144" /></g><g
           id="g146"
           transform="translate(216.4492,312.6885)"><path
             d="m 0,0 c -11.947,0 -21.632,9.685 -21.632,21.632 0,11.947 9.685,21.632 21.632,21.632 11.946,0 21.632,-9.685 21.632,-21.632 C 21.632,9.685 11.946,0 0,0 m 61.002,13.259 v 16.745 l -17.606,3.905 c -0.959,3.398 -2.305,6.685 -4.026,9.774 l 2.129,3.353 h -83.097 l 2.052,-3.265 c -1.732,-3.078 -3.078,-6.354 -4.016,-9.762 L -61.167,30.092 V 13.348 L -43.562,9.42 c 0.938,-3.43 2.284,-6.74 4.016,-9.839 l -9.675,-15.212 11.847,-11.836 15.201,9.674 c 3.089,-1.732 6.365,-3.089 9.774,-4.049 l 3.905,-17.583 H 8.251 l 3.938,17.583 c 3.398,0.96 6.663,2.328 9.741,4.049 l 15.212,-9.674 11.836,11.836 -9.608,15.212 c 1.709,3.088 3.067,6.354 4.026,9.751 z"
             style="fill:#1a2e35;fill-opacity:1;fill-rule:nonzero;stroke:none"
             id="path148" /></g><g
           id="g150"
           transform="translate(131.1074,231.7139)"><path
             d="m 0,0 c -6.354,7.06 -17.23,7.634 -24.291,1.279 -7.06,-6.353 -7.633,-17.23 -1.279,-24.29 6.354,-7.059 17.23,-7.622 24.29,-1.268 C 5.78,-17.926 6.354,-7.06 0,0 m 35.277,-20.749 0.706,13.281 -13.767,3.883 C 21.577,-0.86 20.628,1.798 19.393,4.313 L 27.71,15.995 18.797,25.89 6.332,18.841 c -2.383,1.489 -4.92,2.714 -7.59,3.629 l -2.383,14.12 -13.281,0.706 -3.839,-13.811 c -2.736,-0.607 -5.383,-1.555 -7.898,-2.802 L -40.33,29 l -9.906,-8.913 7.06,-12.476 c -1.522,-2.372 -2.736,-4.909 -3.64,-7.578 l -4.026,-0.662 V -18.62 l 2.923,-0.828 c 0.618,-2.746 1.566,-5.405 2.824,-7.92 l -5.747,-8.042 0.386,-6.894 v -0.045 l 0.011,-0.01 5.924,-6.575 12.487,7.049 c 2.382,-1.533 4.942,-2.768 7.611,-3.674 l 2.273,-13.556 v -0.012 l 0.11,-0.562 13.281,-0.707 0.353,1.269 v 0.012 l 3.486,12.531 c 2.758,0.617 5.405,1.555 7.942,2.802 l 11.649,-8.307 9.906,8.902 -7.038,12.488 c 1.501,2.371 2.714,4.908 3.596,7.567 z"
             style="fill:#1a2e35;fill-opacity:1;fill-rule:nonzero;stroke:none"
             id="path152" /></g><g
           id="g154"
           transform="translate(249.728,224.9258)"><path
             d="m 0,0 c -6.912,-1.881 -14.033,2.199 -15.908,9.097 -1.881,6.912 2.2,14.034 9.097,15.908 C 0.101,26.886 7.222,22.806 9.097,15.908 10.978,8.996 6.898,1.875 0,0 m 22.873,5.885 c 0.516,2.055 0.783,4.169 0.806,6.29 l 9.548,5.02 -2.639,9.688 -10.777,-0.504 c -1.09,1.817 -2.394,3.502 -3.872,5.004 l 3.193,10.31 -8.703,4.986 -7.281,-7.945 c -2.049,0.502 -4.152,0.765 -6.27,0.799 l -5.041,9.556 -9.673,-2.632 0.51,-10.792 c -1.817,-1.091 -3.501,-2.395 -5.014,-3.869 l -10.314,3.183 -4.992,-8.689 7.987,-7.262 c -0.516,-2.055 -0.779,-4.158 -0.788,-6.273 l -9.566,-5.037 2.638,-9.688 10.792,0.511 c 1.076,-1.823 2.37,-3.505 3.858,-5.011 l -3.209,-10.257 8.704,-4.986 7.243,7.877 c 2.056,-0.517 4.159,-0.779 6.284,-0.792 l 5.027,-9.562 9.674,2.631 -0.425,9.219 -0.072,1.579 c 1.837,1.083 3.533,2.384 5.063,3.874 l 10.307,-3.204 4.258,7.445 0.728,1.259 z"
             style="fill:#1a2e35;fill-opacity:1;fill-rule:nonzero;stroke:none"
             id="path156" /></g><g
           id="g158"
           transform="translate(346.0195,214.3682)"><path
             d="m 0,0 c -7.82,-5.593 -18.697,-3.794 -24.29,4.026 -5.604,7.811 -3.795,18.687 4.016,24.28 7.82,5.604 18.697,3.795 24.29,-4.015 C 9.619,16.47 7.811,5.593 0,0 m 37.296,-0.596 2.207,13.293 -13.458,5.416 c -0.31,2.835 -0.96,5.616 -1.931,8.295 L 33.8,37.197 25.956,48.162 12.598,42.492 c -2.217,1.776 -4.633,3.276 -7.214,4.479 L 4.601,61.465 -8.703,63.661 -14.152,50.258 c -2.825,-0.331 -5.593,-0.982 -8.263,-1.942 l -10.821,9.685 -10.954,-7.843 5.681,-13.347 c -1.566,-1.963 -2.924,-4.059 -4.049,-6.288 -0.154,-0.308 -0.308,-0.618 -0.452,-0.926 L -57.493,28.791 -59.7,15.51 l 2.184,-0.882 11.274,-4.545 c 0.309,-2.813 0.949,-5.593 1.93,-8.263 l -9.685,-10.821 7.844,-10.954 13.358,5.692 c 2.206,-1.798 4.633,-3.309 7.203,-4.511 l 0.75,-14.429 13.293,-2.195 5.438,13.303 c 2.835,0.309 5.615,0.96 8.285,1.942 l 10.799,-9.697 10.964,7.854 -5.68,13.359 c 1.808,2.217 3.343,4.656 4.555,7.247 z"
             style="fill:#1a2e35;fill-opacity:1;fill-rule:nonzero;stroke:none"
             id="path160" /></g></g></g><g
       id="g162"><g
         id="g164"
         clip-path="url(#clipPath168)"><g
           id="g170"
           transform="translate(203.0762,141.2158)"><path
             d="m 0,0 h -104.577 c -7.241,0 -13.11,5.869 -13.11,13.109 v 144.795 c 0,7.241 5.869,13.11 13.11,13.11 H 0 c 7.24,0 13.11,-5.869 13.11,-13.11 V 13.109 C 13.11,5.869 7.24,0 0,0"
             style="fill:#5ae4a7;fill-opacity:1;fill-rule:nonzero;stroke:none"
             id="path172" /></g><g
           id="g174"
           transform="translate(203.0762,141.2158)"><path
             d="m 0,0 h -104.577 c -7.241,0 -13.11,5.869 -13.11,13.109 v 144.795 c 0,7.241 5.869,13.11 13.11,13.11 H 0 c 7.24,0 13.11,-5.869 13.11,-13.11 V 13.109 C 13.11,5.869 7.24,0 0,0 Z"
             style="fill:none;stroke:#1a2e35;stroke-width:1.103;stroke-linecap:butt;stroke-linejoin:miter;stroke-miterlimit:10;stroke-dasharray:none;stroke-opacity:1"
             id="path176" /></g><g
           id="g178"><g
             id="g180" /><g
             id="g192"><g
               clip-path="url(#clipPath184)"
               opacity="0.199997"
               id="g190"><g
                 transform="translate(203.0762,141.2158)"
                 id="g188"><path
                   d="m 0,0 h -104.577 c -7.241,0 -13.11,5.869 -13.11,13.109 v 144.795 c 0,7.241 5.869,13.11 13.11,13.11 H 0 c 7.24,0 13.11,-5.869 13.11,-13.11 V 13.109 C 13.11,5.869 7.24,0 0,0"
                   style="fill:#000000;fill-opacity:1;fill-rule:nonzero;stroke:none"
                   id="path186" /></g></g></g></g><g
           id="g194"
           transform="translate(228.3618,286.2031)"><path
             d="m 0,0 v -144.794 c 0,-7.247 -5.869,-13.115 -13.116,-13.115 H -117.69 c -7.237,0 -13.105,5.868 -13.105,13.115 V 0 c 0,7.236 5.868,13.105 13.105,13.105 H -13.116 C -5.869,13.105 0,7.236 0,0"
             style="fill:#ffffff;fill-opacity:1;fill-rule:nonzero;stroke:none"
             id="path196" /></g><g
           id="g198"
           transform="translate(228.3618,286.2031)"><path
             d="m 0,0 v -144.794 c 0,-7.247 -5.869,-13.115 -13.116,-13.115 H -117.69 c -7.237,0 -13.105,5.868 -13.105,13.115 V 0 c 0,7.236 5.868,13.105 13.105,13.105 H -13.116 C -5.869,13.105 0,7.236 0,0 Z"
             style="fill:none;stroke:#1a2e35;stroke-width:1.103;stroke-linecap:round;stroke-linejoin:round;stroke-miterlimit:10;stroke-dasharray:none;stroke-opacity:1"
             id="path200" /></g><g
           id="g202"
           transform="translate(228.3618,286.2031)"><path
             d="M 0,0 V -7.754 H -130.795 V 0 c 0,7.236 5.868,13.105 13.105,13.105 H -13.116 C -5.869,13.105 0,7.236 0,0"
             style="fill:#5ae4a7;fill-opacity:1;fill-rule:nonzero;stroke:none"
             id="path204" /></g><g
           id="g206"
           transform="translate(228.3618,286.2031)"><path
             d="M 0,0 V -7.754 H -130.795 V 0 c 0,7.236 5.868,13.105 13.105,13.105 H -13.116 C -5.869,13.105 0,7.236 0,0 Z"
             style="fill:none;stroke:#1a2e35;stroke-width:1.103;stroke-linecap:butt;stroke-linejoin:miter;stroke-miterlimit:10;stroke-dasharray:none;stroke-opacity:1"
             id="path208" /></g><path
           d="m 142.045,264.069 h -32.178 v 5.397 h 32.178 z"
           style="fill:#5ae4a7;fill-opacity:1;fill-rule:nonzero;stroke:none"
           id="path210" /><path
           d="m 142.045,215.681 h -32.178 v 5.397 h 32.178 z"
           style="fill:#5ae4a7;fill-opacity:1;fill-rule:nonzero;stroke:none"
           id="path212" /><path
           d="m 142.045,171.801 h -32.178 v 5.397 h 32.178 z"
           style="fill:#5ae4a7;fill-opacity:1;fill-rule:nonzero;stroke:none"
           id="path214" /><path
           d="m 201.258,252.145 h -91.392 v 3.959 h 91.392 z"
           style="fill:#1a2e35;fill-opacity:1;fill-rule:nonzero;stroke:none"
           id="path216" /><path
           d="m 184.779,244.669 h -74.913 v 3.857 h 74.913 z"
           style="fill:#1a2e35;fill-opacity:1;fill-rule:nonzero;stroke:none"
           id="path218" /><path
           d="m 194.589,237.221 h -84.723 v 3.857 h 84.723 z"
           style="fill:#1a2e35;fill-opacity:1;fill-rule:nonzero;stroke:none"
           id="path220" /><path
           d="m 194.589,229.779 h -84.723 v 3.857 h 84.723 z"
           style="fill:#1a2e35;fill-opacity:1;fill-rule:nonzero;stroke:none"
           id="path222" /><path
           d="m 201.258,208.266 h -91.392 v 3.958 h 91.392 z"
           style="fill:#1a2e35;fill-opacity:1;fill-rule:nonzero;stroke:none"
           id="path224" /><path
           d="m 184.779,200.789 h -74.913 v 3.857 h 74.913 z"
           style="fill:#1a2e35;fill-opacity:1;fill-rule:nonzero;stroke:none"
           id="path226" /><path
           d="m 194.589,193.341 h -84.723 v 3.857 h 84.723 z"
           style="fill:#1a2e35;fill-opacity:1;fill-rule:nonzero;stroke:none"
           id="path228" /><path
           d="m 201.258,160.079 h -91.392 v 3.959 h 91.392 z"
           style="fill:#1a2e35;fill-opacity:1;fill-rule:nonzero;stroke:none"
           id="path230" /><path
           d="m 184.779,152.604 h -74.913 v 3.857 h 74.913 z"
           style="fill:#1a2e35;fill-opacity:1;fill-rule:nonzero;stroke:none"
           id="path232" /><path
           d="m 194.589,145.154 h -84.723 v 3.858 h 84.723 z"
           style="fill:#1a2e35;fill-opacity:1;fill-rule:nonzero;stroke:none"
           id="path234" /><g
           id="g236"
           transform="translate(375.7646,399.7061)"><path
             d="m 0,0 v -58.52 c 0,-8.637 -6.993,-15.631 -15.631,-15.631 h -134.788 c -8.626,0 -15.631,6.994 -15.631,15.631 V 0 c 0,8.637 7.005,15.642 15.631,15.642 H -15.631 C -6.993,15.642 0,8.637 0,0"
             style="fill:#ffffff;fill-opacity:1;fill-rule:nonzero;stroke:none"
             id="path238" /></g><g
           id="g240"
           transform="translate(375.7646,399.7061)"><path
             d="m 0,0 v -58.52 c 0,-8.637 -6.993,-15.631 -15.631,-15.631 h -134.788 c -8.626,0 -15.631,6.994 -15.631,15.631 V 0 c 0,8.637 7.005,15.642 15.631,15.642 H -15.631 C -6.993,15.642 0,8.637 0,0 Z"
             style="fill:none;stroke:#1c1c1b;stroke-width:1.103;stroke-linecap:butt;stroke-linejoin:miter;stroke-miterlimit:10;stroke-dasharray:none;stroke-opacity:1"
             id="path242" /></g><g
           id="g244"
           transform="translate(375.7646,399.7061)"><path
             d="M 0,0 V -1.335 H -166.05 V 0 c 0,8.637 7.005,15.642 15.631,15.642 H -15.631 C -6.993,15.642 0,8.637 0,0"
             style="fill:#5ae4a7;fill-opacity:1;fill-rule:nonzero;stroke:none"
             id="path246" /></g><g
           id="g248"
           transform="translate(375.7646,399.7061)"><path
             d="M 0,0 V -1.335 H -166.05 V 0 c 0,8.637 7.005,15.642 15.631,15.642 H -15.631 C -6.993,15.642 0,8.637 0,0 Z"
             style="fill:none;stroke:#1a2e35;stroke-width:1.103;stroke-linecap:butt;stroke-linejoin:miter;stroke-miterlimit:10;stroke-dasharray:none;stroke-opacity:1"
             id="path250" /></g><g
           id="g252"
           transform="translate(234.1089,404.0635)"><path
             d="m 0,0 c -0.935,-0.935 -2.451,-0.935 -3.386,0 -0.935,0.935 -0.935,2.451 0,3.386 0.935,0.935 2.451,0.935 3.386,0 C 0.935,2.451 0.935,0.935 0,0"
             style="fill:#1a2e35;fill-opacity:1;fill-rule:nonzero;stroke:none"
             id="path254" /></g><g
           id="g256"
           transform="translate(245.2285,404.0635)"><path
             d="m 0,0 c -0.935,-0.935 -2.451,-0.935 -3.386,0 -0.935,0.935 -0.935,2.451 0,3.386 0.935,0.935 2.451,0.935 3.386,0 C 0.935,2.451 0.935,0.935 0,0"
             style="fill:#1a2e35;fill-opacity:1;fill-rule:nonzero;stroke:none"
             id="path258" /></g><g
           id="g260"
           transform="translate(256.3486,404.0635)"><path
             d="m 0,0 c -0.935,-0.935 -2.451,-0.935 -3.386,0 -0.934,0.935 -0.934,2.451 0,3.386 0.935,0.935 2.451,0.935 3.386,0 C 0.936,2.451 0.936,0.935 0,0"
             style="fill:#1a2e35;fill-opacity:1;fill-rule:nonzero;stroke:none"
             id="path262" /></g><path
           d="m 274.581,340.692 h -54.278 v 46.918 h 54.278 z"
           style="fill:none;stroke:#1a2e35;stroke-width:1.103;stroke-linecap:round;stroke-linejoin:round;stroke-miterlimit:10;stroke-dasharray:4.412;stroke-dashoffset:0;stroke-opacity:1"
           id="path264" /><path
           d="m 345.423,384.315 h -62.468 v 3.295 h 62.468 z"
           style="fill:#1a2e35;fill-opacity:1;fill-rule:nonzero;stroke:none"
           id="path266" /><path
           d="m 330.872,377.482 h -47.917 v 3.295 h 47.917 z"
           style="fill:#1a2e35;fill-opacity:1;fill-rule:nonzero;stroke:none"
           id="path268" /><path
           d="m 354.309,370.649 h -71.354 v 3.334 h 71.354 z"
           style="fill:#1a2e35;fill-opacity:1;fill-rule:nonzero;stroke:none"
           id="path270" /><path
           d="m 343.714,364.011 h -60.759 v 3.334 h 60.759 z"
           style="fill:#1a2e35;fill-opacity:1;fill-rule:nonzero;stroke:none"
           id="path272" /></g></g><g
       id="g274"><g
         id="g276"
         clip-path="url(#clipPath280)"><g
           id="g282"
           transform="translate(296.8633,59.5342)"><path
             d="m 0,0 c 0,0 -29.001,-8.317 -33.049,-9.751 -3.684,-1.302 -13.667,-4.799 -21.158,-3.718 -0.739,0.111 -1.456,0.265 -2.14,0.464 -7.589,2.261 -10.998,4.368 -11.99,9.145 -1.004,4.787 2.779,8.284 6.42,10.535 3.64,2.25 23.386,4.599 23.386,4.599 l 4.765,-1.401 h 0.011 z"
             style="fill:#5ae4a7;fill-opacity:1;fill-rule:nonzero;stroke:none"
             id="path284" /></g><g
           id="g286"
           transform="translate(242.6567,46.0654)"><path
             d="m 0,0 c -0.739,0.11 -1.456,0.265 -2.14,0.464 -7.589,2.261 -10.998,4.368 -11.991,9.144 -1.004,4.788 2.78,8.285 6.42,10.536 3.64,2.25 23.386,4.599 23.386,4.599 l 4.766,-1.401 C 16.127,21.356 0.044,20.253 -3.464,18.234 -6.972,16.216 -8.67,12.41 -6.597,7.27 -5.494,4.534 -2.537,1.887 0,0"
             style="fill:#ffffff;fill-opacity:1;fill-rule:nonzero;stroke:none"
             id="path288" /></g><g
           id="g290"
           transform="translate(292.5,58.3525)"><path
             d="m 0,0 c 0,0 -21.78,-5.644 -30.416,-9.256 -8.636,-3.611 -25.114,-5.191 -30.983,2.258 -5.869,7.449 -0.677,13.857 5.192,15.28 5.869,1.424 17.737,3.681 24.218,2.779"
             style="fill:none;stroke:#1a2e35;stroke-width:1.103;stroke-linecap:round;stroke-linejoin:round;stroke-miterlimit:10;stroke-dasharray:none;stroke-opacity:1"
             id="path292" /></g><g
           id="g294"
           transform="translate(243.0937,46.4619)"><path
             d="m 0,0 c 0,0 -11.082,6.076 -7.402,14.593 2.715,6.285 17.499,4.923 24.819,8.358"
             style="fill:none;stroke:#1a2e35;stroke-width:1.103;stroke-linecap:round;stroke-linejoin:round;stroke-miterlimit:10;stroke-dasharray:none;stroke-opacity:1"
             id="path296" /></g><g
           id="g298"
           transform="translate(385.1885,44.7197)"><path
             d="m 0,0 c -0.297,-2.967 -1.346,-5.813 -4.346,-7.578 -1.997,-1.181 -4.842,-1.886 -8.913,-1.842 -10.171,0.132 -29.287,7.401 -29.287,7.401 l -17.903,9.895 9.309,14.738 2.549,4.037 6.585,-1.478 c 0,0 5.449,-3.089 10.932,-5.548 5.482,-2.461 18.786,-2.979 23.474,-6.773 C -2.912,9.067 0.508,4.942 0,0"
             style="fill:#5ae4a7;fill-opacity:1;fill-rule:nonzero;stroke:none"
             id="path300" /></g><g
           id="g302"
           transform="translate(385.1885,44.7197)"><path
             d="m 0,0 c -0.297,-2.967 -1.346,-5.813 -4.346,-7.578 0.563,2.306 1.026,5.493 -0.508,8.935 -1.985,4.49 -8.504,8.45 -17.064,9.112 -8.55,0.662 -15.113,4.666 -18.544,6.453 -2.68,1.39 -8.328,4.424 -10.678,5.692 l 2.549,4.037 6.585,-1.478 c 0,0 5.449,-3.089 10.932,-5.548 5.482,-2.461 18.786,-2.979 23.474,-6.773 C -2.912,9.067 0.508,4.942 0,0"
             style="fill:#ffffff;fill-opacity:1;fill-rule:nonzero;stroke:none"
             id="path304" /></g><g
           id="g306"
           transform="translate(328.7061,49.8223)"><path
             d="m 0,0 c 12.745,-7.302 27.321,-12.559 41.904,-14.314 3.256,-0.393 7.046,-0.448 9.228,2.001 1.216,1.364 1.66,3.293 1.504,5.115 C 52.24,-2.603 48.377,1.042 44.139,2.863 39.9,4.685 35.22,5.12 30.719,6.129 26.237,7.134 21.887,8.726 17.814,10.85 14.579,12.538 11.446,14.589 7.876,15.345 4.305,16.101 0.052,15.184 -1.853,12.07"
             style="fill:none;stroke:#1a2e35;stroke-width:1.103;stroke-linecap:round;stroke-linejoin:round;stroke-miterlimit:10;stroke-dasharray:none;stroke-opacity:1"
             id="path308" /></g><g
           id="g310"
           transform="translate(378.6436,36.2607)"><path
             d="m 0,0 c 3.295,1.691 6,4.797 6.549,8.46 0.649,4.332 -1.819,8.686 -5.295,11.352 -3.477,2.665 -7.819,3.916 -12.108,4.807 -4.29,0.892 -8.675,1.49 -12.756,3.085 -6.274,2.45 -12.46,7.292 -18.97,5.565"
             style="fill:none;stroke:#1a2e35;stroke-width:1.103;stroke-linecap:round;stroke-linejoin:round;stroke-miterlimit:10;stroke-dasharray:none;stroke-opacity:1"
             id="path312" /></g><g
           id="g314"
           transform="translate(343.2266,133.7402)"><path
             d="m 0,0 c -1.048,-0.54 3.012,10.712 1.081,13.26 -1.931,2.559 -7.71,2.305 -7.71,2.305 l 0.496,3.078 c 0.067,0.342 3.431,17.594 3.431,17.594 l 1.136,1.357 c 0,0 11.781,-20.198 13.888,-27.313 C 12.322,10.281 -0.519,0 0,0 m -76.158,14.87 c -2.229,-1.577 -1.037,-7.699 -1.037,-7.699 l -3.795,3.342 9.52,23.408 4.06,-17.97 c 0,0 -6.52,0.486 -8.748,-1.081 m 81.84,56.126 -30.292,11.527 -0.375,0.144 c 0,0 0.11,0.806 0.199,1.975 0.187,2.416 0.286,6.353 -0.85,7.688 -1.687,1.975 -6.475,0.32 -11.141,2.46 -4.666,2.141 -13.304,-1.687 -13.304,-1.687 0,0 -6.232,1.147 -8.979,-3.354 -1.401,-3.629 -0.916,-9.034 -0.916,-9.034 0,0 -0.198,-0.077 -0.573,-0.21 -3.607,-1.346 -23.243,-8.736 -27.401,-11.704 -4.59,-3.254 -9.664,-36.623 -11.296,-46.418 -1.633,-9.807 -4.534,-18.632 -3.056,-22.007 1.468,-3.365 22.57,-19.614 34.704,-23.806 12.134,-4.203 55.188,-2.967 55.188,-2.967 0,0 0.706,0.188 1.953,0.585 7.28,2.338 33.115,11.968 46.815,34.681 0,0 -13.27,43.528 -30.676,62.127"
             style="fill:#5ae4a7;fill-opacity:1;fill-rule:nonzero;stroke:none"
             id="path316" /></g><g
           id="g318"
           transform="translate(291.7148,277.7461)"><path
             d="m 0,0 -15.633,-16.599 c 0,0 -2.156,-1.905 -1.3,-6.72 0.858,-4.816 2.853,-8.952 4.36,-9.273 1.508,-0.321 3.62,-0.324 3.62,-0.324 0,0 3.35,-7.261 5.724,-10.114 0,0 0.827,-11.206 0.385,-14.318 0,0 5.617,-4.907 10.907,-5.53 5.291,-0.624 13.465,7.482 13.465,7.482 l 2.027,9.923 c 0,0 4.796,7.281 5.123,9.218 0.327,1.939 2.519,1.442 3.596,2.398 1.078,0.955 3.572,5.232 3.984,9.272 0.411,4.04 0.44,8.681 -4.253,7.318 -4.067,1.093 -1.521,9.69 -1.521,9.69 l -7.146,6.305 z"
             style="fill:#ffffff;fill-opacity:1;fill-rule:nonzero;stroke:none"
             id="path320" /></g><g
           id="g322"><g
             id="g324" /><g
             id="g336"><g
               clip-path="url(#clipPath328)"
               opacity="0.5"
               id="g334"><g
                 transform="translate(318.6162,216.2637)"
                 id="g332"><path
                   d="m 0,0 c -0.242,-0.64 -0.507,-1.246 -0.805,-1.809 -2.581,-4.865 -13.822,-14.13 -13.822,-14.13 l -3.397,10.446 -1.865,-10.446 c -3.751,1.632 -15.189,11.549 -15.189,11.549 0,0 -0.387,0.926 -0.86,2.371 0.375,0.133 0.573,0.21 0.573,0.21 0,0 -0.486,5.406 0.916,9.035 2.746,4.501 8.978,3.353 8.978,3.353 0,0 8.638,3.828 13.304,1.688 4.666,-2.14 9.454,-0.486 11.142,-2.46 1.687,-1.975 0.65,-9.663 0.65,-9.663 z"
                   style="fill:#ffffff;fill-opacity:1;fill-rule:nonzero;stroke:none"
                   id="path330" /></g></g></g></g><g
           id="g338"><g
             id="g340" /><g
             id="g352"><g
               clip-path="url(#clipPath344)"
               opacity="0.199997"
               id="g350"><g
                 transform="translate(343.2266,133.7402)"
                 id="g348"><path
                   d="m 0,0 c -1.048,-0.54 3.012,10.712 1.081,13.26 -1.931,2.559 -7.71,2.305 -7.71,2.305 l 0.496,3.078 c 0.067,0.342 3.431,17.594 3.431,17.594 l 1.136,1.357 c 0,0 11.781,-20.198 13.888,-27.313 C 12.322,10.281 -0.519,0 0,0 m 5.682,70.996 -30.292,11.527 -0.375,0.144 c 0,0 0.11,0.806 0.199,1.975 l -0.629,-3.927 -4.479,-6.089 c 0,0 7.575,-2.733 13.977,-6.161 4.451,-2.383 7.009,-7.23 6.422,-12.245 l -5.584,-47.747 -2.283,-27.115 6.905,-7.17 c 7.28,2.338 33.115,11.968 46.815,34.681 0,0 -13.27,43.528 -30.676,62.127"
                   style="fill:#000000;fill-opacity:1;fill-rule:nonzero;stroke:none"
                   id="path346" /></g></g></g></g><g
           id="g354"><g
             id="g356" /><g
             id="g368"><g
               clip-path="url(#clipPath360)"
               opacity="0.199997"
               id="g366"><g
                 transform="translate(266.0312,140.9111)"
                 id="g364"><path
                   d="M 0,0 -3.795,3.342 5.726,26.75 9.785,8.78 c 0,0 -6.519,0.486 -8.748,-1.081 C -1.191,6.122 0,0 0,0 M 11.837,6.089 7.126,21.83 c 0,0 -8.444,28.804 -14.236,35.908 l 1.522,-20.257 c 0,0 -4.969,-24.2 -9.568,-31.392 -4.6,-7.182 -5.593,-8.98 0,-8.98 5.603,0 19.194,-10.843 19.194,-10.843 l -1.049,9.046 z"
                   style="fill:#000000;fill-opacity:1;fill-rule:nonzero;stroke:none"
                   id="path362" /></g></g></g></g><g
           id="g370"
           transform="translate(288.4854,234.7158)"><path
             d="M 0,0 C 0,0 0.869,-8.487 0,-12.365"
             style="fill:none;stroke:#1a2e35;stroke-width:1.103;stroke-linecap:round;stroke-linejoin:round;stroke-miterlimit:10;stroke-dasharray:none;stroke-opacity:1"
             id="path372" /></g><g
           id="g374"
           transform="translate(314.1084,223.4873)"><path
             d="M 0,0 C 0,0 -0.05,4.136 0.944,8.109"
             style="fill:none;stroke:#1a2e35;stroke-width:1.103;stroke-linecap:round;stroke-linejoin:round;stroke-miterlimit:10;stroke-dasharray:none;stroke-opacity:1"
             id="path376" /></g><g
           id="g378"
           transform="translate(316.3818,271.4175)"><path
             d="M 0,0 C 0,0 5.136,-6.452 4.872,-11.324 4.609,-16.196 4.214,-21.99 4.346,-27.652 4.478,-33.314 -4.74,-45.165 -9.48,-46.218 c -4.741,-1.053 -8.823,-1.317 -11.851,1.712 -3.028,3.028 -6.058,7.242 -10.008,12.64 -3.95,5.4 -3.028,17.25 -3.028,17.25"
             style="fill:none;stroke:#1a2e35;stroke-width:1.103;stroke-linecap:round;stroke-linejoin:round;stroke-miterlimit:10;stroke-dasharray:none;stroke-opacity:1"
             id="path380" /></g><g
           id="g382"
           transform="translate(304.0215,252.2861)"><path
             d="m 0,0 c -0.314,-1.77 -0.448,-3.57 -0.4,-5.367 0.04,-1.504 0.263,-3.13 1.317,-4.204 0.567,-0.578 1.392,-1.042 1.5,-1.845 0.096,-0.713 -0.449,-1.36 -1.056,-1.748 -0.605,-0.388 -1.308,-0.628 -1.85,-1.1"
             style="fill:none;stroke:#1a2e35;stroke-width:1.103;stroke-linecap:round;stroke-linejoin:round;stroke-miterlimit:10;stroke-dasharray:none;stroke-opacity:1"
             id="path384" /></g><g
           id="g386"
           transform="translate(295.8662,237.3965)"><path
             d="M 0,0 C 0,0 0.594,-3.827 5.727,-4.628"
             style="fill:none;stroke:#1a2e35;stroke-width:1.103;stroke-linecap:round;stroke-linejoin:round;stroke-miterlimit:10;stroke-dasharray:none;stroke-opacity:1"
             id="path388" /></g><g
           id="g390"
           transform="translate(296.4004,249.3677)"><path
             d="m 0,0 c 0,-1.106 -0.479,-2.002 -1.068,-2.002 -0.59,0 -1.068,0.896 -1.068,2.002 0,1.106 0.478,2.003 1.068,2.003 C -0.479,2.003 0,1.106 0,0"
             style="fill:#1a2e35;fill-opacity:1;fill-rule:nonzero;stroke:none"
             id="path392" /></g><g
           id="g394"
           transform="translate(311.71,248.8867)"><path
             d="m 0,0 c 0,-1.106 -0.479,-2.003 -1.068,-2.003 -0.59,0 -1.069,0.897 -1.069,2.003 0,1.106 0.479,2.002 1.069,2.002 C -0.479,2.002 0,1.106 0,0"
             style="fill:#1a2e35;fill-opacity:1;fill-rule:nonzero;stroke:none"
             id="path396" /></g><g
           id="g398"
           transform="translate(308.6211,253.7354)"><path
             d="M 0,0 C 0,0 4.978,4.978 9.189,-0.575"
             style="fill:none;stroke:#1a2e35;stroke-width:2.206;stroke-linecap:round;stroke-linejoin:round;stroke-miterlimit:10;stroke-dasharray:none;stroke-opacity:1"
             id="path400" /></g><g
           id="g402"
           transform="translate(298.0908,253.6396)"><path
             d="M 0,0 C 0,0 -3.158,3.542 -8.137,0"
             style="fill:none;stroke:#1a2e35;stroke-width:2.206;stroke-linecap:round;stroke-linejoin:round;stroke-miterlimit:10;stroke-dasharray:none;stroke-opacity:1"
             id="path404" /></g><g
           id="g406"
           transform="translate(288.8711,230.0518)"><path
             d="m 0,0 c 0,0 3.049,-8.404 9.858,-10.787 6.81,-2.384 15.851,9.986 15.851,9.986 l -0.473,1.609 c 0,0 -5.924,-7.698 -12.514,-6.385 C 6.131,-4.265 -0.386,4.664 -0.386,4.664 Z"
             style="fill:#1a2e35;fill-opacity:1;fill-rule:nonzero;stroke:none"
             id="path408" /></g><g
           id="g410"
           transform="translate(282.7617,245.1543)"><path
             d="m 0,0 c 0,0 -4.059,-1.434 -5.138,1.729 -1.08,3.164 -4.78,11.489 -1.542,14.264 3.238,2.775 5.84,-3.664 5.84,-3.664"
             style="fill:none;stroke:#1a2e35;stroke-width:1.103;stroke-linecap:round;stroke-linejoin:round;stroke-miterlimit:10;stroke-dasharray:none;stroke-opacity:1"
             id="path412" /></g><g
           id="g414"
           transform="translate(320.7197,243.4297)"><path
             d="M 0,0 C 0,0 3.772,-0.759 4.853,2.404 5.932,5.567 9.632,13.893 6.394,16.668 3.156,19.443 0.555,13.004 0.555,13.004"
             style="fill:none;stroke:#1a2e35;stroke-width:1.103;stroke-linecap:round;stroke-linejoin:round;stroke-miterlimit:10;stroke-dasharray:none;stroke-opacity:1"
             id="path416" /></g><g
           id="g418"
           transform="translate(281.9219,249.3677)"><path
             d="m 0,0 c 1.124,0.051 2.969,1.147 3.562,2.104 0.591,0.958 0.842,2.083 1.035,3.192 0.368,2.124 0.556,4.279 0.564,6.434 0.003,0.843 -0.019,1.702 0.226,2.508 0.257,0.839 0.788,1.565 1.357,2.232 1.417,1.66 3.122,3.063 4.47,4.78 1.347,1.717 2.336,3.892 1.973,6.043 0,0 9.205,-8.414 22.473,-5.812 7.144,1.401 14,7.67 13.165,15.549 -0.297,2.804 -2.357,4.82 -5.033,5.486 -3.531,0.878 -6.704,-1.005 -9.903,-2.211 -5.833,-2.2 -11.54,1.577 -17.433,2.211 -5.04,0.542 -11.226,-0.083 -13.85,-5.094 0,0 -9.052,-1.063 -13.017,-8.498 -3.966,-7.435 3.572,-17.728 3.572,-17.728 0,0 3.033,3.673 6.932,-3.762 z"
             style="fill:#1a2e35;fill-opacity:1;fill-rule:nonzero;stroke:none"
             id="path420" /></g><g
           id="g422"
           transform="translate(316.9521,273.3188)"><path
             d="m 0,0 c 0,0 -2.341,-12.198 3.768,-18.105 0,0 1.336,3.667 2.692,4.562 0,0 3.399,6.445 -1.07,13.543 C 0.921,7.099 0,0 0,0"
             style="fill:#1a2e35;fill-opacity:1;fill-rule:nonzero;stroke:none"
             id="path424" /></g><g
           id="g426"><g
             id="g428" /><g
             id="g440"><g
               clip-path="url(#clipPath432)"
               opacity="0.199997"
               id="g438"><g
                 transform="translate(328.1416,287.2012)"
                 id="g436"><path
                   d="m 0,0 c -0.903,-3.362 -3.746,-5.963 -6.97,-7.276 -8.48,-3.454 -16.717,0.377 -25.207,1.127 -6.939,0.613 -14.588,-5.639 -15.072,-12.762"
                   style="fill:none;stroke:#ffffff;stroke-width:1.103;stroke-linecap:round;stroke-linejoin:round;stroke-miterlimit:10;stroke-dasharray:none;stroke-opacity:1"
                   id="path434" /></g></g></g></g><g
           id="g442"><g
             id="g444" /><g
             id="g456"><g
               clip-path="url(#clipPath448)"
               opacity="0.199997"
               id="g454"><g
                 transform="translate(275.626,270.1689)"
                 id="g452"><path
                   d="M 0,0 C 0.128,5.608 3.833,10.975 9.032,13.082"
                   style="fill:none;stroke:#ffffff;stroke-width:1.103;stroke-linecap:round;stroke-linejoin:round;stroke-miterlimit:10;stroke-dasharray:none;stroke-opacity:1"
                   id="path450" /></g></g></g></g><g
           id="g458"
           transform="translate(286.5293,223.4873)"><path
             d="m 0,0 c 0,0 5.587,-6.156 13.206,-9.034 0,0 10.15,2.943 15.317,10.021"
             style="fill:none;stroke:#1a2e35;stroke-width:1.103;stroke-linecap:round;stroke-linejoin:round;stroke-miterlimit:10;stroke-dasharray:none;stroke-opacity:1"
             id="path460" /></g><g
           id="g462"
           transform="translate(302.1299,249.3677)"><path
             d="m 0,0 c 0,-4.961 -4.021,-8.983 -8.982,-8.983 -4.962,0 -8.984,4.022 -8.984,8.983 0,4.961 4.022,8.983 8.984,8.983 C -4.021,8.983 0,4.961 0,0 Z"
             style="fill:none;stroke:#1a2e35;stroke-width:1.103;stroke-linecap:round;stroke-linejoin:round;stroke-miterlimit:10;stroke-dasharray:none;stroke-opacity:1"
             id="path464" /></g><g
           id="g466"
           transform="translate(322.1992,249.3677)"><path
             d="m 0,0 c 0,-4.961 -4.022,-8.983 -8.983,-8.983 -4.961,0 -8.983,4.022 -8.983,8.983 0,4.961 4.022,8.983 8.983,8.983 C -4.022,8.983 0,4.961 0,0 Z"
             style="fill:none;stroke:#1a2e35;stroke-width:1.103;stroke-linecap:round;stroke-linejoin:round;stroke-miterlimit:10;stroke-dasharray:none;stroke-opacity:1"
             id="path468" /></g><g
           id="g470"
           transform="translate(288.4854,226.8379)"><path
             d="m 0,0 c 0,0 -2.731,-0.553 -4.321,-3.351 -1.59,-2.797 -0.631,-11.609 -0.631,-11.609 0,0 8.207,-8.122 15.196,-11.549 l 2.062,11.594 3.2,-11.594 c 0,0 10.823,7.655 13.819,14.124 0,0 0.978,7.544 0,10.022 C 28.349,0.114 26.095,0 26.095,0"
             style="fill:none;stroke:#1a2e35;stroke-width:1.103;stroke-linecap:round;stroke-linejoin:round;stroke-miterlimit:10;stroke-dasharray:none;stroke-opacity:1"
             id="path472" /></g><g
           id="g474"
           transform="translate(275.626,149.3027)"><path
             d="M 0,0 C 0,0 -3.204,21.495 -7.475,30.265"
             style="fill:none;stroke:#1a2e35;stroke-width:1.103;stroke-linecap:round;stroke-linejoin:round;stroke-miterlimit:10;stroke-dasharray:none;stroke-opacity:1"
             id="path476" /></g><g
           id="g478"
           transform="translate(258.9209,198.6494)"><path
             d="M 0,0 C 0,0 4.056,-5.685 6.64,-11.111"
             style="fill:none;stroke:#1a2e35;stroke-width:1.103;stroke-linecap:round;stroke-linejoin:round;stroke-miterlimit:10;stroke-dasharray:none;stroke-opacity:1"
             id="path480" /></g><g
           id="g482"
           transform="translate(343.2275,182.6016)"><path
             d="M 0,0 C 1.129,4.282 2.329,8.039 3.528,10.492"
             style="fill:none;stroke:#1a2e35;stroke-width:1.103;stroke-linecap:round;stroke-linejoin:round;stroke-miterlimit:10;stroke-dasharray:none;stroke-opacity:1"
             id="path484" /></g><g
           id="g486"
           transform="translate(336.5957,149.3027)"><path
             d="M 0,0 C 0,0 2.314,14.735 5.069,26.881"
             style="fill:none;stroke:#1a2e35;stroke-width:1.103;stroke-linecap:round;stroke-linejoin:round;stroke-miterlimit:10;stroke-dasharray:none;stroke-opacity:1"
             id="path488" /></g><g
           id="g490"
           transform="translate(340.5205,169.9824)"><path
             d="M 0,0 C 2.205,2.942 5.4,5.128 8.942,6.114"
             style="fill:none;stroke:#1a2e35;stroke-width:1.103;stroke-linecap:round;stroke-linejoin:round;stroke-miterlimit:10;stroke-dasharray:none;stroke-opacity:1"
             id="path492" /></g><g
           id="g494"
           transform="translate(318.2451,216.4082)"><path
             d="m 0,0 c 0,0 18.639,-7.445 30.668,-11.674 0,0 14.8,-13.918 30.667,-62.126 0,0 -14.545,-24.46 -42.2,-32.302"
             style="fill:none;stroke:#1a2e35;stroke-width:1.103;stroke-linecap:round;stroke-linejoin:round;stroke-miterlimit:10;stroke-dasharray:none;stroke-opacity:1"
             id="path496" /></g><g
           id="g498"
           transform="translate(342.1836,132.8652)"><path
             d="m 0,0 13.362,11.157 c 0,0 7.07,5.372 14.421,1.697"
             style="fill:none;stroke:#1a2e35;stroke-width:1.103;stroke-linecap:round;stroke-linejoin:round;stroke-miterlimit:10;stroke-dasharray:none;stroke-opacity:1"
             id="path500" /></g><g
           id="g502"
           transform="translate(341.665,171.3311)"><path
             d="M 0,0 C 0,0 11.054,-16.281 13.881,-27.309"
             style="fill:none;stroke:#1a2e35;stroke-width:1.103;stroke-linecap:round;stroke-linejoin:round;stroke-miterlimit:10;stroke-dasharray:none;stroke-opacity:1"
             id="path504" /></g><g
           id="g506"
           transform="translate(266.1514,140.2939)"><path
             d="m 0,0 -3.91,3.729 c 0,0 -5.806,1.014 -12.379,-3.392"
             style="fill:none;stroke:#1a2e35;stroke-width:1.103;stroke-linecap:round;stroke-linejoin:round;stroke-miterlimit:10;stroke-dasharray:none;stroke-opacity:1"
             id="path508" /></g><g
           id="g510"
           transform="translate(262.2412,144.0225)"><path
             d="M 0,0 C 0,0 4.856,15.954 9.647,24.19"
             style="fill:none;stroke:#1a2e35;stroke-width:1.103;stroke-linecap:round;stroke-linejoin:round;stroke-miterlimit:10;stroke-dasharray:none;stroke-opacity:1"
             id="path512" /></g><g
           id="g514"
           transform="translate(283.2471,214.4531)"><path
             d="m 0,0 c 0,0 -26.812,-10.06 -29.44,-12.989 -2.629,-2.93 -12.62,-59.198 -12.883,-65.637 -0.235,-5.756 20.648,-18.689 30.965,-24.141"
             style="fill:none;stroke:#1a2e35;stroke-width:1.103;stroke-linecap:round;stroke-linejoin:round;stroke-miterlimit:10;stroke-dasharray:none;stroke-opacity:1"
             id="path516" /></g><g
           id="g518"
           transform="translate(380.3105,223.4873)"><path
             d="m 0,0 h -30.551 c -3.607,0 -6.532,2.925 -6.532,6.532 v 17.923 c 0,3.607 2.925,6.531 6.532,6.531 H 0 c 3.607,0 6.532,-2.924 6.532,-6.531 V 6.532 C 6.532,2.925 3.607,0 0,0"
             style="fill:#ffffff;fill-opacity:1;fill-rule:nonzero;stroke:none"
             id="path520" /></g><g
           id="g522"
           transform="translate(380.3105,223.4873)"><path
             d="m 0,0 h -30.551 c -3.607,0 -6.532,2.925 -6.532,6.532 v 17.923 c 0,3.607 2.925,6.531 6.532,6.531 H 0 c 3.607,0 6.532,-2.924 6.532,-6.531 V 6.532 C 6.532,2.925 3.607,0 0,0 Z"
             style="fill:none;stroke:#1a2e35;stroke-width:1.103;stroke-linecap:round;stroke-linejoin:round;stroke-miterlimit:10;stroke-dasharray:none;stroke-opacity:1"
             id="path524" /></g><g
           id="g526"
           transform="translate(357.2998,245.1543)"><path
             d="m 0,0 -8.387,-5.265 7.783,-6.903"
             style="fill:none;stroke:#1a2e35;stroke-width:1.103;stroke-linecap:round;stroke-linejoin:round;stroke-miterlimit:10;stroke-dasharray:none;stroke-opacity:1"
             id="path528" /></g><g
           id="g530"
           transform="translate(372.582,232.4854)"><path
             d="m 0,0 7.537,6.423 -8.7,5.704"
             style="fill:none;stroke:#1a2e35;stroke-width:1.103;stroke-linecap:round;stroke-linejoin:round;stroke-miterlimit:10;stroke-dasharray:none;stroke-opacity:1"
             id="path532" /></g><g
           id="g534"
           transform="translate(361.377,228.5332)"><path
             d="M 0,0 6.191,19.413"
             style="fill:none;stroke:#1a2e35;stroke-width:1.103;stroke-linecap:round;stroke-linejoin:round;stroke-miterlimit:10;stroke-dasharray:none;stroke-opacity:1"
             id="path536" /></g><g
           id="g538"
           transform="translate(303.2959,195.4443)"><path
             d="m 0,0 c 0,-0.975 -0.789,-1.764 -1.764,-1.764 -0.973,0 -1.762,0.789 -1.762,1.764 0,0.974 0.789,1.763 1.762,1.763 C -0.789,1.763 0,0.974 0,0"
             style="fill:#1a2e35;fill-opacity:1;fill-rule:nonzero;stroke:none"
             id="path540" /></g><g
           id="g542"
           transform="translate(334.3203,101.2236)"><path
             d="m 0,0 h -61.019 c -0.789,0 -1.429,0.641 -1.429,1.431 0,0.79 0.64,1.43 1.429,1.43 L 0,2.861 c 0.79,0 1.43,-0.64 1.43,-1.43 C 1.43,0.641 0.79,0 0,0"
             style="fill:#1a2e35;fill-opacity:1;fill-rule:nonzero;stroke:none"
             id="path544" /></g><g
           id="g546"
           transform="translate(336.4561,105.9658)"><path
             d="m 0,0 8.177,38.399 c 0.541,2.542 -1.398,4.938 -3.997,4.938 h -71.291 c -2.575,0 -4.508,-2.353 -4.009,-4.878 l 7.331,-37.121 c 0.371,-1.881 1.999,-3.25 3.915,-3.294 L -4.091,-3.233 C -2.127,-3.278 -0.409,-1.921 0,0"
             style="fill:#ffffff;fill-opacity:1;fill-rule:nonzero;stroke:none"
             id="path548" /></g><g
           id="g550"
           transform="translate(336.4561,105.9658)"><path
             d="m 0,0 8.177,38.399 c 0.541,2.542 -1.398,4.938 -3.997,4.938 h -71.291 c -2.575,0 -4.508,-2.353 -4.009,-4.878 l 7.331,-37.121 c 0.371,-1.881 1.999,-3.25 3.915,-3.294 L -4.091,-3.233 C -2.127,-3.278 -0.409,-1.921 0,0 Z"
             style="fill:none;stroke:#1a2e35;stroke-width:1.103;stroke-linecap:round;stroke-linejoin:round;stroke-miterlimit:10;stroke-dasharray:none;stroke-opacity:1"
             id="path552" /></g><g
           id="g554"
           transform="translate(310.4395,127.1738)"><path
             d="m 0,0 c 0,-3.144 -2.549,-5.691 -5.692,-5.691 -3.143,0 -5.692,2.547 -5.692,5.691 0,3.144 2.549,5.691 5.692,5.691 C -2.549,5.691 0,3.144 0,0"
             style="fill:#1a2e35;fill-opacity:1;fill-rule:nonzero;stroke:none"
             id="path556" /></g><g
           id="g558"
           transform="translate(321.625,145.6582)"><path
             d="M 0,0 H 8.471"
             style="fill:none;stroke:#1a2e35;stroke-width:1.103;stroke-linecap:round;stroke-linejoin:round;stroke-miterlimit:10;stroke-dasharray:none;stroke-opacity:1"
             id="path560" /></g><g
           id="g562"
           transform="translate(281.1758,145.6582)"><path
             d="M 0,0 H 32.152"
             style="fill:none;stroke:#1a2e35;stroke-width:1.103;stroke-linecap:round;stroke-linejoin:round;stroke-miterlimit:10;stroke-dasharray:none;stroke-opacity:1"
             id="path564" /></g><g
           id="g566"
           transform="translate(336.5957,65.2295)"><path
             d="m 0,0 -6.5,-17.059 c 0,0 -16.572,4.178 -37.808,8.53 -22.204,4.55 -45.394,10.44 -57.424,31.545 -1.467,2.573 -2.442,5.613 -1.756,8.494 1.736,7.29 11.219,9.268 17.47,9.998 3.923,0.458 7.883,0.61 11.83,0.665 2.013,0.028 8.652,1.083 10.259,-0.099 0,-10e-4 4.166,-3.066 7.716,-4.573 3.55,-1.507 55.367,1.354 55.367,1.354 0,0 1.541,3.253 1.63,6.222 8.146,4.14 27.007,7.647 34.977,6.098 C 48.293,48.737 55.604,41.427 54.211,33.769 52.818,26.109 25.162,5.57 0,0"
             style="fill:#1a2e35;fill-opacity:1;fill-rule:nonzero;stroke:none"
             id="path568" /></g><g
           id="g570"
           transform="translate(336.5957,65.2295)"><path
             d="m 0,0 c 0,0 -15.762,4.178 -28.643,12.881 -12.88,8.703 -22.943,18.799 -40.888,16.71"
             style="fill:none;stroke:#ffffff;stroke-width:1.103;stroke-linecap:round;stroke-linejoin:round;stroke-miterlimit:10;stroke-dasharray:none;stroke-opacity:1"
             id="path572" /></g><g
           id="g574"
           transform="translate(304.9902,80.1631)"><path
             d="m 0,0 c 8.136,2.342 14.107,7.604 20.636,12.657 6.915,5.355 14.228,10.539 22.093,14.518"
             style="fill:none;stroke:#ffffff;stroke-width:1.103;stroke-linecap:round;stroke-linejoin:round;stroke-miterlimit:10;stroke-dasharray:none;stroke-opacity:1"
             id="path576" /></g><g
           id="g578"
           transform="translate(302.1299,247.9463)"><path
             d="M 0,0 H 2.387"
             style="fill:none;stroke:#1a2e35;stroke-width:1.103;stroke-linecap:round;stroke-linejoin:round;stroke-miterlimit:10;stroke-dasharray:none;stroke-opacity:1"
             id="path580" /></g></g></g></g></svg>
