<?xml version="1.0" encoding="UTF-8" standalone="no"?>
<!-- Created with Inkscape (http://www.inkscape.org/) -->

<svg
   version="1.1"
   id="svg2"
   xml:space="preserve"
   width="666.66669"
   height="666.66669"
   viewBox="0 0 666.66669 666.66669"
   sodipodi:docname="resume6.svg"
   inkscape:version="1.1.1 (3bf5ae0d25, 2021-09-20)"
   xmlns:inkscape="http://www.inkscape.org/namespaces/inkscape"
   xmlns:sodipodi="http://sodipodi.sourceforge.net/DTD/sodipodi-0.dtd"
   xmlns="http://www.w3.org/2000/svg"
   xmlns:svg="http://www.w3.org/2000/svg"><defs
     id="defs6"><clipPath
       clipPathUnits="userSpaceOnUse"
       id="clipPath18"><path
         d="M 0,500 H 500 V 0 H 0 Z"
         id="path16" /></clipPath><clipPath
       clipPathUnits="userSpaceOnUse"
       id="clipPath82"><path
         d="M 31.6182,127.382 H 448.618 v -5.191 H 31.6182 Z"
         id="path80" /></clipPath><clipPath
       clipPathUnits="userSpaceOnUse"
       id="clipPath116"><path
         d="M 84.8174,357.193 H 217.414 V 157.688 H 84.8174 Z"
         id="path114" /></clipPath><clipPath
       clipPathUnits="userSpaceOnUse"
       id="clipPath134"><path
         d="m 120.861,335.05 h 60.51 v -28.047 h -60.51 z"
         id="path132" /></clipPath><clipPath
       clipPathUnits="userSpaceOnUse"
       id="clipPath196"><path
         d="m 102.969,201.154 h 36.093 v -16.727 h -36.093 z"
         id="path194" /></clipPath><clipPath
       clipPathUnits="userSpaceOnUse"
       id="clipPath316"><path
         d="M 0,500 H 500 V 0 H 0 Z"
         id="path314" /></clipPath><clipPath
       clipPathUnits="userSpaceOnUse"
       id="clipPath332"><path
         d="M 0,500 H 500 V 0 H 0 Z"
         id="path330" /></clipPath><clipPath
       clipPathUnits="userSpaceOnUse"
       id="clipPath348"><path
         d="M 0,500 H 500 V 0 H 0 Z"
         id="path346" /></clipPath><clipPath
       clipPathUnits="userSpaceOnUse"
       id="clipPath364"><path
         d="M 0,500 H 500 V 0 H 0 Z"
         id="path362" /></clipPath><clipPath
       clipPathUnits="userSpaceOnUse"
       id="clipPath380"><path
         d="M 0,500 H 500 V 0 H 0 Z"
         id="path378" /></clipPath><clipPath
       clipPathUnits="userSpaceOnUse"
       id="clipPath396"><path
         d="M 0,500 H 500 V 0 H 0 Z"
         id="path394" /></clipPath><clipPath
       clipPathUnits="userSpaceOnUse"
       id="clipPath412"><path
         d="M 0,500 H 500 V 0 H 0 Z"
         id="path410" /></clipPath><clipPath
       clipPathUnits="userSpaceOnUse"
       id="clipPath468"><path
         d="M 40.9385,461.229 H 469.152 V 65.5664 H 40.9385 Z"
         id="path466" /></clipPath></defs><sodipodi:namedview
     id="namedview4"
     pagecolor="#ffffff"
     bordercolor="#666666"
     borderopacity="1.0"
     inkscape:pageshadow="2"
     inkscape:pageopacity="0.0"
     inkscape:pagecheckerboard="0"
     showgrid="false"
     inkscape:zoom="0.94199997"
     inkscape:cx="333.33334"
     inkscape:cy="332.80256"
     inkscape:window-width="1440"
     inkscape:window-height="839"
     inkscape:window-x="1440"
     inkscape:window-y="0"
     inkscape:window-maximized="1"
     inkscape:current-layer="g8" /><g
     id="g8"
     inkscape:groupmode="layer"
     inkscape:label="4471279"
     transform="matrix(1.3333333,0,0,-1.3333333,0,666.66667)"><path
       d="M 0,0 H 500 V 500 H 0 Z"
       style="fill:#daf4ff;fill-opacity:1;fill-rule:nonzero;stroke:none"
       id="path10" /><g
       id="g12"><g
         id="g14"
         clip-path="url(#clipPath18)"><g
           id="g20"
           transform="translate(448.6182,395.04)"><path
             d="m 0,0 c -1.076,0 -1.952,0.876 -1.952,1.952 0,1.077 0.876,1.952 1.952,1.952 1.076,0 1.952,-0.875 1.952,-1.952 C 1.952,0.876 1.076,0 0,0 M 2.952,1.952 C 2.952,3.58 1.628,4.904 0,4.904 c -1.628,0 -2.952,-1.324 -2.952,-2.952 0,-1.456 1.062,-2.662 2.452,-2.901 v -53.066 h -29 v -41.224 h 1 v 40.224 h 29 v 54.066 c 1.39,0.239 2.452,1.445 2.452,2.901"
             style="fill:#8ed8ff;fill-opacity:1;fill-rule:nonzero;stroke:none"
             id="path22" /></g><g
           id="g24"
           transform="translate(404.4268,366.9531)"><path
             d="m 0,0 c -1.076,0 -1.952,0.876 -1.952,1.952 0,1.077 0.876,1.952 1.952,1.952 1.076,0 1.952,-0.875 1.952,-1.952 C 1.952,0.876 1.076,0 0,0 m 0,4.904 c -1.628,0 -2.952,-1.324 -2.952,-2.952 0,-1.456 1.062,-2.662 2.452,-2.901 v -66.203 h 1 V -0.949 C 1.89,-0.71 2.952,0.496 2.952,1.952 2.952,3.58 1.628,4.904 0,4.904"
             style="fill:#8ed8ff;fill-opacity:1;fill-rule:nonzero;stroke:none"
             id="path26" /></g><g
           id="g28"
           transform="translate(278.4961,435.0225)"><path
             d="m 0,0 c -1.076,0 -1.952,0.875 -1.952,1.952 0,1.076 0.876,1.952 1.952,1.952 1.076,0 1.952,-0.876 1.952,-1.952 C 1.952,0.875 1.076,0 0,0 M 56.968,2.452 H 2.901 C 2.662,3.842 1.457,4.904 0,4.904 -1.628,4.904 -2.952,3.58 -2.952,1.952 -2.952,0.324 -1.628,-1 0,-1 1.457,-1 2.662,0.062 2.901,1.452 h 53.067 v -13 h 41.223 v 1 H 56.968 Z"
             style="fill:#8ed8ff;fill-opacity:1;fill-rule:nonzero;stroke:none"
             id="path30" /></g><g
           id="g32"
           transform="translate(325.2324,410.3721)"><path
             d="m 0,0 c -1.076,0 -1.952,0.876 -1.952,1.952 0,1.077 0.876,1.952 1.952,1.952 1.076,0 1.952,-0.875 1.952,-1.952 C 1.952,0.876 1.076,0 0,0 M 0,4.904 C -1.628,4.904 -2.952,3.58 -2.952,1.952 -2.952,0.324 -1.628,-1 0,-1 1.457,-1 2.662,0.062 2.901,1.452 h 46.203 v 1 H 2.901 C 2.662,3.842 1.457,4.904 0,4.904"
             style="fill:#8ed8ff;fill-opacity:1;fill-rule:nonzero;stroke:none"
             id="path34" /></g><g
           id="g36"
           transform="translate(258.8848,342.0068)"><path
             d="m 0,0 c 1.076,0 1.952,-0.876 1.952,-1.952 0,-1.077 -0.876,-1.952 -1.952,-1.952 -1.076,0 -1.952,0.875 -1.952,1.952 C -1.952,-0.876 -1.076,0 0,0 m 0,-4.904 c 1.628,0 2.952,1.324 2.952,2.952 0,1.456 -1.062,2.662 -2.452,2.901 v 46.203 h -1 V 0.949 C -1.89,0.71 -2.952,-0.496 -2.952,-1.952 -2.952,-3.58 -1.628,-4.904 0,-4.904"
             style="fill:#8ed8ff;fill-opacity:1;fill-rule:nonzero;stroke:none"
             id="path38" /></g><g
           id="g40"
           transform="translate(268.3369,347.9424)"><path
             d="m 0,0 c -1.076,0 -1.952,0.876 -1.952,1.952 0,1.077 0.876,1.952 1.952,1.952 1.076,0 1.952,-0.875 1.952,-1.952 C 1.952,0.876 1.076,0 0,0 m 0.5,4.854 v 46.203 h -1 V 4.854 C -1.89,4.615 -2.952,3.409 -2.952,1.952 -2.952,0.324 -1.628,-1 0,-1 1.628,-1 2.952,0.324 2.952,1.952 2.952,3.409 1.89,4.615 0.5,4.854"
             style="fill:#8ed8ff;fill-opacity:1;fill-rule:nonzero;stroke:none"
             id="path42" /></g><g
           id="g44"
           transform="translate(33.8008,170.4629)"><path
             d="m 0,0 c -1.077,0 -1.953,0.876 -1.953,1.952 0,1.076 0.876,1.952 1.953,1.952 1.075,0 1.951,-0.876 1.951,-1.952 C 1.951,0.876 1.075,0 0,0 m 49.104,1.452 v 1 H 2.9 C 2.661,3.842 1.456,4.904 0,4.904 -1.629,4.904 -2.953,3.58 -2.953,1.952 -2.953,0.324 -1.629,-1 0,-1 1.456,-1 2.661,0.062 2.9,1.452 Z"
             style="fill:#8ed8ff;fill-opacity:1;fill-rule:nonzero;stroke:none"
             id="path46" /></g><g
           id="g48"
           transform="translate(43.6406,161.0107)"><path
             d="m 0,0 c -1.077,0 -1.952,0.876 -1.952,1.952 0,1.076 0.875,1.952 1.952,1.952 1.076,0 1.952,-0.876 1.952,-1.952 C 1.952,0.876 1.076,0 0,0 M 0,4.904 C -1.628,4.904 -2.952,3.58 -2.952,1.952 -2.952,0.324 -1.628,-1 0,-1 1.456,-1 2.662,0.062 2.901,1.452 h 46.203 v 1 H 2.901 C 2.662,3.842 1.456,4.904 0,4.904"
             style="fill:#8ed8ff;fill-opacity:1;fill-rule:nonzero;stroke:none"
             id="path50" /></g><g
           id="g52"
           transform="translate(262.4014,64.25)"><path
             d="m 0,0 c -1.076,0 -1.951,0.876 -1.951,1.953 0,1.076 0.875,1.951 1.951,1.951 1.077,0 1.953,-0.875 1.953,-1.951 C 1.953,0.876 1.077,0 0,0 m 0,4.904 c -1.456,0 -2.661,-1.062 -2.9,-2.451 h -53.066 v 29 H -97.19 v -1 h 40.224 v -29 H -2.9 C -2.661,0.063 -1.456,-1 0,-1 1.628,-1 2.953,0.325 2.953,1.953 2.953,3.58 1.628,4.904 0,4.904"
             style="fill:#8ed8ff;fill-opacity:1;fill-rule:nonzero;stroke:none"
             id="path54" /></g><g
           id="g56"
           transform="translate(234.3154,112.3457)"><path
             d="m 0,0 c 1.076,0 1.952,-0.875 1.952,-1.951 0,-1.077 -0.876,-1.953 -1.952,-1.953 -1.077,0 -1.952,0.876 -1.952,1.953 C -1.952,-0.875 -1.077,0 0,0 m 0,-4.904 c 1.628,0 2.952,1.325 2.952,2.953 C 2.952,-0.324 1.628,1 0,1 -1.457,1 -2.663,-0.062 -2.902,-1.451 h -66.202 v -1 H -2.902 C -2.663,-3.841 -1.457,-4.904 0,-4.904"
             style="fill:#8ed8ff;fill-opacity:1;fill-rule:nonzero;stroke:none"
             id="path58" /></g><g
           id="g60"
           transform="translate(54.1602,19.4834)"><path
             d="m 0,0 c 0,-1.076 -0.876,-1.952 -1.953,-1.952 -1.076,0 -1.951,0.876 -1.951,1.952 0,1.076 0.875,1.952 1.951,1.952 C -0.876,1.952 0,1.076 0,0 m 10.547,26.968 h -13 V 2.901 C -3.843,2.662 -4.904,1.457 -4.904,0 c 0,-1.628 1.323,-2.952 2.951,-2.952 C -0.325,-2.952 1,-1.628 1,0 1,1.457 -0.063,2.662 -1.453,2.901 v 23.067 h 13 v 41.223 h -1 z"
             style="fill:#8ed8ff;fill-opacity:1;fill-rule:nonzero;stroke:none"
             id="path62" /></g><g
           id="g64"
           transform="translate(76.8574,34.2676)"><path
             d="m 0,0 c -1.077,0 -1.952,0.876 -1.952,1.952 0,1.076 0.875,1.952 1.952,1.952 1.076,0 1.952,-0.876 1.952,-1.952 C 1.952,0.876 1.076,0 0,0 m 0.5,4.854 v 46.203 h -1 V 4.854 C -1.89,4.614 -2.952,3.409 -2.952,1.952 -2.952,0.324 -1.628,-1 0,-1 1.628,-1 2.952,0.324 2.952,1.952 2.952,3.409 1.89,4.614 0.5,4.854"
             style="fill:#8ed8ff;fill-opacity:1;fill-rule:nonzero;stroke:none"
             id="path66" /></g><g
           id="g68"
           transform="translate(403.9043,480.5156)"><path
             d="M 0,0 C 0,1.076 0.876,1.952 1.953,1.953 3.029,1.952 3.904,1.076 3.904,0 3.904,-1.075 3.029,-1.952 1.953,-1.951 0.876,-1.952 0,-1.075 0,0 m -10.547,-26.967 h 13 V -2.9 c 1.39,0.239 2.451,1.443 2.451,2.9 0,1.628 -1.322,2.953 -2.951,2.953 C 0.325,2.952 -1,1.629 -1,0 -1,-1.457 0.064,-2.661 1.453,-2.901 v -23.066 h -12.999 l -0.001,-41.224 1,0.001 z"
             style="fill:#8ed8ff;fill-opacity:1;fill-rule:nonzero;stroke:none"
             id="path70" /></g><g
           id="g72"
           transform="translate(381.208,465.7324)"><path
             d="M 0,0 C 1.076,0 1.951,-0.876 1.952,-1.952 1.951,-3.029 1.076,-3.904 0,-3.904 -1.077,-3.905 -1.953,-3.029 -1.952,-1.952 -1.953,-0.876 -1.077,-0.001 0,0 m -0.501,-4.854 v -46.203 h 1 v 46.203 c 1.39,0.24 2.452,1.445 2.453,2.902 C 2.951,-0.325 1.627,0.999 -0.001,1 -1.629,0.999 -2.953,-0.325 -2.953,-1.952 c 0,-1.457 1.062,-2.663 2.452,-2.902"
             style="fill:#8ed8ff;fill-opacity:1;fill-rule:nonzero;stroke:none"
             id="path74" /></g><g
           id="g76"><g
             id="g78" /><g
             id="g90"><g
               clip-path="url(#clipPath82)"
               opacity="0.5"
               id="g88"><g
                 transform="translate(448.6182,124.7871)"
                 id="g86"><path
                   d="m 0,0 c 0,-1.434 -1.162,-2.596 -2.596,-2.596 h -411.808 c -1.434,0 -2.596,1.162 -2.596,2.596 0,1.433 1.162,2.595 2.596,2.595 H -2.596 C -1.162,2.595 0,1.433 0,0"
                   style="fill:#8ed8ff;fill-opacity:1;fill-rule:nonzero;stroke:none"
                   id="path84" /></g></g></g></g><g
           id="g92"
           transform="translate(223.7842,141.5947)"><path
             d="m 0,0 c 0,-7.816 -6.396,-14.213 -14.214,-14.213 h -116.909 c -7.816,0 -14.213,6.397 -14.213,14.213 v 224.663 c 0,7.817 6.397,14.214 14.213,14.214 H -14.214 C -6.396,238.877 0,232.48 0,224.663 Z"
             style="fill:#003b98;fill-opacity:1;fill-rule:nonzero;stroke:none"
             id="path94" /></g><g
           id="g96"
           transform="translate(160.5908,143.1787)"><path
             d="m 0,0 c 0,-5.234 -4.242,-9.477 -9.475,-9.477 -5.233,0 -9.475,4.243 -9.475,9.477 0,5.232 4.242,9.475 9.475,9.475 C -4.242,9.475 0,5.232 0,0"
             style="fill:#ffffff;fill-opacity:1;fill-rule:nonzero;stroke:none"
             id="path98" /></g><g
           id="g100"
           transform="translate(169.7715,364.3799)"><path
             d="m 0,0 c 0,-1.144 -0.928,-2.072 -2.072,-2.072 h -33.167 c -1.145,0 -2.073,0.928 -2.073,2.072 0,1.146 0.928,2.073 2.073,2.073 H -2.072 C -0.928,2.073 0,1.146 0,0"
             style="fill:#ffffff;fill-opacity:1;fill-rule:nonzero;stroke:none"
             id="path102" /></g><g
           id="g104"
           transform="translate(152.9922,372.3457)"><path
             d="m 0,0 c 0,-1.036 -0.841,-1.876 -1.876,-1.876 -1.036,0 -1.876,0.84 -1.876,1.876 0,1.036 0.84,1.875 1.876,1.875 C -0.841,1.875 0,1.036 0,0"
             style="fill:#ffffff;fill-opacity:1;fill-rule:nonzero;stroke:none"
             id="path106" /></g><path
           d="M 217.414,157.688 H 84.817 v 199.505 h 132.597 z"
           style="fill:#e5c6fb;fill-opacity:1;fill-rule:nonzero;stroke:none"
           id="path108" /><g
           id="g110"><g
             id="g112" /><g
             id="g124"><g
               clip-path="url(#clipPath116)"
               opacity="0.5"
               id="g122"><g
                 transform="translate(84.8174,157.6885)"
                 id="g120"><path
                   d="M 0,0 132.597,199.505 V 0 Z"
                   style="fill:#dab8fb;fill-opacity:1;fill-rule:nonzero;stroke:none"
                   id="path118" /></g></g></g></g><path
           d="M 206.015,298.072 H 96.218 v 48.759 h 109.797 z"
           style="fill:#ffffff;fill-opacity:1;fill-rule:nonzero;stroke:none"
           id="path126" /><g
           id="g128"><g
             id="g130" /><g
             id="g146"><g
               clip-path="url(#clipPath134)"
               opacity="0.399994"
               id="g144"><g
                 transform="translate(142.1182,335.0498)"
                 id="g138"><path
                   d="m 0,0 16.422,-21.675 9,11.881 13.831,-18.253 H 21.248 11.59 -21.257 Z"
                   style="fill:#8bc8f1;fill-opacity:1;fill-rule:nonzero;stroke:none"
                   id="path136" /></g><g
                 transform="translate(156.1885,330.1641)"
                 id="g142"><path
                   d="M 0,0 C 0,-1.862 1.508,-3.372 3.368,-3.372 5.232,-3.372 6.74,-1.862 6.74,0 6.74,1.864 5.232,3.373 3.368,3.373 1.508,3.373 0,1.864 0,0"
                   style="fill:#8bc8f1;fill-opacity:1;fill-rule:nonzero;stroke:none"
                   id="path140" /></g></g></g></g><path
           d="M 145.813,279.111 H 96.217 v 2.214 h 49.596 z"
           style="fill:#c193f7;fill-opacity:1;fill-rule:nonzero;stroke:none"
           id="path148" /><path
           d="M 145.813,273.693 H 96.217 v 2.214 h 49.596 z"
           style="fill:#c193f7;fill-opacity:1;fill-rule:nonzero;stroke:none"
           id="path150" /><path
           d="M 145.813,268.275 H 96.217 v 2.215 h 49.596 z"
           style="fill:#c193f7;fill-opacity:1;fill-rule:nonzero;stroke:none"
           id="path152" /><path
           d="M 145.813,262.858 H 96.217 v 2.214 h 49.596 z"
           style="fill:#c193f7;fill-opacity:1;fill-rule:nonzero;stroke:none"
           id="path154" /><path
           d="M 145.813,286.154 H 96.217 v 4.875 h 49.596 z"
           style="fill:#ffffff;fill-opacity:1;fill-rule:nonzero;stroke:none"
           id="path156" /><path
           d="m 206.015,286.154 h -49.596 v 4.875 h 49.596 z"
           style="fill:#ffffff;fill-opacity:1;fill-rule:nonzero;stroke:none"
           id="path158" /><path
           d="m 206.015,279.111 h -49.596 v 2.214 h 49.596 z"
           style="fill:#c193f7;fill-opacity:1;fill-rule:nonzero;stroke:none"
           id="path160" /><path
           d="m 206.015,273.693 h -49.596 v 2.214 h 49.596 z"
           style="fill:#c193f7;fill-opacity:1;fill-rule:nonzero;stroke:none"
           id="path162" /><path
           d="m 206.015,268.275 h -49.596 v 2.215 h 49.596 z"
           style="fill:#c193f7;fill-opacity:1;fill-rule:nonzero;stroke:none"
           id="path164" /><path
           d="m 206.015,262.858 h -49.596 v 2.214 h 49.596 z"
           style="fill:#c193f7;fill-opacity:1;fill-rule:nonzero;stroke:none"
           id="path166" /><path
           d="M 145.813,244.438 H 96.217 v 2.214 h 49.596 z"
           style="fill:#c193f7;fill-opacity:1;fill-rule:nonzero;stroke:none"
           id="path168" /><path
           d="M 145.813,239.021 H 96.217 v 2.214 h 49.596 z"
           style="fill:#c193f7;fill-opacity:1;fill-rule:nonzero;stroke:none"
           id="path170" /><path
           d="M 145.813,233.604 H 96.217 v 2.213 h 49.596 z"
           style="fill:#c193f7;fill-opacity:1;fill-rule:nonzero;stroke:none"
           id="path172" /><path
           d="M 145.813,228.186 H 96.217 v 2.214 h 49.596 z"
           style="fill:#c193f7;fill-opacity:1;fill-rule:nonzero;stroke:none"
           id="path174" /><path
           d="M 145.813,251.481 H 96.217 v 4.876 h 49.596 z"
           style="fill:#ffffff;fill-opacity:1;fill-rule:nonzero;stroke:none"
           id="path176" /><path
           d="m 206.015,251.481 h -49.596 v 4.876 h 49.596 z"
           style="fill:#ffffff;fill-opacity:1;fill-rule:nonzero;stroke:none"
           id="path178" /><path
           d="m 206.015,244.438 h -49.596 v 2.214 h 49.596 z"
           style="fill:#c193f7;fill-opacity:1;fill-rule:nonzero;stroke:none"
           id="path180" /><path
           d="m 206.015,239.021 h -49.596 v 2.214 h 49.596 z"
           style="fill:#c193f7;fill-opacity:1;fill-rule:nonzero;stroke:none"
           id="path182" /><path
           d="m 206.015,233.604 h -49.596 v 2.213 h 49.596 z"
           style="fill:#c193f7;fill-opacity:1;fill-rule:nonzero;stroke:none"
           id="path184" /><path
           d="m 206.015,228.186 h -49.596 v 2.214 h 49.596 z"
           style="fill:#c193f7;fill-opacity:1;fill-rule:nonzero;stroke:none"
           id="path186" /><path
           d="M 146.782,167.688 H 96.218 v 50.564 h 50.564 z"
           style="fill:#ffffff;fill-opacity:1;fill-rule:nonzero;stroke:none"
           id="path188" /><g
           id="g190"><g
             id="g192" /><g
             id="g208"><g
               clip-path="url(#clipPath196)"
               opacity="0.399994"
               id="g206"><g
                 transform="translate(115.6475,201.1543)"
                 id="g200"><path
                   d="m 0,0 9.796,-12.927 5.368,7.086 8.25,-10.887 H 12.675 6.914 -12.679 Z"
                   style="fill:#8bc8f1;fill-opacity:1;fill-rule:nonzero;stroke:none"
                   id="path198" /></g><g
                 transform="translate(124.042,198.2412)"
                 id="g204"><path
                   d="M 0,0 C 0,-1.11 0.898,-2.012 2.007,-2.012 3.12,-2.012 4.02,-1.11 4.02,0 4.02,1.112 3.12,2.012 2.007,2.012 0.898,2.012 0,1.112 0,0"
                   style="fill:#8bc8f1;fill-opacity:1;fill-rule:nonzero;stroke:none"
                   id="path202" /></g></g></g></g><path
           d="m 206.015,213.377 h -49.596 v 4.876 h 49.596 z"
           style="fill:#ffffff;fill-opacity:1;fill-rule:nonzero;stroke:none"
           id="path210" /><path
           d="m 206.015,206.334 h -49.596 v 2.214 h 49.596 z"
           style="fill:#c193f7;fill-opacity:1;fill-rule:nonzero;stroke:none"
           id="path212" /><path
           d="m 206.015,200.916 h -49.596 v 2.214 h 49.596 z"
           style="fill:#c193f7;fill-opacity:1;fill-rule:nonzero;stroke:none"
           id="path214" /><path
           d="m 206.015,195.499 h -49.596 v 2.214 h 49.596 z"
           style="fill:#c193f7;fill-opacity:1;fill-rule:nonzero;stroke:none"
           id="path216" /><path
           d="m 206.015,190.081 h -49.596 v 2.214 h 49.596 z"
           style="fill:#c193f7;fill-opacity:1;fill-rule:nonzero;stroke:none"
           id="path218" /><path
           d="m 206.015,184.663 h -49.596 v 2.214 h 49.596 z"
           style="fill:#c193f7;fill-opacity:1;fill-rule:nonzero;stroke:none"
           id="path220" /><path
           d="m 206.015,179.246 h -49.596 v 2.214 h 49.596 z"
           style="fill:#c193f7;fill-opacity:1;fill-rule:nonzero;stroke:none"
           id="path222" /><path
           d="m 206.015,173.828 h -49.596 v 2.214 h 49.596 z"
           style="fill:#c193f7;fill-opacity:1;fill-rule:nonzero;stroke:none"
           id="path224" /><path
           d="m 206.015,168.411 h -49.596 v 2.213 h 49.596 z"
           style="fill:#c193f7;fill-opacity:1;fill-rule:nonzero;stroke:none"
           id="path226" /><g
           id="g228"
           transform="translate(393.5312,143.0635)"><path
             d="m 0,0 c 0,-4.348 -3.557,-7.904 -7.902,-7.904 h -192.234 c -4.346,0 -7.902,3.556 -7.902,7.904 v 131.503 c 0,4.347 3.556,7.903 7.902,7.903 H -7.902 c 4.345,0 7.902,-3.556 7.902,-7.903 z"
             style="fill:#297bc5;fill-opacity:1;fill-rule:nonzero;stroke:none"
             id="path230" /></g><path
           d="M 385.928,144.765 H 193.094 v 128.102 h 192.834 z"
           style="fill:#003b98;fill-opacity:1;fill-rule:nonzero;stroke:none"
           id="path232" /><g
           id="g234"
           transform="translate(169.7021,144.7275)"><path
             d="m 0,0 v -8.244 c 0,-5.006 4.096,-9.102 9.102,-9.102 h 221.415 c 5.005,0 9.103,4.096 9.103,9.102 V 0 Z"
             style="fill:#00a2f7;fill-opacity:1;fill-rule:nonzero;stroke:none"
             id="path236" /></g><g
           id="g238"
           transform="translate(249,144.7275)"><path
             d="M 0,0 V -2.787 C 0,-4.48 1.383,-5.865 3.076,-5.865 h 74.871 c 1.694,0 3.078,1.385 3.078,3.078 l 0,2.787 z"
             style="fill:#6dc7ff;fill-opacity:1;fill-rule:nonzero;stroke:none"
             id="path240" /></g><path
           d="m 241.219,261.26 h -40 v 3 h 40 z"
           style="fill:#8bc8f1;fill-opacity:1;fill-rule:nonzero;stroke:none"
           id="path242" /><path
           d="m 344.552,261.26 h -88.667 v 3 h 88.667 z"
           style="fill:#e5c6fb;fill-opacity:1;fill-rule:nonzero;stroke:none"
           id="path244" /><path
           d="m 228.847,251.26 h -27.628 v 3 h 27.628 z"
           style="fill:#8bc8f1;fill-opacity:1;fill-rule:nonzero;stroke:none"
           id="path246" /><path
           d="m 300.219,251.26 h -61.242 v 3 h 61.242 z"
           style="fill:#e5c6fb;fill-opacity:1;fill-rule:nonzero;stroke:none"
           id="path248" /><path
           d="m 231.451,241.26 h -30.232 v 3 h 30.232 z"
           style="fill:#8bc8f1;fill-opacity:1;fill-rule:nonzero;stroke:none"
           id="path250" /><path
           d="m 309.552,241.26 h -67.016 v 3 h 67.016 z"
           style="fill:#e5c6fb;fill-opacity:1;fill-rule:nonzero;stroke:none"
           id="path252" /><path
           d="m 219.337,231.26 h -18.118 v 3 h 18.118 z"
           style="fill:#8bc8f1;fill-opacity:1;fill-rule:nonzero;stroke:none"
           id="path254" /><path
           d="M 336.885,231.26 H 225.981 v 3 h 110.904 z"
           style="fill:#e5c6fb;fill-opacity:1;fill-rule:nonzero;stroke:none"
           id="path256" /><path
           d="m 241.219,221.26 h -40 v 3 h 40 z"
           style="fill:#8bc8f1;fill-opacity:1;fill-rule:nonzero;stroke:none"
           id="path258" /><path
           d="m 344.552,221.26 h -88.667 v 3 h 88.667 z"
           style="fill:#e5c6fb;fill-opacity:1;fill-rule:nonzero;stroke:none"
           id="path260" /><path
           d="m 228.847,211.26 h -27.628 v 3 h 27.628 z"
           style="fill:#8bc8f1;fill-opacity:1;fill-rule:nonzero;stroke:none"
           id="path262" /><path
           d="m 300.219,211.26 h -61.242 v 3 h 61.242 z"
           style="fill:#e5c6fb;fill-opacity:1;fill-rule:nonzero;stroke:none"
           id="path264" /><path
           d="m 235.638,201.26 h -34.419 v 3 h 34.419 z"
           style="fill:#8bc8f1;fill-opacity:1;fill-rule:nonzero;stroke:none"
           id="path266" /><path
           d="m 324.552,201.26 h -76.295 v 3 h 76.295 z"
           style="fill:#e5c6fb;fill-opacity:1;fill-rule:nonzero;stroke:none"
           id="path268" /><path
           d="m 219.337,191.26 h -18.118 v 3 h 18.118 z"
           style="fill:#8bc8f1;fill-opacity:1;fill-rule:nonzero;stroke:none"
           id="path270" /><path
           d="M 336.885,191.26 H 225.981 v 3 h 110.904 z"
           style="fill:#e5c6fb;fill-opacity:1;fill-rule:nonzero;stroke:none"
           id="path272" /><path
           d="m 244.66,181.26 h -43.441 v 3 h 43.441 z"
           style="fill:#8bc8f1;fill-opacity:1;fill-rule:nonzero;stroke:none"
           id="path274" /><path
           d="m 356.886,181.26 h -96.297 v 3 h 96.297 z"
           style="fill:#e5c6fb;fill-opacity:1;fill-rule:nonzero;stroke:none"
           id="path276" /><path
           d="m 238.335,171.26 h -37.116 v 3 h 37.116 z"
           style="fill:#8bc8f1;fill-opacity:1;fill-rule:nonzero;stroke:none"
           id="path278" /><path
           d="m 334.219,171.26 h -82.275 v 3 h 82.275 z"
           style="fill:#e5c6fb;fill-opacity:1;fill-rule:nonzero;stroke:none"
           id="path280" /><path
           d="m 234.053,161.26 h -32.834 v 3 h 32.834 z"
           style="fill:#8bc8f1;fill-opacity:1;fill-rule:nonzero;stroke:none"
           id="path282" /><path
           d="m 318.874,161.26 h -72.783 v 3 h 72.783 z"
           style="fill:#e5c6fb;fill-opacity:1;fill-rule:nonzero;stroke:none"
           id="path284" /><path
           d="m 220.896,151.26 h -19.678 v 3 h 19.678 z"
           style="fill:#8bc8f1;fill-opacity:1;fill-rule:nonzero;stroke:none"
           id="path286" /><path
           d="M 348.559,151.26 H 228.112 v 3 h 120.447 z"
           style="fill:#e5c6fb;fill-opacity:1;fill-rule:nonzero;stroke:none"
           id="path288" /><g
           id="g290"
           transform="translate(393.5312,174.5303)"><path
             d="m 0,0 c -12.192,0 -22.076,9.883 -22.076,22.076 0,12.192 9.884,22.076 22.076,22.076 12.192,0 22.076,-9.884 22.076,-22.076 C 22.076,9.883 12.192,0 0,0 m 38.301,16.71 v 10.73 h -5.808 c -0.834,5.094 -2.838,9.792 -5.725,13.815 l 4.108,4.109 -7.586,7.587 -4.109,-4.109 c -4.024,2.888 -8.722,4.892 -13.816,5.727 v 5.807 h -10.73 v -5.807 c -5.094,-0.835 -9.791,-2.839 -13.815,-5.727 l -4.108,4.109 -7.588,-7.587 4.108,-4.109 c -2.887,-4.023 -4.891,-8.721 -5.725,-13.815 h -5.808 V 16.71 h 5.808 c 0.835,-5.094 2.839,-9.791 5.726,-13.814 l -4.109,-4.11 7.588,-7.587 4.108,4.11 c 4.025,-2.888 8.722,-4.893 13.815,-5.727 v -5.808 h 10.73 v 5.808 c 5.094,0.834 9.791,2.839 13.814,5.727 l 4.111,-4.11 7.587,7.587 -4.11,4.11 c 2.887,4.023 4.892,8.72 5.726,13.814 z"
             style="fill:#8ed8ff;fill-opacity:1;fill-rule:nonzero;stroke:none"
             id="path292" /></g><g
           id="g294"
           transform="translate(222.9385,252.9727)"><path
             d="m 0,0 c -16.291,0 -29.498,13.206 -29.498,29.497 0,16.292 13.207,29.499 29.498,29.499 16.292,0 29.498,-13.207 29.498,-29.499 C 29.498,13.206 16.292,0 0,0 m 51.178,22.328 v 14.338 h -7.76 c -1.115,6.807 -3.793,13.083 -7.651,18.459 l 5.49,5.491 L 31.12,70.754 25.629,65.263 C 20.253,69.122 13.976,71.8 7.169,72.916 v 7.759 H -7.168 v -7.759 c -6.807,-1.116 -13.084,-3.794 -18.46,-7.653 l -5.49,5.491 -10.139,-10.138 5.491,-5.491 c -3.859,-5.376 -6.537,-11.652 -7.652,-18.459 h -7.76 V 22.328 h 7.76 c 1.116,-6.807 3.794,-13.083 7.652,-18.459 l -5.491,-5.491 10.139,-10.138 5.491,5.491 c 5.376,-3.858 11.652,-6.537 18.459,-7.652 v -7.76 H 7.169 v 7.76 c 6.807,1.115 13.083,3.794 18.458,7.652 l 5.493,-5.491 10.138,10.138 -5.492,5.491 c 3.858,5.376 6.537,11.652 7.652,18.459 z"
             style="fill:#8ed8ff;fill-opacity:1;fill-rule:nonzero;stroke:none"
             id="path296" /></g><g
           id="g298"
           transform="translate(346.2305,333.8262)"><path
             d="m 0,0 c -10.76,0 -19.482,8.722 -19.482,19.482 0,10.76 8.722,19.484 19.482,19.484 10.76,0 19.482,-8.724 19.482,-19.484 C 19.482,8.722 10.76,0 0,0 m 33.801,14.747 v 9.47 h -5.125 c -0.736,4.495 -2.504,8.641 -5.053,12.191 l 3.626,3.627 -6.695,6.695 -3.626,-3.626 C 13.377,45.653 9.23,47.422 4.735,48.158 v 5.125 h -9.469 v -5.125 c -4.495,-0.736 -8.641,-2.505 -12.192,-5.054 l -3.626,3.626 -6.696,-6.695 3.625,-3.627 c -2.548,-3.55 -4.316,-7.696 -5.053,-12.191 h -5.125 v -9.47 h 5.125 c 0.738,-4.495 2.506,-8.641 5.054,-12.191 l -3.626,-3.627 6.696,-6.696 3.626,3.627 c 3.551,-2.548 7.697,-4.318 12.192,-5.053 v -5.126 h 9.469 v 5.126 c 4.495,0.735 8.641,2.505 12.191,5.053 l 3.628,-3.627 6.696,6.696 -3.628,3.628 c 2.549,3.549 4.318,7.695 5.054,12.19 z"
             style="fill:#8ed8ff;fill-opacity:1;fill-rule:nonzero;stroke:none"
             id="path300" /></g><path
           d="m 290.605,295.382 h 60.84 v 60.84 h -60.84 z m 61.84,-1 h -62.84 v 62.84 h 62.84 z"
           style="fill:#fec556;fill-opacity:1;fill-rule:nonzero;stroke:none"
           id="path302" /><path
           d="m 347.026,299.801 h -52.002 v 52.002 h 52.002 z"
           style="fill:#fec556;fill-opacity:1;fill-rule:nonzero;stroke:none"
           id="path304" /></g></g><text
       transform="matrix(1,0,0,-1,301.3154,322.2974)"
       style="font-variant:normal;font-weight:bold;font-stretch:normal;font-size:12px;font-family:Montserrat;-inkscape-font-specification:Montserrat-Bold;writing-mode:lr-tb;fill:#003b98;fill-opacity:1;fill-rule:nonzero;stroke:none"
       id="text308"><tspan
         x="0 10.896 19.511999 32.172001"
         y="0"
         sodipodi:role="line"
         id="tspan306">HTML</tspan></text><g
       id="g310"><g
         id="g312"
         clip-path="url(#clipPath316)"><path
           d="m 242.422,366.303 h 40.926 v 40.927 h -40.926 z m 41.926,-1 h -42.926 v 42.927 h 42.926 z"
           style="fill:#8944f7;fill-opacity:1;fill-rule:nonzero;stroke:none"
           id="path318" /><path
           d="m 280.513,369.138 h -35.256 v 35.257 h 35.256 z"
           style="fill:#8944f7;fill-opacity:1;fill-rule:nonzero;stroke:none"
           id="path320" /></g></g><text
       transform="matrix(1,0,0,-1,254.4785,383.0181)"
       style="font-variant:normal;font-weight:bold;font-stretch:normal;font-size:12.8366px;font-family:Montserrat;-inkscape-font-specification:Montserrat-Bold;writing-mode:lr-tb;fill:#ffffff;fill-opacity:1;fill-rule:nonzero;stroke:none"
       id="text324"><tspan
         x="0 8.228261"
         y="0"
         sodipodi:role="line"
         id="tspan322">JS</tspan></text><g
       id="g326"><g
         id="g328"
         clip-path="url(#clipPath332)"><path
           d="m 368.568,396.609 h 40.926 v 40.926 h -40.926 z m 41.926,-1 h -42.926 v 42.926 h 42.926 z"
           style="fill:#00a2f7;fill-opacity:1;fill-rule:nonzero;stroke:none"
           id="path334" /><path
           d="M 406.659,399.444 H 371.403 V 434.7 h 35.256 z"
           style="fill:#00a2f7;fill-opacity:1;fill-rule:nonzero;stroke:none"
           id="path336" /></g></g><text
       transform="matrix(1,0,0,-1,376.7178,413.3237)"
       style="font-variant:normal;font-weight:bold;font-stretch:normal;font-size:11px;font-family:Montserrat;-inkscape-font-specification:Montserrat-Bold;writing-mode:lr-tb;fill:#ffffff;fill-opacity:1;fill-rule:nonzero;stroke:none"
       id="text340"><tspan
         x="0 9.0970001 17.215"
         y="0"
         sodipodi:role="line"
         id="tspan338">CSS</tspan></text><g
       id="g342"><g
         id="g344"
         clip-path="url(#clipPath348)"><path
           d="m 379.871,263.348 h 49.111 v 49.112 h -49.111 z m 50.111,-1 h -51.111 v 51.112 h 51.111 z"
           style="fill:#8944f7;fill-opacity:1;fill-rule:nonzero;stroke:none"
           id="path350" /><path
           d="m 425.496,266.834 h -42.139 v 42.14 h 42.139 z"
           style="fill:#8944f7;fill-opacity:1;fill-rule:nonzero;stroke:none"
           id="path352" /></g></g><text
       transform="matrix(1,0,0,-1,389.0508,283.4248)"
       style="font-variant:normal;font-weight:bold;font-stretch:normal;font-size:10px;font-family:Montserrat;-inkscape-font-specification:Montserrat-Bold;writing-mode:lr-tb;fill:#ffffff;fill-opacity:1;fill-rule:nonzero;stroke:none"
       id="text356"><tspan
         x="0 6.2600002 14.54 22.620001"
         y="0"
         sodipodi:role="line"
         id="tspan354">JAVA</tspan></text><g
       id="g358"><g
         id="g360"
         clip-path="url(#clipPath364)"><path
           d="m 63.046,138.204 h 49.111 v 49.111 H 63.046 Z m 50.111,-1 H 62.046 v 51.111 h 51.111 z"
           style="fill:#00a2f7;fill-opacity:1;fill-rule:nonzero;stroke:none"
           id="path366" /><path
           d="M 108.671,141.689 H 66.532 v 42.14 h 42.139 z"
           style="fill:#00a2f7;fill-opacity:1;fill-rule:nonzero;stroke:none"
           id="path368" /></g></g><text
       transform="matrix(1,0,0,-1,73.8242,158.2803)"
       style="font-variant:normal;font-weight:bold;font-stretch:normal;font-size:11px;font-family:Montserrat;-inkscape-font-specification:Montserrat-Bold;writing-mode:lr-tb;fill:#ffffff;fill-opacity:1;fill-rule:nonzero;stroke:none"
       id="text372"><tspan
         x="0 9.0419998 19.031099"
         y="0"
         sodipodi:role="line"
         id="tspan370">PHP</tspan></text><g
       id="g374"><g
         id="g376"
         clip-path="url(#clipPath380)"><path
           d="m 120.696,78.892 h 60.84 v 60.84 h -60.84 z m 61.84,-1 h -62.84 v 62.84 h 62.84 z"
           style="fill:#8944f7;fill-opacity:1;fill-rule:nonzero;stroke:none"
           id="path382" /><path
           d="m 177.117,83.311 h -52.002 v 52.003 h 52.002 z"
           style="fill:#8944f7;fill-opacity:1;fill-rule:nonzero;stroke:none"
           id="path384" /></g></g><text
       transform="matrix(1,0,0,-1,135.1333,104.8071)"
       style="font-variant:normal;font-weight:bold;font-stretch:normal;font-size:15px;font-family:Montserrat;-inkscape-font-specification:Montserrat-Bold;writing-mode:lr-tb;fill:#ffffff;fill-opacity:1;fill-rule:nonzero;stroke:none"
       id="text388"><tspan
         x="0 12.405 22.98"
         y="0"
         sodipodi:role="line"
         id="tspan386">C++</tspan></text><g
       id="g390"><g
         id="g392"
         clip-path="url(#clipPath396)"><path
           d="M 49.404,62.848 H 90.33 v 40.927 H 49.404 Z m 41.926,-1 H 48.404 v 42.927 H 91.33 Z"
           style="fill:#fec556;fill-opacity:1;fill-rule:nonzero;stroke:none"
           id="path398" /><path
           d="M 87.495,65.683 H 52.239 v 35.256 h 35.256 z"
           style="fill:#fec556;fill-opacity:1;fill-rule:nonzero;stroke:none"
           id="path400" /></g></g><text
       transform="matrix(1,0,0,-1,58.9292,79.5625)"
       style="font-variant:normal;font-weight:bold;font-stretch:normal;font-size:12px;font-family:Montserrat;-inkscape-font-specification:Montserrat-Bold;writing-mode:lr-tb;fill:#003b98;fill-opacity:1;fill-rule:nonzero;stroke:none"
       id="text404"><tspan
         x="0 8.3879995 14.292"
         y="0"
         sodipodi:role="line"
         id="tspan402">&lt;/&gt;</tspan></text><g
       id="g406"><g
         id="g408"
         clip-path="url(#clipPath412)"><g
           id="g414"
           transform="translate(140.0703,409.334)"><path
             d="M 0,0 -8.557,-3.135 0,-6.244 v -3.211 l -12.231,4.65 v 3.34 L 0,3.186 Z"
             style="fill:#8ed8ff;fill-opacity:1;fill-rule:nonzero;stroke:none"
             id="path416" /></g><g
           id="g418"
           transform="translate(151.8369,418.8408)"><path
             d="M 0,0 H 3.572 L -4.906,-24.204 H -8.479 Z"
             style="fill:#8ed8ff;fill-opacity:1;fill-rule:nonzero;stroke:none"
             id="path420" /></g><g
           id="g422"
           transform="translate(170.6709,407.8691)"><path
             d="m 0,0 v -3.34 l -12.23,-4.65 v 3.211 l 8.556,3.109 -8.556,3.135 V 4.65 Z"
             style="fill:#8ed8ff;fill-opacity:1;fill-rule:nonzero;stroke:none"
             id="path424" /></g><g
           id="g426"
           transform="translate(221.085,439.5352)"><path
             d="m 0,0 h -3.75 v 3.75 h -2 V 0 H -9.5 v -2 h 3.75 v -3.75 h 2 V -2 H 0 Z"
             style="fill:#8ed8ff;fill-opacity:1;fill-rule:nonzero;stroke:none"
             id="path428" /></g><g
           id="g430"
           transform="translate(430.2461,371.4697)"><path
             d="m 0,0 h -3.75 v 3.75 h -2 V 0 H -9.5 v -2 h 3.75 v -3.75 h 2 V -2 H 0 Z"
             style="fill:#8ed8ff;fill-opacity:1;fill-rule:nonzero;stroke:none"
             id="path432" /></g><g
           id="g434"
           transform="translate(461.0703,280.1113)"><path
             d="m 0,0 h -3.75 v 3.75 h -2 V 0 H -9.5 v -2 h 3.75 v -3.75 h 2 V -2 H 0 Z"
             style="fill:#8ed8ff;fill-opacity:1;fill-rule:nonzero;stroke:none"
             id="path436" /></g><g
           id="g438"
           transform="translate(81.6074,444.2852)"><path
             d="m 0,0 h -3.75 v 3.75 h -2 V 0 H -9.5 v -2 h 3.75 v -3.75 h 2 V -2 H 0 Z"
             style="fill:#8ed8ff;fill-opacity:1;fill-rule:nonzero;stroke:none"
             id="path440" /></g><g
           id="g442"
           transform="translate(61.6265,338.1025)"><path
             d="m 0,0 h -3.75 v 3.75 h -2 V 0 H -9.5 v -2 h 3.75 v -3.75 h 2 V -2 H 0 Z"
             style="fill:#8ed8ff;fill-opacity:1;fill-rule:nonzero;stroke:none"
             id="path444" /></g><g
           id="g446"
           transform="translate(456.3203,233.7598)"><path
             d="m 0,0 h -3.75 v 3.75 h -2 V 0 H -9.5 v -2 h 3.75 v -3.75 h 2 V -2 H 0 Z"
             style="fill:#8ed8ff;fill-opacity:1;fill-rule:nonzero;stroke:none"
             id="path448" /></g><g
           id="g450"
           transform="translate(54.0059,242.2344)"><path
             d="m 0,0 h -3.75 v 3.75 h -2 V 0 H -9.5 v -2 h 3.75 v -3.75 h 2 V -2 H 0 Z"
             style="fill:#8ed8ff;fill-opacity:1;fill-rule:nonzero;stroke:none"
             id="path452" /></g><g
           id="g454"
           transform="translate(260.6348,96.7031)"><path
             d="m 0,0 h -3.75 v 3.75 h -2 V 0 H -9.5 v -2 h 3.75 v -3.75 h 2 V -2 H 0 Z"
             style="fill:#8ed8ff;fill-opacity:1;fill-rule:nonzero;stroke:none"
             id="path456" /></g><g
           id="g458"
           transform="translate(361.6357,62.8477)"><path
             d="m 0,0 h -3.75 v 3.75 h -2 V 0 H -9.5 v -2 h 3.75 v -3.75 h 2 V -2 H 0 Z"
             style="fill:#8ed8ff;fill-opacity:1;fill-rule:nonzero;stroke:none"
             id="path460" /></g><g
           id="g462"><g
             id="g464" /><g
             id="g496"><g
               clip-path="url(#clipPath468)"
               opacity="0.5"
               id="g494"><g
                 transform="translate(307.8555,106.7822)"
                 id="g472"><path
                   d="m 0,0 c -11.087,0 -20.107,-9.021 -20.107,-20.107 0,-11.088 9.02,-20.109 20.107,-20.109 11.087,0 20.107,9.021 20.107,20.109 C 20.107,-9.021 11.087,0 0,0 m 0,-41.216 c -11.639,0 -21.107,9.469 -21.107,21.109 C -21.107,-8.469 -11.639,1 0,1 11.639,1 21.107,-8.469 21.107,-20.107 21.107,-31.747 11.639,-41.216 0,-41.216"
                   style="fill:#00a2f7;fill-opacity:1;fill-rule:nonzero;stroke:none"
                   id="path470" /></g><g
                 transform="translate(456.3213,177.7471)"
                 id="g476"><path
                   d="m 0,0 c -6.524,0 -11.832,-5.308 -11.832,-11.831 0,-6.525 5.308,-11.832 11.832,-11.832 6.523,0 11.831,5.307 11.831,11.832 C 11.831,-5.308 6.523,0 0,0 m 0,-24.663 c -7.075,0 -12.832,5.756 -12.832,12.832 C -12.832,-4.757 -7.075,1 0,1 7.075,1 12.831,-4.757 12.831,-11.831 12.831,-18.907 7.075,-24.663 0,-24.663"
                   style="fill:#00a2f7;fill-opacity:1;fill-rule:nonzero;stroke:none"
                   id="path474" /></g><g
                 transform="translate(419.1191,100.542)"
                 id="g480"><path
                   d="m 0,0 c -5.287,0 -9.589,-4.301 -9.589,-9.588 0,-5.288 4.302,-9.59 9.589,-9.59 5.287,0 9.588,4.302 9.588,9.59 C 9.588,-4.301 5.287,0 0,0 m 0,-20.178 c -5.839,0 -10.589,4.751 -10.589,10.59 C -10.589,-3.75 -5.839,1 0,1 5.838,1 10.588,-3.75 10.588,-9.588 c 0,-5.839 -4.75,-10.59 -10.588,-10.59"
                   style="fill:#00a2f7;fill-opacity:1;fill-rule:nonzero;stroke:none"
                   id="path478" /></g><g
                 transform="translate(62.0459,424.5024)"
                 id="g484"><path
                   d="m 0,0 c -11.087,0 -20.107,-9.02 -20.107,-20.107 0,-11.088 9.02,-20.109 20.107,-20.109 11.087,0 20.107,9.021 20.107,20.109 C 20.107,-9.02 11.087,0 0,0 m 0,-41.216 c -11.639,0 -21.107,9.469 -21.107,21.109 C -21.107,-8.469 -11.639,1 0,1 11.639,1 21.107,-8.469 21.107,-20.107 21.107,-31.747 11.639,-41.216 0,-41.216"
                   style="fill:#00a2f7;fill-opacity:1;fill-rule:nonzero;stroke:none"
                   id="path482" /></g><g
                 transform="translate(156.4194,460.2285)"
                 id="g488"><path
                   d="m 0,0 c -6.524,0 -11.832,-5.308 -11.832,-11.832 0,-6.524 5.308,-11.832 11.832,-11.832 6.523,0 11.831,5.308 11.831,11.832 C 11.831,-5.308 6.523,0 0,0 m 0,-24.664 c -7.076,0 -12.832,5.757 -12.832,12.832 C -12.832,-4.756 -7.076,1 0,1 7.075,1 12.831,-4.756 12.831,-11.832 12.831,-18.907 7.075,-24.664 0,-24.664"
                   style="fill:#00a2f7;fill-opacity:1;fill-rule:nonzero;stroke:none"
                   id="path486" /></g><g
                 transform="translate(54.021,289.7227)"
                 id="g492"><path
                   d="m 0,0 c -4.878,0 -8.847,-3.968 -8.847,-8.846 0,-4.878 3.969,-8.847 8.847,-8.847 4.877,0 8.846,3.969 8.846,8.847 C 8.846,-3.968 4.877,0 0,0 m 0,-18.693 c -5.43,0 -9.847,4.417 -9.847,9.847 C -9.847,-3.417 -5.43,1 0,1 c 5.429,0 9.846,-4.417 9.846,-9.846 0,-5.43 -4.417,-9.847 -9.846,-9.847"
                   style="fill:#00a2f7;fill-opacity:1;fill-rule:nonzero;stroke:none"
                   id="path490" /></g></g></g></g></g></g></g></svg>
